<?xml version="1.0" standalone="no"?>
<!DOCTYPE svg PUBLIC "-//W3C//DTD SVG 1.1//EN" "http://www.w3.org/Graphics/SVG/1.1/DTD/svg11.dtd" >
<svg xmlns="http://www.w3.org/2000/svg" xmlns:xlink="http://www.w3.org/1999/xlink" version="1.1">
<metadata>
Created by FontForge 20170731 at Mon Apr  9 14:47:58 2018
 By Aleksey,,,
(c) 2018 Natanael Gama
</metadata>
<defs>
<font id="Point-Regular" horiz-adv-x="0" >
  <font-face 
    font-family="Point Regular"
    font-weight="500"
    font-stretch="normal"
    units-per-em="2048"
    panose-1="0 0 6 0 0 0 0 0 0 0"
    ascent="1638"
    descent="-410"
    x-height="991"
    cap-height="1372"
    bbox="-1559 -506 2435 1935"
    underline-thickness="0"
    underline-position="0"
    unicode-range="U+0020-FB02"
  />
<missing-glyph horiz-adv-x="1679" 
d="M104 1475h1473v-1475l-1475 2zM1413 164v1147h-1145v-1147h1145zM1249 1147v-819h-819v819h819zM1085 492v491h-491v-491h491zM922 819v-164h-164v164h164z" />
    <glyph glyph-name="uniFB01" unicode="fi" horiz-adv-x="1390" 
d="M641 1337q-111 0 -167 -63.5t-56 -163.5v-119h375v-155h-375v-836h-195v836h-192v155h192v135q0 160 103.5 266.5t285.5 106.5q106 0 201 -39l-22 -155q-72 32 -150 32zM1124.5 1176q-51.5 0 -89.5 36.5t-38 88t38 88t89.5 36.5t88 -36.5t36.5 -88t-36.5 -88t-88 -36.5z
M1026 0v991h195v-991h-195z" />
    <glyph glyph-name="uniFB02" unicode="fl" horiz-adv-x="1390" 
d="M641 1337q-111 0 -167 -63.5t-56 -163.5v-119h375v-155h-375v-836h-195v836h-192v155h192v135q0 160 103.5 266.5t285.5 106.5q106 0 201 -39l-22 -155q-72 32 -150 32zM1026 1475h195v-1475h-195v1475z" />
    <glyph glyph-name=".notdef" horiz-adv-x="1679" 
d="M104 1475h1473v-1475l-1475 2zM1413 164v1147h-1145v-1147h1145zM1249 1147v-819h-819v819h819zM1085 492v491h-491v-491h491zM922 819v-164h-164v164h164z" />
    <glyph glyph-name="glyph1" 
 />
    <glyph glyph-name="glyph2" horiz-adv-x="681" 
 />
    <glyph glyph-name="space" unicode=" " horiz-adv-x="473" 
 />
    <glyph glyph-name="exclam" unicode="!" horiz-adv-x="567" 
d="M186 457v915h195v-915h-195zM284.5 -25q-59.5 0 -102.5 42t-43 100q0 59 43 101t102.5 42t101.5 -42t42 -101q0 -57 -42 -99.5t-101.5 -42.5z" />
    <glyph glyph-name="quotedbl" unicode="&#x22;" horiz-adv-x="854" 
d="M162 1372h166v-448h-166v448zM528 1372h166v-448h-166v448z" />
    <glyph glyph-name="numbersign" unicode="#" horiz-adv-x="1488" 
d="M1430 881h-281v-389h281v-156h-281v-336h-184v336h-441v-336h-184v336h-281v156h281v389h-281v157h281v334h184v-334h441v334h184v-334h281v-157zM965 492v389h-441v-389h441z" />
    <glyph glyph-name="dollar" unicode="$" horiz-adv-x="1259" 
d="M1118 369q0 -178 -114.5 -277.5t-303.5 -114.5v-188h-143v191q-186 16 -314 116.5t-145 286.5h203q27 -193 256 -229v467q-213 66 -320.5 151.5t-107.5 245.5q0 170 118 268t310 109v176h143v-180q162 -20 271.5 -114.5t126.5 -270.5h-199q-27 170 -199 211v-451
q102 -31 161 -55.5t126.5 -69.5t99 -112.5t31.5 -159.5zM330 1026q0 -84 59.5 -132t167.5 -83v416q-96 -10 -161.5 -61.5t-65.5 -139.5zM700 152q94 14 156 64t62 138q0 82 -55.5 132.5t-162.5 88.5v-423z" />
    <glyph glyph-name="percent" unicode="%" horiz-adv-x="1658" 
d="M412 721q-141 0 -239.5 99.5t-98.5 240.5q0 139 98 237.5t240 98.5q139 0 237.5 -98.5t98.5 -237.5q0 -141 -98.5 -240.5t-237.5 -99.5zM246 -2l950 1374h203l-953 -1374h-200zM412 885q72 0 123 51t51 125q0 72 -51.5 123t-123 51t-123.5 -51t-52 -123q0 -76 51 -126
t125 -50zM1249 -25q-141 0 -239.5 98.5t-98.5 239.5q0 139 98.5 238.5t239.5 99.5q139 0 237.5 -99t98.5 -239q0 -141 -98.5 -239.5t-237.5 -98.5zM1249 135q74 0 125 52.5t51 126t-51 123.5t-124.5 50t-125 -50t-51.5 -124q0 -76 50 -127t126 -51z" />
    <glyph glyph-name="ampersand" unicode="&#x26;" horiz-adv-x="1323" 
d="M1376 0h-239q-33 29 -79 69t-59 50q-178 -143 -426 -144q-215 0 -347 103.5t-132 271.5q0 127 75 213t206 156q-154 184 -154 346q0 145 106.5 237.5t278.5 92.5q164 0 270.5 -87t106.5 -239q0 -141 -89 -226t-249 -163q55 -55 174 -166l174 -160q96 135 97 291h165
q0 -217 -139 -405q49 -45 113.5 -105.5t99.5 -92.5t47 -42zM397 1061q0 -104 138 -262q133 63 201.5 121.5t68.5 144.5q0 82 -60.5 127t-140.5 45q-86 0 -146.5 -50t-60.5 -126zM580 143q164 0 292 93q-16 14 -73.5 67t-106.5 98q-184 174 -209 199q-96 -51 -148 -106.5
t-52 -133.5q0 -96 81 -156.5t216 -60.5z" />
    <glyph glyph-name="quotesingle" unicode="'" horiz-adv-x="468" 
d="M162 1372h166v-448h-166v448z" />
    <glyph glyph-name="parenleft" unicode="(" horiz-adv-x="813" 
d="M795 1298q-213 -96 -344.5 -305t-131.5 -471q0 -258 132.5 -471t343.5 -305v-197q-295 104 -482.5 376t-187.5 597q0 330 186.5 597t483.5 376v-197z" />
    <glyph glyph-name="parenright" unicode=")" horiz-adv-x="813" 
d="M18 1298v197q297 -109 483.5 -376t186.5 -597q0 -326 -187.5 -597t-482.5 -376v197q211 92 343.5 305t132.5 471q0 262 -131.5 471t-344.5 305z" />
    <glyph glyph-name="asterisk" unicode="*" horiz-adv-x="919" 
d="M401 719v276l-239 -139l-58 102l238 140l-238 137l58 102l239 -139v277h117v-277l240 139l57 -102l-237 -137l237 -140l-57 -102l-240 139v-276h-117z" />
    <glyph glyph-name="plus" unicode="+" horiz-adv-x="1064" 
d="M952 778v-166h-336v-336h-165v336h-336v166h336v336h165v-336h336z" />
    <glyph glyph-name="comma" unicode="," horiz-adv-x="466" 
d="M182 227h195l-125 -563h-137z" />
    <glyph glyph-name="hyphen" unicode="-" horiz-adv-x="806" 
d="M692 584v-166h-577v166h577z" />
    <glyph glyph-name="period" unicode="." horiz-adv-x="530" 
d="M264.5 -25q-59.5 0 -101.5 42t-42 100q0 59 42 101t101.5 42t102.5 -42t43 -101q0 -57 -43 -99.5t-102.5 -42.5z" />
    <glyph glyph-name="slash" unicode="/" horiz-adv-x="864" 
d="M563 1475h205l-545 -1926h-205z" />
    <glyph glyph-name="zero" unicode="0" horiz-adv-x="1286" 
d="M645 -25q-209 0 -354.5 144.5t-145.5 347.5v440q0 203 145.5 346.5t354.5 143.5q205 0 350.5 -143.5t145.5 -346.5v-440q0 -203 -145.5 -347.5t-350.5 -144.5zM645 154q121 0 209 86t88 215v463q0 127 -86 214t-211 87t-212 -86t-87 -215v-463q0 -129 88 -215t211 -86z
" />
    <glyph glyph-name="one" unicode="1" horiz-adv-x="847" 
d="M387 0v1128l-297 -135v191l389 188h111v-1372h-203z" />
    <glyph glyph-name="two" unicode="2" horiz-adv-x="1187" 
d="M137 0v109l527 573q66 72 97.5 110.5t59 97t27.5 116.5q0 94 -74 164.5t-182 70.5q-115 0 -191.5 -75.5t-76.5 -192.5h-195q0 188 132 306t333 118q193 0 320.5 -111.5t127.5 -273.5q0 -115 -51 -202t-160 -204l-401 -434h660v-172h-953z" />
    <glyph glyph-name="three" unicode="3" horiz-adv-x="1181" 
d="M588 -25q-217 0 -343 118t-126 306h194q0 -115 75 -191.5t202 -76.5q131 0 205.5 75t74.5 187.5t-80.5 183t-209.5 70.5h-160v146h160q100 0 171.5 64.5t71.5 162.5q0 94 -65.5 157.5t-177.5 63.5q-109 0 -173.5 -63.5t-64.5 -159.5h-195q0 166 123 272.5t316 106.5
q188 0 309 -99.5t121 -250.5q0 -113 -67.5 -200t-180.5 -122q135 -31 216 -123t81 -225q0 -176 -130 -289t-347 -113z" />
    <glyph glyph-name="four" unicode="4" horiz-adv-x="1157" 
d="M1116 530v-145h-190v-385h-197v385h-686v115l743 872h140v-842h190zM276 530h453v547z" />
    <glyph glyph-name="five" unicode="5" horiz-adv-x="1200" 
d="M612 -25q-203 0 -345 121t-142 299l199 13q6 -113 89 -187t201 -74q117 0 199 85t82 202q0 119 -83 204t-198 85q-141 0 -254 -115l-176 74l97 690h698v-164h-543l-53 -415q113 96 264 96q184 0 317.5 -134t133.5 -322.5t-142.5 -323t-343.5 -134.5z" />
    <glyph glyph-name="six" unicode="6" horiz-adv-x="1200" 
d="M614.5 -25q-202.5 0 -347 139.5t-144.5 331.5q0 143 80 285l364 641h213l-288 -508q80 29 167 29q184 0 316.5 -133t132.5 -316q0 -193 -145.5 -331t-348 -138zM616 152q123 0 210 88t87 209q0 123 -87 209.5t-209.5 86.5t-210 -88t-87.5 -208q0 -125 86 -211t211 -86z
" />
    <glyph glyph-name="seven" unicode="7" horiz-adv-x="1044" 
d="M303 0l424 1196h-637v176h858v-108l-442 -1264h-203z" />
    <glyph glyph-name="eight" unicode="8" horiz-adv-x="1191" 
d="M598.5 -25q-192.5 0 -328 123t-135.5 303q2 127 74 229.5t194 143.5q-88 35 -140 113t-50 174q4 141 114.5 238.5t270.5 97.5t270.5 -98.5t110.5 -243.5q0 -92 -50 -167t-138 -114q123 -41 194.5 -143.5t71.5 -231.5q0 -178 -133 -301t-325.5 -123zM598 836
q84 0 142.5 58t58.5 142t-58.5 142.5t-142.5 58.5t-144.5 -58.5t-60.5 -142.5t59.5 -142t145.5 -58zM598 152q111 0 186.5 75.5t75.5 188.5q0 109 -76.5 185.5t-185.5 76.5q-111 0 -188.5 -76t-79.5 -186q0 -111 77.5 -187.5t190.5 -76.5z" />
    <glyph glyph-name="nine" unicode="9" horiz-adv-x="1179" 
d="M580 1397q201 0 340 -135.5t139 -323.5q0 -137 -76 -276l-356 -662h-213l297 543q-72 -31 -176 -31q-178 0 -308.5 127t-130.5 299q0 188 143.5 323.5t340.5 135.5zM577.5 1221q-118.5 0 -201.5 -84t-83 -203q0 -115 83 -195t201.5 -80t202.5 80t84 195q0 119 -84 203
t-202.5 84z" />
    <glyph glyph-name="colon" unicode=":" horiz-adv-x="530" 
d="M264.5 735q-59.5 0 -101.5 42t-42 99.5t42 100.5t101.5 43t102.5 -42t43 -101q0 -57 -43 -99.5t-102.5 -42.5zM264.5 -25q-59.5 0 -101.5 42t-42 100q0 59 42 101t101.5 42t102.5 -42t43 -101q0 -57 -43 -99.5t-102.5 -42.5z" />
    <glyph glyph-name="semicolon" unicode=";" horiz-adv-x="530" 
d="M264.5 735q-59.5 0 -101.5 42t-42 99.5t42 100.5t101.5 43t102.5 -42t43 -101q0 -57 -43 -99.5t-102.5 -42.5zM197 227h194l-125 -563h-137z" />
    <glyph glyph-name="less" unicode="&#x3c;" horiz-adv-x="993" 
d="M868 1126v-176l-585 -252l585 -249v-179l-782 344v170z" />
    <glyph glyph-name="equal" unicode="=" horiz-adv-x="1103" 
d="M971 983v-166h-838v166h838zM971 573v-165h-838v165h838z" />
    <glyph glyph-name="greater" unicode="&#x3e;" horiz-adv-x="993" 
d="M125 1126l782 -342v-170l-782 -344v179l586 249l-586 252v176z" />
    <glyph glyph-name="question" unicode="?" horiz-adv-x="1036" 
d="M412 381v76q0 82 36.5 142t89 97t103.5 73t88 92.5t37 131.5q0 100 -72.5 170t-175.5 70q-109 0 -182.5 -76t-73.5 -196h-194q0 182 131 307t315 125t316.5 -118t132.5 -284q0 -90 -37 -158.5t-89.5 -110.5t-104.5 -79t-89 -86t-37 -108v-68h-194zM510 -25q-55 0 -95 39
t-40 95q0 53 40 92t95 39q53 0 94 -39t41 -92q0 -55 -40 -94.5t-95 -39.5z" />
    <glyph glyph-name="at" unicode="@" horiz-adv-x="1947" 
d="M965 -422q-356 0 -616.5 252t-260.5 610q0 356 261 607t646 251q381 0 623 -247.5t242 -597.5q0 -205 -85 -326t-227 -121q-98 0 -171.5 57.5t-96.5 157.5h-2q-37 -96 -133 -153.5t-209 -57.5q-166 0 -291 122t-125 302t126 302t288 122q100 0 189 -46t122 -116h2l8 142
h150v-476q0 -96 37 -151t98 -55q145 0 146 282q0 313 -193 507t-496 194q-317 0 -526 -204t-209 -495q0 -295 209 -499.5t500 -204.5q203 0 356 112l88 -131q-196 -139 -450 -139zM964.5 164q110.5 0 190.5 79t80 191q0 111 -80 189.5t-190.5 78.5t-190.5 -78.5t-80 -189
t80 -190.5t190.5 -80z" />
    <glyph glyph-name="A" unicode="A" horiz-adv-x="1466" 
d="M1247 0l-157 328h-713l-158 -328h-213l682 1376h90l680 -1376h-211zM446 475h574l-287 598z" />
    <glyph glyph-name="B" unicode="B" horiz-adv-x="1300" 
d="M186 0v1372h594q150 0 256.5 -103.5t106.5 -254.5q0 -92 -44 -168t-120 -113q106 -35 172 -125t66 -211q0 -170 -118 -283.5t-298 -113.5h-615zM383 797h360q86 0 146.5 62.5t60.5 150.5q0 84 -63.5 142t-155.5 58h-348v-413zM383 162h387q104 0 178 70.5t74 168.5
q0 102 -76 172t-186 70h-377v-481z" />
    <glyph glyph-name="C" unicode="C" horiz-adv-x="1624" 
d="M1524 477q-68 -219 -260.5 -360.5t-434.5 -141.5q-303 0 -517 209t-214 502t214 502t517 209q242 0 434.5 -141.5t260.5 -360.5h-213q-61 141 -191.5 229t-290.5 88q-219 0 -372.5 -153.5t-153.5 -372.5t153.5 -372.5t372.5 -153.5q160 0 291 88t193 229h211z" />
    <glyph glyph-name="D" unicode="D" horiz-adv-x="1595" 
d="M186 0v1372h600q293 0 502 -201.5t209 -484.5t-209 -484.5t-502 -201.5h-600zM391 184h395q209 0 357.5 147.5t148.5 354.5t-148.5 353.5t-357.5 146.5h-395v-1002z" />
    <glyph glyph-name="E" unicode="E" horiz-adv-x="1290" 
d="M391 172h764v-172h-969v1372h949v-172h-744v-426h723v-162h-723v-440z" />
    <glyph glyph-name="F" unicode="F" horiz-adv-x="1257" 
d="M1135 1200h-744v-450h715v-162h-715v-588h-205v1372h949v-172z" />
    <glyph glyph-name="G" unicode="G" horiz-adv-x="1638" 
d="M1554 737q4 -41 5 -69q-4 -289 -214 -491t-516 -202q-303 0 -517 209t-214 502t214 502t517 209q219 0 400.5 -113t273.5 -299l-217 -14q-74 113 -194.5 179.5t-262.5 66.5q-217 0 -371.5 -155t-154.5 -374t156.5 -373.5t378.5 -154.5q199 0 344 117.5t182 297.5h-578
v162h768z" />
    <glyph glyph-name="H" unicode="H" horiz-adv-x="1574" 
d="M1186 1372h203v-1372h-203v608h-795v-608h-205v1372h205v-594h795v594z" />
    <glyph glyph-name="I" unicode="I" horiz-adv-x="577" 
d="M186 0v1372h205v-1372h-205z" />
    <glyph glyph-name="J" unicode="J" horiz-adv-x="1222" 
d="M1057 1372v-930q0 -190 -138.5 -328.5t-330.5 -138.5q-195 0 -339.5 138.5t-144.5 328.5v47h205v-47q0 -115 81 -198.5t190 -83.5q111 0 191.5 84t80.5 198v758h-571v172h776z" />
    <glyph glyph-name="K" unicode="K" horiz-adv-x="1331" 
d="M186 0v1372h205v-622h2l643 622h252l-688 -670l692 -702h-254l-645 651h-2v-651h-205z" />
    <glyph glyph-name="L" unicode="L" horiz-adv-x="1177" 
d="M391 172h715v-172h-920v1372h205v-1200z" />
    <glyph glyph-name="M" unicode="M" horiz-adv-x="1865" 
d="M186 0v1372h138l608 -809l610 809h137v-1372h-196v989l-510 -686h-82l-508 686v-989h-197z" />
    <glyph glyph-name="N" unicode="N" horiz-adv-x="1587" 
d="M1223 1372h178v-1376h-98l-936 1036v-1032h-181v1376h99l938 -1036v1032z" />
    <glyph glyph-name="O" unicode="O" horiz-adv-x="1656" 
d="M829 -25q-303 0 -517 209t-214 502t214 502t517 209q301 0 515.5 -209t214.5 -502t-214.5 -502t-515.5 -209zM829 160q217 0 371 154.5t154 371.5t-153.5 371.5t-371.5 154.5q-219 0 -372.5 -153.5t-153.5 -372.5t153.5 -372.5t372.5 -153.5z" />
    <glyph glyph-name="P" unicode="P" horiz-adv-x="1351" 
d="M805 483h-424v-483h-195v1372h629q186 0 314 -127t128 -317q0 -188 -127.5 -316.5t-324.5 -128.5zM381 1210v-565h379q129 0 216 81t87 202q0 119 -85 200.5t-208 81.5h-389z" />
    <glyph glyph-name="Q" unicode="Q" horiz-adv-x="1656" 
d="M1567 -59l-135 -129l-238 260q-166 -96 -365 -97q-303 0 -517 209t-214 502t214 502t517 209q301 0 515.5 -209t214.5 -502q0 -295 -216 -504zM829 160q119 0 234 55l-232 252l136 125l245 -266q141 152 142 360q0 217 -153.5 371.5t-371.5 154.5q-219 0 -372.5 -153.5
t-153.5 -372.5t153.5 -372.5t372.5 -153.5z" />
    <glyph glyph-name="R" unicode="R" horiz-adv-x="1390" 
d="M1307 0h-222l-331 524h-373v-524h-195v1372h643q178 0 302 -123t124 -305q0 -143 -82.5 -252.5t-220.5 -148.5zM381 1210v-532h393q121 0 204 76.5t83 189.5t-81 189.5t-196 76.5h-403z" />
    <glyph glyph-name="S" unicode="S" horiz-adv-x="1200" 
d="M637 -25q-135 0 -248 38t-195.5 133.5t-95.5 236.5h203q16 -125 115.5 -180.5t218.5 -55.5q115 0 199 51.5t84 155.5q0 45 -19.5 82t-46.5 61.5t-78 48t-90 36t-106 32.5q-109 33 -180.5 64t-138 77t-98.5 111.5t-32 151.5q0 180 131 279.5t342 99.5q199 0 337 -94.5
t159 -296.5h-199q-20 117 -104 170t-191 53q-109 0 -191.5 -51.5t-82.5 -151.5q0 -43 19.5 -79t43 -57.5t75.5 -44t81 -32.5t96 -31q225 -70 301 -114q172 -100 172 -299q0 -193 -134 -293.5t-347 -100.5z" />
    <glyph glyph-name="T" unicode="T" horiz-adv-x="1214" 
d="M1174 1372v-172h-463v-1200h-205v1200h-465v172h1133z" />
    <glyph glyph-name="U" unicode="U" horiz-adv-x="1544" 
d="M782 -25q-252 0 -432 174.5t-180 417.5v805h205v-805q0 -170 119.5 -288.5t287.5 -118.5q162 0 274.5 118.5t112.5 288.5v805h205v-805q0 -244 -174 -418t-418 -174z" />
    <glyph glyph-name="V" unicode="V" horiz-adv-x="1445" 
d="M16 1372h213l494 -1059l494 1059h210l-659 -1376h-90z" />
    <glyph glyph-name="W" unicode="W" horiz-adv-x="2189" 
d="M608 0l-538 1372h211l385 -993l387 993h86l387 -993l383 993h211l-539 -1372h-88l-397 1026l-402 -1026h-86z" />
    <glyph glyph-name="X" unicode="X" horiz-adv-x="1462" 
d="M57 0l561 705l-532 667h242l403 -512l404 512h241l-532 -667l561 -705h-240l-434 547l-434 -547h-240z" />
    <glyph glyph-name="Y" unicode="Y" horiz-adv-x="1435" 
d="M1423 1372l-604 -903v-469h-203v469l-604 903h234l471 -706l473 706h233z" />
    <glyph glyph-name="Z" unicode="Z" horiz-adv-x="1312" 
d="M129 0v80l780 1120h-766v172h1041v-80l-774 -1120h794v-172h-1075z" />
    <glyph glyph-name="bracketleft" unicode="[" horiz-adv-x="798" 
d="M776 1309h-395v-1594h395v-166h-590v1926h590v-166z" />
    <glyph glyph-name="backslash" unicode="\" horiz-adv-x="864" 
d="M299 1475l545 -1926h-205l-545 1926h205z" />
    <glyph glyph-name="bracketright" unicode="]" horiz-adv-x="798" 
d="M612 1475v-1926h-589v166h395v1594h-395v166h589z" />
    <glyph glyph-name="asciicircum" unicode="^" horiz-adv-x="1118" 
d="M1001 528h-186l-256 275l-256 -275h-188l358 402h172z" />
    <glyph glyph-name="underscore" unicode="_" horiz-adv-x="1173" 
d="M-2 0h1178v-176h-1178v176z" />
    <glyph glyph-name="grave" unicode="`" horiz-adv-x="1228" 
d="M397 1143l-262 330h178l265 -330h-181z" />
    <glyph glyph-name="a" unicode="a" horiz-adv-x="1347" 
d="M600 -25q-203 0 -357.5 149.5t-154.5 371t154.5 371t357.5 149.5q131 0 241.5 -69.5t151.5 -180.5h4l7 225h174v-991h-174l-7 225h-4q-43 -113 -153.5 -181.5t-239.5 -68.5zM632.5 147q145.5 0 247 102.5t101.5 246t-101.5 246t-247 102.5t-247.5 -102.5t-102 -246
t102 -246t247.5 -102.5z" />
    <glyph glyph-name="b" unicode="b" horiz-adv-x="1345" 
d="M365 1475v-709h4q39 111 147.5 180.5t235.5 69.5q203 0 354 -148.5t151 -369.5q0 -223 -151.5 -373t-355.5 -150q-129 0 -242 70t-154 180h-4l-8 -225h-172v1475h195zM713 147q145 0 247.5 102.5t102.5 246t-102.5 246t-247.5 102.5q-143 0 -245.5 -102.5t-102.5 -246
t102.5 -246t245.5 -102.5z" />
    <glyph glyph-name="c" unicode="c" horiz-adv-x="1220" 
d="M1133 340q-35 -156 -175.5 -260.5t-322.5 -104.5q-225 0 -386 153t-161 368t161 367.5t386 152.5q184 0 323.5 -103.5t174.5 -259.5h-201q-29 84 -112 138.5t-187 54.5q-145 0 -247.5 -103.5t-102.5 -247t103 -246t247 -102.5q104 0 185 53.5t116 139.5h199z" />
    <glyph glyph-name="d" unicode="d" horiz-adv-x="1345" 
d="M981 1475h195v-1475h-172l-9 225h-4q-41 -111 -153.5 -180.5t-241.5 -69.5q-205 0 -356.5 149.5t-151.5 373.5q0 221 151.5 369.5t354.5 148.5q127 0 235.5 -69.5t147.5 -180.5h4v709zM632.5 147q145.5 0 247 102.5t101.5 246t-101.5 246t-247 102.5t-247.5 -102.5
t-102 -246t102 -246t247.5 -102.5z" />
    <glyph glyph-name="e" unicode="e" horiz-adv-x="1234" 
d="M643 139q98 0 184 39t117 105h193q-55 -139 -194.5 -223.5t-309.5 -84.5q-231 0 -388 149.5t-157 373.5q0 217 149.5 367.5t385.5 150.5q246 0 392 -166t146 -416h-878q23 -133 121 -214t239 -81zM623 852q-139 0 -227.5 -75t-110.5 -193h676q-27 125 -115 196.5
t-223 71.5z" />
    <glyph glyph-name="f" unicode="f" horiz-adv-x="856" 
d="M418 1110v-119h375v-155h-375v-836h-195v836h-192v155h192v135q0 160 103.5 266.5t285.5 106.5q106 0 201 -39l-22 -155q-72 33 -150 32q-111 0 -167 -63.5t-56 -163.5z" />
    <glyph glyph-name="g" unicode="g" horiz-adv-x="1378" 
d="M664 -471q-190 0 -332 93t-193 263h207q39 -92 125 -143t193 -51q154 0 256 97t102 251v225l-2 6q-39 -117 -151.5 -186.5t-245.5 -69.5q-201 0 -350.5 142.5t-149.5 357.5q0 211 152.5 356.5t353.5 145.5q131 0 242.5 -68.5t152.5 -181.5h4l6 225h174v-932
q0 -242 -155.5 -386t-388.5 -144zM678 172q139 0 238.5 100.5t99.5 243.5q0 135 -100.5 235.5t-242 100.5t-242.5 -99.5t-101 -240.5q0 -137 102.5 -238.5t245.5 -101.5z" />
    <glyph glyph-name="h" unicode="h" horiz-adv-x="1310" 
d="M170 0v1475h195v-713h4q39 115 135 184.5t211 69.5q199 0 321.5 -136.5t122.5 -342.5v-537h-194v518q0 135 -85 229.5t-216 94.5q-123 0 -211 -98.5t-88 -235.5v-508h-195z" />
    <glyph glyph-name="i" unicode="i" horiz-adv-x="534" 
d="M268 1176q-51 0 -89 36.5t-38 88t38 88t89 36.5t88 -36.5t37 -88t-37 -88t-88 -36.5zM170 0v991h195v-991h-195z" />
    <glyph glyph-name="j" unicode="j" horiz-adv-x="540" 
d="M274.5 1176q-51.5 0 -89.5 36.5t-38 88t38 88t89.5 36.5t89 -36.5t37.5 -88t-37.5 -88t-89 -36.5zM47 -471q-70 0 -119 25v157q57 -20 101 -20q74 0 110.5 47t36.5 121v1132h195v-1122q0 -147 -87 -243.5t-237 -96.5z" />
    <glyph glyph-name="k" unicode="k" horiz-adv-x="1124" 
d="M170 0v1475h195v-883h4l454 399h246l-510 -452l539 -539h-250l-479 487h-4v-487h-195z" />
    <glyph glyph-name="l" unicode="l" horiz-adv-x="534" 
d="M170 0v1475h195v-1475h-195z" />
    <glyph glyph-name="m" unicode="m" horiz-adv-x="1970" 
d="M1386 1016q193 0 314 -131t121 -326v-559h-197v549q0 123 -74.5 208t-189.5 85q-111 0 -189.5 -89t-78.5 -214v-539h-195v549q0 121 -76 207t-190 86q-109 0 -187.5 -89t-78.5 -214v-539h-195v991h172l12 -207h2q39 104 129 168t197 64q117 0 208 -56.5t142 -152.5
q116 209 354 209z" />
    <glyph glyph-name="n" unicode="n" horiz-adv-x="1310" 
d="M170 0v991h172l12 -229h2q43 115 141.5 184.5t217.5 69.5q199 0 321.5 -136.5t122.5 -342.5v-537h-194v518q0 135 -85 229.5t-216 94.5q-123 0 -211 -98.5t-88 -235.5v-508h-195z" />
    <glyph glyph-name="o" unicode="o" horiz-adv-x="1265" 
d="M633 -25q-225 0 -385 153t-160 368t160 367.5t385 152.5t384 -152.5t159 -367.5t-159 -368t-384 -153zM632.5 147q143.5 0 246 102.5t102.5 246t-102.5 246t-245.5 102.5q-145 0 -247.5 -102.5t-102.5 -246t103 -246t246.5 -102.5z" />
    <glyph glyph-name="p" unicode="p" horiz-adv-x="1345" 
d="M170 -451v1442h172l8 -225h4q41 113 152.5 181.5t241.5 68.5q203 0 356 -149.5t153 -371t-151.5 -371t-349.5 -149.5q-131 0 -239.5 71t-147.5 179h-4v-676h-195zM712.5 147q143.5 0 247 102.5t103.5 246t-102.5 246t-247.5 102.5q-143 0 -245.5 -102.5t-102.5 -246
t102 -246t245.5 -102.5z" />
    <glyph glyph-name="q" unicode="q" horiz-adv-x="1345" 
d="M1176 -451h-195v676h-4q-39 -109 -147.5 -179.5t-239.5 -70.5q-199 0 -350.5 149.5t-151.5 371t153.5 371t356.5 149.5q129 0 240.5 -68.5t152.5 -181.5h4l9 225h172v-1442zM632.5 147q143.5 0 246 102.5t102.5 246t-102.5 246t-245.5 102.5q-145 0 -247.5 -102.5
t-102.5 -246t103 -246t246.5 -102.5z" />
    <glyph glyph-name="r" unicode="r" horiz-adv-x="798" 
d="M170 0v991h172l12 -268h2q41 135 144.5 211t230.5 78v-176q-166 0 -266 -109t-100 -276v-451h-195z" />
    <glyph glyph-name="s" unicode="s" horiz-adv-x="1103" 
d="M582 -25q-188 0 -321.5 79t-139.5 233h209q10 -154 245 -154q221 0 222 129q0 18 -4.5 33.5t-15.5 29t-21.5 22.5t-30.5 18.5t-34.5 15.5t-42 13t-44 11.5t-48.5 11.5t-48 11q-74 16 -127 36.5t-109.5 54.5t-87 87t-30.5 125q0 135 111.5 210t289.5 75q170 0 297 -73
t133 -224h-201q-6 72 -72.5 105.5t-152.5 33.5t-144.5 -30.5t-58.5 -94.5q0 -31 15.5 -54.5t35 -37.5t62.5 -28.5t70.5 -21.5t87.5 -20q88 -18 142 -35.5t116.5 -51t93.5 -86t31 -126.5q0 -143 -121 -220t-307 -77z" />
    <glyph glyph-name="t" unicode="t" horiz-adv-x="874" 
d="M631 152q68 0 160 32v-170q-70 -39 -191 -39q-180 0 -281.5 113t-101.5 281v467h-201v155h201v277h195v-277h376v-155h-376v-451q0 -102 55 -167.5t164 -65.5z" />
    <glyph glyph-name="u" unicode="u" horiz-adv-x="1282" 
d="M1112 991v-991h-172l-12 229h-2q-41 -115 -136.5 -184.5t-209.5 -69.5q-190 0 -309 137.5t-119 342.5v536h194v-520q0 -137 81 -229t204 -92q117 0 202 96t85 235v510h194z" />
    <glyph glyph-name="v" unicode="v" horiz-adv-x="1112" 
d="M510 0l-494 991h213l328 -696l326 696h213l-494 -991h-92z" />
    <glyph glyph-name="w" unicode="w" horiz-adv-x="1765" 
d="M467 0l-459 991h213l303 -665l312 665h92l309 -665l305 665h213l-459 -991h-88l-327 698l-326 -698h-88z" />
    <glyph glyph-name="x" unicode="x" horiz-adv-x="1157" 
d="M1108 0h-223l-305 367l-308 -367h-223l420 504l-406 487h224l293 -350l292 350h224l-406 -487z" />
    <glyph glyph-name="y" unicode="y" horiz-adv-x="1122" 
d="M152 -451l313 594l-438 848h213l325 -659l328 659h213l-748 -1442h-206z" />
    <glyph glyph-name="z" unicode="z" horiz-adv-x="1130" 
d="M109 0v80l630 749h-608v162h879v-80l-625 -747h645v-164h-921z" />
    <glyph glyph-name="braceleft" unicode="{" horiz-adv-x="817" 
d="M621 -463q-139 0 -238.5 97.5t-99.5 234.5v438q0 53 -36 90t-87 37h-76v164h76q51 0 87 37t36 90v428q0 137 99 234.5t239 97.5h163v-176h-133q-68 0 -117 -49.5t-49 -118.5v-430q0 -66 -36.5 -121t-104.5 -74q70 -23 105.5 -76t35.5 -118v-441q0 -70 49.5 -119
t116.5 -49h133v-176h-163z" />
    <glyph glyph-name="bar" unicode="|" horiz-adv-x="567" 
d="M186 1475h195v-1926h-195v1926z" />
    <glyph glyph-name="braceright" unicode="}" horiz-adv-x="817" 
d="M197 -463h-164v176h133q68 0 117 49.5t49 118.5v441q0 66 35.5 119t105.5 75q-68 18 -104.5 73.5t-36.5 121.5v430q0 70 -49.5 119t-116.5 49h-133v176h164q139 0 238.5 -97.5t99.5 -234.5v-428q0 -53 35.5 -90t86.5 -37h76v-164h-76q-51 0 -86.5 -37t-35.5 -90v-438
q0 -137 -99.5 -234.5t-238.5 -97.5z" />
    <glyph glyph-name="asciitilde" unicode="~" horiz-adv-x="1087" 
d="M850 856h115q-4 -143 -60.5 -223t-142.5 -80q-70 0 -210 89t-196 89q-51 0 -83.5 -46t-34.5 -126h-113q2 152 63.5 232.5t159.5 80.5q82 0 217 -88t183 -88q43 0 71.5 42t30.5 118z" />
    <glyph glyph-name="exclamdown" unicode="&#xa1;" horiz-adv-x="567" 
d="M284.5 1020q59.5 0 101.5 -42t42 -99q0 -59 -42 -101.5t-101.5 -42.5t-102.5 42t-43 102q0 57 43 99t102.5 42zM186 539h195v-916h-195v916z" />
    <glyph glyph-name="cent" unicode="&#xa2;" horiz-adv-x="1167" 
d="M700 154q82 14 143.5 64t90.5 122h199q-31 -141 -151 -241.5t-282 -118.5v-228h-143v230q-199 27 -334 173t-135 340.5t135 341t334 173.5v196h143v-194q162 -18 281 -117.5t152 -241.5h-201q-25 70 -87.5 120t-144.5 67v-686zM283 495.5q0 -122.5 78.5 -218
t195.5 -121.5v682q-119 -27 -196.5 -123.5t-77.5 -219z" />
    <glyph glyph-name="sterling" unicode="&#xa3;" horiz-adv-x="1292" 
d="M440 172h795v-172h-1188v172h197v375h-150v153h150v256q0 184 133 312.5t336 128.5q195 0 332 -129t137 -312h-195q0 113 -80 194t-194 81q-117 0 -195 -80t-78 -195v-256h508v-153h-508v-375z" />
    <glyph glyph-name="currency" unicode="&#xa4;" horiz-adv-x="1212" 
d="M1075 709q0 -158 -96 -287l117 -129l-123 -111l-117 129q-113 -74 -252 -73q-135 0 -252 71l-116 -121l-119 115l112 119q-96 127 -96 287q0 156 92 280l-110 121l123 113l110 -121q115 76 256 76t256 -76l113 127l123 -111l-115 -127q94 -122 94 -282zM289 709
q0 -131 92 -223.5t223 -92.5t223.5 92.5t92.5 223.5t-92.5 223t-223.5 92t-223 -92t-92 -223z" />
    <glyph glyph-name="yen" unicode="&#xa5;" horiz-adv-x="1435" 
d="M1423 1372l-477 -713h330v-151h-430l-27 -39v-119h457v-151h-457v-199h-203v199h-458v151h458v119l-26 39h-432v151h331l-477 713h234l471 -706l473 706h233z" />
    <glyph glyph-name="brokenbar" unicode="&#xa6;" horiz-adv-x="567" 
d="M186 1475h195v-791h-195v791zM186 340h195v-791h-195v791z" />
    <glyph glyph-name="section" unicode="&#xa7;" horiz-adv-x="1112" 
d="M920 453q96 -66 96 -181q0 -143 -122 -220t-323 -77q-188 0 -321 76t-146 228h207q10 -86 89 -127t163 -41q104 0 173 38.5t69 112.5q0 78 -70.5 113t-236.5 69.5t-266.5 99t-100.5 193.5q0 119 100 193q-100 70 -100 188q0 131 118 205t306 74q176 0 299 -73t137 -222
h-200q-14 90 -82 128t-150 38q-94 0 -159.5 -37t-65.5 -109q0 -78 72.5 -115.5t220.5 -64.5q82 -14 141 -32.5t120.5 -51.5t94.5 -84t33 -121q0 -122 -96 -200zM315 741.5q0 -77.5 80 -119.5t232 -69q72 -14 121 -27q76 41 75 117q0 78 -76.5 118t-248.5 75q-33 6 -99 22
q-84 -39 -84 -116.5z" />
    <glyph glyph-name="dieresis" unicode="&#xa8;" horiz-adv-x="1228" 
d="M266 1184q-47 0 -81.5 34.5t-34.5 82t34.5 81t81.5 33.5t82 -33.5t35 -81t-35 -82t-82 -34.5zM694 1184q-47 0 -81.5 34.5t-34.5 82t34.5 81t81.5 33.5t82 -33.5t35 -81t-35 -82t-82 -34.5z" />
    <glyph glyph-name="copyright" unicode="&#xa9;" horiz-adv-x="1624" 
d="M811 -25q-295 0 -502 208t-207 503t207 503t502 208t503 -208t208 -503t-208 -503t-503 -208zM811 119q236 0 401.5 166t165.5 401.5t-165.5 401t-401.5 165.5t-401.5 -165.5t-165.5 -401t165.5 -401.5t401.5 -166zM821 289q-166 0 -283.5 115.5t-117.5 277.5
t117.5 278.5t283.5 116.5q133 0 235.5 -78.5t129.5 -197.5h-148q-23 61 -83 101t-136 40q-104 0 -178 -77t-74 -183.5t74 -183t178 -76.5q76 0 135.5 39t83.5 102h148q-23 -117 -126.5 -195.5t-238.5 -78.5z" />
    <glyph glyph-name="ordfeminine" unicode="&#xaa;" horiz-adv-x="940" 
d="M418 588q-141 0 -250 105.5t-109 261t108.5 261t250.5 105.5q88 0 162.5 -45t103.5 -117h2l4 144h141v-699h-141l-4 144h-2q-31 -72 -105.5 -116t-160.5 -44zM444.5 725q94.5 0 161 67.5t66.5 162t-66.5 161t-161 66.5t-161 -66.5t-66.5 -161t66.5 -162t161 -67.5z" />
    <glyph glyph-name="guillemotleft" unicode="&#xab;" horiz-adv-x="1171" 
d="M625 872l-338 -372l338 -373h-217l-347 373l347 372h217zM1087 872l-337 -372l337 -373h-217l-346 373l346 372h217z" />
    <glyph glyph-name="logicalnot" unicode="&#xac;" horiz-adv-x="1122" 
d="M115 778h837v-440h-170v274h-667v166z" />
    <glyph glyph-name="registered" unicode="&#xae;" horiz-adv-x="1286" 
d="M645 1399q229 0 393 -165t164 -396.5t-164 -395t-393 -163.5q-231 0 -396 163.5t-165 395t165 396.5t396 165zM645 397q180 0 306 129t126 312q0 180 -127 311t-305 131t-307 -131t-129 -311q0 -182 128 -311.5t308 -129.5zM895 926q0 -123 -119 -168l148 -203h-154
l-131 188h-94v-188h-137v557h290q82 0 139.5 -52t57.5 -134zM539 844h125q41 0 68.5 24.5t27.5 57.5q0 31 -27.5 56.5t-66.5 25.5h-127v-164z" />
    <glyph glyph-name="macron" unicode="&#xaf;" horiz-adv-x="1228" 
d="M135 1251v127h633v-127h-633z" />
    <glyph glyph-name="degree" unicode="&#xb0;" horiz-adv-x="813" 
d="M405.5 741q-137.5 0 -232.5 95.5t-95 232.5t95 232.5t232.5 95.5t232.5 -95.5t95 -232.5t-95 -232.5t-232.5 -95.5zM406 897q74 0 123 49t49 123q0 72 -49.5 122t-122.5 50q-72 0 -122.5 -50t-50.5 -122q0 -74 50.5 -123t122.5 -49z" />
    <glyph glyph-name="plusminus" unicode="&#xb1;" horiz-adv-x="1103" 
d="M635 870h336v-137h-336v-311h-166v311h-336v137h336v312h166v-312zM133 190v138h838v-138h-838z" />
    <glyph glyph-name="uni00B2" unicode="&#xb2;" horiz-adv-x="757" 
d="M72 942v80l346 362q115 111 114 187q0 55 -44 94t-109 39q-70 0 -118 -43t-48 -111h-147q0 123 89 197t224 74q131 0 217 -70t86 -174q0 -72 -35 -127t-100 -121l-256 -258h418v-129h-637z" />
    <glyph glyph-name="uni00B3" unicode="&#xb3;" horiz-adv-x="757" 
d="M381 928q-147 0 -232.5 74.5t-85.5 195.5h148q0 -63 47 -108.5t125 -45.5q80 0 126 42t46 108t-50 105.5t-130 39.5h-107v111h107q59 0 105 37t46 92t-41 90t-108.5 35t-107.5 -35t-40 -90h-147q0 106 84 174t213 68q127 0 210 -61.5t83 -157.5q0 -70 -43 -125.5
t-117 -77.5q88 -23 139 -80t51 -139q0 -109 -88 -180.5t-233 -71.5z" />
    <glyph glyph-name="acute" unicode="&#xb4;" horiz-adv-x="1228" 
d="M313 1143h-178l262 330h181z" />
    <glyph glyph-name="mu" unicode="&#xb5;" horiz-adv-x="1300" 
d="M936 991h194v-991h-172l-12 229h-2q-41 -115 -136 -184.5t-210 -69.5q-154 0 -262 93v-519h-166v1442h195v-520q0 -137 80.5 -229t203.5 -92q117 0 202 96t85 235v510z" />
    <glyph glyph-name="paragraph" unicode="&#xb6;" horiz-adv-x="1560" 
d="M1374 1372v-1372h-203v1217h-165v-1217h-195v483h-264q-197 0 -325 128t-128 317q0 190 128 317t315 127h837zM811 641v576h-231q-121 0 -206 -84t-85 -205t87 -204t216 -83h219z" />
    <glyph glyph-name="periodcentered" unicode="&#xb7;" horiz-adv-x="530" 
d="M264.5 580q-59.5 0 -101.5 42t-42 99t42 100t101.5 43t102.5 -42t43 -101q0 -57 -43 -99t-102.5 -42z" />
    <glyph glyph-name="cedilla" unicode="&#xb8;" horiz-adv-x="1228" 
d="M332 -467q-115 0 -195 72l64 96q57 -47 118 -47q41 0 69 21.5t28 58.5q0 29 -21.5 51t-54.5 22q-29 0 -61 -24l-82 80l53 137h125l-39 -94q25 4 37 4q78 0 129 -51.5t51 -128.5q0 -84 -63.5 -140.5t-157.5 -56.5z" />
    <glyph glyph-name="uni00B9" unicode="&#xb9;" horiz-adv-x="524" 
d="M225 942v696l-190 -75v127l264 116h78v-864h-152z" />
    <glyph glyph-name="ordmasculine" unicode="&#xba;" horiz-adv-x="888" 
d="M444.5 588q-157.5 0 -271.5 107.5t-114 259t113 259t272.5 107.5t272 -107.5t112.5 -259t-113.5 -259t-271 -107.5zM444 725q94 0 161 67.5t67 161.5q0 92 -66.5 160t-161 68t-161 -67.5t-66.5 -160.5q0 -94 67.5 -161.5t159.5 -67.5z" />
    <glyph glyph-name="guillemotright" unicode="&#xbb;" horiz-adv-x="1171" 
d="M84 872h217l346 -372l-346 -373h-217l338 373zM547 872h217l346 -372l-346 -373h-217l338 373z" />
    <glyph glyph-name="onequarter" unicode="&#xbc;" horiz-adv-x="1611" 
d="M225 512v696l-190 -75v127l264 116h78v-864h-152zM209 -2l950 1374h162l-952 -1374h-160zM1597 342v-111h-120v-231h-144v231h-454v88l493 545h105v-522h120zM1040 342h297v330z" />
    <glyph glyph-name="onehalf" unicode="&#xbd;" horiz-adv-x="1783" 
d="M225 512v696l-190 -75v127l264 116h78v-864h-152zM209 -2l950 1374h162l-952 -1374h-160zM1098 0v80l346 362q115 111 115 187q0 55 -44.5 94t-109.5 39q-70 0 -118 -43t-48 -111h-147q0 123 89 197t224 74q131 0 217 -70t86 -174q0 -72 -35 -127t-100 -121l-256 -258
h418v-129h-637z" />
    <glyph glyph-name="threequarters" unicode="&#xbe;" horiz-adv-x="1835" 
d="M381 498q-147 0 -232.5 74.5t-85.5 195.5h148q0 -63 47 -108.5t125 -45.5q80 0 126 42t46 107.5t-50 105.5t-130 40h-107v111h107q59 0 105 37t46 92t-41 90t-108.5 35t-107.5 -35t-40 -90h-147q0 106 84 174t213 68q127 0 210 -61.5t83 -158.5q0 -70 -43 -125t-117 -77
q88 -23 139 -80.5t51 -138.5q0 -109 -88 -180.5t-233 -71.5zM432 -2l950 1374h162l-952 -1374h-160zM1821 342v-111h-121v-231h-144v231h-454v88l493 545h105v-522h121zM1264 342h297v330z" />
    <glyph glyph-name="questiondown" unicode="&#xbf;" horiz-adv-x="1036" 
d="M526.5 1018q55.5 0 95.5 -39t40 -94q0 -53 -40 -92t-96 -39q-53 0 -94 38.5t-41 92.5q0 55 40 94t95.5 39zM625 612v-75q0 -82 -37 -142.5t-89.5 -97.5t-103.5 -73t-88 -92t-37 -132q0 -100 73 -170t175 -70q109 0 182.5 76t73.5 197h195q0 -182 -131 -307t-315.5 -125
t-316.5 117.5t-132 283.5q0 90 36.5 158.5t89 110.5t104.5 79t89 86t37 109v67h195z" />
    <glyph glyph-name="Agrave" unicode="&#xc0;" horiz-adv-x="1466" 
d="M881 1524h-181l-262 329h178zM1247 0l-157 328h-713l-158 -328h-213l682 1376h90l680 -1376h-211zM446 475h574l-287 598z" />
    <glyph glyph-name="Aacute" unicode="&#xc1;" horiz-adv-x="1466" 
d="M1057 1853l-264 -329h-179l263 329h180zM1247 0l-157 328h-713l-158 -328h-213l682 1376h90l680 -1376h-211zM446 475h574l-287 598z" />
    <glyph glyph-name="Acircumflex" unicode="&#xc2;" horiz-adv-x="1466" 
d="M733 1739l-194 -215h-177l285 329h172l285 -329h-176zM1247 0l-157 328h-713l-158 -328h-213l682 1376h90l680 -1376h-211zM446 475h574l-287 598z" />
    <glyph glyph-name="Atilde" unicode="&#xc3;" horiz-adv-x="1466" 
d="M594 1722q-45 0 -77 -50t-34 -122h-112q2 152 63.5 233t159.5 81q55 0 101 -28t73 -60.5t57.5 -60t59.5 -27.5q39 0 65.5 46t28.5 113h115q-4 -143 -60.5 -223t-142.5 -80q-49 0 -93 27.5t-73 61.5t-64.5 61.5t-66.5 27.5zM1247 0l-157 328h-713l-158 -328h-213l682 1376
h90l680 -1376h-211zM446 475h574l-287 598z" />
    <glyph glyph-name="Adieresis" unicode="&#xc4;" horiz-adv-x="1466" 
d="M518 1565q-47 0 -82 34.5t-35 82t35 81t82 33.5t82 -33.5t35 -81t-35 -82t-82 -34.5zM946 1565q-47 0 -82 34.5t-35 82t35 81t82 33.5t82 -33.5t35 -81t-35 -82t-82 -34.5zM1247 0l-157 328h-713l-158 -328h-213l682 1376h90l680 -1376h-211zM446 475h574l-287 598z" />
    <glyph glyph-name="Aring" unicode="&#xc5;" horiz-adv-x="1466" 
d="M733 1468q-94 0 -161.5 65.5t-67.5 156t67.5 155t161.5 64.5t162 -64.5t68 -155t-68 -156t-162 -65.5zM733 1800q-47 0 -79.5 -31.5t-32.5 -79t32.5 -80t79.5 -32.5t80 32.5t33 80t-33 79t-80 31.5zM1247 0l-157 328h-713l-158 -328h-213l682 1376h90l680 -1376h-211z
M446 475h574l-287 598z" />
    <glyph glyph-name="AE" unicode="&#xc6;" horiz-adv-x="1994" 
d="M1188 172h674v-172h-858v328h-594l-211 -328h-213l919 1372h936v-172h-653v-426h633v-162h-633v-440zM506 475h498v770z" />
    <glyph glyph-name="Ccedilla" unicode="&#xc7;" horiz-adv-x="1624" 
d="M829 160q160 0 291 88t193 229h211q-66 -211 -246 -350t-414 -152l-28 -69q25 4 36 4q78 0 129.5 -51.5t51.5 -128.5q0 -84 -63.5 -140.5t-158.5 -56.5q-115 0 -194 72l63 96q57 -47 119 -47q41 0 68.5 21.5t27.5 58.5q0 29 -21.5 51t-53.5 22q-29 0 -62 -24l-82 80
l45 117q-272 33 -457.5 234.5t-185.5 471.5q0 293 214 502t517 209q242 0 434.5 -141.5t260.5 -360.5h-213q-61 141 -191.5 229t-290.5 88q-219 0 -372.5 -153.5t-153.5 -372.5t153.5 -372.5t372.5 -153.5z" />
    <glyph glyph-name="Egrave" unicode="&#xc8;" horiz-adv-x="1290" 
d="M817 1524h-180l-262 329h178zM391 172h764v-172h-969v1372h949v-172h-744v-426h723v-162h-723v-440z" />
    <glyph glyph-name="Eacute" unicode="&#xc9;" horiz-adv-x="1290" 
d="M993 1853l-264 -329h-178l262 329h180zM391 172h764v-172h-969v1372h949v-172h-744v-426h723v-162h-723v-440z" />
    <glyph glyph-name="Ecircumflex" unicode="&#xca;" horiz-adv-x="1290" 
d="M670 1739l-195 -215h-176l285 329h172l284 -329h-176zM391 172h764v-172h-969v1372h949v-172h-744v-426h723v-162h-723v-440z" />
    <glyph glyph-name="Edieresis" unicode="&#xcb;" horiz-adv-x="1290" 
d="M455 1565q-47 0 -82 34.5t-35 82t35 81t82 33.5t81.5 -33.5t34.5 -81t-34.5 -82t-81.5 -34.5zM883 1565q-47 0 -82 34.5t-35 82t35 81t82 33.5t81.5 -33.5t34.5 -81t-34.5 -82t-81.5 -34.5zM391 172h764v-172h-969v1372h949v-172h-744v-426h723v-162h-723v-440z" />
    <glyph glyph-name="Igrave" unicode="&#xcc;" horiz-adv-x="577" 
d="M256 1524l-262 329h178l264 -329h-180zM186 0v1372h205v-1372h-205z" />
    <glyph glyph-name="Iacute" unicode="&#xcd;" horiz-adv-x="577" 
d="M348 1524h-178l262 329h180zM186 0v1372h205v-1372h-205z" />
    <glyph glyph-name="Icircumflex" unicode="&#xce;" horiz-adv-x="577" 
d="M659 1524h-176l-194 215l-195 -215h-176l285 329h172zM186 0v1372h205v-1372h-205z" />
    <glyph glyph-name="Idieresis" unicode="&#xcf;" horiz-adv-x="577" 
d="M74 1565q-47 0 -82 34.5t-35 82t35 81t82 33.5t81.5 -33.5t34.5 -81t-34.5 -82t-81.5 -34.5zM502 1565q-47 0 -82 34.5t-35 82t35 81t82 33.5t81.5 -33.5t34.5 -81t-34.5 -82t-81.5 -34.5zM186 0v1372h205v-1372h-205z" />
    <glyph glyph-name="Eth" unicode="&#xd0;" horiz-adv-x="1595" 
d="M786 1372q293 0 502 -201.5t209 -484.5t-209 -484.5t-502 -201.5h-600v616h-174v138h174v618h600zM786 184q209 0 357.5 147.5t148.5 354.5t-148.5 353.5t-357.5 146.5h-395v-432h350v-138h-350v-432h395z" />
    <glyph glyph-name="Ntilde" unicode="&#xd1;" horiz-adv-x="1587" 
d="M1040 1847h115q-4 -143 -60.5 -223t-142.5 -80q-49 0 -93 27.5t-72.5 61.5t-64.5 61.5t-67 27.5q-45 0 -76.5 -50t-33.5 -122h-113q2 152 63.5 233t159.5 81q55 0 101.5 -28t73 -60.5t57.5 -60t59 -27.5q39 0 65.5 45.5t28.5 113.5zM1223 1372h178v-1376h-98l-936 1036
v-1032h-181v1376h99l938 -1036v1032z" />
    <glyph glyph-name="Ograve" unicode="&#xd2;" horiz-adv-x="1656" 
d="M797 1524l-262 329h178l264 -329h-180zM829 -25q-303 0 -517 209t-214 502t214 502t517 209q301 0 515.5 -209t214.5 -502t-214.5 -502t-515.5 -209zM829 160q217 0 371 154.5t154 371.5t-153.5 371.5t-371.5 154.5q-219 0 -372.5 -153.5t-153.5 -372.5t153.5 -372.5
t372.5 -153.5z" />
    <glyph glyph-name="Oacute" unicode="&#xd3;" horiz-adv-x="1656" 
d="M889 1524h-178l262 329h180zM829 -25q-303 0 -517 209t-214 502t214 502t517 209q301 0 515.5 -209t214.5 -502t-214.5 -502t-515.5 -209zM829 160q217 0 371 154.5t154 371.5t-153.5 371.5t-371.5 154.5q-219 0 -372.5 -153.5t-153.5 -372.5t153.5 -372.5t372.5 -153.5z
" />
    <glyph glyph-name="Ocircumflex" unicode="&#xd4;" horiz-adv-x="1656" 
d="M1200 1524h-176l-195 215l-194 -215h-176l284 329h172zM829 -25q-303 0 -517 209t-214 502t214 502t517 209q301 0 515.5 -209t214.5 -502t-214.5 -502t-515.5 -209zM829 160q217 0 371 154.5t154 371.5t-153.5 371.5t-371.5 154.5q-219 0 -372.5 -153.5t-153.5 -372.5
t153.5 -372.5t372.5 -153.5z" />
    <glyph glyph-name="Otilde" unicode="&#xd5;" horiz-adv-x="1656" 
d="M1075 1847h115q-4 -143 -60.5 -223t-142.5 -80q-49 0 -93 27.5t-72.5 61.5t-64.5 61.5t-67 27.5q-45 0 -76.5 -50t-33.5 -122h-113q2 152 63.5 233t159.5 81q55 0 101.5 -28t73 -60.5t57 -60t59.5 -27.5q39 0 65.5 45.5t28.5 113.5zM829 -25q-303 0 -517 209t-214 502
t214 502t517 209q301 0 515.5 -209t214.5 -502t-214.5 -502t-515.5 -209zM829 160q217 0 371 154.5t154 371.5t-153.5 371.5t-371.5 154.5q-219 0 -372.5 -153.5t-153.5 -372.5t153.5 -372.5t372.5 -153.5z" />
    <glyph glyph-name="Odieresis" unicode="&#xd6;" horiz-adv-x="1656" 
d="M614.5 1565q-47.5 0 -82 34.5t-34.5 82t34.5 81t82 33.5t82 -33.5t34.5 -81t-34.5 -82t-82 -34.5zM1042.5 1565q-47.5 0 -82 34.5t-34.5 82t34.5 81t82 33.5t82 -33.5t34.5 -81t-34.5 -82t-82 -34.5zM829 -25q-303 0 -517 209t-214 502t214 502t517 209q301 0 515.5 -209
t214.5 -502t-214.5 -502t-515.5 -209zM829 160q217 0 371 154.5t154 371.5t-153.5 371.5t-371.5 154.5q-219 0 -372.5 -153.5t-153.5 -372.5t153.5 -372.5t372.5 -153.5z" />
    <glyph glyph-name="multiply" unicode="&#xd7;" horiz-adv-x="1073" 
d="M262 303l-117 119l273 272l-273 275l117 116l275 -272l272 272l119 -116l-275 -275l275 -272l-119 -119l-272 275z" />
    <glyph glyph-name="Oslash" unicode="&#xd8;" horiz-adv-x="1656" 
d="M1337 1196q221 -211 222 -510q0 -293 -214.5 -502t-515.5 -209q-223 0 -403 119l-78 -94h-184l151 182q-217 207 -217 504q0 293 214 502t517 209q213 0 398 -115l73 90h183zM303 686q0 -205 137 -354l664 803q-127 78 -275 77q-219 0 -372.5 -153.5t-153.5 -372.5z
M829 160q217 0 371 154.5t154 371.5q0 207 -142 358l-665 -802q130 -82 282 -82z" />
    <glyph glyph-name="Ugrave" unicode="&#xd9;" horiz-adv-x="1544" 
d="M739 1524l-262 329h178l265 -329h-181zM782 -25q-252 0 -432 174.5t-180 417.5v805h205v-805q0 -170 119.5 -288.5t287.5 -118.5q162 0 274.5 118.5t112.5 288.5v805h205v-805q0 -244 -174 -418t-418 -174z" />
    <glyph glyph-name="Uacute" unicode="&#xda;" horiz-adv-x="1544" 
d="M831 1524h-178l262 329h181zM782 -25q-252 0 -432 174.5t-180 417.5v805h205v-805q0 -170 119.5 -288.5t287.5 -118.5q162 0 274.5 118.5t112.5 288.5v805h205v-805q0 -244 -174 -418t-418 -174z" />
    <glyph glyph-name="Ucircumflex" unicode="&#xdb;" horiz-adv-x="1544" 
d="M1143 1524h-176l-195 215l-194 -215h-177l285 329h172zM782 -25q-252 0 -432 174.5t-180 417.5v805h205v-805q0 -170 119.5 -288.5t287.5 -118.5q162 0 274.5 118.5t112.5 288.5v805h205v-805q0 -244 -174 -418t-418 -174z" />
    <glyph glyph-name="Udieresis" unicode="&#xdc;" horiz-adv-x="1544" 
d="M557 1565q-47 0 -82 34.5t-35 82t35 81t82 33.5t82 -33.5t35 -81t-35 -82t-82 -34.5zM985 1565q-47 0 -82 34.5t-35 82t35 81t82 33.5t82 -33.5t35 -81t-35 -82t-82 -34.5zM782 -25q-252 0 -432 174.5t-180 417.5v805h205v-805q0 -170 119.5 -288.5t287.5 -118.5
q162 0 274.5 118.5t112.5 288.5v805h205v-805q0 -244 -174 -418t-418 -174z" />
    <glyph glyph-name="Yacute" unicode="&#xdd;" horiz-adv-x="1435" 
d="M1040 1853l-264 -329h-178l262 329h180zM1423 1372l-604 -903v-469h-203v469l-604 903h234l471 -706l473 706h233z" />
    <glyph glyph-name="Thorn" unicode="&#xde;" horiz-adv-x="1308" 
d="M762 252h-381v-252h-195v1372h185v-233h401q186 0 314 -127t128 -315.5t-127.5 -316.5t-324.5 -128zM381 983v-575h336q129 0 216 83.5t87 204.5q0 119 -85 203t-208 84h-346z" />
    <glyph glyph-name="germandbls" unicode="&#xdf;" horiz-adv-x="1329" 
d="M786 -25q-172 0 -258 62v192q104 -82 228 -82q125 0 202.5 74t77.5 190.5t-82 192.5t-204 76h-134v149h105q100 0 168.5 73t68.5 177q0 106 -72.5 177t-197.5 71q-137 0 -209.5 -86t-72.5 -215v-1026h-195v1026q0 213 130 343t347 130q205 0 336 -115.5t131 -296.5
q0 -115 -52 -198.5t-124 -116.5q121 -37 191.5 -139.5t70.5 -241.5q0 -188 -123 -302t-332 -114z" />
    <glyph glyph-name="agrave" unicode="&#xe0;" horiz-adv-x="1347" 
d="M618 1143l-262 330h179l264 -330h-181zM600 -25q-203 0 -357.5 149.5t-154.5 371t154.5 371t357.5 149.5q131 0 241.5 -69.5t151.5 -180.5h4l7 225h174v-991h-174l-7 225h-4q-43 -113 -153.5 -181.5t-239.5 -68.5zM632.5 147q145.5 0 247 102.5t101.5 246t-101.5 246
t-247 102.5t-247.5 -102.5t-102 -246t102 -246t247.5 -102.5z" />
    <glyph glyph-name="aacute" unicode="&#xe1;" horiz-adv-x="1347" 
d="M711 1143h-179l263 330h180zM600 -25q-203 0 -357.5 149.5t-154.5 371t154.5 371t357.5 149.5q131 0 241.5 -69.5t151.5 -180.5h4l7 225h174v-991h-174l-7 225h-4q-43 -113 -153.5 -181.5t-239.5 -68.5zM632.5 147q145.5 0 247 102.5t101.5 246t-101.5 246t-247 102.5
t-247.5 -102.5t-102 -246t102 -246t247.5 -102.5z" />
    <glyph glyph-name="acircumflex" unicode="&#xe2;" horiz-adv-x="1347" 
d="M1022 1143h-176l-195 215l-194 -215h-176l284 330h172zM600 -25q-203 0 -357.5 149.5t-154.5 371t154.5 371t357.5 149.5q131 0 241.5 -69.5t151.5 -180.5h4l7 225h174v-991h-174l-7 225h-4q-43 -113 -153.5 -181.5t-239.5 -68.5zM632.5 147q145.5 0 247 102.5t101.5 246
t-101.5 246t-247 102.5t-247.5 -102.5t-102 -246t102 -246t247.5 -102.5z" />
    <glyph glyph-name="atilde" unicode="&#xe3;" horiz-adv-x="1347" 
d="M897 1466h115q-4 -143 -60.5 -223t-142.5 -80q-49 0 -93 28t-73 61.5t-64.5 61t-66.5 27.5q-45 0 -77 -50t-34 -122h-112q2 152 63.5 233t159.5 81q55 0 101 -28t73 -60.5t57.5 -60t59.5 -27.5q39 0 65.5 45.5t28.5 113.5zM600 -25q-203 0 -357.5 149.5t-154.5 371
t154.5 371t357.5 149.5q131 0 241.5 -69.5t151.5 -180.5h4l7 225h174v-991h-174l-7 225h-4q-43 -113 -153.5 -181.5t-239.5 -68.5zM632.5 147q145.5 0 247 102.5t101.5 246t-101.5 246t-247 102.5t-247.5 -102.5t-102 -246t102 -246t247.5 -102.5z" />
    <glyph glyph-name="adieresis" unicode="&#xe4;" horiz-adv-x="1347" 
d="M436 1184q-47 0 -82 34.5t-35 82t35 81t82 33.5t82 -33.5t35 -81t-35 -82t-82 -34.5zM864 1184q-47 0 -81.5 34.5t-34.5 82t34.5 81t81.5 33.5t82 -33.5t35 -81t-35 -82t-82 -34.5zM600 -25q-203 0 -357.5 149.5t-154.5 371t154.5 371t357.5 149.5q131 0 241.5 -69.5
t151.5 -180.5h4l7 225h174v-991h-174l-7 225h-4q-43 -113 -153.5 -181.5t-239.5 -68.5zM632.5 147q145.5 0 247 102.5t101.5 246t-101.5 246t-247 102.5t-247.5 -102.5t-102 -246t102 -246t247.5 -102.5z" />
    <glyph glyph-name="aring" unicode="&#xe5;" horiz-adv-x="1347" 
d="M651 1087q-94 0 -161.5 66t-67.5 156t67.5 154.5t161.5 64.5t162 -64.5t68 -154.5t-68 -156t-162 -66zM651 1196q47 0 80 33t33 80t-33 78.5t-80 31.5t-79.5 -31.5t-32.5 -78.5t32.5 -80t79.5 -33zM600 -25q-203 0 -357.5 149.5t-154.5 371t154.5 371t357.5 149.5
q131 0 241.5 -69.5t151.5 -180.5h4l7 225h174v-991h-174l-7 225h-4q-43 -113 -153.5 -181.5t-239.5 -68.5zM632.5 147q145.5 0 247 102.5t101.5 246t-101.5 246t-247 102.5t-247.5 -102.5t-102 -246t102 -246t247.5 -102.5z" />
    <glyph glyph-name="ae" unicode="&#xe6;" horiz-adv-x="2070" 
d="M1460 150q109 0 198 41.5t122 111.5l180 -31q-49 -127 -188.5 -212t-313.5 -85q-127 0 -239.5 52.5t-188.5 144.5q-96 -92 -241.5 -144.5t-294.5 -52.5q-160 0 -259.5 84t-99.5 215q0 127 101.5 214t285.5 87h381v70q0 86 -75.5 145.5t-192.5 59.5q-109 0 -188.5 -47
t-81.5 -127l-191 18q12 147 152.5 234.5t308.5 87.5q129 0 236.5 -51.5t166.5 -135.5q166 186 420 187q233 0 386 -167t153 -413h-893q23 -129 120 -207.5t236 -78.5zM1458 846q-135 0 -231.5 -75t-120.5 -198h696q-27 129 -121 201t-223 72zM535 133q104 0 219.5 41
t203.5 113q-33 74 -40 147h-369q-96 0 -156.5 -42t-60.5 -109.5t54.5 -108.5t148.5 -41z" />
    <glyph glyph-name="ccedilla" unicode="&#xe7;" horiz-adv-x="1220" 
d="M633 147q104 0 185 53.5t116 139.5h199q-33 -145 -159 -246.5t-294 -116.5l-29 -71q25 4 37 4q78 0 129 -51.5t51 -128.5q0 -84 -63.5 -140.5t-157.5 -56.5q-115 0 -194 72l63 96q57 -47 119 -47q41 0 68.5 21.5t27.5 58.5q0 29 -21.5 51t-54.5 22q-29 0 -61 -24l-82 80
l45 119q-199 27 -334 173t-135 341q0 215 161 367.5t386 152.5q184 0 323.5 -103.5t174.5 -259.5h-201q-29 84 -112 138.5t-187 54.5q-145 0 -247.5 -103.5t-102.5 -247t103.5 -246t246.5 -102.5z" />
    <glyph glyph-name="egrave" unicode="&#xe8;" horiz-adv-x="1234" 
d="M766 1143h-180l-262 330h178zM643 139q98 0 184 39t117 105h193q-55 -139 -194.5 -223.5t-309.5 -84.5q-231 0 -388 149.5t-157 373.5q0 217 149.5 367.5t385.5 150.5q246 0 392 -166t146 -416h-878q23 -133 121 -214t239 -81zM623 852q-139 0 -227.5 -75t-110.5 -193
h676q-27 125 -115 196.5t-223 71.5z" />
    <glyph glyph-name="eacute" unicode="&#xe9;" horiz-adv-x="1234" 
d="M942 1473l-264 -330h-178l262 330h180zM643 139q98 0 184 39t117 105h193q-55 -139 -194.5 -223.5t-309.5 -84.5q-231 0 -388 149.5t-157 373.5q0 217 149.5 367.5t385.5 150.5q246 0 392 -166t146 -416h-878q23 -133 121 -214t239 -81zM623 852q-139 0 -227.5 -75
t-110.5 -193h676q-27 125 -115 196.5t-223 71.5z" />
    <glyph glyph-name="ecircumflex" unicode="&#xea;" horiz-adv-x="1234" 
d="M618 1358l-194 -215h-176l284 330h173l284 -330h-176zM643 139q98 0 184 39t117 105h193q-55 -139 -194.5 -223.5t-309.5 -84.5q-231 0 -388 149.5t-157 373.5q0 217 149.5 367.5t385.5 150.5q246 0 392 -166t146 -416h-878q23 -133 121 -214t239 -81zM623 852
q-139 0 -227.5 -75t-110.5 -193h676q-27 125 -115 196.5t-223 71.5z" />
    <glyph glyph-name="edieresis" unicode="&#xeb;" horiz-adv-x="1234" 
d="M403.5 1184q-47.5 0 -82 34.5t-34.5 82t34.5 81t82 33.5t82 -33.5t34.5 -81t-34.5 -82t-82 -34.5zM831.5 1184q-47.5 0 -82 34.5t-34.5 82t34.5 81t82 33.5t82 -33.5t34.5 -81t-34.5 -82t-82 -34.5zM643 139q98 0 184 39t117 105h193q-55 -139 -194.5 -223.5
t-309.5 -84.5q-231 0 -388 149.5t-157 373.5q0 217 149.5 367.5t385.5 150.5q246 0 392 -166t146 -416h-878q23 -133 121 -214t239 -81zM623 852q-139 0 -227.5 -75t-110.5 -193h676q-27 125 -115 196.5t-223 71.5z" />
    <glyph glyph-name="igrave" unicode="&#xec;" horiz-adv-x="534" 
d="M236 1143l-263 330h179l264 -330h-180zM170 0v991h195v-991h-195z" />
    <glyph glyph-name="iacute" unicode="&#xed;" horiz-adv-x="534" 
d="M328 1143h-178l262 330h180zM170 0v991h195v-991h-195z" />
    <glyph glyph-name="icircumflex" unicode="&#xee;" horiz-adv-x="534" 
d="M639 1143h-176l-195 215l-194 -215h-176l284 330h172zM170 0v991h195v-991h-195z" />
    <glyph glyph-name="idieresis" unicode="&#xef;" horiz-adv-x="534" 
d="M53 1184q-47 0 -81.5 34.5t-34.5 82t34.5 81t81.5 33.5t82 -33.5t35 -81t-35 -82t-82 -34.5zM481 1184q-47 0 -81.5 34.5t-34.5 82t34.5 81t81.5 33.5t82 -33.5t35 -81t-35 -82t-82 -34.5zM170 0v991h195v-991h-195z" />
    <glyph glyph-name="eth" unicode="&#xf0;" horiz-adv-x="1148" 
d="M743 1245q166 -184 249 -388t83 -370q0 -217 -145.5 -364.5t-356.5 -147.5q-203 0 -352 139.5t-149 334.5q0 184 134 318t318 134q190 0 295 -141q-68 221 -219 401l-276 -164l-37 103l237 141q-102 104 -256 215h242q74 -53 156 -131l204 121l45 -98zM573 152
q127 0 217.5 90t90.5 217t-90.5 217t-217.5 90q-125 0 -215 -90t-90 -217t90 -217t215 -90z" />
    <glyph glyph-name="ntilde" unicode="&#xf1;" horiz-adv-x="1310" 
d="M901 1466h115q-4 -143 -60.5 -223t-142.5 -80q-49 0 -93 28t-73 61.5t-64.5 61t-66.5 27.5q-45 0 -76.5 -50t-33.5 -122h-113q2 152 63.5 233t159.5 81q55 0 101.5 -28t73 -60.5t57 -60t59.5 -27.5q39 0 65.5 45.5t28.5 113.5zM170 0v991h172l12 -229h2
q43 115 141.5 184.5t217.5 69.5q199 0 321.5 -136.5t122.5 -342.5v-537h-194v518q0 135 -85 229.5t-216 94.5q-123 0 -211 -98.5t-88 -235.5v-508h-195z" />
    <glyph glyph-name="ograve" unicode="&#xf2;" horiz-adv-x="1265" 
d="M600 1143l-262 330h178l264 -330h-180zM633 -25q-225 0 -385 153t-160 368t160 367.5t385 152.5t384 -152.5t159 -367.5t-159 -368t-384 -153zM632.5 147q143.5 0 246 102.5t102.5 246t-102.5 246t-245.5 102.5q-145 0 -247.5 -102.5t-102.5 -246t103 -246t246.5 -102.5z
" />
    <glyph glyph-name="oacute" unicode="&#xf3;" horiz-adv-x="1265" 
d="M692 1143h-178l262 330h180zM633 -25q-225 0 -385 153t-160 368t160 367.5t385 152.5t384 -152.5t159 -367.5t-159 -368t-384 -153zM632.5 147q143.5 0 246 102.5t102.5 246t-102.5 246t-245.5 102.5q-145 0 -247.5 -102.5t-102.5 -246t103 -246t246.5 -102.5z" />
    <glyph glyph-name="ocircumflex" unicode="&#xf4;" horiz-adv-x="1265" 
d="M1004 1143h-177l-194 215l-195 -215h-176l285 330h172zM633 -25q-225 0 -385 153t-160 368t160 367.5t385 152.5t384 -152.5t159 -367.5t-159 -368t-384 -153zM632.5 147q143.5 0 246 102.5t102.5 246t-102.5 246t-245.5 102.5q-145 0 -247.5 -102.5t-102.5 -246
t103 -246t246.5 -102.5z" />
    <glyph glyph-name="otilde" unicode="&#xf5;" horiz-adv-x="1265" 
d="M879 1466h114q-4 -143 -60 -223t-142 -80q-49 0 -93.5 28t-73 61.5t-64.5 61t-66 27.5q-45 0 -77 -50t-34 -122h-113q2 152 63.5 233t160.5 81q55 0 101 -28t72.5 -60.5t57.5 -60t59 -27.5q39 0 66 45.5t29 113.5zM633 -25q-225 0 -385 153t-160 368t160 367.5t385 152.5
t384 -152.5t159 -367.5t-159 -368t-384 -153zM632.5 147q143.5 0 246 102.5t102.5 246t-102.5 246t-245.5 102.5q-145 0 -247.5 -102.5t-102.5 -246t103 -246t246.5 -102.5z" />
    <glyph glyph-name="odieresis" unicode="&#xf6;" horiz-adv-x="1265" 
d="M418 1184q-47 0 -82 34.5t-35 82t35 81t82 33.5t82 -33.5t35 -81t-35 -82t-82 -34.5zM846 1184q-47 0 -82 34.5t-35 82t35 81t82 33.5t82 -33.5t35 -81t-35 -82t-82 -34.5zM633 -25q-225 0 -385 153t-160 368t160 367.5t385 152.5t384 -152.5t159 -367.5t-159 -368
t-384 -153zM632.5 147q143.5 0 246 102.5t102.5 246t-102.5 246t-245.5 102.5q-145 0 -247.5 -102.5t-102.5 -246t103 -246t246.5 -102.5z" />
    <glyph glyph-name="divide" unicode="&#xf7;" horiz-adv-x="1064" 
d="M538.5 920q-51.5 0 -89 36.5t-37.5 87.5q0 53 37.5 90t89 37t89.5 -36.5t38 -90.5q0 -51 -38 -87.5t-89.5 -36.5zM952 778v-166h-837v166h837zM538.5 240q-51.5 0 -89 36.5t-37.5 88.5q0 53 37.5 90t89 37t89.5 -37t38 -90q0 -51 -38 -88t-89.5 -37z" />
    <glyph glyph-name="oslash" unicode="&#xf8;" horiz-adv-x="1265" 
d="M1194 993l-152 -155q133 -150 134 -342q0 -215 -159 -368t-384 -153q-182 0 -330 107l-82 -82h-160l156 160q-129 145 -129 336q0 215 160 367.5t385 152.5q178 0 323 -103l80 80h158zM283 496q0 -111 65 -203l481 489q-88 61 -196 62q-145 0 -247.5 -102.5
t-102.5 -245.5zM981 496q0 117 -70 209l-481 -492q92 -66 203 -66q143 0 245.5 103t102.5 246z" />
    <glyph glyph-name="ugrave" unicode="&#xf9;" horiz-adv-x="1282" 
d="M608 1143l-262 330h178l264 -330h-180zM1112 991v-991h-172l-12 229h-2q-41 -115 -136.5 -184.5t-209.5 -69.5q-190 0 -309 137.5t-119 342.5v536h194v-520q0 -137 81 -229t204 -92q117 0 202 96t85 235v510h194z" />
    <glyph glyph-name="uacute" unicode="&#xfa;" horiz-adv-x="1282" 
d="M700 1143h-178l262 330h181zM1112 991v-991h-172l-12 229h-2q-41 -115 -136.5 -184.5t-209.5 -69.5q-190 0 -309 137.5t-119 342.5v536h194v-520q0 -137 81 -229t204 -92q117 0 202 96t85 235v510h194z" />
    <glyph glyph-name="ucircumflex" unicode="&#xfb;" horiz-adv-x="1282" 
d="M1012 1143h-176l-195 215l-195 -215h-176l285 330h172zM1112 991v-991h-172l-12 229h-2q-41 -115 -136.5 -184.5t-209.5 -69.5q-190 0 -309 137.5t-119 342.5v536h194v-520q0 -137 81 -229t204 -92q117 0 202 96t85 235v510h194z" />
    <glyph glyph-name="udieresis" unicode="&#xfc;" horiz-adv-x="1282" 
d="M426 1184q-47 0 -82 34.5t-35 82t35 81t82 33.5t82 -33.5t35 -81t-35 -82t-82 -34.5zM854 1184q-47 0 -82 34.5t-35 82t35 81t82 33.5t82 -33.5t35 -81t-35 -82t-82 -34.5zM1112 991v-991h-172l-12 229h-2q-41 -115 -136.5 -184.5t-209.5 -69.5q-190 0 -309 137.5
t-119 342.5v536h194v-520q0 -137 81 -229t204 -92q117 0 202 96t85 235v510h194z" />
    <glyph glyph-name="yacute" unicode="&#xfd;" horiz-adv-x="1122" 
d="M625 1143h-179l263 330h180zM152 -451l313 594l-438 848h213l325 -659l328 659h213l-748 -1442h-206z" />
    <glyph glyph-name="thorn" unicode="&#xfe;" horiz-adv-x="1345" 
d="M170 -451v1926h195v-709h4q49 115 156.5 182.5t232.5 67.5q199 0 349 -149.5t150 -371t-148 -371t-345 -149.5q-131 0 -238.5 70t-156.5 180h-4v-676h-195zM712.5 147q143.5 0 247 102.5t103.5 246t-102.5 246t-247.5 102.5q-143 0 -245.5 -102.5t-102.5 -246t102 -246
t245.5 -102.5z" />
    <glyph glyph-name="ydieresis" unicode="&#xff;" horiz-adv-x="1122" 
d="M350 1184q-47 0 -82 34.5t-35 82t35 81t82 33.5t82 -33.5t35 -81t-35 -82t-82 -34.5zM778 1184q-47 0 -81.5 34.5t-34.5 82t34.5 81t81.5 33.5t82 -33.5t35 -81t-35 -82t-82 -34.5zM152 -451l313 594l-438 848h213l325 -659l328 659h213l-748 -1442h-206z" />
    <glyph glyph-name="Amacron" unicode="&#x100;" horiz-adv-x="1466" 
d="M1049 1759v-127h-633v127h633zM1247 0l-157 328h-713l-158 -328h-213l682 1376h90l680 -1376h-211zM446 475h574l-287 598z" />
    <glyph glyph-name="amacron" unicode="&#x101;" horiz-adv-x="1347" 
d="M334 1251v127h633v-127h-633zM600 -25q-203 0 -357.5 149.5t-154.5 371t154.5 371t357.5 149.5q131 0 241.5 -69.5t151.5 -180.5h4l7 225h174v-991h-174l-7 225h-4q-43 -113 -153.5 -181.5t-239.5 -68.5zM632.5 147q145.5 0 247 102.5t101.5 246t-101.5 246t-247 102.5
t-247.5 -102.5t-102 -246t102 -246t247.5 -102.5z" />
    <glyph glyph-name="Abreve" unicode="&#x102;" horiz-adv-x="1466" 
d="M733 1524q-131 0 -226 95t-95 228h145q0 -82 51 -138t125 -56t125 56t51 138h146q0 -133 -95.5 -228t-226.5 -95zM1247 0l-157 328h-713l-158 -328h-213l682 1376h90l680 -1376h-211zM446 475h574l-287 598z" />
    <glyph glyph-name="abreve" unicode="&#x103;" horiz-adv-x="1347" 
d="M827 1466h146q0 -133 -95.5 -228t-226.5 -95t-226 95t-95 228h145q0 -82 51.5 -138t125 -56t124.5 56t51 138zM600 -25q-203 0 -357.5 149.5t-154.5 371t154.5 371t357.5 149.5q131 0 241.5 -69.5t151.5 -180.5h4l7 225h174v-991h-174l-7 225h-4q-43 -113 -153.5 -181.5
t-239.5 -68.5zM632.5 147q145.5 0 247 102.5t101.5 246t-101.5 246t-247 102.5t-247.5 -102.5t-102 -246t102 -246t247.5 -102.5z" />
    <glyph glyph-name="Aogonek" unicode="&#x104;" horiz-adv-x="1466" 
d="M1335 -190q0 -55 45 -94.5t119 -30.5v-123q-135 -16 -215 48t-80 157q0 115 129 233h-86l-157 328h-713l-158 -328h-213l682 1376h90l680 -1376q-123 -100 -123 -190zM446 475h574l-287 598z" />
    <glyph glyph-name="aogonek" unicode="&#x105;" horiz-adv-x="1347" 
d="M1055 -190q0 -55 45 -94.5t119 -30.5v-123q-135 -16 -215 48t-80 157q0 115 129 233h-49l-7 225h-4q-43 -113 -153.5 -181.5t-239.5 -68.5q-203 0 -357.5 149.5t-154.5 371t154.5 371t357.5 149.5q131 0 241.5 -69.5t151.5 -180.5h4l7 225h174v-991q-123 -100 -123 -190z
M632.5 147q145.5 0 247 102.5t101.5 246t-101.5 246t-247 102.5t-247.5 -102.5t-102 -246t102 -246t247.5 -102.5z" />
    <glyph glyph-name="Cacute" unicode="&#x106;" horiz-adv-x="1624" 
d="M872 1524h-178l262 329h181zM1524 477q-68 -219 -260.5 -360.5t-434.5 -141.5q-303 0 -517 209t-214 502t214 502t517 209q242 0 434.5 -141.5t260.5 -360.5h-213q-61 141 -191.5 229t-290.5 88q-219 0 -372.5 -153.5t-153.5 -372.5t153.5 -372.5t372.5 -153.5
q160 0 291 88t193 229h211z" />
    <glyph glyph-name="cacute" unicode="&#x107;" horiz-adv-x="1220" 
d="M678 1143h-178l262 330h180zM1133 340q-35 -156 -175.5 -260.5t-322.5 -104.5q-225 0 -386 153t-161 368t161 367.5t386 152.5q184 0 323.5 -103.5t174.5 -259.5h-201q-29 84 -112 138.5t-187 54.5q-145 0 -247.5 -103.5t-102.5 -247t103 -246t247 -102.5q104 0 185 53.5
t116 139.5h199z" />
    <glyph glyph-name="Cdotaccent" unicode="&#x10a;" horiz-adv-x="1624" 
d="M813 1565q-49 0 -83 34.5t-34 82t34 81t83 33.5q47 0 82 -33.5t35 -81t-35 -82t-82 -34.5zM1524 477q-68 -219 -260.5 -360.5t-434.5 -141.5q-303 0 -517 209t-214 502t214 502t517 209q242 0 434.5 -141.5t260.5 -360.5h-213q-61 141 -191.5 229t-290.5 88
q-219 0 -372.5 -153.5t-153.5 -372.5t153.5 -372.5t372.5 -153.5q160 0 291 88t193 229h211z" />
    <glyph glyph-name="cdotaccent" unicode="&#x10b;" horiz-adv-x="1220" 
d="M618 1184q-49 0 -82.5 34.5t-33.5 82t33.5 81t82.5 33.5q47 0 82 -33.5t35 -81t-35 -82t-82 -34.5zM1133 340q-35 -156 -175.5 -260.5t-322.5 -104.5q-225 0 -386 153t-161 368t161 367.5t386 152.5q184 0 323.5 -103.5t174.5 -259.5h-201q-29 84 -112 138.5t-187 54.5
q-145 0 -247.5 -103.5t-102.5 -247t103 -246t247 -102.5q104 0 185 53.5t116 139.5h199z" />
    <glyph glyph-name="Ccaron" unicode="&#x10c;" horiz-adv-x="1624" 
d="M1184 1853l-285 -329h-172l-285 329h176l195 -215l195 215h176zM1524 477q-68 -219 -260.5 -360.5t-434.5 -141.5q-303 0 -517 209t-214 502t214 502t517 209q242 0 434.5 -141.5t260.5 -360.5h-213q-61 141 -191.5 229t-290.5 88q-219 0 -372.5 -153.5t-153.5 -372.5
t153.5 -372.5t372.5 -153.5q160 0 291 88t193 229h211z" />
    <glyph glyph-name="ccaron" unicode="&#x10d;" horiz-adv-x="1220" 
d="M989 1473l-284 -330h-173l-284 330h176l194 -216l195 216h176zM1133 340q-35 -156 -175.5 -260.5t-322.5 -104.5q-225 0 -386 153t-161 368t161 367.5t386 152.5q184 0 323.5 -103.5t174.5 -259.5h-201q-29 84 -112 138.5t-187 54.5q-145 0 -247.5 -103.5t-102.5 -247
t103 -246t247 -102.5q104 0 185 53.5t116 139.5h199z" />
    <glyph glyph-name="Dcaron" unicode="&#x10e;" horiz-adv-x="1595" 
d="M1169 1853l-284 -329h-172l-285 329h176l195 -215l194 215h176zM186 0v1372h600q293 0 502 -201.5t209 -484.5t-209 -484.5t-502 -201.5h-600zM391 184h395q209 0 357.5 147.5t148.5 354.5t-148.5 353.5t-357.5 146.5h-395v-1002z" />
    <glyph glyph-name="dcaron" unicode="&#x10f;" horiz-adv-x="1501" 
d="M981 1475h195v-1475h-172l-9 225h-4q-41 -111 -153.5 -180.5t-241.5 -69.5q-205 0 -356.5 149.5t-151.5 373.5q0 221 151.5 369.5t354.5 148.5q127 0 235.5 -69.5t147.5 -180.5h4v709zM1319 1090l61 385h168l-108 -385h-121zM632.5 147q145.5 0 247 102.5t101.5 246
t-101.5 246t-247 102.5t-247.5 -102.5t-102 -246t102 -246t247.5 -102.5z" />
    <glyph glyph-name="Dcroat" unicode="&#x110;" horiz-adv-x="1595" 
d="M786 1372q293 0 502 -201.5t209 -484.5t-209 -484.5t-502 -201.5h-600v616h-174v138h174v618h600zM786 184q209 0 357.5 147.5t148.5 354.5t-148.5 353.5t-357.5 146.5h-395v-432h350v-138h-350v-432h395z" />
    <glyph glyph-name="dcroat" unicode="&#x111;" horiz-adv-x="1345" 
d="M1333 1257v-127h-157v-1130h-172l-9 225h-4q-41 -111 -153.5 -180.5t-241.5 -69.5q-205 0 -356.5 149.5t-151.5 373.5q0 221 151.5 369.5t354.5 148.5q127 0 235.5 -69.5t147.5 -180.5h4v364h-342v127h342v218h195v-218h157zM632.5 147q145.5 0 247 102.5t101.5 246
t-101.5 246t-247 102.5t-247.5 -102.5t-102 -246t102 -246t247.5 -102.5z" />
    <glyph glyph-name="Emacron" unicode="&#x112;" horiz-adv-x="1290" 
d="M985 1759v-127h-633v127h633zM391 172h764v-172h-969v1372h949v-172h-744v-426h723v-162h-723v-440z" />
    <glyph glyph-name="emacron" unicode="&#x113;" horiz-adv-x="1234" 
d="M934 1378v-127h-633v127h633zM643 139q98 0 184 39t117 105h193q-55 -139 -194.5 -223.5t-309.5 -84.5q-231 0 -388 149.5t-157 373.5q0 217 149.5 367.5t385.5 150.5q246 0 392 -166t146 -416h-878q23 -133 121 -214t239 -81zM623 852q-139 0 -227.5 -75t-110.5 -193
h676q-27 125 -115 196.5t-223 71.5z" />
    <glyph glyph-name="Edotaccent" unicode="&#x116;" horiz-adv-x="1290" 
d="M670 1565q-49 0 -83 34.5t-34 82t34 81t83 33.5q47 0 81.5 -33.5t34.5 -81t-34.5 -82t-81.5 -34.5zM391 172h764v-172h-969v1372h949v-172h-744v-426h723v-162h-723v-440z" />
    <glyph glyph-name="edotaccent" unicode="&#x117;" horiz-adv-x="1234" 
d="M618 1184q-49 0 -82.5 34.5t-33.5 82t33.5 81t82.5 33.5q47 0 82 -33.5t35 -81t-35 -82t-82 -34.5zM643 139q98 0 184 39t117 105h193q-55 -139 -194.5 -223.5t-309.5 -84.5q-231 0 -388 149.5t-157 373.5q0 217 149.5 367.5t385.5 150.5q246 0 392 -166t146 -416h-878
q23 -133 121 -214t239 -81zM623 852q-139 0 -227.5 -75t-110.5 -193h676q-27 125 -115 196.5t-223 71.5z" />
    <glyph glyph-name="Eogonek" unicode="&#x118;" horiz-adv-x="1290" 
d="M1032 -190q0 -55 45 -94.5t119 -30.5v-123q-135 -16 -215 48t-80 157q0 115 129 233h-844v1372h949v-172h-744v-426h723v-162h-723v-440h764v-172q-123 -100 -123 -190z" />
    <glyph glyph-name="eogonek" unicode="&#x119;" horiz-adv-x="1234" 
d="M643 139q98 0 184 39t117 105h193q-51 -129 -183 -215q-123 -100 -123 -191q0 -55 45.5 -94t118.5 -31v-123q-135 -16 -215 48.5t-80 156.5q0 78 58 154q-61 -12 -125 -13q-231 0 -388 149.5t-157 373.5q0 217 149.5 367.5t385.5 150.5q246 0 392 -166t146 -416h-878
q23 -133 121 -214t239 -81zM623 852q-139 0 -227.5 -75t-110.5 -193h676q-27 125 -115 196.5t-223 71.5z" />
    <glyph glyph-name="Ecaron" unicode="&#x11a;" horiz-adv-x="1290" 
d="M756 1524h-172l-285 329h176l195 -215l194 215h176zM391 172h764v-172h-969v1372h949v-172h-744v-426h723v-162h-723v-440z" />
    <glyph glyph-name="ecaron" unicode="&#x11b;" horiz-adv-x="1234" 
d="M705 1143h-173l-284 330h176l194 -216l195 216h176zM643 139q98 0 184 39t117 105h193q-55 -139 -194.5 -223.5t-309.5 -84.5q-231 0 -388 149.5t-157 373.5q0 217 149.5 367.5t385.5 150.5q246 0 392 -166t146 -416h-878q23 -133 121 -214t239 -81zM623 852
q-139 0 -227.5 -75t-110.5 -193h676q-27 125 -115 196.5t-223 71.5z" />
    <glyph glyph-name="Gbreve" unicode="&#x11e;" horiz-adv-x="1638" 
d="M819 1524q-131 0 -226 95t-95 228h145q0 -82 51 -138t125 -56t125 56t51 138h146q0 -133 -95.5 -228t-226.5 -95zM1554 737q4 -41 5 -69q-4 -289 -214 -491t-516 -202q-303 0 -517 209t-214 502t214 502t517 209q219 0 400.5 -113t273.5 -299l-217 -14
q-74 113 -194.5 179.5t-262.5 66.5q-217 0 -371.5 -155t-154.5 -374t156.5 -373.5t378.5 -154.5q199 0 344 117.5t182 297.5h-578v162h768z" />
    <glyph glyph-name="gbreve" unicode="&#x11f;" horiz-adv-x="1378" 
d="M864 1466h146q0 -133 -95.5 -228t-226.5 -95t-226 95t-95 228h145q0 -82 51 -138t125 -56t125 56t51 138zM664 -471q-190 0 -332 93t-193 263h207q39 -92 125 -143t193 -51q154 0 256 97t102 251v225l-2 6q-39 -117 -151.5 -186.5t-245.5 -69.5q-201 0 -350.5 142.5
t-149.5 357.5q0 211 152.5 356.5t353.5 145.5q131 0 242.5 -68.5t152.5 -181.5h4l6 225h174v-932q0 -242 -155.5 -386t-388.5 -144zM678 172q139 0 238.5 100.5t99.5 243.5q0 135 -100.5 235.5t-242 100.5t-242.5 -99.5t-101 -240.5q0 -137 102.5 -238.5t245.5 -101.5z" />
    <glyph glyph-name="Gdotaccent" unicode="&#x120;" horiz-adv-x="1638" 
d="M819 1565q-49 0 -83 34.5t-34 82t34 81t83 33.5q47 0 82 -33.5t35 -81t-35 -82t-82 -34.5zM1554 737q4 -41 5 -69q-4 -289 -214 -491t-516 -202q-303 0 -517 209t-214 502t214 502t517 209q219 0 400.5 -113t273.5 -299l-217 -14q-74 113 -194.5 179.5t-262.5 66.5
q-217 0 -371.5 -155t-154.5 -374t156.5 -373.5t378.5 -154.5q199 0 344 117.5t182 297.5h-578v162h768z" />
    <glyph glyph-name="gdotaccent" unicode="&#x121;" horiz-adv-x="1378" 
d="M688 1184q-49 0 -83 34.5t-34 82t34 81t83 33.5q47 0 82 -33.5t35 -81t-35 -82t-82 -34.5zM664 -471q-190 0 -332 93t-193 263h207q39 -92 125 -143t193 -51q154 0 256 97t102 251v225l-2 6q-39 -117 -151.5 -186.5t-245.5 -69.5q-201 0 -350.5 142.5t-149.5 357.5
q0 211 152.5 356.5t353.5 145.5q131 0 242.5 -68.5t152.5 -181.5h4l6 225h174v-932q0 -242 -155.5 -386t-388.5 -144zM678 172q139 0 238.5 100.5t99.5 243.5q0 135 -100.5 235.5t-242 100.5t-242.5 -99.5t-101 -240.5q0 -137 102.5 -238.5t245.5 -101.5z" />
    <glyph glyph-name="uni0122" unicode="&#x122;" horiz-adv-x="1638" 
d="M1554 737q4 -41 5 -69q-4 -289 -214 -491t-516 -202q-303 0 -517 209t-214 502t214 502t517 209q219 0 400.5 -113t273.5 -299l-217 -14q-74 113 -194.5 179.5t-262.5 66.5q-217 0 -371.5 -155t-154.5 -374t156.5 -373.5t378.5 -154.5q199 0 344 117.5t182 297.5h-578
v162h768zM711 -506l61 385h168l-109 -385h-120z" />
    <glyph glyph-name="uni0123" unicode="&#x123;" horiz-adv-x="1378" 
d="M561 1118l107 385h120l-59 -385h-168zM664 -471q-190 0 -332 93t-193 263h207q39 -92 125 -143t193 -51q154 0 256 97t102 251v225l-2 6q-39 -117 -151.5 -186.5t-245.5 -69.5q-201 0 -350.5 142.5t-149.5 357.5q0 211 152.5 356.5t353.5 145.5q131 0 242.5 -68.5
t152.5 -181.5h4l6 225h174v-932q0 -242 -155.5 -386t-388.5 -144zM678 172q139 0 238.5 100.5t99.5 243.5q0 135 -100.5 235.5t-242 100.5t-242.5 -99.5t-101 -240.5q0 -137 102.5 -238.5t245.5 -101.5z" />
    <glyph glyph-name="Hbar" unicode="&#x126;" horiz-adv-x="1574" 
d="M1518 1126v-116h-129v-1010h-203v608h-795v-608h-205v1010h-125v116h125v246h205v-246h795v246h203v-246h129zM1186 778v232h-795v-232h795z" />
    <glyph glyph-name="hbar" unicode="&#x127;" horiz-adv-x="1310" 
d="M715 1016q199 0 321.5 -136.5t122.5 -342.5v-537h-194v518q0 135 -85 229.5t-216 94.5q-123 0 -211 -98.5t-88 -235.5v-508h-195v1135h-174v127h174v213h195v-213h325v-127h-325v-373h4q39 115 135 184.5t211 69.5z" />
    <glyph glyph-name="Itilde" unicode="&#x128;" horiz-adv-x="577" 
d="M535 1847h114q-4 -143 -60.5 -223t-142.5 -80q-49 0 -93 27.5t-72.5 61.5t-64.5 61.5t-66 27.5q-45 0 -77 -50t-34 -122h-113q2 152 63.5 233t160.5 81q55 0 101 -28t72.5 -60.5t57.5 -60t59 -27.5q39 0 66 45.5t29 113.5zM186 0v1372h205v-1372h-205z" />
    <glyph glyph-name="itilde" unicode="&#x129;" horiz-adv-x="534" 
d="M514 1466h115q-4 -143 -60.5 -223t-142.5 -80q-49 0 -93 28t-73 61.5t-64.5 61t-66.5 27.5q-45 0 -77 -50t-34 -122h-112q2 152 63.5 233t159.5 81q55 0 101 -28t73 -60.5t57.5 -60t59.5 -27.5q39 0 65.5 45.5t28.5 113.5zM170 0v991h195v-991h-195z" />
    <glyph glyph-name="Imacron" unicode="&#x12a;" horiz-adv-x="577" 
d="M-29 1632v127h633v-127h-633zM186 0v1372h205v-1372h-205z" />
    <glyph glyph-name="imacron" unicode="&#x12b;" horiz-adv-x="534" 
d="M-49 1251v127h633v-127h-633zM170 0v991h195v-991h-195z" />
    <glyph glyph-name="Iogonek" unicode="&#x12e;" horiz-adv-x="577" 
d="M268 -190q0 -55 45 -94.5t119 -30.5v-123q-135 -16 -215 48t-80 157q0 115 129 233h-80v1372h205v-1372q-123 -100 -123 -190z" />
    <glyph glyph-name="iogonek" unicode="&#x12f;" horiz-adv-x="534" 
d="M268 1184q-49 0 -82.5 34.5t-33.5 82t33.5 81t82.5 33.5q47 0 82 -33.5t35 -81t-35 -82t-82 -34.5zM242 -190q0 -55 45 -94.5t119 -30.5v-123q-135 -16 -215 48t-80 157q0 115 129 233h-70v991h195v-991q-123 -100 -123 -190z" />
    <glyph glyph-name="Idotaccent" unicode="&#x130;" horiz-adv-x="577" 
d="M289 1565q-49 0 -83 34.5t-34 82t34 81t83 33.5q47 0 82 -33.5t35 -81t-35 -82t-82 -34.5zM186 0v1372h205v-1372h-205z" />
    <glyph glyph-name="dotlessi" unicode="&#x131;" horiz-adv-x="534" 
d="M170 0v991h195v-991h-195z" />
    <glyph glyph-name="IJ" unicode="&#x132;" horiz-adv-x="1736" 
d="M186 0v1372h205v-1372h-205zM1573 1372v-930q0 -190 -138.5 -328.5t-330.5 -138.5q-195 0 -339 138.5t-144 328.5v47h204v-47q0 -115 81 -198.5t190 -83.5q111 0 191.5 84t80.5 198v758h-571v172h776z" />
    <glyph glyph-name="ij" unicode="&#x133;" horiz-adv-x="1075" 
d="M268 1176q-51 0 -89 36.5t-38 88t38 88t89 36.5t88 -36.5t37 -88t-37 -88t-88 -36.5zM809 1176q-51 0 -89 36.5t-38 88t38 88t89 36.5t89 -36.5t38 -88t-38 -88t-89 -36.5zM170 0v991h195v-991h-195zM582 -471q-70 0 -119 25v157q57 -20 100 -20q74 0 111 47t37 121v1132
h194v-1122q0 -147 -86.5 -243.5t-236.5 -96.5z" />
    <glyph glyph-name="uni0136" unicode="&#x136;" horiz-adv-x="1331" 
d="M186 0v1372h205v-622h2l643 622h252l-688 -670l692 -702h-254l-645 651h-2v-651h-205zM565 -506l62 385h168l-109 -385h-121z" />
    <glyph glyph-name="uni0137" unicode="&#x137;" horiz-adv-x="1124" 
d="M170 0v1475h195v-883h4l454 399h246l-510 -452l539 -539h-250l-479 487h-4v-487h-195zM461 -506l61 385h168l-108 -385h-121z" />
    <glyph glyph-name="Lacute" unicode="&#x139;" horiz-adv-x="1177" 
d="M801 1853l-264 -329h-179l263 329h180zM391 172h715v-172h-920v1372h205v-1200z" />
    <glyph glyph-name="lacute" unicode="&#x13a;" horiz-adv-x="534" 
d="M326 1606h-179l263 329h180zM170 0v1475h195v-1475h-195z" />
    <glyph glyph-name="uni013B" unicode="&#x13b;" horiz-adv-x="1177" 
d="M391 172h715v-172h-920v1372h205v-1200zM518 -506l62 385h168l-109 -385h-121z" />
    <glyph glyph-name="uni013C" unicode="&#x13c;" horiz-adv-x="534" 
d="M170 0v1475h195v-1475h-195zM160 -506l61 385h168l-108 -385h-121z" />
    <glyph glyph-name="Lcaron" unicode="&#x13d;" horiz-adv-x="1177" 
d="M930 1374l-109 -385h-121l62 385h168zM391 172h715v-172h-920v1372h205v-1200z" />
    <glyph glyph-name="lcaron" unicode="&#x13e;" horiz-adv-x="634" 
d="M170 0v1475h195v-1475h-195zM473 1090l62 385h167l-108 -385h-121z" />
    <glyph glyph-name="Ldot" unicode="&#x13f;" horiz-adv-x="1228" 
d="M391 172h715v-172h-920v1372h205v-1200zM897 580q-59 0 -101 42t-42 99t43 100t100 43q59 0 102 -42t43 -101q0 -57 -43 -99t-102 -42z" />
    <glyph glyph-name="ldot" unicode="&#x140;" horiz-adv-x="733" 
d="M170 0v1475h195v-1475h-195zM635 590q-55 0 -96 39t-41 94q0 57 41 97t96 40q57 0 98 -40t41 -97q0 -55 -41 -94t-98 -39z" />
    <glyph glyph-name="Lslash" unicode="&#x141;" horiz-adv-x="1177" 
d="M391 172h715v-172h-920v561l-141 -92v129l141 92v682h205v-547l277 183v-129l-277 -183v-524z" />
    <glyph glyph-name="lslash" unicode="&#x142;" horiz-adv-x="534" 
d="M518 1063v-129l-153 -127v-807h-195v647l-150 -123v129l150 123v699h195v-539z" />
    <glyph glyph-name="Nacute" unicode="&#x143;" horiz-adv-x="1587" 
d="M854 1524h-178l262 329h180zM1223 1372h178v-1376h-98l-936 1036v-1032h-181v1376h99l938 -1036v1032z" />
    <glyph glyph-name="nacute" unicode="&#x144;" horiz-adv-x="1310" 
d="M715 1143h-178l262 330h180zM170 0v991h172l12 -229h2q43 115 141.5 184.5t217.5 69.5q199 0 321.5 -136.5t122.5 -342.5v-537h-194v518q0 135 -85 229.5t-216 94.5q-123 0 -211 -98.5t-88 -235.5v-508h-195z" />
    <glyph glyph-name="uni0145" unicode="&#x145;" horiz-adv-x="1587" 
d="M1223 1372h178v-1376h-98l-936 1036v-1032h-181v1376h99l938 -1036v1032zM686 -506l62 385h167l-108 -385h-121z" />
    <glyph glyph-name="uni0146" unicode="&#x146;" horiz-adv-x="1310" 
d="M170 0v991h172l12 -229h2q43 115 141.5 184.5t217.5 69.5q199 0 321.5 -136.5t122.5 -342.5v-537h-194v518q0 135 -85 229.5t-216 94.5q-123 0 -211 -98.5t-88 -235.5v-508h-195zM547 -506l61 385h168l-108 -385h-121z" />
    <glyph glyph-name="Ncaron" unicode="&#x147;" horiz-adv-x="1587" 
d="M1165 1853l-284 -329h-172l-285 329h176l195 -215l194 215h176zM1223 1372h178v-1376h-98l-936 1036v-1032h-181v1376h99l938 -1036v1032z" />
    <glyph glyph-name="ncaron" unicode="&#x148;" horiz-adv-x="1310" 
d="M1026 1473l-285 -330h-172l-284 330h176l194 -216l195 216h176zM170 0v991h172l12 -229h2q43 115 141.5 184.5t217.5 69.5q199 0 321.5 -136.5t122.5 -342.5v-537h-194v518q0 135 -85 229.5t-216 94.5q-123 0 -211 -98.5t-88 -235.5v-508h-195z" />
    <glyph glyph-name="Eng" unicode="&#x14a;" horiz-adv-x="1597" 
d="M940 -430v184q104 0 188 82t84 191v59l-827 940v-1026h-199v1376h109l917 -1030v1026h199v-1339q0 -188 -139 -325.5t-332 -137.5z" />
    <glyph glyph-name="eng" unicode="&#x14b;" horiz-adv-x="1310" 
d="M836 -471q-70 0 -119 25v157q57 -20 100 -20q74 0 111 47t37 121v659q0 135 -85 229.5t-216 94.5q-123 0 -211 -98.5t-88 -235.5v-508h-195v991h172l12 -229h2q43 115 141.5 184.5t217.5 69.5q199 0 321.5 -136.5t122.5 -342.5v-668q0 -147 -86.5 -243.5t-236.5 -96.5z
" />
    <glyph glyph-name="Omacron" unicode="&#x14c;" horiz-adv-x="1656" 
d="M512 1632v127h633v-127h-633zM829 -25q-303 0 -517 209t-214 502t214 502t517 209q301 0 515.5 -209t214.5 -502t-214.5 -502t-515.5 -209zM829 160q217 0 371 154.5t154 371.5t-153.5 371.5t-371.5 154.5q-219 0 -372.5 -153.5t-153.5 -372.5t153.5 -372.5t372.5 -153.5
z" />
    <glyph glyph-name="omacron" unicode="&#x14d;" horiz-adv-x="1265" 
d="M315 1251v127h633v-127h-633zM633 -25q-225 0 -385 153t-160 368t160 367.5t385 152.5t384 -152.5t159 -367.5t-159 -368t-384 -153zM632.5 147q143.5 0 246 102.5t102.5 246t-102.5 246t-245.5 102.5q-145 0 -247.5 -102.5t-102.5 -246t103 -246t246.5 -102.5z" />
    <glyph glyph-name="Ohungarumlaut" unicode="&#x150;" horiz-adv-x="1656" 
d="M707 1524h-150l262 329h150zM1032 1524h-149l264 329h149zM829 -25q-303 0 -517 209t-214 502t214 502t517 209q301 0 515.5 -209t214.5 -502t-214.5 -502t-515.5 -209zM829 160q217 0 371 154.5t154 371.5t-153.5 371.5t-371.5 154.5q-219 0 -372.5 -153.5
t-153.5 -372.5t153.5 -372.5t372.5 -153.5z" />
    <glyph glyph-name="ohungarumlaut" unicode="&#x151;" horiz-adv-x="1265" 
d="M510 1143h-150l263 330h149zM836 1143h-150l264 330h150zM633 -25q-225 0 -385 153t-160 368t160 367.5t385 152.5t384 -152.5t159 -367.5t-159 -368t-384 -153zM632.5 147q143.5 0 246 102.5t102.5 246t-102.5 246t-245.5 102.5q-145 0 -247.5 -102.5t-102.5 -246
t103 -246t246.5 -102.5z" />
    <glyph glyph-name="OE" unicode="&#x152;" horiz-adv-x="2455" 
d="M1559 172h763v-172h-968v193q-217 -217 -525 -218q-303 0 -517 209t-214 502t214 502t517 209q307 0 525 -217v192h948v-172h-743v-426h722v-162h-722v-440zM829 160q217 0 371 154.5t154 371.5t-153.5 371.5t-371.5 154.5q-219 0 -372.5 -153.5t-153.5 -372.5
t153.5 -372.5t372.5 -153.5z" />
    <glyph glyph-name="oe" unicode="&#x153;" horiz-adv-x="2148" 
d="M1536 139q98 0 184 39t117 105h193q-55 -139 -194.5 -223.5t-309.5 -84.5q-139 0 -257 59.5t-192 162.5q-76 -102 -192.5 -162t-251.5 -60q-225 0 -385 153t-160 368t160 367.5t385 152.5q133 0 248.5 -58.5t191.5 -158.5q156 217 443 217q246 0 392 -166t146 -416h-878
q23 -133 121 -214t239 -81zM1516 852q-139 0 -227.5 -75t-110.5 -193h675q-27 125 -114.5 196.5t-222.5 71.5zM632.5 147q143.5 0 246 102.5t102.5 246t-102.5 246t-245.5 102.5q-145 0 -247.5 -102.5t-102.5 -246t103 -246t246.5 -102.5z" />
    <glyph glyph-name="Racute" unicode="&#x154;" horiz-adv-x="1390" 
d="M1016 1853l-264 -329h-179l263 329h180zM1307 0h-222l-331 524h-373v-524h-195v1372h643q178 0 302 -123t124 -305q0 -143 -82.5 -252.5t-220.5 -148.5zM381 1210v-532h393q121 0 204 76.5t83 189.5t-81 189.5t-196 76.5h-403z" />
    <glyph glyph-name="racute" unicode="&#x155;" horiz-adv-x="798" 
d="M485 1143h-178l262 330h181zM170 0v991h172l12 -268h2q41 135 144.5 211t230.5 78v-176q-166 0 -266 -109t-100 -276v-451h-195z" />
    <glyph glyph-name="uni0156" unicode="&#x156;" horiz-adv-x="1390" 
d="M952 543l355 -543h-222l-331 524h-373v-524h-195v1372h643q178 0 302 -123t124 -305q0 -143 -83 -252.5t-220 -148.5zM381 1210v-532h393q121 0 204 76.5t83 189.5t-81 189.5t-196 76.5h-403zM584 -506l61 385h168l-108 -385h-121z" />
    <glyph glyph-name="uni0157" unicode="&#x157;" horiz-adv-x="798" 
d="M170 0v991h172l12 -268h2q41 135 144.5 211t230.5 78v-176q-166 0 -266 -109t-100 -276v-451h-195zM225 -506l62 385h168l-109 -385h-121z" />
    <glyph glyph-name="Rcaron" unicode="&#x158;" horiz-adv-x="1390" 
d="M778 1524h-172l-284 329h176l194 -215l195 215h176zM1307 0h-222l-331 524h-373v-524h-195v1372h643q178 0 302 -123t124 -305q0 -143 -82.5 -252.5t-220.5 -148.5zM381 1210v-532h393q121 0 204 76.5t83 189.5t-81 189.5t-196 76.5h-403z" />
    <glyph glyph-name="rcaron" unicode="&#x159;" horiz-adv-x="798" 
d="M797 1473l-285 -330h-172l-285 330h176l195 -216l195 216h176zM170 0v991h172l12 -268h2q41 135 144.5 211t230.5 78v-176q-166 0 -266 -109t-100 -276v-451h-195z" />
    <glyph glyph-name="Sacute" unicode="&#x15a;" horiz-adv-x="1200" 
d="M659 1524h-178l262 329h181zM637 -25q-135 0 -248 38t-195.5 133.5t-95.5 236.5h203q16 -125 115.5 -180.5t218.5 -55.5q115 0 199 51.5t84 155.5q0 45 -19.5 82t-46.5 61.5t-78 48t-90 36t-106 32.5q-109 33 -180.5 64t-138 77t-98.5 111.5t-32 151.5q0 180 131 279.5
t342 99.5q199 0 337 -94.5t159 -296.5h-199q-20 117 -104 170t-191 53q-109 0 -191.5 -51.5t-82.5 -151.5q0 -43 19.5 -79t43 -57.5t75.5 -44t81 -32.5t96 -31q225 -70 301 -114q172 -100 172 -299q0 -193 -134 -293.5t-347 -100.5z" />
    <glyph glyph-name="sacute" unicode="&#x15b;" horiz-adv-x="1103" 
d="M612 1143h-178l262 330h181zM582 -25q-188 0 -321.5 79t-139.5 233h209q10 -154 245 -154q221 0 222 129q0 18 -4.5 33.5t-15.5 29t-21.5 22.5t-30.5 18.5t-34.5 15.5t-42 13t-44 11.5t-48.5 11.5t-48 11q-74 16 -127 36.5t-109.5 54.5t-87 87t-30.5 125q0 135 111.5 210
t289.5 75q170 0 297 -73t133 -224h-201q-6 72 -72.5 105.5t-152.5 33.5t-144.5 -30.5t-58.5 -94.5q0 -31 15.5 -54.5t35 -37.5t62.5 -28.5t70.5 -21.5t87.5 -20q88 -18 142 -35.5t116.5 -51t93.5 -86t31 -126.5q0 -143 -121 -220t-307 -77z" />
    <glyph glyph-name="Scedilla" unicode="&#x15e;" horiz-adv-x="1200" 
d="M1118 369q0 -188 -129 -288.5t-338 -105.5l-28 -69q25 4 36 4q78 0 129.5 -51.5t51.5 -128.5q0 -84 -63.5 -140.5t-158.5 -56.5q-115 0 -194 72l63 96q57 -47 119 -47q41 0 68.5 21.5t27.5 58.5q0 29 -21.5 51t-53.5 22q-29 0 -62 -24l-82 80l47 119q-178 25 -297.5 123
t-134.5 278h203q16 -125 115.5 -180.5t218.5 -55.5q115 0 199 51.5t84 155.5q0 45 -19.5 82t-46.5 61.5t-78 48t-90 36t-106 32.5q-109 33 -180.5 64t-138 77t-98.5 111.5t-32 151.5q0 180 131 279.5t342 99.5q199 0 337 -94.5t159 -296.5h-199q-20 117 -104 170t-191 53
q-109 0 -191.5 -51.5t-82.5 -151.5q0 -43 19.5 -79t43 -57.5t75.5 -44t81 -32.5t96 -31q225 -70 301 -114q172 -100 172 -299z" />
    <glyph glyph-name="scedilla" unicode="&#x15f;" horiz-adv-x="1103" 
d="M1010 272q0 -139 -114 -215.5t-292 -81.5l-29 -69q25 4 37 4q78 0 129.5 -51.5t51.5 -128.5q0 -84 -63.5 -140.5t-158.5 -56.5q-115 0 -194 72l63 96q57 -47 119 -47q41 0 68.5 21.5t27.5 58.5q0 29 -21.5 51t-53.5 22q-29 0 -62 -24l-82 80l45 119q-154 20 -255 97
t-105 208h209q10 -154 245 -154q221 0 222 129q0 18 -4.5 33.5t-15.5 29t-21.5 22.5t-30.5 18.5t-34.5 15.5t-42 13t-44 11.5t-48.5 11.5t-48 11q-74 16 -127 36.5t-109.5 54.5t-87 87t-30.5 125q0 135 111.5 210t289.5 75q170 0 297 -73t133 -224h-201q-6 72 -72.5 105.5
t-152.5 33.5t-144.5 -30.5t-58.5 -94.5q0 -31 15.5 -54.5t35 -37.5t62.5 -28.5t70.5 -21.5t87.5 -20q88 -18 142 -35.5t116.5 -51t93.5 -86t31 -126.5z" />
    <glyph glyph-name="Scaron" unicode="&#x160;" horiz-adv-x="1200" 
d="M971 1853l-285 -329h-172l-285 329h177l194 -215l195 215h176zM637 -25q-135 0 -248 38t-195.5 133.5t-95.5 236.5h203q16 -125 115.5 -180.5t218.5 -55.5q115 0 199 51.5t84 155.5q0 45 -19.5 82t-46.5 61.5t-78 48t-90 36t-106 32.5q-109 33 -180.5 64t-138 77
t-98.5 111.5t-32 151.5q0 180 131 279.5t342 99.5q199 0 337 -94.5t159 -296.5h-199q-20 117 -104 170t-191 53q-109 0 -191.5 -51.5t-82.5 -151.5q0 -43 19.5 -79t43 -57.5t75.5 -44t81 -32.5t96 -31q225 -70 301 -114q172 -100 172 -299q0 -193 -134 -293.5t-347 -100.5z
" />
    <glyph glyph-name="scaron" unicode="&#x161;" horiz-adv-x="1103" 
d="M924 1473l-285 -330h-172l-285 330h176l195 -216l195 216h176zM582 -25q-188 0 -321.5 79t-139.5 233h209q10 -154 245 -154q221 0 222 129q0 18 -4.5 33.5t-15.5 29t-21.5 22.5t-30.5 18.5t-34.5 15.5t-42 13t-44 11.5t-48.5 11.5t-48 11q-74 16 -127 36.5t-109.5 54.5
t-87 87t-30.5 125q0 135 111.5 210t289.5 75q170 0 297 -73t133 -224h-201q-6 72 -72.5 105.5t-152.5 33.5t-144.5 -30.5t-58.5 -94.5q0 -31 15.5 -54.5t35 -37.5t62.5 -28.5t70.5 -21.5t87.5 -20q88 -18 142 -35.5t116.5 -51t93.5 -86t31 -126.5q0 -143 -121 -220t-307 -77
z" />
    <glyph glyph-name="uni0162" unicode="&#x162;" horiz-adv-x="1214" 
d="M711 0h-41l-39 -94q25 4 37 4q78 0 129 -51.5t51 -128.5q0 -84 -63.5 -140.5t-157.5 -56.5q-115 0 -195 72l64 96q57 -47 118 -47q41 0 69 21.5t28 58.5q0 29 -21.5 51t-54.5 22q-29 0 -62 -24l-81 80l53 137h-39v1200h-465v172h1133v-172h-463v-1200z" />
    <glyph glyph-name="uni0163" unicode="&#x163;" horiz-adv-x="874" 
d="M600 -25q-29 0 -43 2l-29 -71q25 4 37 4q78 0 129 -51.5t51 -128.5q0 -84 -63.5 -140.5t-157.5 -56.5q-115 0 -194 72l63 96q57 -47 119 -47q41 0 68.5 21.5t27.5 58.5q0 29 -21.5 51t-54.5 22q-29 0 -61 -24l-82 80l53 137h11q-113 41 -174.5 140.5t-61.5 228.5v467
h-201v155h201v277h195v-277h376v-155h-376v-451q0 -102 55 -167.5t164 -65.5q68 0 160 32v-170q-70 -39 -191 -39z" />
    <glyph glyph-name="Tcaron" unicode="&#x164;" horiz-adv-x="1214" 
d="M694 1524h-172l-284 329h176l194 -215l195 215h176zM1174 1372v-172h-463v-1200h-205v1200h-465v172h1133z" />
    <glyph glyph-name="tcaron" unicode="&#x165;" horiz-adv-x="874" 
d="M809 1524l-109 -385h-120l61 385h168zM412 385q0 -102 55 -167.5t164 -65.5q68 0 160 32v-170q-70 -39 -191 -39q-180 0 -281.5 113t-101.5 281v467h-201v155h201v277h195v-277h376v-155h-376v-451z" />
    <glyph glyph-name="Tbar" unicode="&#x166;" horiz-adv-x="1214" 
d="M1174 1200h-463v-401h262v-137h-262v-662h-205v662h-262v137h262v401h-465v172h1133v-172z" />
    <glyph glyph-name="tbar" unicode="&#x167;" horiz-adv-x="874" 
d="M631 152q68 0 160 32v-170q-70 -39 -191 -39q-180 0 -281.5 113t-101.5 281v120h-168v127h168v220h-201v155h201v277h195v-277h376v-155h-376v-220h331v-127h-331v-104q0 -102 55 -167.5t164 -65.5z" />
    <glyph glyph-name="Umacron" unicode="&#x16a;" horiz-adv-x="1544" 
d="M455 1632v127h632v-127h-632zM782 -25q-252 0 -432 174.5t-180 417.5v805h205v-805q0 -170 119.5 -288.5t287.5 -118.5q162 0 274.5 118.5t112.5 288.5v805h205v-805q0 -244 -174 -418t-418 -174z" />
    <glyph glyph-name="umacron" unicode="&#x16b;" horiz-adv-x="1282" 
d="M324 1251v127h632v-127h-632zM1112 991v-991h-172l-12 229h-2q-41 -115 -136.5 -184.5t-209.5 -69.5q-190 0 -309 137.5t-119 342.5v536h194v-520q0 -137 81 -229t204 -92q117 0 202 96t85 235v510h194z" />
    <glyph glyph-name="Uring" unicode="&#x16e;" horiz-adv-x="1544" 
d="M772 1468q-94 0 -161.5 65.5t-67.5 156t67.5 155t161.5 64.5t161.5 -64.5t67.5 -155t-67.5 -156t-161.5 -65.5zM772 1577q47 0 80 32.5t33 80t-33 79t-80 31.5t-80 -31.5t-33 -79t33 -80t80 -32.5zM782 -25q-252 0 -432 174.5t-180 417.5v805h205v-805
q0 -170 119.5 -288.5t287.5 -118.5q162 0 274.5 118.5t112.5 288.5v805h205v-805q0 -244 -174 -418t-418 -174z" />
    <glyph glyph-name="uring" unicode="&#x16f;" horiz-adv-x="1282" 
d="M641 1087q-94 0 -161.5 66t-67.5 156t67.5 154.5t161.5 64.5t161.5 -64.5t67.5 -154.5t-67.5 -156t-161.5 -66zM641 1196q47 0 80 33t33 80t-33 78.5t-80 31.5t-80 -31.5t-33 -78.5t33 -80t80 -33zM1112 991v-991h-172l-12 229h-2q-41 -115 -136.5 -184.5t-209.5 -69.5
q-190 0 -309 137.5t-119 342.5v536h194v-520q0 -137 81 -229t204 -92q117 0 202 96t85 235v510h194z" />
    <glyph glyph-name="Uhungarumlaut" unicode="&#x170;" horiz-adv-x="1544" 
d="M649 1524h-149l262 329h149zM975 1524h-150l265 329h149zM782 -25q-252 0 -432 174.5t-180 417.5v805h205v-805q0 -170 119.5 -288.5t287.5 -118.5q162 0 274.5 118.5t112.5 288.5v805h205v-805q0 -244 -174 -418t-418 -174z" />
    <glyph glyph-name="uhungarumlaut" unicode="&#x171;" horiz-adv-x="1282" 
d="M518 1143h-149l262 330h149zM844 1143h-150l264 330h150zM1112 991v-991h-172l-12 229h-2q-41 -115 -136.5 -184.5t-209.5 -69.5q-190 0 -309 137.5t-119 342.5v536h194v-520q0 -137 81 -229t204 -92q117 0 202 96t85 235v510h194z" />
    <glyph glyph-name="Uogonek" unicode="&#x172;" horiz-adv-x="1544" 
d="M1169 1372h205v-805q0 -219 -144.5 -385t-357.5 -200q-109 -94 -108 -179q0 -55 45 -94t119 -31v-122q-135 -16 -215 48t-80 156q0 106 110 217q-240 14 -406.5 185.5t-166.5 404.5v805h205v-805q0 -170 119.5 -288.5t287.5 -118.5q162 0 274.5 118.5t112.5 288.5v805z
" />
    <glyph glyph-name="uogonek" unicode="&#x173;" horiz-adv-x="1282" 
d="M989 -190q0 -55 45 -94.5t119 -30.5v-123q-135 -16 -215 48t-80 157q0 115 129 233h-47l-12 229h-2q-41 -115 -136.5 -184.5t-209.5 -69.5q-190 0 -309 137.5t-119 342.5v536h194v-520q0 -137 81 -229t204 -92q117 0 202 96t85 235v510h194v-991q-123 -100 -123 -190z
" />
    <glyph glyph-name="Wcircumflex" unicode="&#x174;" horiz-adv-x="2189" 
d="M1466 1524h-176l-194 215l-195 -215h-176l285 329h172zM608 0l-538 1372h211l385 -993l387 993h86l387 -993l383 993h211l-539 -1372h-88l-397 1026l-402 -1026h-86z" />
    <glyph glyph-name="wcircumflex" unicode="&#x175;" horiz-adv-x="1765" 
d="M1253 1143h-176l-194 215l-195 -215h-176l285 330h172zM467 0l-459 991h213l303 -665l312 665h92l309 -665l305 665h213l-459 -991h-88l-327 698l-326 -698h-88z" />
    <glyph glyph-name="Ycircumflex" unicode="&#x176;" horiz-adv-x="1435" 
d="M717 1739l-195 -215h-176l285 329h172l284 -329h-176zM1423 1372l-604 -903v-469h-203v469l-604 903h234l471 -706l473 706h233z" />
    <glyph glyph-name="ycircumflex" unicode="&#x177;" horiz-adv-x="1122" 
d="M936 1143h-176l-195 215l-194 -215h-176l284 330h172zM152 -451l313 594l-438 848h213l325 -659l328 659h213l-748 -1442h-206z" />
    <glyph glyph-name="Ydieresis" unicode="&#x178;" horiz-adv-x="1435" 
d="M502 1565q-47 0 -82 34.5t-35 82t35 81t82 33.5t81.5 -33.5t34.5 -81t-34.5 -82t-81.5 -34.5zM930 1565q-47 0 -82 34.5t-35 82t35 81t82 33.5t82 -33.5t35 -81t-35 -82t-82 -34.5zM1423 1372l-604 -903v-469h-203v469l-604 903h234l471 -706l473 706h233z" />
    <glyph glyph-name="Zacute" unicode="&#x179;" horiz-adv-x="1312" 
d="M717 1524h-178l262 329h180zM129 0v80l780 1120h-766v172h1041v-80l-774 -1120h794v-172h-1075z" />
    <glyph glyph-name="zacute" unicode="&#x17a;" horiz-adv-x="1130" 
d="M625 1143h-179l263 330h180zM109 0v80l630 749h-608v162h879v-80l-625 -747h645v-164h-921z" />
    <glyph glyph-name="Zdotaccent" unicode="&#x17b;" horiz-adv-x="1312" 
d="M657 1565q-49 0 -82.5 34.5t-33.5 82t33.5 81t82.5 33.5q47 0 82 -33.5t35 -81t-35 -82t-82 -34.5zM129 0v80l780 1120h-766v172h1041v-80l-774 -1120h794v-172h-1075z" />
    <glyph glyph-name="zdotaccent" unicode="&#x17c;" horiz-adv-x="1130" 
d="M565 1184q-49 0 -82.5 34.5t-33.5 82t33.5 81t82.5 33.5q47 0 82 -33.5t35 -81t-35 -82t-82 -34.5zM109 0v80l630 749h-608v162h879v-80l-625 -747h645v-164h-921z" />
    <glyph glyph-name="Zcaron" unicode="&#x17d;" horiz-adv-x="1312" 
d="M1028 1853l-285 -329h-172l-284 329h176l194 -215l195 215h176zM129 0v80l780 1120h-766v172h1041v-80l-774 -1120h794v-172h-1075z" />
    <glyph glyph-name="zcaron" unicode="&#x17e;" horiz-adv-x="1130" 
d="M936 1473l-285 -330h-172l-284 330h176l194 -216l195 216h176zM109 0v80l630 749h-608v162h879v-80l-625 -747h645v-164h-921z" />
    <glyph glyph-name="florin" unicode="&#x192;" horiz-adv-x="1087" 
d="M948 1251q-111 0 -178.5 -64.5t-85.5 -162.5l-27 -160h347l-27 -157h-346l-58 -334q-27 -160 -149.5 -266.5t-304.5 -106.5q-109 0 -195 37l49 158q66 -33 144 -33q111 0 178 63.5t86 163.5l53 318h-221l29 157h219l31 176q27 160 149.5 266.5t304.5 106.5q109 0 195 -37
l-49 -157q-66 32 -144 32z" />
    <glyph glyph-name="AEacute" unicode="&#x1fc;" horiz-adv-x="1994" 
d="M1454 1853l-264 -329h-178l262 329h180zM1188 172h674v-172h-858v328h-594l-211 -328h-213l919 1372h936v-172h-653v-426h633v-162h-633v-440zM506 475h498v770z" />
    <glyph glyph-name="aeacute" unicode="&#x1fd;" horiz-adv-x="2070" 
d="M1374 1473l-264 -330h-178l262 330h180zM1460 150q109 0 198 41.5t122 111.5l180 -31q-49 -127 -188.5 -212t-313.5 -85q-127 0 -239.5 52.5t-188.5 144.5q-96 -92 -241.5 -144.5t-294.5 -52.5q-160 0 -259.5 84t-99.5 215q0 127 101.5 214t285.5 87h381v70
q0 86 -75.5 145.5t-192.5 59.5q-109 0 -188.5 -47t-81.5 -127l-191 18q12 147 152.5 234.5t308.5 87.5q129 0 236.5 -51.5t166.5 -135.5q166 186 420 187q233 0 386 -167t153 -413h-893q23 -129 120 -207.5t236 -78.5zM1458 846q-135 0 -231.5 -75t-120.5 -198h696
q-27 129 -121 201t-223 72zM535 133q104 0 219.5 41t203.5 113q-33 74 -40 147h-369q-96 0 -156.5 -42t-60.5 -109.5t54.5 -108.5t148.5 -41z" />
    <glyph glyph-name="uni0218" unicode="&#x218;" horiz-adv-x="1200" 
d="M637 -25q-135 0 -248 38t-195.5 133.5t-95.5 236.5h203q16 -125 115.5 -180.5t218.5 -55.5q115 0 199 51.5t84 155.5q0 45 -19.5 82t-46.5 61.5t-78 48t-90 36t-106 32.5q-109 33 -180.5 64t-138 77t-98.5 111.5t-32 151.5q0 180 131 279.5t342 99.5q199 0 337 -94.5
t159 -296.5h-199q-20 117 -104 170t-191 53q-109 0 -191.5 -51.5t-82.5 -151.5q0 -43 19.5 -79t43 -57.5t75.5 -44t81 -32.5t96 -31q225 -70 301 -114q172 -100 172 -299q0 -193 -134 -293.5t-347 -100.5zM492 -506l61 385h168l-109 -385h-120z" />
    <glyph glyph-name="uni0219" unicode="&#x219;" horiz-adv-x="1103" 
d="M582 -25q-188 0 -321.5 79t-139.5 233h209q10 -154 245 -154q221 0 222 129q0 18 -4.5 33.5t-15.5 29t-21.5 22.5t-30.5 18.5t-34.5 15.5t-42 13t-44 11.5t-48.5 11.5t-48 11q-74 16 -127 36.5t-109.5 54.5t-87 87t-30.5 125q0 135 111.5 210t289.5 75q170 0 297 -73
t133 -224h-201q-6 72 -72.5 105.5t-152.5 33.5t-144.5 -30.5t-58.5 -94.5q0 -31 15.5 -54.5t35 -37.5t62.5 -28.5t70.5 -21.5t87.5 -20q88 -18 142 -35.5t116.5 -51t93.5 -86t31 -126.5q0 -143 -121 -220t-307 -77zM444 -506l62 385h168l-109 -385h-121z" />
    <glyph glyph-name="uni021A" unicode="&#x21a;" horiz-adv-x="1214" 
d="M1174 1372v-172h-463v-1200h-205v1200h-465v172h1133zM500 -506l61 385h168l-108 -385h-121z" />
    <glyph glyph-name="uni021B" unicode="&#x21b;" horiz-adv-x="874" 
d="M631 152q68 0 160 32v-170q-70 -39 -191 -39q-180 0 -281.5 113t-101.5 281v467h-201v155h201v277h195v-277h376v-155h-376v-451q0 -102 55 -167.5t164 -65.5zM397 -506l62 385h168l-109 -385h-121z" />
    <glyph glyph-name="circumflex" unicode="&#x2c6;" horiz-adv-x="1228" 
d="M877 1143h-177l-194 215l-195 -215h-176l285 330h172z" />
    <glyph glyph-name="caron" unicode="&#x2c7;" horiz-adv-x="1228" 
d="M877 1473l-285 -330h-172l-285 330h176l195 -216l194 216h177z" />
    <glyph glyph-name="breve" unicode="&#x2d8;" horiz-adv-x="1228" 
d="M641 1466h145q0 -133 -95 -228t-226 -95t-226.5 95t-95.5 228h146q0 -82 51 -138t125 -56t125 56t51 138z" />
    <glyph glyph-name="dotaccent" unicode="&#x2d9;" horiz-adv-x="1228" 
d="M252 1184q-49 0 -83 34.5t-34 82t34 81t83 33.5q47 0 82 -33.5t35 -81t-35 -82t-82 -34.5z" />
    <glyph glyph-name="ring" unicode="&#x2da;" horiz-adv-x="1228" 
d="M358.5 1087q-94.5 0 -162 66t-67.5 156t67.5 154.5t162 64.5t162 -64.5t67.5 -154.5t-67.5 -156t-162 -66zM358.5 1196q47.5 0 80 33t32.5 80t-32.5 78.5t-80 31.5t-80 -31.5t-32.5 -78.5t32.5 -80t80 -33z" />
    <glyph glyph-name="ogonek" unicode="&#x2db;" horiz-adv-x="1228" 
d="M418 -438q-135 -16 -215 48t-80 157q0 121 135 239l119 -6q-123 -100 -123 -190q0 -55 45 -94.5t119 -30.5v-123z" />
    <glyph glyph-name="tilde" unicode="&#x2dc;" horiz-adv-x="1228" 
d="M743 1456h115q-4 -143 -60.5 -223t-142.5 -80q-61 0 -114.5 44t-98.5 89t-84 45q-45 0 -76.5 -50t-33.5 -122h-113q2 152 63.5 233t159.5 81q55 0 101.5 -28t73 -60.5t57.5 -60.5t59 -28q39 0 65.5 46t28.5 114z" />
    <glyph glyph-name="hungarumlaut" unicode="&#x2dd;" horiz-adv-x="1228" 
d="M285 1143h-150l262 330h150zM610 1143h-149l264 330h149z" />
    <glyph glyph-name="gravecomb" unicode="&#x300;" 
d="M-313 1143l-262 330h178l264 -330h-180z" />
    <glyph glyph-name="acutecomb" unicode="&#x301;" 
d="M-397 1143h-178l262 330h180z" />
    <glyph glyph-name="uni0302" unicode="&#x302;" 
d="M-135 1143h-176l-195 215l-194 -215h-177l285 330h172z" />
    <glyph glyph-name="tildecomb" unicode="&#x303;" 
d="M-248 1456h115q-4 -143 -60.5 -223t-142.5 -80q-61 0 -114.5 44t-98.5 89t-84 45q-45 0 -76.5 -50t-33.5 -122h-113q2 152 63.5 233t159.5 81q55 0 101.5 -28t73 -60.5t57 -60.5t59.5 -28q39 0 65.5 46t28.5 114z" />
    <glyph glyph-name="uni0304" unicode="&#x304;" 
d="M-768 1251v127h633v-127h-633z" />
    <glyph glyph-name="uni0306" unicode="&#x306;" 
d="M-289 1466h146q0 -133 -95.5 -228t-226.5 -95t-226 95t-95 228h145q0 -82 51 -138t125 -56t125 56t51 138z" />
    <glyph glyph-name="uni0307" unicode="&#x307;" 
d="M-252 1184q-49 0 -83 34.5t-34 82t34 81t83 33.5q47 0 82 -33.5t35 -81t-35 -82t-82 -34.5z" />
    <glyph glyph-name="uni0308" unicode="&#x308;" 
d="M-694 1184q-47 0 -82 34.5t-35 82t35 81t82 33.5t81.5 -33.5t34.5 -81t-34.5 -82t-81.5 -34.5zM-266 1184q-47 0 -82 34.5t-35 82t35 81t82 33.5t81.5 -33.5t34.5 -81t-34.5 -82t-81.5 -34.5z" />
    <glyph glyph-name="uni030A" unicode="&#x30a;" 
d="M-358.5 1087q-94.5 0 -162 66t-67.5 156t67.5 154.5t162 64.5t162 -64.5t67.5 -154.5t-67.5 -156t-162 -66zM-358.5 1196q47.5 0 80 33t32.5 80t-32.5 78.5t-80 31.5t-80 -31.5t-32.5 -78.5t32.5 -80t80 -33z" />
    <glyph glyph-name="uni030B" unicode="&#x30b;" 
d="M-725 1143h-149l262 330h149zM-399 1143h-150l264 330h150z" />
    <glyph glyph-name="uni030C" unicode="&#x30c;" 
d="M-135 1473l-285 -330h-172l-285 330h177l194 -216l195 216h176z" />
    <glyph glyph-name="uni0312" unicode="&#x312;" 
d="M-352 1118l106 385h121l-59 -385h-168z" />
    <glyph glyph-name="uni0326" unicode="&#x326;" 
d="M-360 -506l61 385h168l-109 -385h-120z" />
    <glyph glyph-name="uni0327" unicode="&#x327;" 
d="M-303 -467q-115 0 -195 72l64 96q57 -47 119 -47q41 0 68.5 21.5t27.5 58.5q0 29 -21.5 51t-54.5 22q-29 0 -61 -24l-82 80l53 137h125l-39 -94q25 4 37 4q78 0 129 -51.5t51 -128.5q0 -84 -63.5 -140.5t-157.5 -56.5z" />
    <glyph glyph-name="uni0328" unicode="&#x328;" 
d="M-164 -438q-135 -16 -215 48t-80 157q0 121 135 239l119 -6q-123 -100 -123 -190q0 -55 45 -94.5t119 -30.5v-123z" />
    <glyph glyph-name="uni0335" unicode="&#x335;" 
d="M-190 631v-137h-730v137h730z" />
    <glyph glyph-name="uni0336" unicode="&#x336;" 
d="M-102 621v-117h-1457v117h1457z" />
    <glyph glyph-name="uni0337" unicode="&#x337;" 
d="M-225 655l-623 -409v129l623 409v-129z" />
    <glyph glyph-name="uni0338" unicode="&#x338;" 
d="M12 1372l-1134 -1372h-185l1137 1372h182z" />
    <glyph glyph-name="uni0401" unicode="&#x401;" horiz-adv-x="1290" 
d="M455 1565q-47 0 -82 34.5t-35 82t35 81t82 33.5t81.5 -33.5t34.5 -81t-34.5 -82t-81.5 -34.5zM883 1565q-47 0 -82 34.5t-35 82t35 81t82 33.5t81.5 -33.5t34.5 -81t-34.5 -82t-81.5 -34.5zM391 172h764v-172h-969v1372h949v-172h-744v-426h723v-162h-723v-440z" />
    <glyph glyph-name="uni0410" unicode="&#x410;" horiz-adv-x="1466" 
d="M1247 0l-157 328h-713l-158 -328h-213l682 1376h90l680 -1376h-211zM446 475h574l-287 598z" />
    <glyph glyph-name="uni0411" unicode="&#x411;" horiz-adv-x="1292" 
d="M766 834q186 0 309 -124t123 -290q0 -168 -126 -294t-294 -126h-592v1372h920v-172h-715v-366h375zM752 172q104 0 176.5 72.5t72.5 175.5q0 104 -74.5 176t-185.5 72h-350v-496h361z" />
    <glyph glyph-name="uni0412" unicode="&#x412;" horiz-adv-x="1300" 
d="M186 0v1372h594q150 0 256.5 -103.5t106.5 -254.5q0 -92 -44 -168t-120 -113q106 -35 172 -125t66 -211q0 -170 -118 -283.5t-298 -113.5h-615zM383 797h360q86 0 146.5 62.5t60.5 150.5q0 84 -63.5 142t-155.5 58h-348v-413zM383 162h387q104 0 178 70.5t74 168.5
q0 102 -76 172t-186 70h-377v-481z" />
    <glyph glyph-name="uni0413" unicode="&#x413;" horiz-adv-x="1177" 
d="M1106 1372v-172h-715v-1200h-205v1372h920z" />
    <glyph glyph-name="uni0414" unicode="&#x414;" horiz-adv-x="1423" 
d="M1214 172h160v-469h-192v297h-977v-297h-195v469h72q72 53 117 116.5t63.5 152.5t23.5 162t5 198v571h923v-1200zM315 172h705v1028h-535v-375q0 -256 -30.5 -402.5t-139.5 -250.5z" />
    <glyph glyph-name="uni0415" unicode="&#x415;" horiz-adv-x="1290" 
d="M391 172h764v-172h-969v1372h949v-172h-744v-426h723v-162h-723v-440z" />
    <glyph glyph-name="uni0416" unicode="&#x416;" horiz-adv-x="2027" 
d="M49 0l672 702l-668 670h244l612 -622h2v622h205v-622h2l613 622h243l-667 -670l671 -702h-247l-613 651h-2v-651h-205v651h-2l-612 -651h-248z" />
    <glyph glyph-name="uni0417" unicode="&#x417;" horiz-adv-x="1146" 
d="M156 252q145 -121 364 -121q162 0 254 75t92 191q0 111 -89 180.5t-226 69.5h-170v146h170q109 0 186.5 64.5t77.5 162.5q0 96 -80 158.5t-219 62.5q-190 0 -328 -88l-73 135q162 109 405 109q215 0 351.5 -99.5t136.5 -253.5q0 -111 -74 -197.5t-191 -121.5
q143 -31 230.5 -123t87.5 -225q0 -176 -141.5 -289t-382.5 -113q-295 0 -480 148z" />
    <glyph glyph-name="uni0418" unicode="&#x418;" horiz-adv-x="1574" 
d="M1186 1372h203v-1372h-203v1081l-795 -1081h-205v1372h205v-1081z" />
    <glyph glyph-name="uni0419" unicode="&#x419;" horiz-adv-x="1574" 
d="M788 1524q-137 0 -235 95t-98 228h155q0 -88 52.5 -146.5t126 -58.5t124 58.5t50.5 146.5h155q0 -133 -97.5 -228t-232.5 -95zM1186 1372h203v-1372h-203v1081l-795 -1081h-205v1372h205v-1081z" />
    <glyph glyph-name="uni041A" unicode="&#x41a;" horiz-adv-x="1331" 
d="M186 0v1372h205v-622h2l643 622h252l-688 -670l692 -702h-254l-645 651h-2v-651h-205z" />
    <glyph glyph-name="uni041B" unicode="&#x41b;" horiz-adv-x="1488" 
d="M1303 1372v-1372h-195v1200h-649v-543q0 -113 -7.5 -196.5t-33 -174.5t-69.5 -151.5t-123 -103.5t-185 -51v174q37 6 67.5 19t53 28.5t40 45t28 50t18.5 63.5t11 66t5 76t2 75.5v81.5v713h1037z" />
    <glyph glyph-name="uni041C" unicode="&#x41c;" horiz-adv-x="1865" 
d="M186 0v1372h138l608 -809l610 809h137v-1372h-196v989l-510 -686h-82l-508 686v-989h-197z" />
    <glyph glyph-name="uni041D" unicode="&#x41d;" horiz-adv-x="1574" 
d="M1186 1372h203v-1372h-203v608h-795v-608h-205v1372h205v-594h795v594z" />
    <glyph glyph-name="uni041E" unicode="&#x41e;" horiz-adv-x="1656" 
d="M829 -25q-303 0 -517 209t-214 502t214 502t517 209q301 0 515.5 -209t214.5 -502t-214.5 -502t-515.5 -209zM829 160q217 0 371 154.5t154 371.5t-153.5 371.5t-371.5 154.5q-219 0 -372.5 -153.5t-153.5 -372.5t153.5 -372.5t372.5 -153.5z" />
    <glyph glyph-name="uni041F" unicode="&#x41f;" horiz-adv-x="1554" 
d="M1368 1372v-1372h-203v1200h-774v-1200h-205v1372h1182z" />
    <glyph glyph-name="uni0420" unicode="&#x420;" horiz-adv-x="1351" 
d="M805 483h-424v-483h-195v1372h629q186 0 314 -127t128 -317q0 -188 -127.5 -316.5t-324.5 -128.5zM381 1210v-565h379q129 0 216 81t87 202q0 119 -85 200.5t-208 81.5h-389z" />
    <glyph glyph-name="uni0421" unicode="&#x421;" horiz-adv-x="1624" 
d="M1524 477q-68 -219 -260.5 -360.5t-434.5 -141.5q-303 0 -517 209t-214 502t214 502t517 209q242 0 434.5 -141.5t260.5 -360.5h-213q-61 141 -191.5 229t-290.5 88q-219 0 -372.5 -153.5t-153.5 -372.5t153.5 -372.5t372.5 -153.5q160 0 291 88t193 229h211z" />
    <glyph glyph-name="uni0422" unicode="&#x422;" horiz-adv-x="1214" 
d="M1174 1372v-172h-463v-1200h-205v1200h-465v172h1133z" />
    <glyph glyph-name="uni0423" unicode="&#x423;" horiz-adv-x="1445" 
d="M1206 1372h221l-903 -1372h-217l301 459l-592 913h222l483 -739z" />
    <glyph glyph-name="uni0424" unicode="&#x424;" horiz-adv-x="1818" 
d="M1720 686q0 -252 -193.5 -421t-514.5 -193v-103h-205v103q-322 25 -515.5 193.5t-193.5 420.5t193.5 421t515.5 193v103h205v-103q322 -25 515 -193.5t193 -420.5zM303 686q0 -184 132 -300t380 -134v868q-248 -18 -380 -134t-132 -300zM1004 252q248 18 380 134t132 300
t-132.5 300t-379.5 134v-868z" />
    <glyph glyph-name="uni0425" unicode="&#x425;" horiz-adv-x="1462" 
d="M57 0l561 705l-532 667h242l403 -512l404 512h241l-532 -667l561 -705h-240l-434 547l-434 -547h-240z" />
    <glyph glyph-name="uni0426" unicode="&#x426;" horiz-adv-x="1521" 
d="M1473 172v-469h-195v297h-1092v1372h205v-1200h727v1200h205v-1200h150z" />
    <glyph glyph-name="uni0427" unicode="&#x427;" horiz-adv-x="1488" 
d="M1100 0v506q-158 -53 -373 -53q-270 0 -419.5 147.5t-149.5 398.5v373h202v-373q0 -172 94.5 -268t280.5 -96q227 0 365 55v682h203v-1372h-203z" />
    <glyph glyph-name="uni0428" unicode="&#x428;" horiz-adv-x="2117" 
d="M1729 1372h202v-1372h-1745v1372h205v-1200h572v1200h192v-1200h574v1200z" />
    <glyph glyph-name="uni0429" unicode="&#x429;" horiz-adv-x="2129" 
d="M1888 -297v297h-1702v1372h205v-1200h572v1200h192v-1200h574v1200h202v-1200h152v-469h-195z" />
    <glyph glyph-name="uni042A" unicode="&#x42a;" horiz-adv-x="1628" 
d="M1092 829q199 0 322.5 -128t123.5 -298t-123 -286.5t-313 -116.5h-635v1200h-426v172h621v-543h430zM1092 166q106 0 178.5 72.5t72.5 175.5q0 104 -75.5 177t-186.5 73h-419v-498h430z" />
    <glyph glyph-name="uni042B" unicode="&#x42b;" horiz-adv-x="1857" 
d="M186 0v1372h195v-543h430q199 0 322.5 -128t123.5 -298t-122.5 -286.5t-313.5 -116.5h-635zM1466 0v1372h205v-1372h-205zM381 166h430q106 0 179 72.5t73 175.5q0 104 -76 177t-186 73h-420v-498z" />
    <glyph glyph-name="uni042C" unicode="&#x42c;" horiz-adv-x="1347" 
d="M186 0v1372h195v-543h430q199 0 322.5 -128t123.5 -298t-122.5 -286.5t-313.5 -116.5h-635zM381 166h430q106 0 179 72.5t73 175.5q0 104 -76 177t-186 73h-420v-498z" />
    <glyph glyph-name="uni042D" unicode="&#x42d;" horiz-adv-x="1624" 
d="M795 1397q303 0 517 -209t214 -502t-214 -502t-517 -209q-242 0 -434.5 141.5t-260.5 360.5h211q61 -141 192.5 -229t291.5 -88q195 0 340 124t178 310h-754v172h756q-29 190 -176.5 318t-343.5 128q-160 0 -290 -88t-192 -229h-213q68 219 260.5 360.5t434.5 141.5z" />
    <glyph glyph-name="uni042E" unicode="&#x42e;" horiz-adv-x="2205" 
d="M1378 1397q301 0 515 -209t214 -502t-214 -502t-515 -209q-279 0 -486.5 182.5t-238.5 450.5h-262v-608h-205v1372h205v-594h264q35 262 242 440.5t481 178.5zM1378 160q219 0 373 153.5t154 372.5t-154 372.5t-373 153.5t-372.5 -153.5t-153.5 -372.5t153.5 -372.5
t372.5 -153.5z" />
    <glyph glyph-name="uni042F" unicode="&#x42f;" horiz-adv-x="1390" 
d="M567 1372h637v-1372h-194v543h-361l-321 -543h-219l346 559q-147 37 -234.5 152.5t-87.5 257.5q0 170 122 286.5t312 116.5zM1010 709v497h-430q-106 0 -179 -72.5t-73 -175.5q0 -104 75.5 -176.5t186.5 -72.5h420z" />
    <glyph glyph-name="uni0430" unicode="&#x430;" horiz-adv-x="1347" 
d="M600 -25q-203 0 -357.5 149.5t-154.5 371t154.5 371t357.5 149.5q131 0 241.5 -69.5t151.5 -180.5h4l7 225h174v-991h-174l-7 225h-4q-43 -113 -153.5 -181.5t-239.5 -68.5zM632.5 147q145.5 0 247 102.5t101.5 246t-101.5 246t-247 102.5t-247.5 -102.5t-102 -246
t102 -246t247.5 -102.5z" />
    <glyph glyph-name="uni0431" unicode="&#x431;" horiz-adv-x="1251" 
d="M625 -25q-221 0 -365.5 145.5t-144.5 409.5q0 319 32.5 466t135.5 251q66 66 166 101.5t190 45t200.5 34t182.5 65.5v-199q-68 -35 -195 -50t-239.5 -34.5t-167.5 -70.5q-59 -57 -85 -134t-26 -208q53 82 157.5 126t215.5 44q197 0 338 -142.5t141 -345.5
q0 -211 -153.5 -357.5t-382.5 -146.5zM637 147q135 0 231.5 96.5t96.5 231.5t-96.5 231.5t-231.5 96.5t-231.5 -96.5t-96.5 -231.5t96.5 -231.5t231.5 -96.5z" />
    <glyph glyph-name="uni0432" unicode="&#x432;" horiz-adv-x="1167" 
d="M170 0v991h530q135 0 235.5 -71.5t100.5 -174.5q0 -68 -39 -127t-106 -86q92 -25 149.5 -95t57.5 -161q0 -121 -103.5 -198.5t-259.5 -77.5h-565zM354 588h351q61 0 105 38t44 91q0 55 -45 93t-111 38h-344v-260zM354 147h375q76 0 130 44.5t54 105.5q0 63 -56 107.5
t-136 44.5h-367v-302z" />
    <glyph glyph-name="uni0433" unicode="&#x433;" horiz-adv-x="978" 
d="M926 991v-157h-564v-834h-192v991h756z" />
    <glyph glyph-name="uni0434" unicode="&#x434;" horiz-adv-x="1216" 
d="M1047 158h133v-375h-181v217h-813v-217h-178v375h60q111 66 140.5 160t29.5 255v418h809v-833zM297 158h573v678h-454v-240q0 -113 -4 -171t-32 -136t-83 -131z" />
    <glyph glyph-name="uni0435" unicode="&#x435;" horiz-adv-x="1234" 
d="M643 139q98 0 184 39t117 105h193q-55 -139 -194.5 -223.5t-309.5 -84.5q-231 0 -388 149.5t-157 373.5q0 217 149.5 367.5t385.5 150.5q246 0 392 -166t146 -416h-878q23 -133 121 -214t239 -81zM623 852q-139 0 -227.5 -75t-110.5 -193h676q-27 125 -115 196.5
t-223 71.5z" />
    <glyph glyph-name="uni0436" unicode="&#x436;" horiz-adv-x="1683" 
d="M33 0l540 508l-534 483h221l485 -440h5v440h182v-440h4l485 440h221l-544 -483l551 -508h-224l-489 461h-4v-461h-182v461h-5l-489 -461h-223z" />
    <glyph glyph-name="uni0437" unicode="&#x437;" horiz-adv-x="1050" 
d="M143 221q135 -84 349 -84q137 0 215.5 45t78.5 117q0 68 -71.5 109t-188.5 41h-178v141h166q98 0 162.5 39t64.5 100q0 57 -65.5 96t-179.5 39q-180 0 -328 -69l-72 135q158 84 404 84q195 0 314.5 -74t119.5 -182q0 -78 -58.5 -141.5t-154.5 -90.5q119 -23 190.5 -91
t71.5 -163q0 -127 -128 -208.5t-345 -81.5q-291 0 -463 110z" />
    <glyph glyph-name="uni0438" unicode="&#x438;" horiz-adv-x="1333" 
d="M979 991h184v-991h-184v748l-623 -748h-186v991h186v-747z" />
    <glyph glyph-name="uni0439" unicode="&#x439;" horiz-adv-x="1333" 
d="M680 1143q-137 0 -235.5 95t-98.5 228h156q0 -88 52 -146t126 -58t124 58t50 146h156q0 -133 -97.5 -228t-232.5 -95zM979 991h184v-991h-184v748l-623 -748h-186v991h186v-747z" />
    <glyph glyph-name="uni043A" unicode="&#x43a;" horiz-adv-x="1169" 
d="M905 0l-395 406l-148 -142v-264h-192v991h192v-479l523 479h233l-471 -452l500 -539h-242z" />
    <glyph glyph-name="uni043B" unicode="&#x43b;" horiz-adv-x="1273" 
d="M1104 991v-991h-182v831h-516v-370q0 -84 -7.5 -147.5t-31 -127t-62.5 -104.5t-105.5 -68.5t-158.5 -29.5v166q53 4 89 27.5t54.5 51t27.5 79.5t10 86t1 102v495h881z" />
    <glyph glyph-name="uni043C" unicode="&#x43c;" horiz-adv-x="1562" 
d="M170 0v991h100l512 -553l510 553h101v-991h-183v672l-393 -443h-69l-394 443v-672h-184z" />
    <glyph glyph-name="uni043D" unicode="&#x43d;" horiz-adv-x="1359" 
d="M995 991h195v-991h-195v422h-633v-422h-192v991h192v-407h633v407z" />
    <glyph glyph-name="uni043E" unicode="&#x43e;" horiz-adv-x="1265" 
d="M633 -25q-225 0 -385 153t-160 368t160 367.5t385 152.5t384 -152.5t159 -367.5t-159 -368t-384 -153zM632.5 147q143.5 0 246 102.5t102.5 246t-102.5 246t-245.5 102.5q-145 0 -247.5 -102.5t-102.5 -246t103 -246t246.5 -102.5z" />
    <glyph glyph-name="uni043F" unicode="&#x43f;" horiz-adv-x="1341" 
d="M1171 991v-991h-192v831h-617v-831h-192v991h1001z" />
    <glyph glyph-name="uni0440" unicode="&#x440;" horiz-adv-x="1345" 
d="M170 -451v1442h172l8 -225h4q41 113 152.5 181.5t241.5 68.5q203 0 356 -149.5t153 -371t-151.5 -371t-349.5 -149.5q-131 0 -239.5 71t-147.5 179h-4v-676h-195zM712.5 147q143.5 0 247 102.5t103.5 246t-102.5 246t-247.5 102.5q-143 0 -245.5 -102.5t-102.5 -246
t102 -246t245.5 -102.5z" />
    <glyph glyph-name="uni0441" unicode="&#x441;" horiz-adv-x="1220" 
d="M1133 340q-35 -156 -175.5 -260.5t-322.5 -104.5q-225 0 -386 153t-161 368t161 367.5t386 152.5q184 0 323.5 -103.5t174.5 -259.5h-201q-29 84 -112 138.5t-187 54.5q-145 0 -247.5 -103.5t-102.5 -247t103 -246t247 -102.5q104 0 185 53.5t116 139.5h199z" />
    <glyph glyph-name="uni0442" unicode="&#x442;" horiz-adv-x="1024" 
d="M991 991v-160h-381v-831h-192v831h-383v160h956z" />
    <glyph glyph-name="uni0443" unicode="&#x443;" horiz-adv-x="1122" 
d="M152 -451l313 594l-438 848h213l325 -659l328 659h213l-748 -1442h-206z" />
    <glyph glyph-name="uni0444" unicode="&#x444;" horiz-adv-x="1449" 
d="M1360 496q0 -209 -149.5 -350.5t-393.5 -165.5v-431h-186v431q-244 25 -393.5 166t-149.5 350t149.5 350t393.5 166v463h186v-463q244 -25 393.5 -166t149.5 -350zM291 495.5q0 -137.5 94 -228.5t250 -111v680q-158 -20 -251 -111.5t-93 -229zM813 156q158 23 251 112.5
t93 227t-93 227.5t-251 113v-680z" />
    <glyph glyph-name="uni0445" unicode="&#x445;" horiz-adv-x="1157" 
d="M1108 0h-223l-305 367l-308 -367h-223l420 504l-406 487h224l293 -350l292 350h224l-406 -487z" />
    <glyph glyph-name="uni0446" unicode="&#x446;" horiz-adv-x="1308" 
d="M1260 162v-375h-185v213h-905v991h192v-829h578v829h195v-829h125z" />
    <glyph glyph-name="uni0447" unicode="&#x447;" horiz-adv-x="1267" 
d="M903 0v346q-121 -35 -297 -35q-225 0 -353 109.5t-128 298.5v272h192v-272q0 -113 75 -174.5t224 -61.5q180 0 287 37v471h195v-991h-195z" />
    <glyph glyph-name="uni0448" unicode="&#x448;" horiz-adv-x="1816" 
d="M1454 991h193v-991h-1477v991h192v-829h455v829h184v-829h453v829z" />
    <glyph glyph-name="uni0449" unicode="&#x449;" horiz-adv-x="1808" 
d="M1589 -213v213h-1419v991h192v-829h455v829h184v-829h453v829h193v-829h125v-375h-183z" />
    <glyph glyph-name="uni044A" unicode="&#x44a;" horiz-adv-x="1370" 
d="M918 625q170 0 275 -97.5t105 -226.5q0 -127 -104 -214t-268 -87h-537v831h-352v160h536v-366h345zM915 156q82 0 140.5 46t58.5 109q0 66 -60.5 112t-146.5 46h-334v-313h342z" />
    <glyph glyph-name="uni044B" unicode="&#x44b;" horiz-adv-x="1611" 
d="M170 0v991h184v-366h344q170 0 275.5 -97.5t105.5 -226.5q0 -125 -104.5 -213t-267.5 -88h-537zM1249 0v991h193v-991h-193zM354 156h342q82 0 140.5 45t58.5 110.5t-59.5 111.5t-147.5 46h-334v-313z" />
    <glyph glyph-name="uni044C" unicode="&#x44c;" horiz-adv-x="1153" 
d="M170 0v991h184v-366h344q170 0 275.5 -97.5t105.5 -226.5q0 -125 -104.5 -213t-267.5 -88h-537zM354 156h353q80 0 134 45t54 110.5t-56.5 111.5t-140.5 46h-344v-313z" />
    <glyph glyph-name="uni044D" unicode="&#x44d;" horiz-adv-x="1220" 
d="M586 1016q225 0 386 -152.5t161 -367.5t-161 -368t-386 -153q-182 0 -322.5 104.5t-175.5 260.5h199q35 -86 115.5 -139.5t185.5 -53.5q123 0 219 78t123 195h-533v149h533q-27 119 -122 198t-220 79q-104 0 -187.5 -54.5t-111.5 -138.5h-201q35 156 174.5 259.5
t323.5 103.5z" />
    <glyph glyph-name="uni044E" unicode="&#x44e;" horiz-adv-x="1746" 
d="M1114 1016q225 0 385 -152.5t160 -367.5t-160 -368t-385 -153q-203 0 -355.5 128t-180.5 319h-216v-422h-192v993h192v-409h218q33 186 183 309t351 123zM1114 147q143 0 246.5 102.5t103.5 246t-102 246t-248 102.5q-143 0 -245.5 -102.5t-102.5 -246t102.5 -246
t245.5 -102.5z" />
    <glyph glyph-name="uni044F" unicode="&#x44f;" horiz-adv-x="1189" 
d="M481 993h539v-993h-184v369h-285l-264 -369h-209l289 385q-119 33 -187.5 119t-68.5 188q0 127 103 214t267 87zM836 524v314h-355q-82 0 -134 -45t-52 -111q0 -68 55.5 -113t138.5 -45h347z" />
    <glyph glyph-name="uni0451" unicode="&#x451;" horiz-adv-x="1234" 
d="M403.5 1184q-47.5 0 -82 34.5t-34.5 82t34.5 81t82 33.5t82 -33.5t34.5 -81t-34.5 -82t-82 -34.5zM831.5 1184q-47.5 0 -82 34.5t-34.5 82t34.5 81t82 33.5t82 -33.5t34.5 -81t-34.5 -82t-82 -34.5zM643 139q98 0 184 39t117 105h193q-55 -139 -194.5 -223.5
t-309.5 -84.5q-231 0 -388 149.5t-157 373.5q0 217 149.5 367.5t385.5 150.5q246 0 392 -166t146 -416h-878q23 -133 121 -214t239 -81zM623 852q-139 0 -227.5 -75t-110.5 -193h676q-27 125 -115 196.5t-223 71.5z" />
    <glyph glyph-name="Wgrave" unicode="&#x1e80;" horiz-adv-x="2189" 
d="M1063 1524l-262 329h178l264 -329h-180zM608 0l-538 1372h211l385 -993l387 993h86l387 -993l383 993h211l-539 -1372h-88l-397 1026l-402 -1026h-86z" />
    <glyph glyph-name="wgrave" unicode="&#x1e81;" horiz-adv-x="1765" 
d="M850 1143l-262 330h178l264 -330h-180zM467 0l-459 991h213l303 -665l312 665h92l309 -665l305 665h213l-459 -991h-88l-327 698l-326 -698h-88z" />
    <glyph glyph-name="Wacute" unicode="&#x1e82;" horiz-adv-x="2189" 
d="M1155 1524h-178l262 329h180zM608 0l-538 1372h211l385 -993l387 993h86l387 -993l383 993h211l-539 -1372h-88l-397 1026l-402 -1026h-86z" />
    <glyph glyph-name="wacute" unicode="&#x1e83;" horiz-adv-x="1765" 
d="M942 1143h-178l262 330h180zM467 0l-459 991h213l303 -665l312 665h92l309 -665l305 665h213l-459 -991h-88l-327 698l-326 -698h-88z" />
    <glyph glyph-name="Wdieresis" unicode="&#x1e84;" horiz-adv-x="2189" 
d="M881 1565q-47 0 -82 34.5t-35 82t35 81t82 33.5t81.5 -33.5t34.5 -81t-34.5 -82t-81.5 -34.5zM1309 1565q-47 0 -82 34.5t-35 82t35 81t82 33.5t81.5 -33.5t34.5 -81t-34.5 -82t-81.5 -34.5zM608 0l-538 1372h211l385 -993l387 993h86l387 -993l383 993h211l-539 -1372
h-88l-397 1026l-402 -1026h-86z" />
    <glyph glyph-name="wdieresis" unicode="&#x1e85;" horiz-adv-x="1765" 
d="M668 1184q-47 0 -82 34.5t-35 82t35 81t82 33.5t81.5 -33.5t34.5 -81t-34.5 -82t-81.5 -34.5zM1096 1184q-47 0 -82 34.5t-35 82t35 81t82 33.5t81.5 -33.5t34.5 -81t-34.5 -82t-81.5 -34.5zM467 0l-459 991h213l303 -665l312 665h92l309 -665l305 665h213l-459 -991h-88
l-327 698l-326 -698h-88z" />
    <glyph glyph-name="Ygrave" unicode="&#x1ef2;" horiz-adv-x="1435" 
d="M864 1524h-180l-262 329h178zM1423 1372l-604 -903v-469h-203v469l-604 903h234l471 -706l473 706h233z" />
    <glyph glyph-name="ygrave" unicode="&#x1ef3;" horiz-adv-x="1122" 
d="M532 1143l-262 330h179l264 -330h-181zM152 -451l313 594l-438 848h213l325 -659l328 659h213l-748 -1442h-206z" />
    <glyph glyph-name="endash" unicode="&#x2013;" horiz-adv-x="1212" 
d="M1098 584v-166h-983v166h983z" />
    <glyph glyph-name="emdash" unicode="&#x2014;" horiz-adv-x="1847" 
d="M1733 584v-166h-1616v166h1616z" />
    <glyph glyph-name="quoteleft" unicode="&#x2018;" horiz-adv-x="466" 
d="M309 911h-194l125 564h137z" />
    <glyph glyph-name="quoteright" unicode="&#x2019;" horiz-adv-x="466" 
d="M182 1479h195l-125 -564h-137z" />
    <glyph glyph-name="quotesinglbase" unicode="&#x201a;" horiz-adv-x="466" 
d="M182 227h195l-125 -563h-137z" />
    <glyph glyph-name="quotedblleft" unicode="&#x201c;" horiz-adv-x="825" 
d="M297 911h-195l125 564h138zM655 911h-194l125 564h137z" />
    <glyph glyph-name="quotedblright" unicode="&#x201d;" horiz-adv-x="868" 
d="M193 1475h194l-125 -564h-137zM551 1475h194l-124 -564h-138z" />
    <glyph glyph-name="quotedblbase" unicode="&#x201e;" horiz-adv-x="825" 
d="M182 227h195l-125 -563h-137zM541 227h194l-125 -563h-137z" />
    <glyph glyph-name="dagger" unicode="&#x2020;" horiz-adv-x="1122" 
d="M1044 1001v-172h-380v-829h-203v829h-383v172h383v371h203v-371h380z" />
    <glyph glyph-name="daggerdbl" unicode="&#x2021;" horiz-adv-x="1122" 
d="M1044 848h-380v-311h380v-172h-380v-365h-203v365h-383v172h383v311h-383v172h383v352h203v-352h380v-172z" />
    <glyph glyph-name="bullet" unicode="&#x2022;" horiz-adv-x="737" 
d="M368.5 469q-94.5 0 -161 66.5t-66.5 161t66.5 161t161 66.5t161 -66.5t66.5 -161t-66.5 -161t-161 -66.5z" />
    <glyph glyph-name="ellipsis" unicode="&#x2026;" horiz-adv-x="1394" 
d="M264.5 -25q-59.5 0 -101.5 42t-42 100q0 59 42 101t101.5 42t102.5 -42t43 -101q0 -57 -43 -99.5t-102.5 -42.5zM696.5 -25q-59.5 0 -101.5 42t-42 100q0 59 43 101t100 42q59 0 102.5 -42t43.5 -101q0 -57 -43 -99.5t-102.5 -42.5zM1128.5 -25q-59.5 0 -101.5 42
t-42 100q0 59 42 101t101.5 42t102.5 -42t43 -101q0 -57 -43 -99.5t-102.5 -42.5z" />
    <glyph glyph-name="perthousand" unicode="&#x2030;" horiz-adv-x="2414" 
d="M412 721q-141 0 -239.5 99.5t-98.5 240.5q0 139 98 237.5t240 98.5q139 0 237.5 -98.5t98.5 -237.5q0 -141 -98.5 -240.5t-237.5 -99.5zM246 -2l950 1374h203l-953 -1374h-200zM412 885q72 0 123 51t51 125q0 72 -51.5 123t-123 51t-123.5 -51t-52 -123q0 -76 51 -126
t125 -50zM1249 -25q-141 0 -239.5 98.5t-98.5 239.5q0 139 98.5 238.5t239.5 99.5q139 0 237.5 -99t98.5 -239q0 -141 -98.5 -239.5t-237.5 -98.5zM2005 -25q-141 0 -239.5 98.5t-98.5 239.5q0 139 98.5 238.5t239.5 99.5q139 0 237.5 -99t98.5 -239q0 -141 -98.5 -239.5
t-237.5 -98.5zM1249 135q74 0 125 52.5t51 126t-51 123.5t-124.5 50t-125 -50t-51.5 -124q0 -76 50 -127t126 -51zM2005 135q74 0 125 52.5t51 126t-51 123.5t-125 50t-125 -50t-51 -124q0 -76 50 -127t126 -51z" />
    <glyph glyph-name="guilsinglleft" unicode="&#x2039;" horiz-adv-x="718" 
d="M627 872l-338 -372l338 -373h-217l-347 373l347 372h217z" />
    <glyph glyph-name="guilsinglright" unicode="&#x203a;" horiz-adv-x="710" 
d="M84 872h217l346 -372l-346 -373h-217l338 373z" />
    <glyph glyph-name="fraction" unicode="&#x2044;" horiz-adv-x="460" 
d="M-326 -2l951 1374h161l-952 -1374h-160z" />
    <glyph glyph-name="uni2070" unicode="&#x2070;" horiz-adv-x="878" 
d="M440 928q-145 0 -247.5 98t-102.5 236v227q0 137 102.5 234.5t247.5 97.5q143 0 245.5 -97.5t102.5 -234.5v-227q0 -137 -102.5 -235.5t-245.5 -98.5zM440 1061q80 0 137.5 54t57.5 138v242q0 82 -57.5 137.5t-137.5 55.5q-82 0 -139 -55.5t-57 -137.5v-242
q0 -84 58 -138t138 -54z" />
    <glyph glyph-name="uni2074" unicode="&#x2074;" horiz-adv-x="749" 
d="M735 1284v-110h-121v-232h-143v232h-455v88l494 544h104v-522h121zM178 1284h297v330z" />
    <glyph glyph-name="uni2075" unicode="&#x2075;" horiz-adv-x="761" 
d="M389 928q-135 0 -231.5 76.5t-96.5 187.5l152 8q4 -61 55 -102t123 -41q70 0 120 48t50 114q0 68 -49 114.5t-121 46.5q-90 0 -158 -65l-131 57l66 434h471v-125h-352l-33 -235q66 51 164 51q123 0 211 -83t88 -197q0 -119 -96.5 -204t-231.5 -85z" />
    <glyph glyph-name="uni2076" unicode="&#x2076;" horiz-adv-x="753" 
d="M375 928q-135 0 -231.5 88t-96.5 209q0 92 53 184l236 397h162l-207 -348q47 47 125 47q119 0 205 -83t86 -197q0 -121 -97.5 -209t-234.5 -88zM377 1059q74 0 128 50t54 120q0 68 -54 117t-128 49t-128 -49.5t-54 -116.5q0 -70 53 -120t129 -50z" />
    <glyph glyph-name="uni2077" unicode="&#x2077;" horiz-adv-x="663" 
d="M176 942l275 731h-408v133h575v-80l-288 -784h-154z" />
    <glyph glyph-name="uni2078" unicode="&#x2078;" horiz-adv-x="735" 
d="M369 928q-129 0 -220.5 76.5t-91.5 191.5q0 80 47.5 143.5t128.5 90.5q-57 23 -92 70.5t-35 107.5q4 90 79 151.5t184 61.5q111 0 185.5 -62.5t74.5 -154.5q0 -121 -125 -174q82 -27 128 -90.5t46 -143.5q0 -113 -90 -190.5t-219 -77.5zM368.5 1473q53.5 0 90.5 33.5
t37 82.5q0 47 -38 82t-89.5 35t-90 -34t-38.5 -83t37.5 -82.5t91 -33.5zM368.5 1055q69.5 0 118 45t48.5 108.5t-48.5 108.5t-118 45t-118.5 -45t-49 -108.5t49 -108.5t118.5 -45z" />
    <glyph glyph-name="uni2079" unicode="&#x2079;" horiz-adv-x="743" 
d="M373 1821q135 0 229 -86t94 -205q0 -88 -53 -182l-231 -406h-162l203 356q-43 -41 -117 -41q-117 0 -203 81t-86 192q0 119 96.5 205t229.5 86zM371 1690q-72 0 -124 -48.5t-52 -114t51 -111.5t125 -46q72 0 124 46t52 111.5t-51 114t-125 48.5z" />
    <glyph glyph-name="uni2080" unicode="&#x2080;" horiz-adv-x="878" 
d="M440 -465q-145 0 -247.5 98.5t-102.5 235.5v227q0 137 102.5 234.5t247.5 97.5q143 0 245.5 -97.5t102.5 -234.5v-227q0 -137 -102.5 -235.5t-245.5 -98.5zM440 -332q80 0 137.5 54.5t57.5 138.5v241q0 82 -57.5 137.5t-137.5 55.5q-82 0 -139 -55.5t-57 -137.5v-241
q0 -84 58 -138.5t138 -54.5z" />
    <glyph glyph-name="uni2081" unicode="&#x2081;" horiz-adv-x="524" 
d="M225 -451v697l-190 -76v127l264 117h78v-865h-152z" />
    <glyph glyph-name="uni2082" unicode="&#x2082;" horiz-adv-x="757" 
d="M72 -451v80l346 363q115 111 114 186q0 55 -44 94t-109 39q-70 0 -118 -43t-48 -110h-147q0 123 89 196.5t224 73.5q131 0 217 -69.5t86 -174.5q0 -72 -35 -127t-100 -120l-256 -259h418v-129h-637z" />
    <glyph glyph-name="uni2083" unicode="&#x2083;" horiz-adv-x="757" 
d="M381 -465q-147 0 -232.5 75t-85.5 195h148q0 -63 47 -108t125 -45q80 0 126 42t46 107.5t-50 105.5t-130 40h-107v110h107q59 0 105 37t46 92.5t-41 90t-108.5 34.5t-107.5 -34.5t-40 -90.5h-147q0 106 84 174t213 68q127 0 210 -61.5t83 -157.5q0 -70 -43 -125t-117 -78
q88 -23 139 -80t51 -139q0 -109 -88 -180.5t-233 -71.5z" />
    <glyph glyph-name="uni2084" unicode="&#x2084;" horiz-adv-x="749" 
d="M735 -109v-110h-121v-232h-143v232h-455v88l494 545h104v-523h121zM178 -109h297v330z" />
    <glyph glyph-name="uni2085" unicode="&#x2085;" horiz-adv-x="761" 
d="M389 -465q-135 0 -231.5 77t-96.5 187l152 8q4 -61 55 -102t123 -41q70 0 120 48t50 114q0 68 -49 115t-121 47q-90 0 -158 -66l-131 58l66 434h471v-125h-352l-33 -236q66 51 164 51q123 0 211 -82.5t88 -197.5q0 -119 -96.5 -204t-231.5 -85z" />
    <glyph glyph-name="uni2086" unicode="&#x2086;" horiz-adv-x="753" 
d="M375 -465q-135 0 -231.5 88t-96.5 209q0 92 53 184l236 398h162l-207 -348q47 47 125 47q119 0 205 -83t86 -198q0 -121 -97.5 -209t-234.5 -88zM377 -334q74 0 128 50.5t54 119.5q0 68 -54 117t-128 49t-128 -49t-54 -117q0 -70 53 -120t129 -50z" />
    <glyph glyph-name="uni2087" unicode="&#x2087;" horiz-adv-x="663" 
d="M176 -451l275 732h-408v133h575v-80l-288 -785h-154z" />
    <glyph glyph-name="uni2088" unicode="&#x2088;" horiz-adv-x="735" 
d="M369 -465q-129 0 -220.5 77t-91.5 191q0 80 47.5 143.5t128.5 90.5q-57 23 -92 71t-35 107q4 90 79 151.5t184 61.5q111 0 185.5 -62.5t74.5 -154.5q0 -121 -125 -174q82 -27 128 -90.5t46 -143.5q0 -113 -90 -190.5t-219 -77.5zM368.5 80q53.5 0 90.5 33.5t37 83.5
q0 47 -38 81.5t-89.5 34.5t-90 -33.5t-38.5 -83t37.5 -83t91 -33.5zM368.5 -338q69.5 0 118 45t48.5 108.5t-48.5 108.5t-118 45t-118.5 -45t-49 -108.5t49 -108.5t118.5 -45z" />
    <glyph glyph-name="uni2089" unicode="&#x2089;" horiz-adv-x="743" 
d="M373 428q135 0 229 -86t94 -205q0 -88 -53 -182l-231 -406h-162l203 357q-43 -41 -117 -41q-117 0 -203 81t-86 191q0 119 96.5 205t229.5 86zM371 297q-72 0 -124 -48t-52 -113.5t51 -112t125 -46.5q72 0 124 46.5t52 112t-51 113.5t-125 48z" />
    <glyph glyph-name="lira" unicode="&#x20a4;" horiz-adv-x="1292" 
d="M440 172h795v-172h-1188v172h197v219h-150v154h150v135h-150v151h150v125q0 184 133 312.5t336 128.5q195 0 332 -126t137 -304h-195q0 111 -80 187.5t-194 76.5q-117 0 -195 -80t-78 -195v-125h508v-151h-508v-135h508v-154h-508v-219z" />
    <glyph glyph-name="uni20A8" unicode="&#x20a8;" horiz-adv-x="2142" 
d="M1120 944q0 -141 -73.5 -250.5t-196.5 -150.5l317 -543h-221l-291 524h-274v-524h-195v1372h551q160 0 271.5 -123t111.5 -305zM381 1217v-545h301q100 0 172 79.5t72 192.5q0 111 -69 192t-167 81h-309zM1706 573q342 -68 342 -301q0 -145 -109.5 -221t-291.5 -76
q-174 0 -294 76t-128 228h207q8 -74 72.5 -111t133.5 -37q86 0 142.5 34t56.5 97q0 72 -63.5 111t-198.5 63q-145 27 -235.5 93.5t-90.5 207.5q0 131 106.5 205t274.5 74q164 0 274.5 -73t123.5 -222h-203q-10 80 -65.5 113.5t-123.5 33.5q-78 0 -131 -32.5t-53 -94.5
q0 -78 60.5 -109.5t193.5 -58.5z" />
    <glyph glyph-name="Euro" unicode="&#x20ac;" horiz-adv-x="1492" 
d="M467 475q61 -141 192.5 -228t290.5 -87q270 0 445 157v-204q-197 -137 -445 -138q-242 0 -434 140.5t-262 359.5h-238v148h207q-2 20 -2 63q0 35 2 51h-207v148h234q68 223 261.5 367.5t438.5 144.5q268 0 469 -174l-63 -181q-160 170 -406 170q-164 0 -296 -90
t-191 -237h837l-51 -148h-823q-2 -16 -2 -51q0 -23 4 -63h780l-51 -148h-690z" />
    <glyph glyph-name="uni20BD" unicode="&#x20bd;" horiz-adv-x="1318" 
d="M774 522h-360v-137h508v-164h-508v-221h-195v221h-141v164h141v137h-141v164h141v686h586q186 0 314 -121t128 -303q0 -180 -134 -303t-339 -123zM414 1208v-522h336q127 -6 215 72t88 190.5t-86 189t-207 70.5h-346z" />
    <glyph glyph-name="uni2113" unicode="&#x2113;" horiz-adv-x="997" 
d="M530 131q133 0 250 191l86 -99q-158 -248 -354 -248q-221 0 -274 318q-53 -33 -136 -76l-49 129q109 59 168 100q-4 102 -4 156q0 403 101.5 600t285.5 197q127 0 205 -88t78 -226q0 -172 -134.5 -353t-365.5 -343q24 -258 143 -258zM381 573v-14q346 270 346 524
q0 80 -34 128.5t-93 48.5q-106 0 -162.5 -178.5t-56.5 -508.5z" />
    <glyph glyph-name="uni2116" unicode="&#x2116;" horiz-adv-x="2486" 
d="M1223 1372h178v-1376h-98l-936 1036v-1032h-181v1376h99l938 -1036v1032zM2042 588q-158 0 -271.5 107.5t-113.5 259t112.5 259t272.5 107.5t272.5 -107.5t112.5 -259t-113.5 -259t-271.5 -107.5zM2042 725q94 0 160.5 67.5t66.5 161.5q0 92 -66.5 160t-160.5 68
t-160.5 -67.5t-66.5 -160.5q0 -94 67.5 -161.5t159.5 -67.5zM1675 444h760v-141h-760v141z" />
    <glyph glyph-name="trademark" unicode="&#x2122;" horiz-adv-x="1964" 
d="M766 1372v-137h-287v-600h-166v600h-286v137h739zM1765 1372h86v-737h-157v477l-287 -321h-57l-289 321v-477h-156v737h86l387 -397z" />
    <glyph glyph-name="partialdiff" unicode="&#x2202;" horiz-adv-x="1128" 
d="M563 -25q-199 0 -345 136.5t-146 326.5q0 178 131 311.5t311 133.5q190 0 295 -142q-61 205 -192.5 377t-358.5 338h242q274 -209 415.5 -482.5t141.5 -496.5q0 -211 -143.5 -356.5t-350.5 -145.5zM565 152q123 0 210 86t87 211q0 121 -87 208.5t-210 87.5t-210 -87
t-87 -209q0 -121 87 -209t210 -88z" />
    <glyph glyph-name="product" unicode="&#x220f;" horiz-adv-x="1589" 
d="M1473 1475v-172h-175v-1754h-204v1754h-596v-1754h-203v1754h-178v172h1356z" />
    <glyph glyph-name="summation" unicode="&#x2211;" horiz-adv-x="1318" 
d="M436 -279h764v-172h-1007v99l425 966l-423 762v99h964v-172h-706l374 -676z" />
    <glyph glyph-name="minus" unicode="&#x2212;" horiz-adv-x="1064" 
d="M952 778v-166h-837v166h837z" />
    <glyph glyph-name="radical" unicode="&#x221a;" horiz-adv-x="1112" 
d="M387 -295l-371 991h213l246 -698l428 1477h211l-543 -1770h-184z" />
    <glyph glyph-name="infinity" unicode="&#x221e;" horiz-adv-x="1439" 
d="M987 1049q139 0 235.5 -96.5t96.5 -235.5t-96.5 -235.5t-235.5 -96.5q-176 0 -274 145q-102 -145 -277 -145q-137 0 -234.5 96.5t-97.5 235.5t97.5 235.5t234.5 96.5q174 0 277 -146q98 146 274 146zM436 518q84 0 141.5 58.5t57.5 140.5t-57.5 140t-141.5 58t-141 -58
t-57 -140t57 -140.5t141 -58.5zM987 518q82 0 140.5 58.5t58.5 140.5t-58.5 140t-140.5 58t-140.5 -58t-58.5 -140t58.5 -140.5t140.5 -58.5z" />
    <glyph glyph-name="integral" unicode="&#x222b;" horiz-adv-x="1183" 
d="M1006 1495q104 0 194 -37l-49 -158q-66 33 -143 33q-113 0 -184.5 -65.5t-80.5 -161.5l-110 -1204q-14 -158 -142.5 -265.5t-314.5 -107.5q-106 0 -192 37l49 158q66 -33 143 -33q113 0 183.5 64.5t80.5 162.5l111 1204q14 156 142.5 264.5t312.5 108.5z" />
    <glyph glyph-name="approxequal" unicode="&#x2248;" horiz-adv-x="1191" 
d="M135 768q2 152 64.5 232.5t160.5 80.5q63 0 141.5 -45t147 -89t111.5 -44q92 0 102 162h113q-4 -145 -59.5 -224t-143.5 -79q-68 0 -209 88t-196 88q-51 0 -84 -45t-35 -125h-113zM135 338q2 152 64.5 232.5t160.5 80.5q63 0 141.5 -44t147 -88t111.5 -44q92 0 102 160
h113q-4 -145 -59.5 -224t-143.5 -79q-68 0 -209 89t-196 89q-51 0 -84 -46t-35 -126h-113z" />
    <glyph glyph-name="notequal" unicode="&#x2260;" horiz-adv-x="1103" 
d="M1010 817h-269l-166 -244h435v-165h-547l-127 -189h-123l127 189h-168v165h281l165 244h-446v166h559l115 168h121l-115 -168h158v-166z" />
    <glyph glyph-name="lessequal" unicode="&#x2264;" horiz-adv-x="1093" 
d="M948 403l-809 306v149l809 303v-168l-608 -211l608 -211v-168zM961 186h-838v148h838v-148z" />
    <glyph glyph-name="greaterequal" unicode="&#x2265;" horiz-adv-x="1093" 
d="M145 403v168l609 211l-609 211v168l809 -303v-149zM133 186v148h838v-148h-838z" />
    <glyph glyph-name="lozenge" unicode="&#x25ca;" horiz-adv-x="1247" 
d="M625 -20l-514 725l514 694l512 -694zM326 705l299 -447l297 447l-297 425z" />
    <glyph glyph-name="i.locl" horiz-adv-x="534" 
d="M268 1184q-49 0 -82.5 34.5t-33.5 82t33.5 81t82.5 33.5q47 0 82 -33.5t35 -81t-35 -82t-82 -34.5zM170 0v991h195v-991h-195z" />
    <glyph glyph-name="a.salt" horiz-adv-x="1239" 
d="M629 1016q193 0 325.5 -104.5t132.5 -266.5v-645h-161l-21 123q-180 -147 -411 -148q-166 0 -262.5 83t-96.5 212q0 131 100.5 218t290.5 87h365v70q0 88 -71.5 147.5t-190.5 59.5q-123 0 -200 -55.5t-77 -134.5h-192q0 143 139.5 248.5t329.5 105.5zM332 276
q0 -61 49 -100t133 -39q92 0 197.5 36t179.5 97v164h-342q-106 0 -161.5 -43t-55.5 -115z" />
    <glyph glyph-name="aacute.aalt" horiz-adv-x="1239" 
d="M948 1473l-264 -330h-178l262 330h180zM629 1016q193 0 325.5 -104.5t132.5 -266.5v-645h-161l-21 123q-180 -147 -411 -148q-166 0 -262.5 83t-96.5 212q0 131 100.5 218t290.5 87h365v70q0 88 -71.5 147.5t-190.5 59.5q-123 0 -200 -55.5t-77 -134.5h-192
q0 143 139.5 248.5t329.5 105.5zM332 276q0 -61 49 -100t133 -39q92 0 197.5 36t179.5 97v164h-342q-106 0 -161.5 -43t-55.5 -115z" />
    <glyph glyph-name="abreve.aalt" horiz-adv-x="1239" 
d="M625 1143q-131 0 -226.5 95t-95.5 228h146q0 -82 51 -138t124.5 -56t125 56t51.5 138h145q0 -133 -95 -228t-226 -95zM629 1016q193 0 325.5 -104.5t132.5 -266.5v-645h-161l-21 123q-180 -147 -411 -148q-166 0 -262.5 83t-96.5 212q0 131 100.5 218t290.5 87h365v70
q0 88 -71.5 147.5t-190.5 59.5q-123 0 -200 -55.5t-77 -134.5h-192q0 143 139.5 248.5t329.5 105.5zM332 276q0 -61 49 -100t133 -39q92 0 197.5 36t179.5 97v164h-342q-106 0 -161.5 -43t-55.5 -115z" />
    <glyph glyph-name="acircumflex.aalt" horiz-adv-x="1239" 
d="M625 1358l-195 -215h-176l285 330h172l284 -330h-176zM629 1016q193 0 325.5 -104.5t132.5 -266.5v-645h-161l-21 123q-180 -147 -411 -148q-166 0 -262.5 83t-96.5 212q0 131 100.5 218t290.5 87h365v70q0 88 -71.5 147.5t-190.5 59.5q-123 0 -200 -55.5t-77 -134.5
h-192q0 143 139.5 248.5t329.5 105.5zM332 276q0 -61 49 -100t133 -39q92 0 197.5 36t179.5 97v164h-342q-106 0 -161.5 -43t-55.5 -115z" />
    <glyph glyph-name="adieresis.aalt" horiz-adv-x="1239" 
d="M409.5 1184q-47.5 0 -82 34.5t-34.5 82t34.5 81t82 33.5t82 -33.5t34.5 -81t-34.5 -82t-82 -34.5zM838 1184q-47 0 -82 34.5t-35 82t35 81t82 33.5t81.5 -33.5t34.5 -81t-34.5 -82t-81.5 -34.5zM629 1016q193 0 325.5 -104.5t132.5 -266.5v-645h-161l-21 123
q-180 -147 -411 -148q-166 0 -262.5 83t-96.5 212q0 131 100.5 218t290.5 87h365v70q0 88 -71.5 147.5t-190.5 59.5q-123 0 -200 -55.5t-77 -134.5h-192q0 143 139.5 248.5t329.5 105.5zM332 276q0 -61 49 -100t133 -39q92 0 197.5 36t179.5 97v164h-342q-106 0 -161.5 -43
t-55.5 -115z" />
    <glyph glyph-name="agrave.aalt" horiz-adv-x="1239" 
d="M772 1143h-180l-262 330h178zM629 1016q193 0 325.5 -104.5t132.5 -266.5v-645h-161l-21 123q-180 -147 -411 -148q-166 0 -262.5 83t-96.5 212q0 131 100.5 218t290.5 87h365v70q0 88 -71.5 147.5t-190.5 59.5q-123 0 -200 -55.5t-77 -134.5h-192q0 143 139.5 248.5
t329.5 105.5zM332 276q0 -61 49 -100t133 -39q92 0 197.5 36t179.5 97v164h-342q-106 0 -161.5 -43t-55.5 -115z" />
    <glyph glyph-name="amacron.aalt" horiz-adv-x="1239" 
d="M940 1378v-127h-633v127h633zM629 1016q193 0 325.5 -104.5t132.5 -266.5v-645h-161l-21 123q-180 -147 -411 -148q-166 0 -262.5 83t-96.5 212q0 131 100.5 218t290.5 87h365v70q0 88 -71.5 147.5t-190.5 59.5q-123 0 -200 -55.5t-77 -134.5h-192q0 143 139.5 248.5
t329.5 105.5zM332 276q0 -61 49 -100t133 -39q92 0 197.5 36t179.5 97v164h-342q-106 0 -161.5 -43t-55.5 -115z" />
    <glyph glyph-name="aogonek.aalt" horiz-adv-x="1239" 
d="M965 -190q0 -55 45 -94.5t118 -30.5v-123q-135 -16 -214.5 48t-79.5 157q0 115 129 233h-37l-21 123q-180 -147 -411 -148q-166 0 -262.5 83t-96.5 212q0 131 100.5 218t290.5 87h365v70q0 88 -71.5 147.5t-190.5 59.5q-123 0 -200 -55.5t-77 -134.5h-192
q0 143 139 248.5t330 105.5q193 0 325.5 -104.5t132.5 -266.5v-645q-122 -100 -122 -190zM332 276q0 -61 49 -100t133 -39q92 0 197.5 36t179.5 97v164h-342q-106 0 -161.5 -43t-55.5 -115z" />
    <glyph glyph-name="aring.aalt" horiz-adv-x="1239" 
d="M624.5 1087q-94.5 0 -162 66t-67.5 156t67.5 154.5t162 64.5t162 -64.5t67.5 -154.5t-67.5 -156t-162 -66zM625 1419q-47 0 -80 -31.5t-33 -78.5t33 -80t80 -33t79.5 33t32.5 80t-32.5 78.5t-79.5 31.5zM629 1016q193 0 325.5 -104.5t132.5 -266.5v-645h-161l-21 123
q-180 -147 -411 -148q-166 0 -262.5 83t-96.5 212q0 131 100.5 218t290.5 87h365v70q0 88 -71.5 147.5t-190.5 59.5q-123 0 -200 -55.5t-77 -134.5h-192q0 143 139.5 248.5t329.5 105.5zM332 276q0 -61 49 -100t133 -39q92 0 197.5 36t179.5 97v164h-342q-106 0 -161.5 -43
t-55.5 -115z" />
    <glyph glyph-name="atilde.aalt" horiz-adv-x="1239" 
d="M485 1341q-45 0 -76.5 -50t-33.5 -122h-113q2 152 63.5 233t159.5 81q55 0 101.5 -28t73 -60.5t57.5 -60t59 -27.5q39 0 65.5 46t28.5 113h115q-4 -143 -60.5 -223t-142.5 -80q-49 0 -93 28t-72.5 61.5t-64.5 61t-67 27.5zM629 1016q193 0 325.5 -104.5t132.5 -266.5
v-645h-161l-21 123q-180 -147 -411 -148q-166 0 -262.5 83t-96.5 212q0 131 100.5 218t290.5 87h365v70q0 88 -71.5 147.5t-190.5 59.5q-123 0 -200 -55.5t-77 -134.5h-192q0 143 139.5 248.5t329.5 105.5zM332 276q0 -61 49 -100t133 -39q92 0 197.5 36t179.5 97v164h-342
q-106 0 -161.5 -43t-55.5 -115z" />
    <glyph glyph-name="ordfeminine.aalt" horiz-adv-x="874" 
d="M440 1315q139 0 236.5 -77t97.5 -185v-453h-139l-10 102q-123 -119 -299 -118q-104 0 -171 59t-67 152q0 90 72.5 151.5t206.5 61.5h254v45q0 61 -50.5 103t-128.5 42q-72 0 -123 -34t-53 -91l-153 14q10 102 109 165t218 63zM377 692q143 0 244 103v118h-234
q-63 0 -104 -31.5t-41 -80.5t36 -79t99 -30z" />
    <glyph glyph-name="zero.oldstyle" horiz-adv-x="1286" 
d="M645 -25q-209 0 -354.5 141.5t-145.5 340.5v80q0 199 145.5 339t354.5 140q205 0 350.5 -140.5t145.5 -338.5v-80q0 -199 -145.5 -340.5t-350.5 -141.5zM645 154q121 0 209 84t88 208v101q0 123 -87 207t-210 84q-125 0 -212 -84t-87 -207v-101q0 -125 88 -208.5
t211 -83.5z" />
    <glyph glyph-name="one.oldstyle" horiz-adv-x="847" 
d="M387 0v748l-297 -136v191l389 188h111v-991h-203z" />
    <glyph glyph-name="two.oldstyle" horiz-adv-x="1165" 
d="M158 0v78l444 344q74 57 106.5 86t65.5 80t33 102q0 66 -58.5 113t-158.5 47q-109 0 -176.5 -55.5t-67.5 -141.5h-201q0 160 125 261.5t319.5 101.5t306.5 -93.5t112 -232.5q0 -152 -209 -315l-273 -213h523v-162h-891z" />
    <glyph glyph-name="three.oldstyle" horiz-adv-x="1181" 
d="M588 -406q-217 0 -343 118t-126 306h194q0 -113 75 -189.5t202 -76.5q131 0 205.5 74t74.5 186q0 115 -80.5 184.5t-209.5 69.5h-160v146h160q100 0 171.5 64.5t71.5 162.5q0 94 -65.5 157.5t-177.5 63.5q-109 0 -173.5 -63.5t-64.5 -159.5h-195q0 166 123 272.5
t316 106.5q188 0 309 -99.5t121 -250.5q0 -113 -67.5 -200t-180.5 -122q135 -31 216 -123t81 -225q0 -176 -130 -289t-347 -113z" />
    <glyph glyph-name="four.oldstyle" horiz-adv-x="1157" 
d="M1116 150v-144h-190v-387h-197v387h-686v115l743 870h140v-841h190zM276 150h453v546z" />
    <glyph glyph-name="five.oldstyle" horiz-adv-x="1200" 
d="M612 -406q-203 0 -345 121t-142 299l199 13q6 -113 89 -186.5t201 -73.5q117 0 199 85t82 201q0 119 -83 204t-198 85q-143 0 -254 -113l-176 72l97 690h698v-164h-543l-53 -415q113 96 264 96q184 0 317.5 -133t133.5 -324q0 -188 -142.5 -322.5t-343.5 -134.5z" />
    <glyph glyph-name="six.oldstyle" horiz-adv-x="1200" 
d="M614.5 -25q-202.5 0 -347 139.5t-144.5 331.5q0 143 80 285l364 641h213l-288 -508q80 29 167 29q184 0 316.5 -133t132.5 -316q0 -193 -145.5 -331t-348 -138zM616 152q123 0 210 88t87 209q0 123 -87 209.5t-209.5 86.5t-210 -88t-87.5 -208q0 -125 86 -211t211 -86z
" />
    <glyph glyph-name="seven.oldstyle" horiz-adv-x="1044" 
d="M303 -381l424 1196h-637v176h858v-106l-442 -1266h-203z" />
    <glyph glyph-name="eight.oldstyle" horiz-adv-x="1191" 
d="M598.5 -25q-192.5 0 -328 123t-135.5 303q2 127 74 229.5t194 143.5q-88 35 -140 113t-50 174q4 141 114.5 238.5t270.5 97.5t270.5 -98.5t110.5 -243.5q0 -92 -50 -167t-138 -114q123 -41 194.5 -143.5t71.5 -231.5q0 -178 -133 -301t-325.5 -123zM598 836
q84 0 142.5 58t58.5 142t-58.5 142.5t-142.5 58.5t-144.5 -58.5t-60.5 -142.5t59.5 -142t145.5 -58zM598 152q111 0 186.5 75.5t75.5 188.5q0 109 -76.5 185.5t-185.5 76.5q-111 0 -188.5 -76t-79.5 -186q0 -111 77.5 -187.5t190.5 -76.5z" />
    <glyph glyph-name="nine.oldstyle" horiz-adv-x="1179" 
d="M580 1016q201 0 340 -135.5t139 -323.5q0 -137 -76 -276l-356 -662h-213l297 543q-72 -31 -176 -31q-178 0 -308.5 127t-130.5 299q0 188 143.5 323.5t340.5 135.5zM577.5 840q-118.5 0 -201.5 -84t-83 -203q0 -115 83 -194.5t201.5 -79.5t202.5 79.5t84 194.5
q0 119 -84 203t-202.5 84z" />
    <glyph glyph-name="zero.tnum" horiz-adv-x="1138" 
d="M571 -25q-199 0 -340 144.5t-141 347.5v440q0 203 141.5 346.5t339.5 143.5q197 0 337.5 -143.5t140.5 -346.5v-440q0 -203 -140.5 -347.5t-337.5 -144.5zM571 154q113 0 196 86t83 215v463q0 127 -82 214t-197 87q-117 0 -199.5 -87.5t-82.5 -213.5v-463
q0 -129 82.5 -215t199.5 -86z" />
    <glyph glyph-name="one.tnum" horiz-adv-x="1138" 
d="M717 166h360v-166h-948v166h389v985l-366 -135v168l458 188h107v-1206z" />
    <glyph glyph-name="two.tnum" horiz-adv-x="1138" 
d="M119 0v109l518 573q92 98 137 169t45 155q0 94 -72.5 164.5t-179.5 70.5q-113 0 -187.5 -75.5t-74.5 -192.5h-194q0 188 130 306t328 118q190 0 317.5 -111.5t127.5 -273.5q0 -80 -32 -155t-68.5 -124t-108.5 -127l-393 -434h647v-172h-940z" />
    <glyph glyph-name="three.tnum" horiz-adv-x="1138" 
d="M567 -25q-215 0 -340 118t-125 306h197q0 -115 72.5 -191.5t197.5 -76.5q127 0 200 75t73 187.5t-79 183t-204 70.5h-160v146h160q98 0 168 64.5t70 162.5q0 94 -64.5 157.5t-173.5 63.5q-104 0 -168.5 -63.5t-64.5 -159.5h-195q0 166 123 272.5t311 106.5
q186 0 305 -99.5t119 -250.5q0 -111 -66.5 -199t-177.5 -123q131 -33 212 -123t81 -225q0 -176 -128 -289t-343 -113z" />
    <glyph glyph-name="four.tnum" horiz-adv-x="1138" 
d="M1106 530v-145h-191v-385h-194v385h-684v115l741 872h137v-842h191zM270 530h451v547z" />
    <glyph glyph-name="five.tnum" horiz-adv-x="1138" 
d="M580 -25q-199 0 -338.5 122t-139.5 298l201 13q4 -111 85 -186t196 -75q111 0 190.5 85t79.5 202q0 119 -80 204t-190 85q-139 0 -246 -115l-176 74l96 690h684v-164h-530l-52 -415q109 96 256 96q182 0 311.5 -134t129.5 -322.5t-140 -323t-337 -134.5z" />
    <glyph glyph-name="six.tnum" horiz-adv-x="1138" 
d="M581.5 -25q-198.5 0 -340 139.5t-141.5 331.5q0 143 80 285l352 641h211l-305 -557q82 78 191 78q178 0 308 -133t130 -316q0 -193 -143.5 -331t-342 -138zM584 152q119 0 203.5 88t84.5 209q0 123 -85 209.5t-203.5 86.5t-203.5 -88t-85 -208q0 -125 84 -211t205 -86z
" />
    <glyph glyph-name="seven.tnum" horiz-adv-x="1138" 
d="M348 0l434 1196h-653v176h875v-108l-453 -1264h-203z" />
    <glyph glyph-name="eight.tnum" horiz-adv-x="1138" 
d="M571.5 -25q-188.5 0 -322.5 123t-132 303q0 127 71.5 229.5t192.5 143.5q-88 35 -139.5 112t-48.5 175q4 141 111.5 238.5t266.5 97.5q158 0 266.5 -98.5t108.5 -243.5q0 -90 -48 -167t-134 -114q119 -41 189.5 -144.5t70.5 -230.5q0 -178 -132 -301t-320.5 -123z
M571 836q82 0 139.5 58t57.5 142t-57.5 142.5t-139.5 58.5t-140 -58.5t-58 -142.5t57 -142t141 -58zM571 152q106 0 181 76.5t75 187.5q0 109 -74.5 185.5t-181.5 76.5q-109 0 -183.5 -76t-76.5 -186q0 -111 75.5 -187.5t184.5 -76.5z" />
    <glyph glyph-name="nine.tnum" horiz-adv-x="1138" 
d="M557 1397q197 0 336 -135.5t139 -323.5q0 -139 -74 -276l-350 -662h-211l310 590q-76 -78 -193 -78q-176 0 -304 127t-128 299q0 188 140 323.5t335 135.5zM557 1221q-115 0 -198 -84t-83 -203q0 -113 83 -194t198 -81q117 0 199 80t82 195q0 119 -82 203t-199 84z" />
    <glyph glyph-name="zero.tnum.oldstyle" horiz-adv-x="1138" 
d="M571 -25q-199 0 -340 141.5t-141 340.5v80q0 199 141.5 339t339.5 140q197 0 337.5 -140.5t140.5 -338.5v-80q0 -199 -140.5 -340.5t-337.5 -141.5zM571 154q113 0 196 84t83 208v101q0 123 -82 207t-197 84q-117 0 -199.5 -84t-82.5 -207v-101q0 -125 82.5 -208.5
t199.5 -83.5z" />
    <glyph glyph-name="one.tnum.oldstyle" horiz-adv-x="1138" 
d="M700 166h359v-166h-932v166h373v606l-365 -137v168l459 188h106v-825z" />
    <glyph glyph-name="two.tnum.oldstyle" horiz-adv-x="1138" 
d="M131 0v78l438 344q74 57 107 86t65.5 80t32.5 102q0 66 -58.5 113t-158.5 47q-109 0 -176.5 -55.5t-67.5 -141.5h-200q0 160 124.5 261.5t319.5 101.5t306.5 -93.5t111.5 -232.5q0 -152 -209 -315l-266 -213h532v-162h-901z" />
    <glyph glyph-name="three.tnum.oldstyle" horiz-adv-x="1138" 
d="M567 -406q-215 0 -340 118t-125 306h197q0 -113 72.5 -189.5t197.5 -76.5q127 0 200 74t73 186q0 115 -79 184.5t-204 69.5h-160v146h160q98 0 168 64.5t70 162.5q0 94 -64.5 157.5t-173.5 63.5q-104 0 -168.5 -63.5t-64.5 -159.5h-195q0 166 123 272.5t311 106.5
q186 0 305 -99.5t119 -250.5q0 -111 -66.5 -199t-177.5 -123q131 -31 212 -122t81 -226q0 -176 -128 -289t-343 -113z" />
    <glyph glyph-name="four.tnum.oldstyle" horiz-adv-x="1138" 
d="M1106 150v-144h-191v-387h-194v387h-684v115l741 870h137v-841h191zM270 150h451v546z" />
    <glyph glyph-name="five.tnum.oldstyle" horiz-adv-x="1138" 
d="M580 -406q-199 0 -338.5 122t-139.5 298l201 13q4 -111 85 -185.5t196 -74.5q111 0 190.5 85t79.5 201q0 119 -80 204t-190 85q-141 0 -246 -113l-176 72l96 690h684v-164h-530l-52 -415q109 96 256 96q182 0 311.5 -134t129.5 -322.5t-140 -323t-337 -134.5z" />
    <glyph glyph-name="six.tnum.oldstyle" horiz-adv-x="1138" 
d="M581.5 -25q-198.5 0 -340 139.5t-141.5 331.5q0 143 80 285l352 641h211l-305 -557q82 78 191 78q178 0 308 -133t130 -316q0 -193 -143.5 -331t-342 -138zM584 152q119 0 203.5 88t84.5 209q0 123 -85 209.5t-203.5 86.5t-203.5 -88t-85 -208q0 -125 84 -211t205 -86z
" />
    <glyph glyph-name="seven.tnum.oldstyle" horiz-adv-x="1138" 
d="M348 -381l475 1196h-714v176h935v-106l-493 -1266h-203z" />
    <glyph glyph-name="eight.tnum.oldstyle" horiz-adv-x="1138" 
d="M571.5 -25q-188.5 0 -322.5 123t-132 303q0 127 71.5 229.5t192.5 143.5q-88 35 -139.5 112t-48.5 175q4 141 111.5 238.5t266.5 97.5q158 0 266.5 -98.5t108.5 -243.5q0 -90 -48 -167t-134 -114q119 -41 189.5 -144.5t70.5 -230.5q0 -178 -132 -301t-320.5 -123z
M571 836q82 0 139.5 58t57.5 142t-57.5 142.5t-139.5 58.5t-140 -58.5t-58 -142.5t57 -142t141 -58zM571 152q106 0 181 76.5t75 187.5q0 109 -74.5 185.5t-181.5 76.5q-109 0 -183.5 -76t-76.5 -186q0 -111 75.5 -187.5t184.5 -76.5z" />
    <glyph glyph-name="nine.tnum.oldstyle" horiz-adv-x="1138" 
d="M557 1016q197 0 336 -135.5t139 -323.5q0 -139 -74 -276l-350 -662h-211l310 590q-76 -78 -193 -78q-176 0 -304 127t-128 299q0 188 140 323.5t335 135.5zM557 840q-115 0 -198 -84t-83 -203q0 -113 83 -193.5t198 -80.5q117 0 199 79.5t82 194.5q0 119 -82 203t-199 84
z" />
    <glyph glyph-name="zero.dnom" horiz-adv-x="878" 
d="M440 -14q-145 0 -247.5 98t-102.5 235v228q0 137 102.5 234.5t247.5 97.5q143 0 245.5 -97.5t102.5 -234.5v-228q0 -137 -102.5 -235t-245.5 -98zM440 119q80 0 137.5 54t57.5 138v242q0 82 -57.5 137t-137.5 55q-82 0 -139 -55t-57 -137v-242q0 -84 58 -138t138 -54z
" />
    <glyph glyph-name="one.dnom" horiz-adv-x="524" 
d="M225 0v696l-190 -75v127l264 116h78v-864h-152z" />
    <glyph glyph-name="two.dnom" horiz-adv-x="757" 
d="M72 0v80l346 362q115 111 114 187q0 55 -44 94t-109 39q-70 0 -118 -43t-48 -111h-147q0 123 89 197t224 74q131 0 217 -70t86 -174q0 -72 -35 -127t-100 -121l-256 -258h418v-129h-637z" />
    <glyph glyph-name="three.dnom" horiz-adv-x="757" 
d="M381 -14q-147 0 -232.5 74.5t-85.5 195.5h148q0 -63 47 -108.5t125 -45.5q80 0 126 42t46 107.5t-50 105.5t-130 40h-107v111h107q59 0 105 37t46 92t-41 90t-108.5 35t-107.5 -35t-40 -90h-147q0 106 84 174t213 68q127 0 210 -61.5t83 -158.5q0 -70 -43 -125t-117 -77
q88 -23 139 -80.5t51 -138.5q0 -109 -88 -180.5t-233 -71.5z" />
    <glyph glyph-name="four.dnom" horiz-adv-x="749" 
d="M735 342v-111h-121v-231h-143v231h-455v88l494 545h104v-522h121zM178 342h297v330z" />
    <glyph glyph-name="five.dnom" horiz-adv-x="761" 
d="M389 -14q-135 0 -231.5 76.5t-96.5 187.5l152 8q4 -61 55 -102t123 -41q70 0 120 48t50 113q0 68 -49 115t-121 47q-90 0 -158 -65l-131 57l66 434h471v-125h-352l-33 -235q66 51 164 51q123 0 211 -83t88 -198q0 -119 -96.5 -203.5t-231.5 -84.5z" />
    <glyph glyph-name="six.dnom" horiz-adv-x="753" 
d="M375 -14q-135 0 -231.5 88t-96.5 209q0 92 53 184l236 397h162l-207 -348q47 47 125 47q119 0 205 -83t86 -197q0 -121 -97.5 -209t-234.5 -88zM377 117q74 0 128 50t54 120q0 68 -54 117t-128 49t-128 -49.5t-54 -116.5q0 -70 53 -120t129 -50z" />
    <glyph glyph-name="seven.dnom" horiz-adv-x="663" 
d="M176 0l275 731h-408v133h575v-80l-288 -784h-154z" />
    <glyph glyph-name="eight.dnom" horiz-adv-x="735" 
d="M369 -14q-129 0 -220.5 76.5t-91.5 191.5q0 80 47.5 143.5t128.5 89.5q-57 23 -92 71t-35 108q4 90 79 151.5t184 61.5q111 0 185.5 -62.5t74.5 -154.5q0 -121 -125 -175q82 -27 128 -90t46 -143q0 -113 -90 -190.5t-219 -77.5zM368.5 530q53.5 0 90.5 34t37 83
q0 47 -38 82t-89.5 35t-90 -34t-38.5 -83t37.5 -83t91 -34zM368.5 113q69.5 0 118 45t48.5 108.5t-48.5 108.5t-118 45t-118.5 -45t-49 -108.5t49 -108.5t118.5 -45z" />
    <glyph glyph-name="nine.dnom" horiz-adv-x="743" 
d="M373 879q135 0 229 -86t94 -205q0 -88 -53 -182l-231 -406h-162l203 356q-43 -41 -117 -41q-117 0 -203 81t-86 192q0 119 96.5 205t229.5 86zM371 748q-72 0 -124 -48.5t-52 -114t51 -111.5t125 -46q72 0 124 46t52 111.5t-51 114t-125 48.5z" />
    <glyph glyph-name="zero.numr" horiz-adv-x="878" 
d="M440 498q-145 0 -247.5 98t-102.5 235v228q0 137 102.5 234.5t247.5 97.5q143 0 245.5 -97.5t102.5 -234.5v-228q0 -137 -102.5 -235t-245.5 -98zM440 631q80 0 137.5 54t57.5 138v242q0 82 -57.5 137t-137.5 55q-82 0 -139 -55t-57 -137v-242q0 -84 58 -138t138 -54z
" />
    <glyph glyph-name="one.numr" horiz-adv-x="524" 
d="M225 512v696l-190 -75v127l264 116h78v-864h-152z" />
    <glyph glyph-name="two.numr" horiz-adv-x="757" 
d="M72 512v80l346 362q115 111 114 187q0 55 -44 94t-109 39q-70 0 -118 -43t-48 -111h-147q0 123 89 197t224 74q131 0 217 -70t86 -174q0 -72 -35 -127t-100 -121l-256 -258h418v-129h-637z" />
    <glyph glyph-name="three.numr" horiz-adv-x="757" 
d="M381 498q-147 0 -232.5 74.5t-85.5 195.5h148q0 -63 47 -108.5t125 -45.5q80 0 126 42t46 107.5t-50 105.5t-130 40h-107v111h107q59 0 105 37t46 92t-41 90t-108.5 35t-107.5 -35t-40 -90h-147q0 106 84 174t213 68q127 0 210 -61.5t83 -158.5q0 -70 -43 -125t-117 -77
q88 -23 139 -80.5t51 -138.5q0 -109 -88 -180.5t-233 -71.5z" />
    <glyph glyph-name="four.numr" horiz-adv-x="749" 
d="M735 854v-111h-121v-231h-143v231h-455v88l494 545h104v-522h121zM178 854h297v330z" />
    <glyph glyph-name="five.numr" horiz-adv-x="761" 
d="M389 498q-135 0 -231.5 76.5t-96.5 187.5l152 8q4 -61 55 -102t123 -41q70 0 120 48t50 113q0 68 -49 115t-121 47q-90 0 -158 -65l-131 57l66 434h471v-125h-352l-33 -235q66 51 164 51q123 0 211 -83t88 -198q0 -119 -96.5 -203.5t-231.5 -84.5z" />
    <glyph glyph-name="six.numr" horiz-adv-x="753" 
d="M375 498q-135 0 -231.5 88t-96.5 209q0 92 53 184l236 397h162l-207 -348q47 47 125 47q119 0 205 -83t86 -197q0 -121 -97.5 -209t-234.5 -88zM377 629q74 0 128 50t54 120q0 68 -54 117t-128 49t-128 -49.5t-54 -116.5q0 -70 53 -120t129 -50z" />
    <glyph glyph-name="seven.numr" horiz-adv-x="663" 
d="M176 512l275 731h-408v133h575v-80l-288 -784h-154z" />
    <glyph glyph-name="eight.numr" horiz-adv-x="735" 
d="M369 498q-129 0 -220.5 76.5t-91.5 191.5q0 80 47.5 143.5t128.5 89.5q-57 23 -92 71t-35 108q4 90 79 151.5t184 61.5q111 0 185.5 -62.5t74.5 -154.5q0 -121 -125 -175q82 -27 128 -90t46 -143q0 -113 -90 -190.5t-219 -77.5zM368.5 1042q53.5 0 90.5 34t37 83
q0 47 -38 82t-89.5 35t-90 -34t-38.5 -83t37.5 -83t91 -34zM368.5 625q69.5 0 118 45t48.5 108.5t-48.5 108.5t-118 45t-118.5 -45t-49 -108.5t49 -108.5t118.5 -45z" />
    <glyph glyph-name="nine.numr" horiz-adv-x="743" 
d="M373 1391q135 0 229 -86t94 -205q0 -88 -53 -182l-231 -406h-162l203 356q-43 -41 -117 -41q-117 0 -203 81t-86 192q0 119 96.5 205t229.5 86zM371 1260q-72 0 -124 -48.5t-52 -114t51 -111.5t125 -46q72 0 124 46t52 111.5t-51 114t-125 48.5z" />
    <glyph glyph-name="exclamdown.aalt" horiz-adv-x="567" 
d="M284.5 1397q59.5 0 101.5 -42t42 -100q0 -59 -42 -101t-101.5 -42t-102.5 42t-43 101q0 57 43 99.5t102.5 42.5zM186 915h195v-915h-195v915z" />
    <glyph glyph-name="questiondown.aalt" horiz-adv-x="1036" 
d="M526.5 1391q55.5 0 95.5 -39t40 -95q0 -53 -40 -92t-96 -39q-53 0 -94 39t-41 92q0 55 40 94.5t95.5 39.5zM625 985v-76q0 -82 -37 -142t-89.5 -97t-103.5 -73t-88 -92t-37 -132q0 -100 73 -170t175 -70q109 0 182.5 76t73.5 197h195q0 -182 -131 -307.5t-315.5 -125.5
t-316.5 118t-132 284q0 90 36.5 158.5t89 110.5t104.5 79t89 86t37 109v67h195z" />
    <glyph glyph-name="braceleft.aalt" horiz-adv-x="817" 
d="M621 -289q-139 0 -238.5 97.5t-99.5 234.5v438q0 53 -36 90t-87 37h-76v164h76q51 0 87 37t36 90v428q0 137 99 233.5t239 96.5h163v-174h-133q-68 0 -117 -50.5t-49 -117.5v-430q0 -66 -36.5 -121t-104.5 -74q70 -23 105.5 -77t35.5 -119v-441q0 -68 49.5 -117
t116.5 -49h133v-176h-163z" />
    <glyph glyph-name="braceright.aalt" horiz-adv-x="817" 
d="M197 -289h-164v176h133q68 0 117 49.5t49 118.5v441q0 66 35.5 119t105.5 75q-68 18 -104.5 73.5t-36.5 121.5v430q0 70 -49.5 119t-116.5 49h-133v176h164q139 0 238.5 -97.5t99.5 -234.5v-428q0 -53 35.5 -90t86.5 -37h76v-164h-76q-51 0 -86.5 -36.5t-35.5 -90.5v-438
q0 -137 -99.5 -234.5t-238.5 -97.5z" />
    <glyph glyph-name="bracketleft.aalt" horiz-adv-x="798" 
d="M776 1483h-395v-1594h395v-165h-590v1925h590v-166z" />
    <glyph glyph-name="bracketright.aalt" horiz-adv-x="798" 
d="M612 1649v-1925h-589v165h395v1594h-395v166h589z" />
    <glyph glyph-name="parenleft.aalt" horiz-adv-x="813" 
d="M795 1470q-213 -94 -344.5 -303t-131.5 -471q0 -258 132.5 -471t343.5 -305v-196q-295 104 -482.5 375.5t-187.5 596.5q0 330 185.5 596.5t484.5 376.5v-199z" />
    <glyph glyph-name="parenright.aalt" horiz-adv-x="813" 
d="M18 1473v196q297 -109 483.5 -376t186.5 -597q0 -326 -187.5 -597t-482.5 -375v196q211 92 343.5 305t132.5 471q0 262 -131.5 471.5t-344.5 305.5z" />
    <glyph glyph-name="emdash.aalt" horiz-adv-x="1847" 
d="M1733 788v-165h-1616v165h1616z" />
    <glyph glyph-name="endash.aalt" horiz-adv-x="1212" 
d="M1098 788v-165h-983v165h983z" />
    <glyph glyph-name="hyphen.aalt" horiz-adv-x="806" 
d="M692 788v-165h-577v165h577z" />
    <glyph glyph-name="guillemotleft.aalt" horiz-adv-x="1171" 
d="M625 1077l-338 -372l338 -373h-217l-347 373l347 372h217zM1087 1077l-337 -372l337 -373h-217l-346 373l346 372h217z" />
    <glyph glyph-name="guillemotright.aalt" horiz-adv-x="1171" 
d="M84 1077h217l346 -372l-346 -373h-217l338 373zM547 1077h217l346 -372l-346 -373h-217l338 373z" />
    <glyph glyph-name="guilsinglleft.aalt" horiz-adv-x="718" 
d="M627 872l-338 -372l338 -373h-217l-347 373l347 372h217z" />
    <glyph glyph-name="guilsinglright.aalt" horiz-adv-x="710" 
d="M84 1077h217l346 -372l-346 -373h-217l338 373z" />
    <glyph glyph-name="at.aalt" horiz-adv-x="1947" 
d="M965 -217q-356 0 -616.5 252t-260.5 610q0 356 261 607t646 251q381 0 623 -247.5t242 -598.5q0 -205 -85 -325.5t-227 -120.5q-98 0 -171.5 57.5t-96.5 157.5h-2q-37 -96 -133 -153.5t-209 -57.5q-166 0 -291 122t-125 302t126 302t288 122q100 0 189 -46t122 -116h2
l8 141h150v-475q0 -96 37 -151.5t98 -55.5q145 0 146 283q0 313 -193 506.5t-496 193.5q-317 0 -526 -203.5t-209 -494.5q0 -295 209 -499.5t500 -204.5q203 0 356 112l88 -131q-196 -139 -450 -139zM964.5 369q110.5 0 190.5 78.5t80 191.5q0 111 -80 189.5t-190.5 78.5
t-190.5 -78.5t-80 -189.5t80 -190.5t190.5 -79.5z" />
    <glyph glyph-name="glyph537" 
d="M-281 1466h156q0 -133 -97 -228t-233 -95q-137 0 -235 95t-98 228h155q0 -88 52.5 -146t126 -58t123.5 58t50 146z" />
    </font>
</defs>
</svg>
