<?xml version="1.0" standalone="no"?>
<!DOCTYPE svg PUBLIC "-//W3C//DTD SVG 1.1//EN" "http://www.w3.org/Graphics/SVG/1.1/DTD/svg11.dtd" >
<svg xmlns="http://www.w3.org/2000/svg" xmlns:xlink="http://www.w3.org/1999/xlink" version="1.1">
<metadata>
Created by FontForge 20170731 at Mon Apr  9 14:47:58 2018
 By Aleksey,,,
(c) 2018 Natanael Gama
</metadata>
<defs>
<font id="Point-Book" horiz-adv-x="0" >
  <font-face 
    font-family="Point Book"
    font-weight="400"
    font-stretch="normal"
    units-per-em="2048"
    panose-1="0 0 5 0 0 0 0 0 0 0"
    ascent="1638"
    descent="-410"
    x-height="987"
    cap-height="1372"
    bbox="-1544 -502 2423 1933"
    underline-thickness="0"
    underline-position="0"
    unicode-range="U+0020-FB02"
  />
<missing-glyph horiz-adv-x="1679" 
d="M104 1475h1473v-1475l-1475 2zM1413 164v1147h-1145v-1147h1145zM1249 1147v-819h-819v819h819zM1085 492v491h-491v-491h491zM922 819v-164h-164v164h164z" />
    <glyph glyph-name="uniFB01" unicode="fi" horiz-adv-x="1363" 
d="M629 1360q-117 0 -175.5 -67.5t-58.5 -172.5v-133h389v-133h-389v-854h-166v854h-200v133h200v146q0 158 98.5 262t276.5 104q106 0 197 -39l-19 -133q-79 33 -153 33zM1104 1186q-47 0 -80 32.5t-33 77.5t34 78t79 33t79 -33t34 -78t-33 -77.5t-80 -32.5zM1022 0v987
h166v-987h-166z" />
    <glyph glyph-name="uniFB02" unicode="fl" horiz-adv-x="1363" 
d="M629 1360q-117 0 -175.5 -67.5t-58.5 -172.5v-133h389v-133h-389v-854h-166v854h-200v133h200v146q0 158 98.5 262t276.5 104q106 0 197 -39l-19 -133q-79 33 -153 33zM1022 1475h166v-1475h-166v1475z" />
    <glyph glyph-name=".notdef" horiz-adv-x="1679" 
d="M104 1475h1473v-1475l-1475 2zM1413 164v1147h-1145v-1147h1145zM1249 1147v-819h-819v819h819zM1085 492v491h-491v-491h491zM922 819v-164h-164v164h164z" />
    <glyph glyph-name="glyph1" 
 />
    <glyph glyph-name="glyph2" horiz-adv-x="681" 
 />
    <glyph glyph-name="space" unicode=" " horiz-adv-x="475" 
 />
    <glyph glyph-name="exclam" unicode="!" horiz-adv-x="550" 
d="M193 442v930h165v-930h-165zM276.5 -25q-53.5 0 -92.5 38t-39 91.5t39 91t92 37.5q51 0 90.5 -38.5t39.5 -90.5q0 -53 -38 -91t-91.5 -38z" />
    <glyph glyph-name="quotedbl" unicode="&#x22;" horiz-adv-x="837" 
d="M168 1372h141v-442h-141v442zM528 1372h142v-442h-142v442z" />
    <glyph glyph-name="numbersign" unicode="#" horiz-adv-x="1468" 
d="M1417 893h-293v-414h293v-133h-293v-346h-157v346h-465v-346h-158v346h-291v133h291v414h-291v135h291v344h158v-344h465v344h157v-344h293v-135zM967 479v414h-465v-414h465z" />
    <glyph glyph-name="dollar" unicode="$" horiz-adv-x="1251" 
d="M1116 360q0 -178 -118.5 -274t-311.5 -109v-194h-123v197q-180 16 -309 113t-145 282h172q29 -209 282 -248v506q-102 31 -168.5 60.5t-129 74.5t-93.5 108.5t-31 147.5q0 166 116 263t306 108v182h123v-184q164 -16 276.5 -108.5t133.5 -272.5h-170q-33 197 -240 235
v-489q106 -31 164.5 -54.5t129.5 -68.5t103.5 -113t32.5 -162zM311 1030q0 -92 65.5 -145.5t186.5 -89.5v456q-106 -12 -179 -67.5t-73 -153.5zM686 125q111 10 184.5 65.5t73.5 159.5q0 98 -66.5 152.5t-191.5 95.5v-473z" />
    <glyph glyph-name="percent" unicode="%" horiz-adv-x="1632" 
d="M411.5 731q-139.5 0 -236.5 97.5t-97 236.5t97 235.5t237 96.5q137 0 234 -96.5t97 -235.5t-96 -236.5t-235.5 -97.5zM238 -2l966 1374h174l-968 -1374h-172zM412 870q80 0 136 56.5t56 138.5q0 80 -56 136t-136 56t-137.5 -56t-57.5 -136q0 -82 56.5 -138.5t138.5 -56.5
zM1222.5 -25q-139.5 0 -236.5 97.5t-97 237t97 236.5t237 97q137 0 234 -97t97 -236.5t-96 -237t-235.5 -97.5zM1223 113q82 0 138 57t56 139t-56 137.5t-138 55.5t-138.5 -55.5t-56.5 -137.5q0 -84 56.5 -140t138.5 -56z" />
    <glyph glyph-name="ampersand" unicode="&#x26;" horiz-adv-x="1316" 
d="M1366 0h-205l-153 133q-178 -158 -435 -158q-213 0 -343 102.5t-130 270.5q0 129 77 214t214 157q-162 188 -162 352q0 143 105.5 233.5t269.5 90.5q160 0 263.5 -86t103.5 -232q0 -76 -28 -136t-84 -108.5t-106.5 -78t-129.5 -68.5q39 -41 182 -174q61 -55 192 -178
q104 145 105 311h141q0 -217 -139 -407q158 -146 262 -238zM381 1067q0 -113 147 -281q70 33 113 57.5t89 60.5t67.5 78t21.5 91q0 88 -64.5 137.5t-152.5 49.5q-92 0 -156.5 -54.5t-64.5 -138.5zM578 119q184 0 321 110q-63 55 -203 187q-184 174 -213 202
q-106 -57 -163.5 -116.5t-57.5 -145.5q0 -104 87.5 -170.5t228.5 -66.5z" />
    <glyph glyph-name="quotesingle" unicode="'" horiz-adv-x="462" 
d="M168 1372h141v-442h-141v442z" />
    <glyph glyph-name="parenleft" unicode="(" horiz-adv-x="811" 
d="M795 1327q-225 -98 -363.5 -315t-138.5 -490q0 -266 139 -488t363 -317v-168q-295 106 -481.5 377t-186.5 596q0 330 185.5 596t482.5 377v-168z" />
    <glyph glyph-name="parenright" unicode=")" horiz-adv-x="811" 
d="M16 1327v168q297 -111 482.5 -377t185.5 -596q0 -326 -186.5 -596t-481.5 -377v168q223 94 362.5 316.5t139.5 488.5q0 272 -138.5 489.5t-363.5 315.5z" />
    <glyph glyph-name="asterisk" unicode="*" horiz-adv-x="911" 
d="M406 725v287l-248 -144l-52 88l248 144l-248 143l52 88l248 -143v287h100v-287l250 143l49 -88l-248 -143l248 -144l-49 -88l-250 144v-287h-100z" />
    <glyph glyph-name="plus" unicode="+" horiz-adv-x="1073" 
d="M954 770v-143h-346v-346h-141v346h-348v143h348v346h141v-346h346z" />
    <glyph glyph-name="comma" unicode="," horiz-adv-x="452" 
d="M186 217h166l-114 -551h-119z" />
    <glyph glyph-name="hyphen" unicode="-" horiz-adv-x="806" 
d="M688 569v-141h-569v141h569z" />
    <glyph glyph-name="period" unicode="." horiz-adv-x="516" 
d="M258 -25q-53 0 -92 38t-39 91.5t39 91t92 37.5t92 -37.5t39 -91t-39 -91.5t-92 -38z" />
    <glyph glyph-name="slash" unicode="/" horiz-adv-x="854" 
d="M575 1475h175l-545 -1926h-174z" />
    <glyph glyph-name="zero" unicode="0" horiz-adv-x="1284" 
d="M643 -25q-205 0 -348 141.5t-143 340.5v461q0 199 143 339t348 140q203 0 346.5 -140.5t143.5 -338.5v-461q0 -199 -143.5 -340.5t-346.5 -141.5zM643 127q131 0 225.5 92t94.5 230v477q0 135 -93.5 227t-226.5 92t-227 -92t-94 -227v-477q0 -137 94 -229.5t227 -92.5z
" />
    <glyph glyph-name="one" unicode="1" horiz-adv-x="831" 
d="M393 0v1165l-299 -147v164l377 190h96v-1372h-174z" />
    <glyph glyph-name="two" unicode="2" horiz-adv-x="1179" 
d="M141 0v94l529 574q70 74 104.5 115.5t63 103t28.5 123.5q0 100 -79.5 176t-196.5 76q-125 0 -208 -81t-83 -204h-166q0 184 131 302t328 118q188 0 314 -111.5t126 -269.5q0 -82 -32.5 -158t-71.5 -124t-115 -132l-422 -455h690v-147h-940z" />
    <glyph glyph-name="three" unicode="3" horiz-adv-x="1175" 
d="M588 -25q-213 0 -338 117t-125 301h168q0 -121 80 -201.5t217 -80.5q139 0 219 78.5t80 199.5t-86 194.5t-223 73.5h-160v125h160q106 0 183 70t77 174q0 102 -70 170t-190 68q-119 0 -188.5 -69t-69.5 -173h-166q0 164 119.5 269.5t308.5 105.5q186 0 303 -98.5
t117 -249.5q0 -115 -71 -203t-185 -121q139 -31 223 -122t84 -228q0 -174 -127 -287t-340 -113z" />
    <glyph glyph-name="four" unicode="4" horiz-adv-x="1146" 
d="M1106 522v-125h-199v-397h-166v397h-692v99l739 876h119v-850h199zM246 522h495v598z" />
    <glyph glyph-name="five" unicode="5" horiz-adv-x="1198" 
d="M612 -25q-199 0 -339 121t-140 297l170 10q4 -119 94 -199.5t219 -80.5q125 0 213.5 91t88.5 218q0 129 -89.5 219t-212.5 90q-154 0 -274 -120l-149 61l92 690h688v-139h-555l-56 -457q121 109 281 109q182 0 314.5 -134.5t132.5 -320.5t-140.5 -320.5t-337.5 -134.5z
" />
    <glyph glyph-name="six" unicode="6" horiz-adv-x="1198" 
d="M614.5 -25q-200.5 0 -343 138.5t-142.5 330.5q0 135 78 279l371 649h182l-301 -528q88 47 192 47q184 0 317.5 -133t133.5 -316q0 -193 -143.5 -330t-344 -137zM616 127q131 0 225.5 94t94.5 225.5t-93 224.5t-227 93q-131 0 -225 -93t-94 -225q0 -133 93 -226t226 -93z
" />
    <glyph glyph-name="seven" unicode="7" horiz-adv-x="1044" 
d="M319 0l433 1223h-658v149h846v-94l-448 -1278h-173z" />
    <glyph glyph-name="eight" unicode="8" horiz-adv-x="1185" 
d="M596 -25q-188 0 -321.5 122t-133.5 300q2 131 77 234.5t202 142.5q-92 33 -146.5 112t-52.5 179q4 137 111.5 234.5t263.5 97.5t262.5 -97.5t106.5 -240.5q0 -94 -52.5 -171t-142.5 -114q125 -39 199.5 -142.5t74.5 -234.5q0 -176 -130 -299t-318 -123zM594 825
q92 0 154.5 63.5t62.5 153.5q0 92 -62.5 155t-154.5 63t-155.5 -62.5t-63.5 -155.5q0 -90 63.5 -153.5t155.5 -63.5zM594 127q119 0 201 82t82 200.5t-82 200.5t-201 82t-202 -82t-85 -200q0 -119 83 -201t204 -82z" />
    <glyph glyph-name="nine" unicode="9" horiz-adv-x="1173" 
d="M575 1397q197 0 334.5 -134.5t137.5 -320.5q0 -135 -74 -268l-361 -674h-182l309 569q-80 -51 -200 -51q-178 0 -308.5 126t-130.5 298q0 186 140 320.5t335 134.5zM573 1245q-127 0 -216 -89t-89 -218q0 -121 89 -207t216 -86q129 0 218.5 86t89.5 207q0 129 -89.5 218
t-218.5 89z" />
    <glyph glyph-name="colon" unicode=":" horiz-adv-x="516" 
d="M258 758q-53 0 -92 38t-39 91t39 91t92 38t92 -38t39 -91t-39 -91t-92 -38zM258 -25q-53 0 -92 38t-39 91.5t39 91t92 37.5t92 -37.5t39 -91t-39 -91.5t-92 -38z" />
    <glyph glyph-name="semicolon" unicode=";" horiz-adv-x="516" 
d="M258 758q-53 0 -92 38t-39 91t39 91t92 38t92 -38t39 -91t-39 -91t-92 -38zM203 217h166l-115 -551h-119z" />
    <glyph glyph-name="less" unicode="&#x3c;" horiz-adv-x="997" 
d="M870 1122v-151l-616 -271l616 -268v-151l-782 348v145z" />
    <glyph glyph-name="equal" unicode="=" horiz-adv-x="1105" 
d="M971 975v-144h-836v144h836zM971 565v-143h-836v143h836z" />
    <glyph glyph-name="greater" unicode="&#x3e;" horiz-adv-x="997" 
d="M127 1122l782 -348v-145l-782 -348v151l616 268l-616 271v151z" />
    <glyph glyph-name="question" unicode="?" horiz-adv-x="1038" 
d="M428 365v79q0 82 38 142.5t91 98.5t106.5 75t91.5 95t38 138q0 109 -80 185.5t-195 76.5q-117 0 -197.5 -81.5t-80.5 -210.5h-166q0 182 130 306t312 124t312 -118t130 -284q0 -92 -37.5 -161.5t-92 -111.5t-107.5 -80t-91 -88t-38 -114v-71h-164zM510 -25q-51 0 -87 36
t-36 85t36 85t87 36q49 0 86 -36t37 -85t-37 -85t-86 -36z" />
    <glyph glyph-name="at" unicode="@" horiz-adv-x="1933" 
d="M958 -418q-352 0 -608 250t-256 604q0 352 257 601t634 249q375 0 614.5 -245.5t239.5 -598.5q0 -197 -80 -318.5t-215 -121.5q-96 0 -167.5 61.5t-90.5 169.5q-37 -102 -136 -164.5t-218 -62.5q-166 0 -292 122t-126 302t126 302t290 122q109 0 202 -53t125 -133h3
l6 168h129v-486q0 -104 40 -162.5t103 -58.5q80 0 117 86t37 213q0 322 -199 521.5t-506 199.5q-319 0 -532 -208t-213 -505q0 -301 214 -510t509 -209q205 0 370 117l74 -113q-197 -139 -451 -139zM956.5 137q120.5 0 206.5 86t86 207q0 119 -86 205t-206.5 86t-206.5 -86
t-86 -205t86 -206t206.5 -87z" />
    <glyph glyph-name="A" unicode="A" horiz-adv-x="1456" 
d="M1266 0l-168 350h-738l-167 -350h-183l678 1376h80l678 -1376h-180zM420 475h618l-309 643z" />
    <glyph glyph-name="B" unicode="B" horiz-adv-x="1304" 
d="M193 0v1372h591q147 0 252 -102.5t105 -249.5q0 -96 -47 -175t-129 -114q111 -31 180 -123t69 -215q0 -168 -115.5 -280.5t-291.5 -112.5h-614zM360 786h396q92 0 156.5 67t64.5 163q0 92 -67.5 155.5t-166.5 63.5h-383v-449zM360 139h422q113 0 191 75t78 181
q0 109 -81 184.5t-200 75.5h-410v-516z" />
    <glyph glyph-name="C" unicode="C" horiz-adv-x="1624" 
d="M1518 469q-70 -217 -260.5 -355.5t-428.5 -138.5q-301 0 -514 209t-213 502t213 502t514 209q238 0 428.5 -138.5t260.5 -355.5h-183q-63 150 -200.5 243t-305.5 93q-229 0 -391 -162t-162 -391t162 -391t391 -162q168 0 306.5 92t201.5 244h181z" />
    <glyph glyph-name="D" unicode="D" horiz-adv-x="1591" 
d="M193 0v1372h589q291 0 499 -201.5t208 -484.5t-208 -484.5t-499 -201.5h-589zM367 158h415q219 0 376 155.5t157 372.5t-157 372.5t-376 155.5h-415v-1056z" />
    <glyph glyph-name="E" unicode="E" horiz-adv-x="1290" 
d="M367 147h786v-147h-960v1372h940v-147h-766v-463h745v-137h-745v-478z" />
    <glyph glyph-name="F" unicode="F" horiz-adv-x="1257" 
d="M1133 1225h-766v-484h737v-139h-737v-602h-174v1372h940v-147z" />
    <glyph glyph-name="G" unicode="G" horiz-adv-x="1638" 
d="M1552 725q0 -8 1 -27.5t1 -31.5q-4 -287 -211.5 -489t-513.5 -202q-301 0 -514 209t-213 502q0 291 213 501t514 210q221 0 401.5 -114t270.5 -302h-190q-76 121 -204 190.5t-278 69.5q-229 0 -391 -161.5t-162 -391t165 -392.5t397 -163q211 0 364.5 128t188.5 323h-596
v141h757z" />
    <glyph glyph-name="H" unicode="H" horiz-adv-x="1572" 
d="M1206 1372h174v-1372h-174v621h-839v-621h-174v1372h174v-606h839v606z" />
    <glyph glyph-name="I" unicode="I" horiz-adv-x="559" 
d="M193 0v1372h174v-1372h-174z" />
    <glyph glyph-name="J" unicode="J" horiz-adv-x="1216" 
d="M1044 1372v-934q0 -188 -135 -325.5t-325.5 -137.5t-331.5 138.5t-141 324.5v43h174v-43q0 -125 87 -215t205.5 -90t205.5 90t87 215v787h-587v147h761z" />
    <glyph glyph-name="K" unicode="K" horiz-adv-x="1312" 
d="M193 0v1372h174v-629h2l680 629h215l-719 -670l719 -702h-217l-678 657h-2v-657h-174z" />
    <glyph glyph-name="L" unicode="L" horiz-adv-x="1177" 
d="M367 147h737v-147h-911v1372h174v-1225z" />
    <glyph glyph-name="M" unicode="M" horiz-adv-x="1851" 
d="M193 0v1372h118l615 -829l614 829h119v-1372h-168v1049l-530 -727h-72l-529 727v-1049h-167z" />
    <glyph glyph-name="N" unicode="N" horiz-adv-x="1585" 
d="M1241 1372h152v-1376h-86l-961 1087v-1083h-153v1376h86l962 -1087v1083z" />
    <glyph glyph-name="O" unicode="O" horiz-adv-x="1656" 
d="M829 -25q-301 0 -514 209t-213 502t213 502t514 209q299 0 512 -209t213 -502t-213 -502t-512 -209zM829.5 133q229.5 0 390 162t160.5 391t-160.5 391t-390 162t-391.5 -162t-162 -391t162 -391t391.5 -162z" />
    <glyph glyph-name="P" unicode="P" horiz-adv-x="1349" 
d="M805 496h-447v-496h-165v1372h624q182 0 309 -126t127 -312q0 -184 -126.5 -311t-321.5 -127zM358 1235v-600h408q137 0 229 86t92 213t-90 214t-219 87h-420z" />
    <glyph glyph-name="Q" unicode="Q" horiz-adv-x="1656" 
d="M1569 -80l-115 -110l-248 270q-176 -104 -377 -105q-301 0 -514 209t-213 502t213 502t514 209q299 0 512 -209t213 -502q0 -301 -221 -510zM829 133q141 0 267 68l-242 264l115 106l252 -274q160 164 159 389q0 229 -160.5 391t-390 162t-391.5 -162t-162 -391t162 -391
t391 -162z" />
    <glyph glyph-name="R" unicode="R" horiz-adv-x="1384" 
d="M1290 0h-186l-336 537h-410v-537h-165v1372h634q176 0 298 -121t122 -301q0 -141 -85 -250.5t-226 -146.5zM358 1235v-567h418q129 0 217 81.5t88 200.5t-86 202t-207 83h-430z" />
    <glyph glyph-name="S" unicode="S" horiz-adv-x="1208" 
d="M637 -25q-94 0 -180 21.5t-163 67t-126 125t-59 186.5h172q12 -94 75.5 -153.5t133 -79t145.5 -19.5q129 0 219 55t90 172q0 61 -26.5 106.5t-86 78t-107.5 50t-138 42.5q-221 66 -333 149.5t-112 247.5q0 176 130 274.5t337 98.5q88 0 166 -20.5t147.5 -62.5t115.5 -120
t59 -182h-170q-20 127 -112.5 184t-203.5 57q-119 0 -209 -56t-90 -167q0 -47 20.5 -85t46 -61.5t78 -47t87.5 -36t100 -30.5q229 -68 307 -115q166 -98 166 -295q0 -190 -133 -287.5t-346 -97.5z" />
    <glyph glyph-name="T" unicode="T" horiz-adv-x="1204" 
d="M1163 1372v-147h-473v-1225h-174v1225h-475v147h1122z" />
    <glyph glyph-name="U" unicode="U" horiz-adv-x="1540" 
d="M782 -25q-250 0 -428 173.5t-178 416.5v807h174v-807q0 -178 126 -305t306 -127q168 0 288 127t120 305v807h174v-807q0 -244 -171 -417t-411 -173z" />
    <glyph glyph-name="V" unicode="V" horiz-adv-x="1435" 
d="M20 1372h183l516 -1106l516 1106h180l-657 -1376h-80z" />
    <glyph glyph-name="W" unicode="W" horiz-adv-x="2185" 
d="M606 0l-532 1372h182l399 -1044l402 1044h73l402 -1044l399 1044h180l-532 -1372h-76l-409 1067l-410 -1067h-78z" />
    <glyph glyph-name="X" unicode="X" horiz-adv-x="1456" 
d="M63 0l568 705l-539 667h207l428 -534l430 534h205l-539 -667l568 -705h-203l-461 571l-461 -571h-203z" />
    <glyph glyph-name="Y" unicode="Y" horiz-adv-x="1427" 
d="M1411 1372l-610 -901v-471h-172v471l-613 901h199l500 -733l497 733h199z" />
    <glyph glyph-name="Z" unicode="Z" horiz-adv-x="1312" 
d="M133 0v70l813 1155h-799v147h1033v-69l-809 -1156h829v-147h-1067z" />
    <glyph glyph-name="bracketleft" unicode="[" horiz-adv-x="796" 
d="M772 1333h-414v-1642h414v-142h-579v1926h579v-142z" />
    <glyph glyph-name="backslash" unicode="\" horiz-adv-x="854" 
d="M276 1475l545 -1926h-174l-545 1926h174z" />
    <glyph glyph-name="bracketright" unicode="]" horiz-adv-x="796" 
d="M604 1475v-1926h-579v142h413v1642h-413v142h579z" />
    <glyph glyph-name="asciicircum" unicode="^" horiz-adv-x="1118" 
d="M995 530h-159l-277 289l-274 -289h-162l362 398h148z" />
    <glyph glyph-name="underscore" unicode="_" horiz-adv-x="1173" 
d="M-2 0h1178v-150h-1178v150z" />
    <glyph glyph-name="grave" unicode="`" horiz-adv-x="1228" 
d="M403 1143l-264 323h154l262 -323h-152z" />
    <glyph glyph-name="a" unicode="a" horiz-adv-x="1343" 
d="M602 -25q-203 0 -356.5 149.5t-153.5 369t153.5 368t356.5 148.5q137 0 252 -75t158 -194h2l6 246h147v-987h-147l-6 246h-2q-45 -121 -160 -196t-250 -75zM628.5 123q153.5 0 262 108.5t108.5 262t-108.5 262t-262 108.5t-262 -108.5t-108.5 -262t108.5 -262t262 -108.5
z" />
    <glyph glyph-name="b" unicode="b" horiz-adv-x="1341" 
d="M342 1475v-734h2q41 119 153.5 194t247.5 75q203 0 353.5 -148.5t150.5 -368t-151.5 -369t-356.5 -149.5q-135 0 -250.5 76t-158.5 195h-2l-6 -246h-148v1475h166zM712.5 123q153.5 0 262 108.5t108.5 262t-108.5 262t-262 108.5t-262 -108.5t-108.5 -262t108.5 -262
t262 -108.5z" />
    <glyph glyph-name="c" unicode="c" horiz-adv-x="1212" 
d="M1118 326q-35 -150 -172 -250.5t-313 -100.5q-223 0 -382 153t-159 366t159 364.5t382 151.5q176 0 312 -98.5t173 -247.5h-170q-33 88 -121 144t-198 56q-154 0 -262.5 -108.5t-108.5 -261.5q0 -152 108.5 -261.5t262.5 -109.5q111 0 197.5 56.5t121.5 146.5h170z" />
    <glyph glyph-name="d" unicode="d" horiz-adv-x="1341" 
d="M999 1475h166v-1475h-147l-6 246h-2q-43 -119 -159 -195t-251 -76q-205 0 -356.5 149.5t-151.5 369t150.5 368t353.5 148.5q135 0 247.5 -75t153.5 -194h2v734zM628.5 123q153.5 0 262 108.5t108.5 262t-108.5 262t-262 108.5t-262 -108.5t-108.5 -262t108.5 -262
t262 -108.5z" />
    <glyph glyph-name="e" unicode="e" horiz-adv-x="1234" 
d="M639 117q109 0 200 45t126 117h163q-53 -135 -191 -219.5t-306 -84.5q-227 0 -383 149.5t-156 371.5q0 215 149.5 364.5t379.5 149.5q240 0 386 -163t146 -405h-897q18 -145 124.5 -235t258.5 -90zM621 870q-147 0 -244.5 -84t-118.5 -217h725q-23 137 -120 219t-242 82z
" />
    <glyph glyph-name="f" unicode="f" horiz-adv-x="845" 
d="M395 1120v-133h389v-133h-389v-854h-166v854h-200v133h200v146q0 158 98.5 262t276.5 104q106 0 197 -39l-19 -133q-80 33 -153 33q-117 0 -175.5 -68t-58.5 -172z" />
    <glyph glyph-name="g" unicode="g" horiz-adv-x="1376" 
d="M659 -471q-182 0 -321 90t-191 256h177q41 -98 133 -153.5t202 -55.5q164 0 273.5 105.5t109.5 267.5v237l-2 9q-41 -125 -156.5 -201t-254.5 -76q-201 0 -350.5 143.5t-149.5 358.5q0 209 151.5 354.5t352.5 145.5q139 0 253.5 -74t157.5 -195h3l6 246h147v-934
q0 -236 -154 -380t-387 -144zM676 143q147 0 253.5 107.5t106.5 261.5q0 145 -107.5 251.5t-258.5 106.5q-150 0 -257.5 -105.5t-107.5 -256.5q0 -150 108.5 -257.5t262.5 -107.5z" />
    <glyph glyph-name="h" unicode="h" horiz-adv-x="1304" 
d="M176 0v1475h166v-738h2q41 121 139.5 197t218.5 76q199 0 322 -136.5t123 -343.5v-530h-166v516q0 145 -90 245.5t-229 100.5q-131 0 -225.5 -105.5t-94.5 -252.5v-504h-166z" />
    <glyph glyph-name="i" unicode="i" horiz-adv-x="518" 
d="M258 1186q-47 0 -80 32.5t-33 77.5t34 78t79 33t79 -33t34 -78t-33 -77.5t-80 -32.5zM176 0v987h166v-987h-166z" />
    <glyph glyph-name="j" unicode="j" horiz-adv-x="522" 
d="M264 1186q-47 0 -79.5 32.5t-32.5 77.5t33.5 78t78.5 33t79 -33t34 -78t-33 -77.5t-80 -32.5zM39 -471q-68 0 -117 25v137q57 -25 103 -25q78 0 116.5 51.5t38.5 130.5v1139h166v-1130q0 -141 -82 -234.5t-225 -93.5z" />
    <glyph glyph-name="k" unicode="k" horiz-adv-x="1099" 
d="M176 0v1475h166v-893h2l481 405h211l-530 -450l561 -537h-213l-510 492h-2v-492h-166z" />
    <glyph glyph-name="l" unicode="l" horiz-adv-x="518" 
d="M176 0v1475h166v-1475h-166z" />
    <glyph glyph-name="m" unicode="m" horiz-adv-x="1974" 
d="M1389 1010q190 0 309 -130t119 -325v-555h-166v549q0 131 -80 222t-205 91q-119 0 -203 -95t-84 -230v-537h-166v549q0 131 -80.5 222t-205.5 91q-117 0 -201 -95t-84 -230v-537h-166v987h148l8 -225h2q39 111 132 179.5t204 68.5q123 0 215 -60.5t143 -165.5
q59 113 155.5 169.5t205.5 56.5z" />
    <glyph glyph-name="n" unicode="n" horiz-adv-x="1304" 
d="M176 0v987h148l8 -250h2q41 121 143.5 197t224.5 76q199 0 322 -136.5t123 -343.5v-530h-166v516q0 145 -90 245.5t-229 100.5q-131 0 -225.5 -105.5t-94.5 -252.5v-504h-166z" />
    <glyph glyph-name="o" unicode="o" horiz-adv-x="1259" 
d="M629 -25q-221 0 -379 153t-158 366t158 364.5t379 151.5q223 0 379.5 -151.5t156.5 -364.5t-156.5 -366t-379.5 -153zM629 123q154 0 262 108.5t108 262t-108.5 262t-261.5 108.5q-152 0 -261.5 -108.5t-109.5 -262t109.5 -262t261.5 -108.5z" />
    <glyph glyph-name="p" unicode="p" horiz-adv-x="1341" 
d="M176 -451v1438h148l6 -246h2q43 119 158.5 194t250.5 75q203 0 355.5 -148.5t152.5 -368t-150.5 -369t-350.5 -149.5q-137 0 -250 76t-154 195h-2v-697h-166zM712.5 123q151.5 0 261 108.5t109.5 262t-109.5 262t-261 108.5t-261 -108.5t-109.5 -262t109.5 -262
t261 -108.5z" />
    <glyph glyph-name="q" unicode="q" horiz-adv-x="1341" 
d="M1165 -451h-166v697h-2q-41 -119 -153.5 -195t-249.5 -76q-201 0 -351.5 149.5t-150.5 369t152.5 368t355.5 148.5q135 0 251 -75t159 -194h2l6 246h147v-1438zM628.5 123q151.5 0 261 108.5t109.5 262t-109.5 262t-261 108.5t-261 -108.5t-109.5 -262t109.5 -262
t261 -108.5z" />
    <glyph glyph-name="r" unicode="r" horiz-adv-x="788" 
d="M176 0v987h148l8 -282h2q41 139 146.5 220t236.5 81v-148q-166 0 -270.5 -114.5t-104.5 -288.5v-455h-166z" />
    <glyph glyph-name="s" unicode="s" horiz-adv-x="1099" 
d="M575 -25q-113 0 -209 29t-165.5 100.5t-75.5 174.5h178q8 -92 88 -130t180 -38q246 0 246 145q0 41 -19.5 69.5t-64.5 48t-80 30t-102 24.5q-25 6 -37 8q-76 16 -129 36t-110.5 53.5t-87 86t-29.5 121.5q0 133 109.5 205t285.5 72q102 0 190 -24.5t157 -93.5t75 -171
h-170q-10 82 -83 119t-165 37q-96 0 -161.5 -35t-65.5 -107q0 -41 20.5 -69.5t66.5 -49t85 -31t110 -26.5q70 -14 115 -26.5t101.5 -36t89 -52t56 -74.5t23.5 -104q0 -143 -118 -217t-304 -74z" />
    <glyph glyph-name="t" unicode="t" horiz-adv-x="868" 
d="M618 127q76 0 164 33v-146q-70 -39 -188 -39q-176 0 -272.5 110t-96.5 273v496h-209v133h209v281h166v-281h389v-133h-389v-483q0 -106 57 -175t170 -69z" />
    <glyph glyph-name="u" unicode="u" horiz-adv-x="1273" 
d="M1100 987v-987h-148l-10 250h-2q-41 -123 -138 -199t-216 -76q-190 0 -309 137.5t-119 344.5v530h166v-518q0 -145 86 -244.5t219 -99.5q125 0 215 103.5t90 252.5v506h166z" />
    <glyph glyph-name="v" unicode="v" horiz-adv-x="1101" 
d="M510 0l-487 987h180l348 -737l346 737h180l-487 -987h-80z" />
    <glyph glyph-name="w" unicode="w" horiz-adv-x="1759" 
d="M463 0l-451 987h181l319 -704l326 704h82l323 -704l322 704h182l-451 -987h-77l-340 731l-338 -731h-78z" />
    <glyph glyph-name="x" unicode="x" horiz-adv-x="1150" 
d="M1094 0h-191l-325 385l-328 -385h-193l424 502l-407 485h190l314 -369l313 369h190l-409 -485z" />
    <glyph glyph-name="y" unicode="y" horiz-adv-x="1110" 
d="M166 -451l307 582l-440 856h180l346 -694l348 694h180l-743 -1438h-178z" />
    <glyph glyph-name="z" unicode="z" horiz-adv-x="1126" 
d="M113 0v70l661 778h-639v139h869v-69l-656 -779h676v-139h-911z" />
    <glyph glyph-name="braceleft" unicode="{" horiz-adv-x="813" 
d="M618 -461q-133 0 -228 93.5t-95 222.5v458q0 57 -38 95t-91 38h-80v142h80q53 0 91 38t38 93v446q0 131 95 224.5t228 93.5h162v-150h-137q-72 0 -124 -52t-52 -124v-448q0 -66 -36 -120t-101 -73q66 -20 101.5 -72.5t35.5 -117.5v-461q0 -72 52 -124t124 -52h137v-150
h-162z" />
    <glyph glyph-name="bar" unicode="|" horiz-adv-x="550" 
d="M193 1475h165v-1926h-165v1926z" />
    <glyph glyph-name="braceright" unicode="}" horiz-adv-x="813" 
d="M195 -461h-162v150h137q72 0 124 52t52 124v461q0 66 36 118t101 72q-66 18 -101.5 72.5t-35.5 120.5v448q0 72 -52 124t-124 52h-137v150h162q133 0 228 -93.5t95 -224.5v-446q0 -55 38 -93t91 -38h80v-142h-80q-53 0 -91 -37.5t-38 -95.5v-458q0 -129 -95 -222.5
t-228 -93.5z" />
    <glyph glyph-name="asciitilde" unicode="~" horiz-adv-x="1093" 
d="M868 854h97q-4 -139 -56.5 -216t-136.5 -77q-70 0 -216 93.5t-206 93.5q-55 0 -89 -48.5t-36 -134.5h-98q4 147 63.5 225t153.5 78q66 0 146.5 -47t152.5 -93t117 -46q98 0 108 172z" />
    <glyph glyph-name="exclamdown" unicode="&#xa1;" horiz-adv-x="550" 
d="M276.5 1014q53.5 0 91.5 -38t38 -91.5t-39 -91t-91 -37.5q-53 0 -92 37.5t-39 91t39 91.5t92.5 38zM193 547h165v-930h-165v930z" />
    <glyph glyph-name="cent" unicode="&#xa2;" horiz-adv-x="1167" 
d="M686 127q92 14 163 67.5t99 131.5h170q-33 -139 -152.5 -236.5t-279.5 -112.5v-229h-123v232q-201 25 -336 171t-135 342.5t135 342t336 170.5v200h123v-198q160 -14 278.5 -110.5t153.5 -233.5h-170q-29 76 -99.5 129t-162.5 67v-733zM258 493.5q0 -135.5 87 -238.5
t218 -126v729q-131 -23 -218 -126t-87 -238.5z" />
    <glyph glyph-name="sterling" unicode="&#xa3;" horiz-adv-x="1286" 
d="M414 147h813v-147h-1184v147h205v404h-156v131h156v276q0 184 132 311.5t331 127.5q190 0 325 -129t135 -310h-165q0 123 -86 209t-209 86q-125 0 -211 -86t-86 -209v-276h530v-131h-530v-404z" />
    <glyph glyph-name="currency" unicode="&#xa4;" horiz-adv-x="1210" 
d="M1067 709q0 -162 -102 -291l120 -133l-104 -95l-119 132q-117 -78 -258 -78t-258 78l-119 -123l-102 96l117 121q-102 129 -103 293q0 160 99 284l-115 125l104 96l115 -124q119 82 262 81q145 0 260 -79l117 131l104 -97l-118 -131q100 -122 100 -286zM272 709
q0 -139 97.5 -235.5t234.5 -96.5t233.5 97t96.5 234.5t-96.5 233.5t-233.5 96t-234.5 -96t-97.5 -233z" />
    <glyph glyph-name="yen" unicode="&#xa5;" horiz-adv-x="1427" 
d="M1411 1372l-500 -737h355v-131h-443l-22 -33v-135h465v-131h-465v-205h-172v205h-467v131h467v135l-23 33h-444v131h356l-502 737h199l500 -733l497 733h199z" />
    <glyph glyph-name="brokenbar" unicode="&#xa6;" horiz-adv-x="550" 
d="M193 1475h165v-791h-165v791zM193 340h165v-791h-165v791z" />
    <glyph glyph-name="section" unicode="&#xa7;" horiz-adv-x="1105" 
d="M903 449q100 -66 101 -183q0 -143 -119 -217t-318 -74q-113 0 -209 29t-167.5 98.5t-79.5 169.5h176q8 -66 58 -108.5t105.5 -57t110.5 -14.5q115 0 188.5 41t73.5 123q0 84 -74.5 122t-244.5 73q-78 16 -133.5 34.5t-112.5 50t-88 83t-31 118.5q0 123 107 195
q-106 72 -107 192q0 127 116 200t298 73q168 0 290 -71t138 -218h-172q-14 96 -89 137t-163 41q-102 0 -174 -41t-72 -117q0 -84 76 -124.5t225 -67.5q84 -16 143.5 -33.5t121 -49.5t94.5 -82t33 -120q-1 -128 -101 -202zM295 741q0 -84 82 -128t235 -70q76 -12 138 -31
q90 43 90 131q0 84 -81 126t-255 75q-68 14 -115 26q-94 -43 -94 -129z" />
    <glyph glyph-name="dieresis" unicode="&#xa8;" horiz-adv-x="1228" 
d="M256 1192q-43 0 -73.5 30.5t-30.5 73.5q0 41 30.5 73t73.5 32t74.5 -32t31.5 -73q0 -43 -31.5 -73.5t-74.5 -30.5zM682 1192q-43 0 -73.5 30.5t-30.5 73.5q0 41 30.5 73t73.5 32t73.5 -32t30.5 -73q0 -43 -30.5 -73.5t-73.5 -30.5z" />
    <glyph glyph-name="copyright" unicode="&#xa9;" horiz-adv-x="1630" 
d="M815 -25q-295 0 -502 208t-207 503t207 503t502 208q293 0 501 -208t208 -503t-208 -503t-501 -208zM815 98q244 0 415 172t171 416t-171 416t-415 172t-416 -172t-172 -416t172 -416t416 -172zM825 287q-166 0 -283.5 115.5t-117.5 279.5t117.5 281.5t283.5 117.5
q129 0 230.5 -76.5t130.5 -193.5h-127q-23 66 -88.5 110t-147.5 44q-113 0 -193.5 -84t-80.5 -199t81 -199t193 -84q82 0 146.5 43t91.5 111h125q-25 -115 -126.5 -190.5t-234.5 -75.5z" />
    <glyph glyph-name="ordfeminine" unicode="&#xaa;" horiz-adv-x="937" 
d="M420 592q-141 0 -250 104.5t-109 259.5q0 154 109 258.5t250 104.5q92 0 170 -49t106 -127h2l4 157h121v-692h-121l-4 158h-2q-29 -78 -106.5 -126t-169.5 -48zM442.5 709q102.5 0 174 72.5t71.5 174.5q0 100 -72.5 172t-173.5 72q-102 0 -173.5 -71.5t-71.5 -172.5
q0 -102 71.5 -174.5t174 -72.5z" />
    <glyph glyph-name="guillemotleft" unicode="&#xab;" horiz-adv-x="1157" 
d="M612 870l-350 -372l350 -373h-186l-356 373l356 372h186zM1065 870l-350 -372l350 -373h-186l-357 373l357 372h186z" />
    <glyph glyph-name="logicalnot" unicode="&#xac;" horiz-adv-x="1132" 
d="M954 764h2v-424h-147v287h-690v143h835v-6z" />
    <glyph glyph-name="registered" unicode="&#xae;" horiz-adv-x="1277" 
d="M641 1399q225 0 386 -162t161 -389q0 -225 -161 -387t-386 -162q-227 0 -389 162t-162 387q0 227 162 389t389 162zM641 401q182 0 310 131.5t128 315.5t-128 316t-310 132t-312 -132t-130 -316t130 -315.5t312 -131.5zM889 942q0 -61 -35 -106t-92 -64l153 -213h-133
l-139 201h-119v-201h-116v567h284q82 0 139.5 -52t57.5 -132zM520 846h142q47 0 79.5 28.5t32.5 67.5q0 37 -31.5 65.5t-76.5 28.5h-146v-190z" />
    <glyph glyph-name="macron" unicode="&#xaf;" horiz-adv-x="1228" 
d="M139 1257v111h633v-111h-633z" />
    <glyph glyph-name="degree" unicode="&#xb0;" horiz-adv-x="817" 
d="M407.5 745q-135.5 0 -230.5 95.5t-95 230.5t95 230.5t230.5 95.5t230.5 -95.5t95 -230.5t-95 -230.5t-230.5 -95.5zM407.5 879q81.5 0 137 55t55.5 137q0 80 -55.5 136.5t-137 56.5t-137 -56.5t-55.5 -136.5q0 -82 55.5 -137t137 -55z" />
    <glyph glyph-name="plusminus" unicode="&#xb1;" horiz-adv-x="1105" 
d="M625 852h346v-117h-346v-327h-144v327h-346v117h346v328h144v-328zM135 193v116h836v-116h-836z" />
    <glyph glyph-name="uni00B2" unicode="&#xb2;" horiz-adv-x="755" 
d="M74 942v70l350 362q125 117 125 201q0 59 -49 102t-123 43q-78 0 -130 -47t-52 -119h-127q0 119 88 193t221 74q129 0 214 -70t85 -172q0 -74 -36 -129t-105 -125l-275 -272h447v-111h-633z" />
    <glyph glyph-name="uni00B3" unicode="&#xb3;" horiz-adv-x="757" 
d="M381 928q-143 0 -227 73.5t-84 192.5h127q0 -70 50 -118t136 -48q90 0 139 46t49 118q0 70 -54 113t-140 43h-109v96h109q68 0 117 39t49 100q0 59 -45 98t-121 39q-74 0 -118 -39t-44 -98h-127q0 104 82 171t209 67t207 -61.5t80 -157.5q0 -70 -46.5 -125.5
t-119.5 -77.5q90 -20 144 -77.5t54 -141.5q0 -111 -86 -181.5t-231 -70.5z" />
    <glyph glyph-name="acute" unicode="&#xb4;" horiz-adv-x="1228" 
d="M293 1143h-154l264 323h152z" />
    <glyph glyph-name="mu" unicode="&#xb5;" horiz-adv-x="1294" 
d="M952 987h166v-987h-147l-10 250h-3q-41 -123 -138 -199t-216 -76q-168 0 -287 115v-541h-141v1438h166v-518q0 -145 86 -244.5t219 -99.5q125 0 215 103.5t90 252.5v506z" />
    <glyph glyph-name="paragraph" unicode="&#xb6;" horiz-adv-x="1517" 
d="M1325 1372v-1372h-174v1239h-168v-1239h-166v496h-272q-195 0 -322 127t-127 311q0 186 127 312t309 126h793zM817 631v608h-248q-127 0 -217 -89t-90 -216t93.5 -215t228.5 -88h233z" />
    <glyph glyph-name="periodcentered" unicode="&#xb7;" horiz-adv-x="516" 
d="M258 586q-53 0 -92 38t-39 91t39 91t92 38t92 -38t39 -91t-39 -91t-92 -38z" />
    <glyph glyph-name="cedilla" unicode="&#xb8;" horiz-adv-x="1228" 
d="M322 -463q-104 0 -181 68l56 82q55 -45 114 -45q45 0 76 24.5t31 65.5q0 33 -24.5 58.5t-63.5 25.5q-33 0 -66 -25l-69 70l53 141l106 -2l-39 -100q37 6 43 6q76 0 126.5 -50.5t50.5 -125.5q0 -82 -60.5 -137.5t-152.5 -55.5z" />
    <glyph glyph-name="uni00B9" unicode="&#xb9;" horiz-adv-x="514" 
d="M229 942v721l-194 -84v109l258 118h65v-864h-129z" />
    <glyph glyph-name="ordmasculine" unicode="&#xba;" horiz-adv-x="882" 
d="M442 592q-158 0 -269.5 106.5t-111.5 257.5q0 150 112 256.5t269 106.5q156 0 267.5 -106.5t111.5 -256.5q0 -152 -111.5 -258t-267.5 -106zM442.5 709q100.5 0 173 73.5t72.5 174t-72.5 172t-173 71.5t-173 -71.5t-72.5 -172t72.5 -174t173 -73.5z" />
    <glyph glyph-name="guillemotright" unicode="&#xbb;" horiz-adv-x="1157" 
d="M92 870h187l356 -372l-356 -373h-187l350 373zM545 870h186l356 -372l-356 -373h-186l350 373z" />
    <glyph glyph-name="onequarter" unicode="&#xbc;" horiz-adv-x="1591" 
d="M229 512v721l-194 -84v108l258 119h65v-864h-129zM199 -2l968 1374h140l-971 -1374h-137zM1579 336v-94h-129v-242h-121v242h-463v73l496 549h88v-528h129zM1006 336h327v364z" />
    <glyph glyph-name="onehalf" unicode="&#xbd;" horiz-adv-x="1771" 
d="M229 512v721l-194 -84v108l258 119h65v-864h-129zM199 -2l968 1374h140l-971 -1374h-137zM1090 0v70l350 362q125 117 125 201q0 59 -49.5 102t-122.5 43q-78 0 -130.5 -47t-52.5 -119h-127q0 119 88.5 193t221.5 74q129 0 214 -70t85 -172q0 -74 -36 -129t-106 -125
l-274 -272h446v-111h-632z" />
    <glyph glyph-name="threequarters" unicode="&#xbe;" horiz-adv-x="1826" 
d="M381 498q-143 0 -227 73.5t-84 192.5h127q0 -70 50 -118t136 -48q90 0 139 46t49 118q0 70 -54 113t-140 43h-109v96h109q68 0 117 39t49 100q0 59 -45 98t-121 39q-74 0 -118 -39t-44 -98h-127q0 104 82 171t209 67t207 -61.5t80 -158.5q0 -70 -46.5 -125t-119.5 -77
q90 -20 144 -77.5t54 -141.5q0 -111 -86 -181.5t-231 -70.5zM434 -2l969 1374h139l-971 -1374h-137zM1815 336v-94h-129v-242h-121v242h-463v73l495 549h89v-528h129zM1241 336h328v364z" />
    <glyph glyph-name="questiondown" unicode="&#xbf;" horiz-adv-x="1038" 
d="M528 1014q51 0 87 -36t36 -85t-35.5 -85t-87.5 -36q-49 0 -85.5 36t-36.5 85t36.5 85t85.5 36zM610 625v-80q0 -82 -37.5 -142.5t-91 -98.5t-106.5 -74.5t-91 -95t-38 -138.5q0 -109 80 -185.5t194 -76.5q117 0 198 82t81 211h166q0 -182 -130 -306t-312.5 -124
t-312.5 117.5t-130 283.5q0 92 38 161.5t91 111.5t107.5 80t92 88t37.5 114v72h164z" />
    <glyph glyph-name="Agrave" unicode="&#xc0;" horiz-adv-x="1456" 
d="M868 1528h-151l-264 323h153zM1266 0l-168 350h-738l-167 -350h-183l678 1376h80l678 -1376h-180zM420 475h618l-309 643z" />
    <glyph glyph-name="Aacute" unicode="&#xc1;" horiz-adv-x="1456" 
d="M1038 1851l-262 -323h-153l264 323h151zM1266 0l-168 350h-738l-167 -350h-183l678 1376h80l678 -1376h-180zM420 475h618l-309 643z" />
    <glyph glyph-name="Acircumflex" unicode="&#xc2;" horiz-adv-x="1456" 
d="M729 1753l-211 -225h-151l288 323h148l289 -323h-152zM1266 0l-168 350h-738l-167 -350h-183l678 1376h80l678 -1376h-180zM420 475h618l-309 643z" />
    <glyph glyph-name="Atilde" unicode="&#xc3;" horiz-adv-x="1456" 
d="M592 1737q-51 0 -84 -52.5t-35 -130.5h-98q4 147 63.5 225.5t153.5 78.5q55 0 100 -29t70.5 -63.5t57.5 -63.5t63 -29q43 0 69.5 48t30.5 122h98q-4 -139 -57 -216t-137 -77q-49 0 -92 29t-70 64.5t-62.5 64.5t-70.5 29zM1266 0l-168 350h-738l-167 -350h-183l678 1376
h80l678 -1376h-180zM420 475h618l-309 643z" />
    <glyph glyph-name="Adieresis" unicode="&#xc4;" horiz-adv-x="1456" 
d="M516 1577q-43 0 -73.5 30.5t-30.5 73.5q0 41 30.5 73t73.5 32t75 -32t32 -73q0 -43 -32 -73.5t-75 -30.5zM942 1577q-43 0 -73.5 30.5t-30.5 73.5q0 41 30.5 73t73.5 32t74 -32t31 -73q0 -43 -31 -73.5t-74 -30.5zM1266 0l-168 350h-738l-167 -350h-183l678 1376h80
l678 -1376h-180zM420 475h618l-309 643z" />
    <glyph glyph-name="Aring" unicode="&#xc5;" horiz-adv-x="1456" 
d="M729 1475q-94 0 -158.5 63.5t-64.5 153.5q0 88 64.5 150.5t158.5 62.5q92 0 156.5 -62.5t64.5 -150.5q0 -90 -64.5 -153.5t-156.5 -63.5zM729 1810q-51 0 -87 -34.5t-36 -83.5q0 -53 35 -88t88 -35q51 0 86 35.5t35 87.5q0 49 -35 83.5t-86 34.5zM1266 0l-168 350h-738
l-167 -350h-183l678 1376h80l678 -1376h-180zM420 475h618l-309 643z" />
    <glyph glyph-name="AE" unicode="&#xc6;" horiz-adv-x="1992" 
d="M1163 147h692v-147h-847v350h-607l-231 -350h-182l936 1372h911v-147h-672v-463h652v-137h-652v-478zM485 475h523v789z" />
    <glyph glyph-name="Ccedilla" unicode="&#xc7;" horiz-adv-x="1624" 
d="M829 133q168 0 306.5 92t201.5 244h181q-68 -211 -250.5 -348t-413.5 -146l-29 -75q37 6 43 6q76 0 126 -50.5t50 -125.5q0 -82 -60 -137.5t-153 -55.5q-104 0 -180 68l56 82q55 -45 114 -45q45 0 76 24.5t31 65.5q0 33 -24.5 58.5t-63.5 25.5q-33 0 -66 -25l-69 70
l45 119q-274 29 -461 231.5t-187 474.5q0 293 213 502t514 209q238 0 428.5 -138.5t260.5 -355.5h-183q-63 150 -200.5 243t-305.5 93q-229 0 -391 -162t-162 -391t162 -391t391 -162z" />
    <glyph glyph-name="Egrave" unicode="&#xc8;" horiz-adv-x="1290" 
d="M811 1528h-152l-264 323h154zM367 147h786v-147h-960v1372h940v-147h-766v-463h745v-137h-745v-478z" />
    <glyph glyph-name="Eacute" unicode="&#xc9;" horiz-adv-x="1290" 
d="M981 1851l-262 -323h-154l264 323h152zM367 147h786v-147h-960v1372h940v-147h-766v-463h745v-137h-745v-478z" />
    <glyph glyph-name="Ecircumflex" unicode="&#xca;" horiz-adv-x="1290" 
d="M672 1753l-211 -225h-152l289 323h147l289 -323h-151zM367 147h786v-147h-960v1372h940v-147h-766v-463h745v-137h-745v-478z" />
    <glyph glyph-name="Edieresis" unicode="&#xcb;" horiz-adv-x="1290" 
d="M459 1577q-43 0 -74 30.5t-31 73.5q0 41 31 73t74 32t74.5 -32t31.5 -73q0 -43 -31.5 -73.5t-74.5 -30.5zM885 1577q-43 0 -74 30.5t-31 73.5q0 41 31 73t74 32t73.5 -32t30.5 -73q0 -43 -30.5 -73.5t-73.5 -30.5zM367 147h786v-147h-960v1372h940v-147h-766v-463h745
v-137h-745v-478z" />
    <glyph glyph-name="Igrave" unicode="&#xcc;" horiz-adv-x="559" 
d="M268 1528l-264 323h154l262 -323h-152zM193 0v1372h174v-1372h-174z" />
    <glyph glyph-name="Iacute" unicode="&#xcd;" horiz-adv-x="559" 
d="M328 1528h-154l264 323h152zM193 0v1372h174v-1372h-174z" />
    <glyph glyph-name="Icircumflex" unicode="&#xce;" horiz-adv-x="559" 
d="M643 1528h-151l-211 225l-211 -225h-152l289 323h147zM193 0v1372h174v-1372h-174z" />
    <glyph glyph-name="Idieresis" unicode="&#xcf;" horiz-adv-x="559" 
d="M68 1577q-43 0 -74 30.5t-31 73.5q0 41 31 73t74 32t74.5 -32t31.5 -73q0 -43 -31.5 -73.5t-74.5 -30.5zM494 1577q-43 0 -74 30.5t-31 73.5q0 41 31 73t74 32t73.5 -32t30.5 -73q0 -43 -30.5 -73.5t-73.5 -30.5zM193 0v1372h174v-1372h-174z" />
    <glyph glyph-name="Eth" unicode="&#xd0;" horiz-adv-x="1591" 
d="M782 1372q291 0 499 -201.5t208 -484.5t-208 -484.5t-499 -201.5h-589v627h-179v116h179v629h589zM782 158q219 0 376 155.5t157 372.5t-157 372.5t-376 155.5h-415v-471h360v-116h-360v-469h415z" />
    <glyph glyph-name="Ntilde" unicode="&#xd1;" horiz-adv-x="1585" 
d="M1049 1843h98q-4 -139 -57.5 -216t-137.5 -77q-49 0 -92 29t-69.5 64.5t-62.5 64.5t-71 29q-51 0 -83.5 -52.5t-34.5 -130.5h-99q4 147 63.5 225.5t153.5 78.5q55 0 100.5 -29t71 -63.5t57.5 -63.5t62 -29q43 0 70 48t31 122zM1241 1372h152v-1376h-86l-961 1087v-1083
h-153v1376h86l962 -1087v1083z" />
    <glyph glyph-name="Ograve" unicode="&#xd2;" horiz-adv-x="1656" 
d="M817 1528l-264 323h154l262 -323h-152zM829 -25q-301 0 -514 209t-213 502t213 502t514 209q299 0 512 -209t213 -502t-213 -502t-512 -209zM829.5 133q229.5 0 390 162t160.5 391t-160.5 391t-390 162t-391.5 -162t-162 -391t162 -391t391.5 -162z" />
    <glyph glyph-name="Oacute" unicode="&#xd3;" horiz-adv-x="1656" 
d="M877 1528h-154l264 323h152zM829 -25q-301 0 -514 209t-213 502t213 502t514 209q299 0 512 -209t213 -502t-213 -502t-512 -209zM829.5 133q229.5 0 390 162t160.5 391t-160.5 391t-390 162t-391.5 -162t-162 -391t162 -391t391.5 -162z" />
    <glyph glyph-name="Ocircumflex" unicode="&#xd4;" horiz-adv-x="1656" 
d="M1192 1528h-152l-211 225l-211 -225h-151l289 323h147zM829 -25q-301 0 -514 209t-213 502t213 502t514 209q299 0 512 -209t213 -502t-213 -502t-512 -209zM829.5 133q229.5 0 390 162t160.5 391t-160.5 391t-390 162t-391.5 -162t-162 -391t162 -391t391.5 -162z" />
    <glyph glyph-name="Otilde" unicode="&#xd5;" horiz-adv-x="1656" 
d="M1083 1843h99q-4 -139 -57.5 -216t-137.5 -77q-49 0 -92 29t-69.5 64.5t-62.5 64.5t-71 29q-51 0 -84 -52.5t-35 -130.5h-98q4 147 63.5 225.5t153.5 78.5q55 0 100.5 -29t71 -63.5t57 -63.5t62.5 -29q43 0 69.5 48t30.5 122zM829 -25q-301 0 -514 209t-213 502t213 502
t514 209q299 0 512 -209t213 -502t-213 -502t-512 -209zM829.5 133q229.5 0 390 162t160.5 391t-160.5 391t-390 162t-391.5 -162t-162 -391t162 -391t391.5 -162z" />
    <glyph glyph-name="Odieresis" unicode="&#xd6;" horiz-adv-x="1656" 
d="M616 1577q-43 0 -73.5 30.5t-30.5 73.5q0 41 30.5 73t73.5 32t75 -32t32 -73q0 -43 -32 -73.5t-75 -30.5zM1042 1577q-43 0 -73.5 30.5t-30.5 73.5q0 41 30.5 73t73.5 32t74 -32t31 -73q0 -43 -31 -73.5t-74 -30.5zM829 -25q-301 0 -514 209t-213 502t213 502t514 209
q299 0 512 -209t213 -502t-213 -502t-512 -209zM829.5 133q229.5 0 390 162t160.5 391t-160.5 391t-390 162t-391.5 -162t-162 -391t162 -391t391.5 -162z" />
    <glyph glyph-name="multiply" unicode="&#xd7;" horiz-adv-x="1062" 
d="M250 315l-100 103l280 280l-280 281l100 100l282 -280l281 280l100 -100l-280 -281l280 -280l-100 -103l-281 283z" />
    <glyph glyph-name="Oslash" unicode="&#xd8;" horiz-adv-x="1656" 
d="M1325 1204q229 -209 229 -518q0 -293 -213 -502t-512 -209q-223 0 -405 121l-80 -96h-158l142 172q-225 213 -226 514q0 293 213 502t514 209q219 0 400 -119l76 94h155zM276 686q0 -223 156 -385l694 852q-133 86 -297 86q-229 0 -391 -162t-162 -391zM829 133
q229 0 390 162t161 391q0 227 -159 391l-695 -854q135 -90 303 -90z" />
    <glyph glyph-name="Ugrave" unicode="&#xd9;" horiz-adv-x="1540" 
d="M758 1528l-264 323h153l262 -323h-151zM782 -25q-250 0 -428 173.5t-178 416.5v807h174v-807q0 -178 126 -305t306 -127q168 0 288 127t120 305v807h174v-807q0 -244 -171 -417t-411 -173z" />
    <glyph glyph-name="Uacute" unicode="&#xda;" horiz-adv-x="1540" 
d="M817 1528h-153l264 323h151zM782 -25q-250 0 -428 173.5t-178 416.5v807h174v-807q0 -178 126 -305t306 -127q168 0 288 127t120 305v807h174v-807q0 -244 -171 -417t-411 -173z" />
    <glyph glyph-name="Ucircumflex" unicode="&#xdb;" horiz-adv-x="1540" 
d="M1133 1528h-152l-211 225l-211 -225h-151l288 323h148zM782 -25q-250 0 -428 173.5t-178 416.5v807h174v-807q0 -178 126 -305t306 -127q168 0 288 127t120 305v807h174v-807q0 -244 -171 -417t-411 -173z" />
    <glyph glyph-name="Udieresis" unicode="&#xdc;" horiz-adv-x="1540" 
d="M557 1577q-43 0 -73.5 30.5t-30.5 73.5q0 41 30.5 73t73.5 32t75 -32t32 -73q0 -43 -32 -73.5t-75 -30.5zM983 1577q-43 0 -73.5 30.5t-30.5 73.5q0 41 30.5 73t73.5 32t73.5 -32t30.5 -73q0 -43 -30.5 -73.5t-73.5 -30.5zM782 -25q-250 0 -428 173.5t-178 416.5v807h174
v-807q0 -178 126 -305t306 -127q168 0 288 127t120 305v807h174v-807q0 -244 -171 -417t-411 -173z" />
    <glyph glyph-name="Yacute" unicode="&#xdd;" horiz-adv-x="1427" 
d="M1024 1851l-262 -323h-154l264 323h152zM1411 1372l-610 -901v-471h-172v471l-613 901h199l500 -733l497 733h199z" />
    <glyph glyph-name="Thorn" unicode="&#xde;" horiz-adv-x="1300" 
d="M754 258h-396v-258h-165v1372h157v-239h416q184 0 311 -125t127 -312q0 -184 -127.5 -311t-322.5 -127zM358 999v-608h359q135 0 228 89t93 216t-90 215t-219 88h-371z" />
    <glyph glyph-name="germandbls" unicode="&#xdf;" horiz-adv-x="1316" 
d="M774 -25q-174 0 -266 68v166q104 -86 239.5 -86t218.5 79t83 204q0 129 -87.5 209.5t-220.5 80.5h-137v127h113q106 0 180 75t74 189.5t-79 189.5t-212 75q-150 0 -227.5 -91.5t-77.5 -226.5v-1034h-164v1034q0 207 126 336t343 129q203 0 331 -113.5t128 -291.5
q0 -119 -58.5 -204t-136.5 -116q127 -35 203 -138.5t76 -246.5q0 -184 -121 -299t-328 -115z" />
    <glyph glyph-name="agrave" unicode="&#xe0;" horiz-adv-x="1343" 
d="M637 1143l-264 323h153l262 -323h-151zM602 -25q-203 0 -356.5 149.5t-153.5 369t153.5 368t356.5 148.5q137 0 252 -75t158 -194h2l6 246h147v-987h-147l-6 246h-2q-45 -121 -160 -196t-250 -75zM628.5 123q153.5 0 262 108.5t108.5 262t-108.5 262t-262 108.5
t-262 -108.5t-108.5 -262t108.5 -262t262 -108.5z" />
    <glyph glyph-name="aacute" unicode="&#xe1;" horiz-adv-x="1343" 
d="M696 1143h-153l264 323h151zM602 -25q-203 0 -356.5 149.5t-153.5 369t153.5 368t356.5 148.5q137 0 252 -75t158 -194h2l6 246h147v-987h-147l-6 246h-2q-45 -121 -160 -196t-250 -75zM628.5 123q153.5 0 262 108.5t108.5 262t-108.5 262t-262 108.5t-262 -108.5
t-108.5 -262t108.5 -262t262 -108.5z" />
    <glyph glyph-name="acircumflex" unicode="&#xe2;" horiz-adv-x="1343" 
d="M1012 1143h-152l-211 225l-211 -225h-151l288 323h148zM602 -25q-203 0 -356.5 149.5t-153.5 369t153.5 368t356.5 148.5q137 0 252 -75t158 -194h2l6 246h147v-987h-147l-6 246h-2q-45 -121 -160 -196t-250 -75zM628.5 123q153.5 0 262 108.5t108.5 262t-108.5 262
t-262 108.5t-262 -108.5t-108.5 -262t108.5 -262t262 -108.5z" />
    <glyph glyph-name="atilde" unicode="&#xe3;" horiz-adv-x="1343" 
d="M903 1458h98q-4 -139 -57 -216t-137 -77q-49 0 -92 29t-70 64.5t-62.5 64.5t-70.5 29q-51 0 -84 -52.5t-35 -130.5h-98q4 147 63.5 225.5t153.5 78.5q55 0 100 -29t71 -63.5t57.5 -63.5t62.5 -29q43 0 69.5 48t30.5 122zM602 -25q-203 0 -356.5 149.5t-153.5 369
t153.5 368t356.5 148.5q137 0 252 -75t158 -194h2l6 246h147v-987h-147l-6 246h-2q-45 -121 -160 -196t-250 -75zM628.5 123q153.5 0 262 108.5t108.5 262t-108.5 262t-262 108.5t-262 -108.5t-108.5 -262t108.5 -262t262 -108.5z" />
    <glyph glyph-name="adieresis" unicode="&#xe4;" horiz-adv-x="1343" 
d="M436 1192q-43 0 -73.5 30.5t-30.5 73.5q0 41 30.5 73t73.5 32t75 -32t32 -73q0 -43 -32 -73.5t-75 -30.5zM862 1192q-43 0 -73.5 30.5t-30.5 73.5q0 41 30.5 73t73.5 32t74 -32t31 -73q0 -43 -31 -73.5t-74 -30.5zM602 -25q-203 0 -356.5 149.5t-153.5 369t153.5 368
t356.5 148.5q137 0 252 -75t158 -194h2l6 246h147v-987h-147l-6 246h-2q-45 -121 -160 -196t-250 -75zM628.5 123q153.5 0 262 108.5t108.5 262t-108.5 262t-262 108.5t-262 -108.5t-108.5 -262t108.5 -262t262 -108.5z" />
    <glyph glyph-name="aring" unicode="&#xe5;" horiz-adv-x="1343" 
d="M649 1090q-94 0 -158.5 63.5t-64.5 153.5q0 88 64.5 150.5t158.5 62.5q92 0 156.5 -62.5t64.5 -150.5q0 -90 -64.5 -153.5t-156.5 -63.5zM649 1184q51 0 86 35.5t35 87.5q0 49 -35 83.5t-86 34.5t-87 -34.5t-36 -83.5q0 -53 36 -88t87 -35zM602 -25q-203 0 -356.5 149.5
t-153.5 369t153.5 368t356.5 148.5q137 0 252 -75t158 -194h2l6 246h147v-987h-147l-6 246h-2q-45 -121 -160 -196t-250 -75zM628.5 123q153.5 0 262 108.5t108.5 262t-108.5 262t-262 108.5t-262 -108.5t-108.5 -262t108.5 -262t262 -108.5z" />
    <glyph glyph-name="ae" unicode="&#xe6;" horiz-adv-x="2076" 
d="M1464 125q117 0 212.5 47t129.5 123l154 -25q-49 -127 -186.5 -211t-309.5 -84q-129 0 -242.5 56.5t-189.5 152.5q-98 -98 -244.5 -153.5t-298.5 -55.5q-158 0 -254 84t-96 213q0 123 99.5 210t275.5 87h404v74q0 94 -81 159.5t-206 65.5q-117 0 -202 -51t-87 -141
l-162 16q6 100 79 175t170 109t202 34q133 0 241.5 -55.5t165.5 -145.5q74 94 185.5 147.5t240.5 53.5q229 0 381 -164t152 -402h-907q18 -141 122.5 -230t251.5 -89zM1464 866q-145 0 -248.5 -85t-125.5 -220h741q-25 141 -126.5 223t-240.5 82zM524 111q113 0 235 46
t212 128q-37 86 -43 161h-391q-100 0 -165 -46t-65 -121.5t58.5 -121.5t158.5 -46z" />
    <glyph glyph-name="ccedilla" unicode="&#xe7;" horiz-adv-x="1212" 
d="M629 123q111 0 197.5 56.5t121.5 146.5h170q-35 -141 -158.5 -239.5t-289.5 -109.5l-31 -77q37 6 43 6q76 0 126 -50.5t50 -125.5q0 -82 -60.5 -137.5t-152.5 -55.5q-104 0 -180 68l55 82q55 -45 115 -45q45 0 75.5 24.5t30.5 65.5q0 33 -24.5 58.5t-63.5 25.5
q-33 0 -65 -25l-70 70l45 119q-201 25 -336 171t-135 343q0 213 159 364.5t382 151.5q176 0 312 -98.5t173 -247.5h-170q-33 88 -121 144t-198 56q-154 0 -262.5 -108.5t-108.5 -261.5q0 -152 108.5 -261.5t262.5 -109.5z" />
    <glyph glyph-name="egrave" unicode="&#xe8;" horiz-adv-x="1234" 
d="M758 1143h-152l-264 323h154zM639 117q109 0 200 45t126 117h163q-53 -135 -191 -219.5t-306 -84.5q-227 0 -383 149.5t-156 371.5q0 215 149.5 364.5t379.5 149.5q240 0 386 -163t146 -405h-897q18 -145 124.5 -235t258.5 -90zM621 870q-147 0 -244.5 -84t-118.5 -217
h725q-23 137 -120 219t-242 82z" />
    <glyph glyph-name="eacute" unicode="&#xe9;" horiz-adv-x="1234" 
d="M928 1466l-262 -323h-154l264 323h152zM639 117q109 0 200 45t126 117h163q-53 -135 -191 -219.5t-306 -84.5q-227 0 -383 149.5t-156 371.5q0 215 149.5 364.5t379.5 149.5q240 0 386 -163t146 -405h-897q18 -145 124.5 -235t258.5 -90zM621 870q-147 0 -244.5 -84
t-118.5 -217h725q-23 137 -120 219t-242 82z" />
    <glyph glyph-name="ecircumflex" unicode="&#xea;" horiz-adv-x="1234" 
d="M618 1368l-210 -225h-152l289 323h147l289 -323h-152zM639 117q109 0 200 45t126 117h163q-53 -135 -191 -219.5t-306 -84.5q-227 0 -383 149.5t-156 371.5q0 215 149.5 364.5t379.5 149.5q240 0 386 -163t146 -405h-897q18 -145 124.5 -235t258.5 -90zM621 870
q-147 0 -244.5 -84t-118.5 -217h725q-23 137 -120 219t-242 82z" />
    <glyph glyph-name="edieresis" unicode="&#xeb;" horiz-adv-x="1234" 
d="M405.5 1192q-43.5 0 -74 30.5t-30.5 73.5q0 41 30.5 73t74 32t75 -32t31.5 -73q0 -43 -31.5 -73.5t-75 -30.5zM831 1192q-43 0 -73.5 30.5t-30.5 73.5q0 41 30.5 73t73.5 32t74 -32t31 -73q0 -43 -31 -73.5t-74 -30.5zM639 117q109 0 200 45t126 117h163
q-53 -135 -191 -219.5t-306 -84.5q-227 0 -383 149.5t-156 371.5q0 215 149.5 364.5t379.5 149.5q240 0 386 -163t146 -405h-897q18 -145 124.5 -235t258.5 -90zM621 870q-147 0 -244.5 -84t-118.5 -217h725q-23 137 -120 219t-242 82z" />
    <glyph glyph-name="igrave" unicode="&#xec;" horiz-adv-x="518" 
d="M246 1143l-264 323h153l262 -323h-151zM176 0v987h166v-987h-166z" />
    <glyph glyph-name="iacute" unicode="&#xed;" horiz-adv-x="518" 
d="M305 1143h-153l264 323h151zM176 0v987h166v-987h-166z" />
    <glyph glyph-name="icircumflex" unicode="&#xee;" horiz-adv-x="518" 
d="M621 1143h-152l-211 225l-211 -225h-151l288 323h148zM176 0v987h166v-987h-166z" />
    <glyph glyph-name="idieresis" unicode="&#xef;" horiz-adv-x="518" 
d="M45 1192q-43 0 -73.5 30.5t-30.5 73.5q0 41 30.5 73t73.5 32t75 -32t32 -73q0 -43 -32 -73.5t-75 -30.5zM471 1192q-43 0 -73.5 30.5t-30.5 73.5q0 41 30.5 73t73.5 32t73.5 -32t30.5 -73q0 -43 -30.5 -73.5t-73.5 -30.5zM176 0v987h166v-987h-166z" />
    <glyph glyph-name="eth" unicode="&#xf0;" horiz-adv-x="1134" 
d="M717 1247q168 -182 256 -390t88 -380q0 -211 -143.5 -356.5t-350.5 -145.5q-201 0 -347 138.5t-146 330.5q0 184 134 319.5t318 135.5q203 0 312 -158q-72 233 -242 433l-281 -175l-30 88l247 154q-102 104 -256 211h207q84 -59 166 -137l205 127l37 -86zM567 127
q137 0 232.5 95t95.5 230.5t-96.5 231.5t-231.5 96t-231 -96t-96 -231q0 -133 96 -229.5t231 -96.5z" />
    <glyph glyph-name="ntilde" unicode="&#xf1;" horiz-adv-x="1304" 
d="M905 1458h99q-4 -139 -57.5 -216t-137.5 -77q-49 0 -92 29t-69.5 64.5t-62.5 64.5t-71 29q-51 0 -84 -52.5t-35 -130.5h-98q4 147 63.5 225.5t153.5 78.5q55 0 100 -29t71 -63.5t57.5 -63.5t62.5 -29q43 0 69.5 48t30.5 122zM176 0v987h148l8 -250h2q41 121 143.5 197
t224.5 76q199 0 322 -136.5t123 -343.5v-530h-166v516q0 145 -90 245.5t-229 100.5q-131 0 -225.5 -105.5t-94.5 -252.5v-504h-166z" />
    <glyph glyph-name="ograve" unicode="&#xf2;" horiz-adv-x="1259" 
d="M618 1143l-264 323h154l262 -323h-152zM629 -25q-221 0 -379 153t-158 366t158 364.5t379 151.5q223 0 379.5 -151.5t156.5 -364.5t-156.5 -366t-379.5 -153zM629 123q154 0 262 108.5t108 262t-108.5 262t-261.5 108.5q-152 0 -261.5 -108.5t-109.5 -262t109.5 -262
t261.5 -108.5z" />
    <glyph glyph-name="oacute" unicode="&#xf3;" horiz-adv-x="1259" 
d="M678 1143h-154l264 323h152zM629 -25q-221 0 -379 153t-158 366t158 364.5t379 151.5q223 0 379.5 -151.5t156.5 -364.5t-156.5 -366t-379.5 -153zM629 123q154 0 262 108.5t108 262t-108.5 262t-261.5 108.5q-152 0 -261.5 -108.5t-109.5 -262t109.5 -262t261.5 -108.5z
" />
    <glyph glyph-name="ocircumflex" unicode="&#xf4;" horiz-adv-x="1259" 
d="M993 1143h-151l-211 225l-211 -225h-152l289 323h148zM629 -25q-221 0 -379 153t-158 366t158 364.5t379 151.5q223 0 379.5 -151.5t156.5 -364.5t-156.5 -366t-379.5 -153zM629 123q154 0 262 108.5t108 262t-108.5 262t-261.5 108.5q-152 0 -261.5 -108.5t-109.5 -262
t109.5 -262t261.5 -108.5z" />
    <glyph glyph-name="otilde" unicode="&#xf5;" horiz-adv-x="1259" 
d="M885 1458h98q-4 -139 -57.5 -216t-137.5 -77q-49 0 -92 29t-69.5 64.5t-62.5 64.5t-70 29q-51 0 -84 -52.5t-35 -130.5h-99q4 147 63.5 225.5t154.5 78.5q55 0 100 -29t70.5 -63.5t57.5 -63.5t62 -29q43 0 70 48t31 122zM629 -25q-221 0 -379 153t-158 366t158 364.5
t379 151.5q223 0 379.5 -151.5t156.5 -364.5t-156.5 -366t-379.5 -153zM629 123q154 0 262 108.5t108 262t-108.5 262t-261.5 108.5q-152 0 -261.5 -108.5t-109.5 -262t109.5 -262t261.5 -108.5z" />
    <glyph glyph-name="odieresis" unicode="&#xf6;" horiz-adv-x="1259" 
d="M418 1192q-43 0 -74 30.5t-31 73.5q0 41 31 73t74 32t74.5 -32t31.5 -73q0 -43 -31.5 -73.5t-74.5 -30.5zM844 1192q-43 0 -74 30.5t-31 73.5q0 41 31 73t74 32t73.5 -32t30.5 -73q0 -43 -30.5 -73.5t-73.5 -30.5zM629 -25q-221 0 -379 153t-158 366t158 364.5t379 151.5
q223 0 379.5 -151.5t156.5 -364.5t-156.5 -366t-379.5 -153zM629 123q154 0 262 108.5t108 262t-108.5 262t-261.5 108.5q-152 0 -261.5 -108.5t-109.5 -262t109.5 -262t261.5 -108.5z" />
    <glyph glyph-name="divide" unicode="&#xf7;" horiz-adv-x="1073" 
d="M543 928q-49 0 -84 33.5t-35 82.5q0 47 35 82t84 35q47 0 81.5 -34.5t34.5 -82.5q0 -49 -34.5 -82.5t-81.5 -33.5zM954 770v-143h-835v143h835zM543 256q-49 0 -84 34t-35 83q0 47 35 81.5t84 34.5q47 0 81.5 -34.5t34.5 -81.5q0 -49 -34.5 -83t-81.5 -34z" />
    <glyph glyph-name="oslash" unicode="&#xf8;" horiz-adv-x="1259" 
d="M1176 987l-148 -149q137 -147 137 -344q0 -213 -156.5 -366t-379.5 -153q-186 0 -332 113l-86 -88h-137l151 154q-133 145 -133 340q0 213 158 364.5t379 151.5q182 0 327 -109l84 86h136zM258 494q0 -129 78 -226l514 525q-98 72 -221 71q-152 0 -261.5 -108
t-109.5 -262zM999 494q0 129 -79 231l-514 -526q98 -76 223 -76q154 0 262 108.5t108 262.5z" />
    <glyph glyph-name="ugrave" unicode="&#xf9;" horiz-adv-x="1273" 
d="M625 1143l-265 323h154l262 -323h-151zM1100 987v-987h-148l-10 250h-2q-41 -123 -138 -199t-216 -76q-190 0 -309 137.5t-119 344.5v530h166v-518q0 -145 86 -244.5t219 -99.5q125 0 215 103.5t90 252.5v506h166z" />
    <glyph glyph-name="uacute" unicode="&#xfa;" horiz-adv-x="1273" 
d="M684 1143h-154l265 323h151zM1100 987v-987h-148l-10 250h-2q-41 -123 -138 -199t-216 -76q-190 0 -309 137.5t-119 344.5v530h166v-518q0 -145 86 -244.5t219 -99.5q125 0 215 103.5t90 252.5v506h166z" />
    <glyph glyph-name="ucircumflex" unicode="&#xfb;" horiz-adv-x="1273" 
d="M999 1143h-151l-211 225l-211 -225h-152l289 323h148zM1100 987v-987h-148l-10 250h-2q-41 -123 -138 -199t-216 -76q-190 0 -309 137.5t-119 344.5v530h166v-518q0 -145 86 -244.5t219 -99.5q125 0 215 103.5t90 252.5v506h166z" />
    <glyph glyph-name="udieresis" unicode="&#xfc;" horiz-adv-x="1273" 
d="M424 1192q-43 0 -74 30.5t-31 73.5q0 41 31 73t74 32t74.5 -32t31.5 -73q0 -43 -31.5 -73.5t-74.5 -30.5zM850 1192q-43 0 -74 30.5t-31 73.5q0 41 31 73t74 32t73.5 -32t30.5 -73q0 -43 -30.5 -73.5t-73.5 -30.5zM1100 987v-987h-148l-10 250h-2q-41 -123 -138 -199
t-216 -76q-190 0 -309 137.5t-119 344.5v530h166v-518q0 -145 86 -244.5t219 -99.5q125 0 215 103.5t90 252.5v506h166z" />
    <glyph glyph-name="yacute" unicode="&#xfd;" horiz-adv-x="1110" 
d="M606 1143h-153l264 323h151zM166 -451l307 582l-440 856h180l346 -694l348 694h180l-743 -1438h-178z" />
    <glyph glyph-name="thorn" unicode="&#xfe;" horiz-adv-x="1341" 
d="M176 -451v1926h166v-734h2q49 121 160.5 195t245.5 74q201 0 350 -148.5t149 -368t-148.5 -369t-344.5 -149.5q-137 0 -250 75t-162 196h-2v-697h-166zM712.5 123q151.5 0 261 108.5t109.5 262t-109.5 262t-261 108.5t-261 -108.5t-109.5 -262t109.5 -262t261 -108.5z
" />
    <glyph glyph-name="ydieresis" unicode="&#xff;" horiz-adv-x="1110" 
d="M346 1192q-43 0 -73.5 30.5t-30.5 73.5q0 41 30.5 73t73.5 32t75 -32t32 -73q0 -43 -32 -73.5t-75 -30.5zM772 1192q-43 0 -73.5 30.5t-30.5 73.5q0 41 30.5 73t73.5 32t74 -32t31 -73q0 -43 -31 -73.5t-74 -30.5zM166 -451l307 582l-440 856h180l346 -694l348 694h180
l-743 -1438h-178z" />
    <glyph glyph-name="Amacron" unicode="&#x100;" horiz-adv-x="1456" 
d="M1044 1753v-111h-632v111h632zM1266 0l-168 350h-738l-167 -350h-183l678 1376h80l678 -1376h-180zM420 475h618l-309 643z" />
    <glyph glyph-name="amacron" unicode="&#x101;" horiz-adv-x="1343" 
d="M332 1257v111h633v-111h-633zM602 -25q-203 0 -356.5 149.5t-153.5 369t153.5 368t356.5 148.5q137 0 252 -75t158 -194h2l6 246h147v-987h-147l-6 246h-2q-45 -121 -160 -196t-250 -75zM628.5 123q153.5 0 262 108.5t108.5 262t-108.5 262t-262 108.5t-262 -108.5
t-108.5 -262t108.5 -262t262 -108.5z" />
    <glyph glyph-name="Abreve" unicode="&#x102;" horiz-adv-x="1456" 
d="M729 1528q-129 0 -221 93t-92 224h125q0 -86 55 -146.5t133 -60.5t132 60.5t54 146.5h125q0 -131 -92 -224t-219 -93zM1266 0l-168 350h-738l-167 -350h-183l678 1376h80l678 -1376h-180zM420 475h618l-309 643z" />
    <glyph glyph-name="abreve" unicode="&#x103;" horiz-adv-x="1343" 
d="M836 1460h125q0 -131 -92.5 -224t-219.5 -93q-129 0 -221 93t-92 224h125q0 -86 55 -146.5t133 -60.5t132.5 60.5t54.5 146.5zM602 -25q-203 0 -356.5 149.5t-153.5 369t153.5 368t356.5 148.5q137 0 252 -75t158 -194h2l6 246h147v-987h-147l-6 246h-2
q-45 -121 -160 -196t-250 -75zM628.5 123q153.5 0 262 108.5t108.5 262t-108.5 262t-262 108.5t-262 -108.5t-108.5 -262t108.5 -262t262 -108.5z" />
    <glyph glyph-name="Aogonek" unicode="&#x104;" horiz-adv-x="1456" 
d="M1317 -201q0 -57 49 -98t125 -35v-104q-129 -16 -208 48t-79 154q0 109 131 236h-69l-168 350h-738l-167 -350h-183l678 1376h80l678 -1376q-129 -109 -129 -201zM420 475h618l-309 643z" />
    <glyph glyph-name="aogonek" unicode="&#x105;" horiz-adv-x="1343" 
d="M1038 -201q0 -57 49.5 -98t124.5 -35v-104q-129 -16 -207.5 48t-78.5 154q0 109 131 236h-37l-6 246h-2q-45 -121 -160 -196t-250 -75q-203 0 -356.5 149.5t-153.5 369t153.5 368t356.5 148.5q137 0 252 -75t158 -194h2l6 246h147v-987q-129 -109 -129 -201zM628.5 123
q153.5 0 262 108.5t108.5 262t-108.5 262t-262 108.5t-262 -108.5t-108.5 -262t108.5 -262t262 -108.5z" />
    <glyph glyph-name="Cacute" unicode="&#x106;" horiz-adv-x="1624" 
d="M860 1528h-153l264 323h151zM1518 469q-70 -217 -260.5 -355.5t-428.5 -138.5q-301 0 -514 209t-213 502t213 502t514 209q238 0 428.5 -138.5t260.5 -355.5h-183q-63 150 -200.5 243t-305.5 93q-229 0 -391 -162t-162 -391t162 -391t391 -162q168 0 306.5 92t201.5 244
h181z" />
    <glyph glyph-name="cacute" unicode="&#x107;" horiz-adv-x="1212" 
d="M659 1143h-153l264 323h152zM1118 326q-35 -150 -172 -250.5t-313 -100.5q-223 0 -382 153t-159 366t159 364.5t382 151.5q176 0 312 -98.5t173 -247.5h-170q-33 88 -121 144t-198 56q-154 0 -262.5 -108.5t-108.5 -261.5q0 -152 108.5 -261.5t262.5 -109.5
q111 0 197.5 56.5t121.5 146.5h170z" />
    <glyph glyph-name="Cdotaccent" unicode="&#x10a;" horiz-adv-x="1624" 
d="M813 1577q-43 0 -73.5 30.5t-30.5 73.5q0 41 30.5 73t73.5 32t75 -32t32 -73q0 -43 -32 -73.5t-75 -30.5zM1518 469q-70 -217 -260.5 -355.5t-428.5 -138.5q-301 0 -514 209t-213 502t213 502t514 209q238 0 428.5 -138.5t260.5 -355.5h-183q-63 150 -200.5 243
t-305.5 93q-229 0 -391 -162t-162 -391t162 -391t391 -162q168 0 306.5 92t201.5 244h181z" />
    <glyph glyph-name="cdotaccent" unicode="&#x10b;" horiz-adv-x="1212" 
d="M612 1192q-43 0 -73.5 30.5t-30.5 73.5q0 41 30.5 73t73.5 32t75 -32t32 -73q0 -43 -32 -73.5t-75 -30.5zM1118 326q-35 -150 -172 -250.5t-313 -100.5q-223 0 -382 153t-159 366t159 364.5t382 151.5q176 0 312 -98.5t173 -247.5h-170q-33 88 -121 144t-198 56
q-154 0 -262.5 -108.5t-108.5 -261.5q0 -152 108.5 -261.5t262.5 -109.5q111 0 197.5 56.5t121.5 146.5h170z" />
    <glyph glyph-name="Ccaron" unicode="&#x10c;" horiz-adv-x="1624" 
d="M1176 1851l-289 -323h-148l-288 323h151l211 -225l211 225h152zM1518 469q-70 -217 -260.5 -355.5t-428.5 -138.5q-301 0 -514 209t-213 502t213 502t514 209q238 0 428.5 -138.5t260.5 -355.5h-183q-63 150 -200.5 243t-305.5 93q-229 0 -391 -162t-162 -391t162 -391
t391 -162q168 0 306.5 92t201.5 244h181z" />
    <glyph glyph-name="ccaron" unicode="&#x10d;" horiz-adv-x="1212" 
d="M975 1466l-289 -323h-147l-289 323h151l211 -225l211 225h152zM1118 326q-35 -150 -172 -250.5t-313 -100.5q-223 0 -382 153t-159 366t159 364.5t382 151.5q176 0 312 -98.5t173 -247.5h-170q-33 88 -121 144t-198 56q-154 0 -262.5 -108.5t-108.5 -261.5
q0 -152 108.5 -261.5t262.5 -109.5q111 0 197.5 56.5t121.5 146.5h170z" />
    <glyph glyph-name="Dcaron" unicode="&#x10e;" horiz-adv-x="1591" 
d="M1159 1851l-289 -323h-147l-289 323h152l211 -225l211 225h151zM193 0v1372h589q291 0 499 -201.5t208 -484.5t-208 -484.5t-499 -201.5h-589zM367 158h415q219 0 376 155.5t157 372.5t-157 372.5t-376 155.5h-415v-1056z" />
    <glyph glyph-name="dcaron" unicode="&#x10f;" horiz-adv-x="1482" 
d="M999 1475h166v-1475h-147l-6 246h-2q-43 -119 -159 -195t-251 -76q-205 0 -356.5 149.5t-151.5 369t150.5 368t353.5 148.5q135 0 247.5 -75t153.5 -194h2v734zM1321 1096l61 377h144l-101 -377h-104zM628.5 123q153.5 0 262 108.5t108.5 262t-108.5 262t-262 108.5
t-262 -108.5t-108.5 -262t108.5 -262t262 -108.5z" />
    <glyph glyph-name="Dcroat" unicode="&#x110;" horiz-adv-x="1591" 
d="M782 1372q291 0 499 -201.5t208 -484.5t-208 -484.5t-499 -201.5h-589v627h-179v116h179v629h589zM782 158q219 0 376 155.5t157 372.5t-157 372.5t-376 155.5h-415v-471h360v-116h-360v-469h415z" />
    <glyph glyph-name="dcroat" unicode="&#x111;" horiz-adv-x="1341" 
d="M1329 1243v-110h-164v-1133h-147l-6 246h-2q-43 -119 -159 -195t-251 -76q-205 0 -356.5 149.5t-151.5 369t150.5 368t353.5 148.5q135 0 247.5 -75t153.5 -194h2v392h-354v110h354v232h166v-232h164zM628.5 123q153.5 0 262 108.5t108.5 262t-108.5 262t-262 108.5
t-262 -108.5t-108.5 -262t108.5 -262t262 -108.5z" />
    <glyph glyph-name="Emacron" unicode="&#x112;" horiz-adv-x="1290" 
d="M987 1753v-111h-633v111h633zM367 147h786v-147h-960v1372h940v-147h-766v-463h745v-137h-745v-478z" />
    <glyph glyph-name="emacron" unicode="&#x113;" horiz-adv-x="1234" 
d="M934 1368v-111h-633v111h633zM639 117q109 0 200 45t126 117h163q-53 -135 -191 -219.5t-306 -84.5q-227 0 -383 149.5t-156 371.5q0 215 149.5 364.5t379.5 149.5q240 0 386 -163t146 -405h-897q18 -145 124.5 -235t258.5 -90zM621 870q-147 0 -244.5 -84t-118.5 -217
h725q-23 137 -120 219t-242 82z" />
    <glyph glyph-name="Edotaccent" unicode="&#x116;" horiz-adv-x="1290" 
d="M672 1577q-43 0 -74 30.5t-31 73.5q0 41 31 73t74 32t74.5 -32t31.5 -73q0 -43 -31.5 -73.5t-74.5 -30.5zM367 147h786v-147h-960v1372h940v-147h-766v-463h745v-137h-745v-478z" />
    <glyph glyph-name="edotaccent" unicode="&#x117;" horiz-adv-x="1234" 
d="M618.5 1192q-43.5 0 -74 30.5t-30.5 73.5q0 41 30.5 73t74 32t75 -32t31.5 -73q0 -43 -31.5 -73.5t-75 -30.5zM639 117q109 0 200 45t126 117h163q-53 -135 -191 -219.5t-306 -84.5q-227 0 -383 149.5t-156 371.5q0 215 149.5 364.5t379.5 149.5q240 0 386 -163t146 -405
h-897q18 -145 124.5 -235t258.5 -90zM621 870q-147 0 -244.5 -84t-118.5 -217h725q-23 137 -120 219t-242 82z" />
    <glyph glyph-name="Eogonek" unicode="&#x118;" horiz-adv-x="1290" 
d="M1024 -201q0 -57 49 -98t125 -35v-104q-129 -16 -208 48t-79 154q0 109 131 236h-849v1372h940v-147h-766v-463h745v-137h-745v-478h786v-147q-129 -109 -129 -201z" />
    <glyph glyph-name="eogonek" unicode="&#x119;" horiz-adv-x="1234" 
d="M639 117q109 0 200 45t126 117h163q-53 -131 -180 -213q-123 -104 -123 -195q0 -57 49.5 -98t124.5 -35v-105q-129 -16 -207.5 48.5t-78.5 154.5q0 74 59 156q-72 -16 -141 -17q-227 0 -383 149.5t-156 371.5q0 215 149.5 364.5t379.5 149.5q240 0 386 -163t146 -405
h-897q18 -145 124.5 -235t258.5 -90zM621 870q-147 0 -244.5 -84t-118.5 -217h725q-23 137 -120 219t-242 82z" />
    <glyph glyph-name="Ecaron" unicode="&#x11a;" horiz-adv-x="1290" 
d="M745 1528h-147l-289 323h152l211 -225l211 225h151zM367 147h786v-147h-960v1372h940v-147h-766v-463h745v-137h-745v-478z" />
    <glyph glyph-name="ecaron" unicode="&#x11b;" horiz-adv-x="1234" 
d="M692 1143h-147l-289 323h152l210 -225l211 225h152zM639 117q109 0 200 45t126 117h163q-53 -135 -191 -219.5t-306 -84.5q-227 0 -383 149.5t-156 371.5q0 215 149.5 364.5t379.5 149.5q240 0 386 -163t146 -405h-897q18 -145 124.5 -235t258.5 -90zM621 870
q-147 0 -244.5 -84t-118.5 -217h725q-23 137 -120 219t-242 82z" />
    <glyph glyph-name="Gbreve" unicode="&#x11e;" horiz-adv-x="1638" 
d="M819 1528q-129 0 -221 93t-92 224h125q0 -86 55 -146.5t133 -60.5t132.5 60.5t54.5 146.5h124q0 -131 -92 -224t-219 -93zM1552 725q0 -8 1 -27.5t1 -31.5q-4 -287 -211.5 -489t-513.5 -202q-301 0 -514 209t-213 502q0 291 213 501t514 210q221 0 401.5 -114t270.5 -302
h-190q-76 121 -204 190.5t-278 69.5q-229 0 -391 -161.5t-162 -391t165 -392.5t397 -163q211 0 364.5 128t188.5 323h-596v141h757z" />
    <glyph glyph-name="gbreve" unicode="&#x11f;" horiz-adv-x="1376" 
d="M874 1460h125q0 -131 -92 -224t-219 -93q-129 0 -221 93t-92 224h125q0 -86 55 -146.5t133 -60.5t132 60.5t54 146.5zM659 -471q-182 0 -321 90t-191 256h177q41 -98 133 -153.5t202 -55.5q164 0 273.5 105.5t109.5 267.5v237l-2 9q-41 -125 -156.5 -201t-254.5 -76
q-201 0 -350.5 143.5t-149.5 358.5q0 209 151.5 354.5t352.5 145.5q139 0 253.5 -74t157.5 -195h3l6 246h147v-934q0 -236 -154 -380t-387 -144zM676 143q147 0 253.5 107.5t106.5 261.5q0 145 -107.5 251.5t-258.5 106.5q-150 0 -257.5 -105.5t-107.5 -256.5
q0 -150 108.5 -257.5t262.5 -107.5z" />
    <glyph glyph-name="Gdotaccent" unicode="&#x120;" horiz-adv-x="1638" 
d="M819 1577q-43 0 -73.5 30.5t-30.5 73.5q0 41 30.5 73t73.5 32t75 -32t32 -73q0 -43 -32 -73.5t-75 -30.5zM1552 725q0 -8 1 -27.5t1 -31.5q-4 -287 -211.5 -489t-513.5 -202q-301 0 -514 209t-213 502q0 291 213 501t514 210q221 0 401.5 -114t270.5 -302h-190
q-76 121 -204 190.5t-278 69.5q-229 0 -391 -161.5t-162 -391t165 -392.5t397 -163q211 0 364.5 128t188.5 323h-596v141h757z" />
    <glyph glyph-name="gdotaccent" unicode="&#x121;" horiz-adv-x="1376" 
d="M688 1192q-43 0 -73.5 30.5t-30.5 73.5q0 41 30.5 73t73.5 32t75 -32t32 -73q0 -43 -32 -73.5t-75 -30.5zM659 -471q-182 0 -321 90t-191 256h177q41 -98 133 -153.5t202 -55.5q164 0 273.5 105.5t109.5 267.5v237l-2 9q-41 -125 -156.5 -201t-254.5 -76
q-201 0 -350.5 143.5t-149.5 358.5q0 209 151.5 354.5t352.5 145.5q139 0 253.5 -74t157.5 -195h3l6 246h147v-934q0 -236 -154 -380t-387 -144zM676 143q147 0 253.5 107.5t106.5 261.5q0 145 -107.5 251.5t-258.5 106.5q-150 0 -257.5 -105.5t-107.5 -256.5
q0 -150 108.5 -257.5t262.5 -107.5z" />
    <glyph glyph-name="uni0122" unicode="&#x122;" horiz-adv-x="1638" 
d="M1552 725q0 -8 1 -27.5t1 -31.5q-4 -287 -211.5 -489t-513.5 -202q-301 0 -514 209t-213 502q0 291 213 501t514 210q221 0 401.5 -114t270.5 -302h-190q-76 121 -204 190.5t-278 69.5q-229 0 -391 -161.5t-162 -391t165 -392.5t397 -163q211 0 364.5 128t188.5 323h-596
v141h757zM721 -502l61 377h144l-101 -377h-104z" />
    <glyph glyph-name="uni0123" unicode="&#x123;" horiz-adv-x="1376" 
d="M575 1118l101 377h104l-61 -377h-144zM659 -471q-182 0 -321 90t-191 256h177q41 -98 133 -153.5t202 -55.5q164 0 273.5 105.5t109.5 267.5v237l-2 9q-41 -125 -156.5 -201t-254.5 -76q-201 0 -350.5 143.5t-149.5 358.5q0 209 151.5 354.5t352.5 145.5q139 0 253.5 -74
t157.5 -195h3l6 246h147v-934q0 -236 -154 -380t-387 -144zM676 143q147 0 253.5 107.5t106.5 261.5q0 145 -107.5 251.5t-258.5 106.5q-150 0 -257.5 -105.5t-107.5 -256.5q0 -150 108.5 -257.5t262.5 -107.5z" />
    <glyph glyph-name="Hbar" unicode="&#x126;" horiz-adv-x="1572" 
d="M1507 1118v-100h-127v-1018h-174v621h-839v-621h-174v1018h-127v100h127v254h174v-254h839v254h174v-254h127zM1206 766v252h-839v-252h839z" />
    <glyph glyph-name="hbar" unicode="&#x127;" horiz-adv-x="1304" 
d="M702 1010q199 0 322 -136.5t123 -343.5v-530h-166v516q0 145 -90 245.5t-229 100.5q-131 0 -225.5 -105.5t-94.5 -252.5v-504h-166v1135h-184v110h184v230h166v-230h334v-110h-334v-398h2q41 121 139 197t219 76z" />
    <glyph glyph-name="Itilde" unicode="&#x128;" horiz-adv-x="559" 
d="M535 1843h98q-4 -139 -57.5 -216t-137.5 -77q-49 0 -92 29t-69.5 64.5t-62.5 64.5t-71 29q-51 0 -83.5 -52.5t-34.5 -130.5h-99q4 147 63.5 225.5t153.5 78.5q55 0 100.5 -29t71 -63.5t57 -63.5t62.5 -29q43 0 70 48t31 122zM193 0v1372h174v-1372h-174z" />
    <glyph glyph-name="itilde" unicode="&#x129;" horiz-adv-x="518" 
d="M512 1458h98q-4 -139 -57 -216t-137 -77q-49 0 -92 29t-70 64.5t-62.5 64.5t-70.5 29q-51 0 -84 -52.5t-35 -130.5h-98q4 147 63.5 225.5t153.5 78.5q55 0 100 -29t70.5 -63.5t57.5 -63.5t63 -29q43 0 69.5 48t30.5 122zM176 0v987h166v-987h-166z" />
    <glyph glyph-name="Imacron" unicode="&#x12a;" horiz-adv-x="559" 
d="M-37 1642v111h633v-111h-633zM193 0v1372h174v-1372h-174z" />
    <glyph glyph-name="imacron" unicode="&#x12b;" horiz-adv-x="518" 
d="M-59 1257v111h632v-111h-632zM176 0v987h166v-987h-166z" />
    <glyph glyph-name="Iogonek" unicode="&#x12e;" horiz-adv-x="559" 
d="M238 -201q0 -57 49 -98t125 -35v-104q-129 -16 -208 48t-79 154q0 109 131 236h-63v1372h174v-1372q-129 -109 -129 -201z" />
    <glyph glyph-name="iogonek" unicode="&#x12f;" horiz-adv-x="518" 
d="M258 1192q-43 0 -73.5 30.5t-30.5 73.5q0 41 30.5 73t73.5 32t75 -32t32 -73q0 -43 -32 -73.5t-75 -30.5zM213 -201q0 -57 49 -98t125 -35v-104q-129 -16 -208 48t-79 154q0 109 131 236h-55v987h166v-987q-129 -109 -129 -201z" />
    <glyph glyph-name="Idotaccent" unicode="&#x130;" horiz-adv-x="559" 
d="M281 1577q-43 0 -74 30.5t-31 73.5q0 41 31 73t74 32t74.5 -32t31.5 -73q0 -43 -31.5 -73.5t-74.5 -30.5zM193 0v1372h174v-1372h-174z" />
    <glyph glyph-name="dotlessi" unicode="&#x131;" horiz-adv-x="518" 
d="M176 0v987h166v-987h-166z" />
    <glyph glyph-name="IJ" unicode="&#x132;" horiz-adv-x="1714" 
d="M193 0v1372h174v-1372h-174zM1542 1372v-934q0 -188 -135 -325.5t-325.5 -137.5t-332 138.5t-141.5 324.5v43h174v-43q0 -125 87 -215t206 -90t206 90t87 215v787h-588v147h762z" />
    <glyph glyph-name="ij" unicode="&#x133;" horiz-adv-x="1040" 
d="M258 1186q-47 0 -80 32.5t-33 77.5t34 78t79 33t79 -33t34 -78t-33 -77.5t-80 -32.5zM782 1186q-47 0 -79.5 32.5t-32.5 77.5t33.5 78t78.5 33t79 -33t34 -78t-33 -77.5t-80 -32.5zM176 0v987h166v-987h-166zM557 -471q-68 0 -117 25v137q57 -25 103 -25q78 0 116.5 51.5
t38.5 130.5v1139h166v-1130q0 -141 -82 -234.5t-225 -93.5z" />
    <glyph glyph-name="uni0136" unicode="&#x136;" horiz-adv-x="1312" 
d="M193 0v1372h174v-629h2l680 629h215l-719 -670l719 -702h-217l-678 657h-2v-657h-174zM567 -502l62 377h143l-100 -377h-105z" />
    <glyph glyph-name="uni0137" unicode="&#x137;" horiz-adv-x="1099" 
d="M176 0v1475h166v-893h2l481 405h211l-530 -450l561 -537h-213l-510 492h-2v-492h-166zM459 -502l61 377h144l-101 -377h-104z" />
    <glyph glyph-name="Lacute" unicode="&#x139;" horiz-adv-x="1177" 
d="M805 1851l-262 -323h-154l264 323h152zM367 147h737v-147h-911v1372h174v-1225z" />
    <glyph glyph-name="lacute" unicode="&#x13a;" horiz-adv-x="518" 
d="M305 1610h-153l264 323h151zM176 0v1475h166v-1475h-166z" />
    <glyph glyph-name="uni013B" unicode="&#x13b;" horiz-adv-x="1177" 
d="M367 147h737v-147h-911v1372h174v-1225zM528 -502l62 377h143l-100 -377h-105z" />
    <glyph glyph-name="uni013C" unicode="&#x13c;" horiz-adv-x="518" 
d="M176 0v1475h166v-1475h-166zM160 -502l61 377h144l-101 -377h-104z" />
    <glyph glyph-name="Lcaron" unicode="&#x13d;" horiz-adv-x="1177" 
d="M905 1374l-100 -377h-105l62 377h143zM367 147h737v-147h-911v1372h174v-1225z" />
    <glyph glyph-name="lcaron" unicode="&#x13e;" horiz-adv-x="600" 
d="M176 0v1475h166v-1475h-166zM459 1096l61 377h144l-101 -377h-104z" />
    <glyph glyph-name="Ldot" unicode="&#x13f;" horiz-adv-x="1228" 
d="M367 147h737v-147h-911v1372h174v-1225zM887 586q-53 0 -92 38t-39 91t39 91t92 38t92 -38t39 -91t-39 -91t-92 -38z" />
    <glyph glyph-name="ldot" unicode="&#x140;" horiz-adv-x="696" 
d="M176 0v1475h166v-1475h-166zM608 594q-51 0 -88 36t-37 87t37 88t88 37t88 -37t37 -88t-37 -87t-88 -36z" />
    <glyph glyph-name="Lslash" unicode="&#x141;" horiz-adv-x="1177" 
d="M367 147h737v-147h-911v571l-146 -98v113l146 98v688h174v-569l280 190v-112l-280 -191v-543z" />
    <glyph glyph-name="lslash" unicode="&#x142;" horiz-adv-x="518" 
d="M500 1059v-113l-158 -133v-813h-166v672l-156 -133v112l156 133v691h166v-549z" />
    <glyph glyph-name="Nacute" unicode="&#x143;" horiz-adv-x="1585" 
d="M842 1528h-154l264 323h152zM1241 1372h152v-1376h-86l-961 1087v-1083h-153v1376h86l962 -1087v1083z" />
    <glyph glyph-name="nacute" unicode="&#x144;" horiz-adv-x="1304" 
d="M698 1143h-153l264 323h152zM176 0v987h148l8 -250h2q41 121 143.5 197t224.5 76q199 0 322 -136.5t123 -343.5v-530h-166v516q0 145 -90 245.5t-229 100.5q-131 0 -225.5 -105.5t-94.5 -252.5v-504h-166z" />
    <glyph glyph-name="uni0145" unicode="&#x145;" horiz-adv-x="1585" 
d="M1241 1372h152v-1376h-86l-961 1087v-1083h-153v1376h86l962 -1087v1083zM696 -502l62 377h143l-100 -377h-105z" />
    <glyph glyph-name="uni0146" unicode="&#x146;" horiz-adv-x="1304" 
d="M176 0v987h148l8 -250h2q41 121 143.5 197t224.5 76q199 0 322 -136.5t123 -343.5v-530h-166v516q0 145 -90 245.5t-229 100.5q-131 0 -225.5 -105.5t-94.5 -252.5v-504h-166zM553 -502l61 377h144l-101 -377h-104z" />
    <glyph glyph-name="Ncaron" unicode="&#x147;" horiz-adv-x="1585" 
d="M1157 1851l-289 -323h-147l-289 323h152l211 -225l211 225h151zM1241 1372h152v-1376h-86l-961 1087v-1083h-153v1376h86l962 -1087v1083z" />
    <glyph glyph-name="ncaron" unicode="&#x148;" horiz-adv-x="1304" 
d="M1014 1466l-289 -323h-147l-289 323h151l211 -225l211 225h152zM176 0v987h148l8 -250h2q41 121 143.5 197t224.5 76q199 0 322 -136.5t123 -343.5v-530h-166v516q0 145 -90 245.5t-229 100.5q-131 0 -225.5 -105.5t-94.5 -252.5v-504h-166z" />
    <glyph glyph-name="Eng" unicode="&#x14a;" horiz-adv-x="1593" 
d="M938 -430v156q115 0 205 88t90 206v52l-871 1007v-1079h-169v1376h94l946 -1083v1079h168v-1345q0 -186 -136.5 -321.5t-326.5 -135.5z" />
    <glyph glyph-name="eng" unicode="&#x14b;" horiz-adv-x="1304" 
d="M840 -471q-68 0 -117 25v137q53 -25 102 -25q78 0 117 51.5t39 130.5v668q0 145 -90 245.5t-229 100.5q-131 0 -225.5 -105.5t-94.5 -252.5v-504h-166v987h148l8 -250h2q41 121 143.5 197t224.5 76q199 0 322 -136.5t123 -343.5v-673q0 -141 -82 -234.5t-225 -93.5z" />
    <glyph glyph-name="Omacron" unicode="&#x14c;" horiz-adv-x="1656" 
d="M512 1642v111h633v-111h-633zM829 -25q-301 0 -514 209t-213 502t213 502t514 209q299 0 512 -209t213 -502t-213 -502t-512 -209zM829.5 133q229.5 0 390 162t160.5 391t-160.5 391t-390 162t-391.5 -162t-162 -391t162 -391t391.5 -162z" />
    <glyph glyph-name="omacron" unicode="&#x14d;" horiz-adv-x="1259" 
d="M313 1257v111h633v-111h-633zM629 -25q-221 0 -379 153t-158 366t158 364.5t379 151.5q223 0 379.5 -151.5t156.5 -364.5t-156.5 -366t-379.5 -153zM629 123q154 0 262 108.5t108 262t-108.5 262t-261.5 108.5q-152 0 -261.5 -108.5t-109.5 -262t109.5 -262t261.5 -108.5
z" />
    <glyph glyph-name="Ohungarumlaut" unicode="&#x150;" horiz-adv-x="1656" 
d="M700 1528h-129l265 323h127zM1024 1528h-129l262 323h129zM829 -25q-301 0 -514 209t-213 502t213 502t514 209q299 0 512 -209t213 -502t-213 -502t-512 -209zM829.5 133q229.5 0 390 162t160.5 391t-160.5 391t-390 162t-391.5 -162t-162 -391t162 -391t391.5 -162z
" />
    <glyph glyph-name="ohungarumlaut" unicode="&#x151;" horiz-adv-x="1259" 
d="M502 1143h-129l264 323h127zM825 1143h-129l262 323h129zM629 -25q-221 0 -379 153t-158 366t158 364.5t379 151.5q223 0 379.5 -151.5t156.5 -364.5t-156.5 -366t-379.5 -153zM629 123q154 0 262 108.5t108 262t-108.5 262t-261.5 108.5q-152 0 -261.5 -108.5
t-109.5 -262t109.5 -262t261.5 -108.5z" />
    <glyph glyph-name="OE" unicode="&#x152;" horiz-adv-x="2476" 
d="M1554 147h787v-147h-961v225q-102 -117 -245.5 -183.5t-305.5 -66.5q-301 0 -514 209t-213 502t213 502t514 209q162 0 305.5 -66.5t245.5 -183.5v225h940v-147h-766v-463h746v-137h-746v-478zM829.5 133q229.5 0 390 162t160.5 391t-160.5 391t-390 162t-391.5 -162
t-162 -391t162 -391t391.5 -162z" />
    <glyph glyph-name="oe" unicode="&#x153;" horiz-adv-x="2158" 
d="M1546 117q109 0 200 45t126 117h164q-53 -135 -191.5 -219.5t-306.5 -84.5q-143 0 -264 64.5t-193 175.5q-74 -111 -193.5 -175.5t-258.5 -64.5q-221 0 -379 153t-158 366t158 364.5t379 151.5q139 0 258 -63.5t192 -172.5q70 109 186.5 172.5t262.5 63.5q240 0 386 -163
t146 -405h-897q18 -145 124.5 -235t258.5 -90zM1528 870q-147 0 -244.5 -84t-118.5 -217h725q-23 137 -120 219t-242 82zM629 123q154 0 262 108.5t108 262t-108.5 262t-261.5 108.5q-152 0 -261.5 -108.5t-109.5 -262t109.5 -262t261.5 -108.5z" />
    <glyph glyph-name="Racute" unicode="&#x154;" horiz-adv-x="1384" 
d="M999 1851l-262 -323h-153l264 323h151zM1290 0h-186l-336 537h-410v-537h-165v1372h634q176 0 298 -121t122 -301q0 -141 -85 -250.5t-226 -146.5zM358 1235v-567h418q129 0 217 81.5t88 200.5t-86 202t-207 83h-430z" />
    <glyph glyph-name="racute" unicode="&#x155;" horiz-adv-x="788" 
d="M465 1143h-154l264 323h152zM176 0v987h148l8 -282h2q41 139 146.5 220t236.5 81v-148q-166 0 -270.5 -114.5t-104.5 -288.5v-455h-166z" />
    <glyph glyph-name="uni0156" unicode="&#x156;" horiz-adv-x="1384" 
d="M936 553l354 -553h-186l-336 537h-410v-537h-165v1372h634q176 0 298 -121t122 -301q0 -141 -85 -250.5t-226 -146.5zM358 1235v-567h418q129 0 217 81.5t88 200.5t-86 202t-207 83h-430zM592 -502l61 377h144l-101 -377h-104z" />
    <glyph glyph-name="uni0157" unicode="&#x157;" horiz-adv-x="788" 
d="M176 0v987h148l8 -282h2q41 139 146.5 220t236.5 81v-148q-166 0 -270.5 -114.5t-104.5 -288.5v-455h-166zM242 -502l61 377h143l-100 -377h-104z" />
    <glyph glyph-name="Rcaron" unicode="&#x158;" horiz-adv-x="1384" 
d="M764 1528h-148l-288 323h151l211 -225l211 225h152zM1290 0h-186l-336 537h-410v-537h-165v1372h634q176 0 298 -121t122 -301q0 -141 -85 -250.5t-226 -146.5zM358 1235v-567h418q129 0 217 81.5t88 200.5t-86 202t-207 83h-430z" />
    <glyph glyph-name="rcaron" unicode="&#x159;" horiz-adv-x="788" 
d="M780 1466l-288 -323h-148l-289 323h152l211 -225l211 225h151zM176 0v987h148l8 -282h2q41 139 146.5 220t236.5 81v-148q-166 0 -270.5 -114.5t-104.5 -288.5v-455h-166z" />
    <glyph glyph-name="Sacute" unicode="&#x15a;" horiz-adv-x="1208" 
d="M653 1528h-153l264 323h151zM637 -25q-94 0 -180 21.5t-163 67t-126 125t-59 186.5h172q12 -94 75.5 -153.5t133 -79t145.5 -19.5q129 0 219 55t90 172q0 61 -26.5 106.5t-86 78t-107.5 50t-138 42.5q-221 66 -333 149.5t-112 247.5q0 176 130 274.5t337 98.5
q88 0 166 -20.5t147.5 -62.5t115.5 -120t59 -182h-170q-20 127 -112.5 184t-203.5 57q-119 0 -209 -56t-90 -167q0 -47 20.5 -85t46 -61.5t78 -47t87.5 -36t100 -30.5q229 -68 307 -115q166 -98 166 -295q0 -190 -133 -287.5t-346 -97.5z" />
    <glyph glyph-name="sacute" unicode="&#x15b;" horiz-adv-x="1099" 
d="M598 1143h-154l265 323h151zM575 -25q-113 0 -209 29t-165.5 100.5t-75.5 174.5h178q8 -92 88 -130t180 -38q246 0 246 145q0 41 -19.5 69.5t-64.5 48t-80 30t-102 24.5q-25 6 -37 8q-76 16 -129 36t-110.5 53.5t-87 86t-29.5 121.5q0 133 109.5 205t285.5 72
q102 0 190 -24.5t157 -93.5t75 -171h-170q-10 82 -83 119t-165 37q-96 0 -161.5 -35t-65.5 -107q0 -41 20.5 -69.5t66.5 -49t85 -31t110 -26.5q70 -14 115 -26.5t101.5 -36t89 -52t56 -74.5t23.5 -104q0 -143 -118 -217t-304 -74z" />
    <glyph glyph-name="Scedilla" unicode="&#x15e;" horiz-adv-x="1208" 
d="M1116 360q0 -186 -130 -283t-339 -102l-29 -75q37 6 44 6q76 0 126 -50.5t50 -125.5q0 -82 -60.5 -137.5t-152.5 -55.5q-104 0 -181 68l56 82q55 -45 114 -45q45 0 76 24.5t31 65.5q0 33 -24.5 58.5t-63.5 25.5q-33 0 -66 -25l-69 70l45 121q-174 20 -296 117.5
t-138 275.5h172q12 -94 75.5 -153.5t133 -79t145.5 -19.5q129 0 219 55t90 172q0 61 -26.5 106.5t-86 78t-107.5 50t-138 42.5q-221 66 -333 149.5t-112 247.5q0 176 130 274.5t337 98.5q88 0 166 -20.5t147.5 -62.5t115.5 -120t59 -182h-170q-20 127 -112.5 184t-203.5 57
q-119 0 -209 -56t-90 -167q0 -47 20.5 -85t46 -61.5t78 -47t87.5 -36t100 -30.5q229 -68 307 -115q166 -98 166 -295z" />
    <glyph glyph-name="scedilla" unicode="&#x15f;" horiz-adv-x="1099" 
d="M997 266q0 -139 -113.5 -212.5t-291.5 -78.5l-29 -75q37 6 43 6q76 0 126 -50.5t50 -125.5q0 -82 -60 -137.5t-153 -55.5q-104 0 -180 68l55 82q55 -45 115 -45q45 0 76 24.5t31 65.5q0 33 -25 58.5t-63 25.5q-33 0 -66 -25l-70 70l45 119q-152 18 -253 92.5t-109 206.5
h178q8 -92 88 -130t180 -38q246 0 246 145q0 41 -19.5 69.5t-64.5 48t-80 30t-102 24.5q-25 6 -37 8q-76 16 -129 36t-110.5 53.5t-87 86t-29.5 121.5q0 133 109.5 205t285.5 72q102 0 190 -24.5t157 -93.5t75 -171h-170q-10 82 -83 119t-165 37q-96 0 -161.5 -35
t-65.5 -107q0 -41 20.5 -69.5t66.5 -49t85 -31t110 -26.5q70 -14 115 -26.5t101.5 -36t89 -52t56 -75t23.5 -103.5z" />
    <glyph glyph-name="Scaron" unicode="&#x160;" horiz-adv-x="1208" 
d="M969 1851l-289 -323h-148l-288 323h151l211 -225l211 225h152zM637 -25q-94 0 -180 21.5t-163 67t-126 125t-59 186.5h172q12 -94 75.5 -153.5t133 -79t145.5 -19.5q129 0 219 55t90 172q0 61 -26.5 106.5t-86 78t-107.5 50t-138 42.5q-221 66 -333 149.5t-112 247.5
q0 176 130 274.5t337 98.5q88 0 166 -20.5t147.5 -62.5t115.5 -120t59 -182h-170q-20 127 -112.5 184t-203.5 57q-119 0 -209 -56t-90 -167q0 -47 20.5 -85t46 -61.5t78 -47t87.5 -36t100 -30.5q229 -68 307 -115q166 -98 166 -295q0 -190 -133 -287.5t-346 -97.5z" />
    <glyph glyph-name="scaron" unicode="&#x161;" horiz-adv-x="1099" 
d="M913 1466l-288 -323h-148l-289 323h152l211 -225l211 225h151zM575 -25q-113 0 -209 29t-165.5 100.5t-75.5 174.5h178q8 -92 88 -130t180 -38q246 0 246 145q0 41 -19.5 69.5t-64.5 48t-80 30t-102 24.5q-25 6 -37 8q-76 16 -129 36t-110.5 53.5t-87 86t-29.5 121.5
q0 133 109.5 205t285.5 72q102 0 190 -24.5t157 -93.5t75 -171h-170q-10 82 -83 119t-165 37q-96 0 -161.5 -35t-65.5 -107q0 -41 20.5 -69.5t66.5 -49t85 -31t110 -26.5q70 -14 115 -26.5t101.5 -36t89 -52t56 -74.5t23.5 -104q0 -143 -118 -217t-304 -74z" />
    <glyph glyph-name="uni0162" unicode="&#x162;" horiz-adv-x="1204" 
d="M690 0h-37l-39 -100q37 6 43 6q76 0 126.5 -50.5t50.5 -125.5q0 -82 -60.5 -137.5t-152.5 -55.5q-104 0 -181 68l56 82q55 -45 114 -45q45 0 76 24.5t31 65.5q0 33 -24.5 58.5t-63.5 25.5q-33 0 -66 -25l-69 70l53 139h-31v1225h-475v147h1122v-147h-473v-1225z" />
    <glyph glyph-name="uni0163" unicode="&#x163;" horiz-adv-x="868" 
d="M594 -25q-33 0 -47 2l-31 -77q37 6 43 6q76 0 126 -50.5t50 -125.5q0 -82 -60.5 -137.5t-152.5 -55.5q-104 0 -180 68l55 82q55 -45 115 -45q45 0 75.5 24.5t30.5 65.5q0 33 -24.5 58.5t-63.5 25.5q-33 0 -65 -25l-70 70l54 139q-106 41 -165 138.5t-59 219.5v496h-209
v133h209v281h166v-281h389v-133h-389v-483q0 -106 57.5 -175t169.5 -69q76 0 164 33v-146q-69 -39 -188 -39z" />
    <glyph glyph-name="Tcaron" unicode="&#x164;" horiz-adv-x="1204" 
d="M676 1528h-148l-288 323h151l211 -225l211 225h152zM1163 1372v-147h-473v-1225h-174v1225h-475v147h1122z" />
    <glyph glyph-name="tcaron" unicode="&#x165;" horiz-adv-x="868" 
d="M774 1516l-100 -377h-105l62 377h143zM618 127q76 0 164 33v-146q-70 -39 -188 -39q-176 0 -272.5 110t-96.5 273v496h-209v133h209v281h166v-281h389v-133h-389v-483q0 -106 57 -175t170 -69z" />
    <glyph glyph-name="Tbar" unicode="&#x166;" horiz-adv-x="1204" 
d="M1163 1225h-473v-430h268v-117h-268v-678h-174v678h-270v117h270v430h-475v147h1122v-147z" />
    <glyph glyph-name="tbar" unicode="&#x167;" horiz-adv-x="868" 
d="M618 127q76 0 164 33v-146q-70 -39 -188 -39q-176 0 -272.5 110t-96.5 273v144h-176v110h176v242h-209v133h209v281h166v-281h389v-133h-389v-242h342v-110h-342v-131q0 -106 57 -175t170 -69z" />
    <glyph glyph-name="Umacron" unicode="&#x16a;" horiz-adv-x="1540" 
d="M453 1642v111h632v-111h-632zM782 -25q-250 0 -428 173.5t-178 416.5v807h174v-807q0 -178 126 -305t306 -127q168 0 288 127t120 305v807h174v-807q0 -244 -171 -417t-411 -173z" />
    <glyph glyph-name="umacron" unicode="&#x16b;" horiz-adv-x="1273" 
d="M319 1257v111h633v-111h-633zM1100 987v-987h-148l-10 250h-2q-41 -123 -138 -199t-216 -76q-190 0 -309 137.5t-119 344.5v530h166v-518q0 -145 86 -244.5t219 -99.5q125 0 215 103.5t90 252.5v506h166z" />
    <glyph glyph-name="Uring" unicode="&#x16e;" horiz-adv-x="1540" 
d="M770 1475q-94 0 -158.5 63.5t-64.5 153.5q0 88 64.5 150.5t158.5 62.5q92 0 156.5 -62.5t64.5 -150.5q0 -90 -64.5 -153.5t-156.5 -63.5zM770 1569q51 0 86 35.5t35 87.5q0 49 -35 83.5t-86 34.5t-87 -34.5t-36 -83.5q0 -53 35 -88t88 -35zM782 -25q-250 0 -428 173.5
t-178 416.5v807h174v-807q0 -178 126 -305t306 -127q168 0 288 127t120 305v807h174v-807q0 -244 -171 -417t-411 -173z" />
    <glyph glyph-name="uring" unicode="&#x16f;" horiz-adv-x="1273" 
d="M637 1090q-94 0 -158.5 63.5t-64.5 153.5q0 88 64.5 150.5t158.5 62.5q92 0 156.5 -62.5t64.5 -150.5q0 -90 -64.5 -153.5t-156.5 -63.5zM637 1184q51 0 86 35.5t35 87.5q0 49 -35 83.5t-86 34.5t-87 -34.5t-36 -83.5q0 -53 36 -88t87 -35zM1100 987v-987h-148l-10 250
h-2q-41 -123 -138 -199t-216 -76q-190 0 -309 137.5t-119 344.5v530h166v-518q0 -145 86 -244.5t219 -99.5q125 0 215 103.5t90 252.5v506h166z" />
    <glyph glyph-name="Uhungarumlaut" unicode="&#x170;" horiz-adv-x="1540" 
d="M641 1528h-129l264 323h127zM965 1528h-129l262 323h129zM782 -25q-250 0 -428 173.5t-178 416.5v807h174v-807q0 -178 126 -305t306 -127q168 0 288 127t120 305v807h174v-807q0 -244 -171 -417t-411 -173z" />
    <glyph glyph-name="uhungarumlaut" unicode="&#x171;" horiz-adv-x="1273" 
d="M508 1143h-129l264 323h127zM831 1143h-129l263 323h129zM1100 987v-987h-148l-10 250h-2q-41 -123 -138 -199t-216 -76q-190 0 -309 137.5t-119 344.5v530h166v-518q0 -145 86 -244.5t219 -99.5q125 0 215 103.5t90 252.5v506h166z" />
    <glyph glyph-name="Uogonek" unicode="&#x172;" horiz-adv-x="1540" 
d="M1190 1372h174v-807q0 -221 -145.5 -388t-358.5 -195q-115 -102 -115 -189q0 -57 49.5 -98t125.5 -35v-104q-129 -16 -208 48t-79 154q0 102 112 219q-238 14 -403.5 184.5t-165.5 403.5v807h174v-807q0 -178 126 -305t306 -127q168 0 288 127t120 305v807z" />
    <glyph glyph-name="uogonek" unicode="&#x173;" horiz-adv-x="1273" 
d="M971 -201q0 -57 49 -98t125 -35v-104q-129 -16 -208 48t-79 154q0 109 131 236h-37l-10 250h-2q-41 -123 -138 -199t-216 -76q-190 0 -309 137.5t-119 344.5v530h166v-518q0 -145 86 -244.5t219 -99.5q125 0 215 103.5t90 252.5v506h166v-987q-129 -109 -129 -201z" />
    <glyph glyph-name="Wcircumflex" unicode="&#x174;" horiz-adv-x="2185" 
d="M1456 1528h-151l-211 225l-211 -225h-152l289 323h147zM606 0l-532 1372h182l399 -1044l402 1044h73l402 -1044l399 1044h180l-532 -1372h-76l-409 1067l-410 -1067h-78z" />
    <glyph glyph-name="wcircumflex" unicode="&#x175;" horiz-adv-x="1759" 
d="M1243 1143h-151l-211 225l-211 -225h-152l289 323h147zM463 0l-451 987h181l319 -704l326 704h82l323 -704l322 704h182l-451 -987h-77l-340 731l-338 -731h-78z" />
    <glyph glyph-name="Ycircumflex" unicode="&#x176;" horiz-adv-x="1427" 
d="M715 1753l-211 -225h-152l289 323h147l289 -323h-151zM1411 1372l-610 -901v-471h-172v471l-613 901h199l500 -733l497 733h199z" />
    <glyph glyph-name="ycircumflex" unicode="&#x177;" horiz-adv-x="1110" 
d="M922 1143h-152l-211 225l-211 -225h-151l288 323h148zM166 -451l307 582l-440 856h180l346 -694l348 694h180l-743 -1438h-178z" />
    <glyph glyph-name="Ydieresis" unicode="&#x178;" horiz-adv-x="1427" 
d="M502 1577q-43 0 -74 30.5t-31 73.5q0 41 31 73t74 32t74.5 -32t31.5 -73q0 -43 -31.5 -73.5t-74.5 -30.5zM928 1577q-43 0 -74 30.5t-31 73.5q0 41 31 73t74 32t73.5 -32t30.5 -73q0 -43 -30.5 -73.5t-73.5 -30.5zM1411 1372l-610 -901v-471h-172v471l-613 901h199
l500 -733l497 733h199z" />
    <glyph glyph-name="Zacute" unicode="&#x179;" horiz-adv-x="1312" 
d="M705 1528h-154l264 323h152zM133 0v70l813 1155h-799v147h1033v-69l-809 -1156h829v-147h-1067z" />
    <glyph glyph-name="zacute" unicode="&#x17a;" horiz-adv-x="1126" 
d="M610 1143h-153l264 323h151zM113 0v70l661 778h-639v139h869v-69l-656 -779h676v-139h-911z" />
    <glyph glyph-name="Zdotaccent" unicode="&#x17b;" horiz-adv-x="1312" 
d="M657 1577q-43 0 -73.5 30.5t-30.5 73.5q0 41 30.5 73t73.5 32t75 -32t32 -73q0 -43 -32 -73.5t-75 -30.5zM133 0v70l813 1155h-799v147h1033v-69l-809 -1156h829v-147h-1067z" />
    <glyph glyph-name="zdotaccent" unicode="&#x17c;" horiz-adv-x="1126" 
d="M563 1192q-43 0 -73.5 30.5t-30.5 73.5q0 41 30.5 73t73.5 32t75 -32t32 -73q0 -43 -32 -73.5t-75 -30.5zM113 0v70l661 778h-639v139h869v-69l-656 -779h676v-139h-911z" />
    <glyph glyph-name="Zcaron" unicode="&#x17d;" horiz-adv-x="1312" 
d="M1020 1851l-289 -323h-147l-289 323h151l211 -225l211 225h152zM133 0v70l813 1155h-799v147h1033v-69l-809 -1156h829v-147h-1067z" />
    <glyph glyph-name="zcaron" unicode="&#x17e;" horiz-adv-x="1126" 
d="M926 1466l-289 -323h-148l-288 323h151l211 -225l211 225h152zM113 0v70l661 778h-639v139h869v-69l-656 -779h676v-139h-911z" />
    <glyph glyph-name="florin" unicode="&#x192;" horiz-adv-x="1087" 
d="M948 1276q-117 0 -187.5 -68.5t-88.5 -173.5l-31 -182h352l-22 -133h-353l-61 -354q-27 -156 -143.5 -260.5t-294.5 -104.5q-104 0 -191 37l43 135q66 -35 146 -35q117 0 187.5 68.5t88.5 173.5l58 340h-236l23 133h237l33 197q27 156 144.5 260t293.5 104q104 0 191 -37
l-41 -135q-70 35 -148 35z" />
    <glyph glyph-name="AEacute" unicode="&#x1fc;" horiz-adv-x="1992" 
d="M1436 1851l-262 -323h-154l264 323h152zM1163 147h692v-147h-847v350h-607l-231 -350h-182l936 1372h911v-147h-672v-463h652v-137h-652v-478zM485 475h523v789z" />
    <glyph glyph-name="aeacute" unicode="&#x1fd;" horiz-adv-x="2076" 
d="M1360 1466l-262 -323h-154l264 323h152zM1464 125q117 0 212.5 47t129.5 123l154 -25q-49 -127 -186.5 -211t-309.5 -84q-129 0 -242.5 56.5t-189.5 152.5q-98 -98 -244.5 -153.5t-298.5 -55.5q-158 0 -254 84t-96 213q0 123 99.5 210t275.5 87h404v74q0 94 -81 159.5
t-206 65.5q-117 0 -202 -51t-87 -141l-162 16q6 100 79 175t170 109t202 34q133 0 241.5 -55.5t165.5 -145.5q74 94 185.5 147.5t240.5 53.5q229 0 381 -164t152 -402h-907q18 -141 122.5 -230t251.5 -89zM1464 866q-145 0 -248.5 -85t-125.5 -220h741q-25 141 -126.5 223
t-240.5 82zM524 111q113 0 235 46t212 128q-37 86 -43 161h-391q-100 0 -165 -46t-65 -121.5t58.5 -121.5t158.5 -46z" />
    <glyph glyph-name="uni0218" unicode="&#x218;" horiz-adv-x="1208" 
d="M637 -25q-94 0 -180 21.5t-163 67t-126 125t-59 186.5h172q12 -94 75.5 -153.5t133 -79t145.5 -19.5q129 0 219 55t90 172q0 61 -26.5 106.5t-86 78t-107.5 50t-138 42.5q-221 66 -333 149.5t-112 247.5q0 176 130 274.5t337 98.5q88 0 166 -20.5t147.5 -62.5t115.5 -120
t59 -182h-170q-20 127 -112.5 184t-203.5 57q-119 0 -209 -56t-90 -167q0 -47 20.5 -85t46 -61.5t78 -47t87.5 -36t100 -30.5q229 -68 307 -115q166 -98 166 -295q0 -190 -133 -287.5t-346 -97.5zM508 -502l61 377h144l-101 -377h-104z" />
    <glyph glyph-name="uni0219" unicode="&#x219;" horiz-adv-x="1099" 
d="M575 -25q-113 0 -209 29t-165.5 100.5t-75.5 174.5h178q8 -92 88 -130t180 -38q246 0 246 145q0 41 -19.5 69.5t-64.5 48t-80 30t-102 24.5q-25 6 -37 8q-76 16 -129 36t-110.5 53.5t-87 86t-29.5 121.5q0 133 109.5 205t285.5 72q102 0 190 -24.5t157 -93.5t75 -171
h-170q-10 82 -83 119t-165 37q-96 0 -161.5 -35t-65.5 -107q0 -41 20.5 -69.5t66.5 -49t85 -31t110 -26.5q70 -14 115 -26.5t101.5 -36t89 -52t56 -74.5t23.5 -104q0 -143 -118 -217t-304 -74zM453 -502l61 377h143l-100 -377h-104z" />
    <glyph glyph-name="uni021A" unicode="&#x21a;" horiz-adv-x="1204" 
d="M1163 1372v-147h-473v-1225h-174v1225h-475v147h1122zM504 -502l61 377h144l-101 -377h-104z" />
    <glyph glyph-name="uni021B" unicode="&#x21b;" horiz-adv-x="868" 
d="M618 127q76 0 164 33v-146q-70 -39 -188 -39q-176 0 -272.5 110t-96.5 273v496h-209v133h209v281h166v-281h389v-133h-389v-483q0 -106 57 -175t170 -69zM406 -502l61 377h143l-100 -377h-104z" />
    <glyph glyph-name="circumflex" unicode="&#x2c6;" horiz-adv-x="1228" 
d="M864 1143h-151l-211 225l-211 -225h-152l289 323h147z" />
    <glyph glyph-name="caron" unicode="&#x2c7;" horiz-adv-x="1228" 
d="M864 1466l-289 -323h-147l-289 323h152l211 -225l211 225h151z" />
    <glyph glyph-name="breve" unicode="&#x2d8;" horiz-adv-x="1228" 
d="M645 1460h125q0 -131 -92 -224t-219 -93q-129 0 -221.5 93t-92.5 224h125q0 -86 55.5 -146.5t133.5 -60.5t132 60.5t54 146.5z" />
    <glyph glyph-name="dotaccent" unicode="&#x2d9;" horiz-adv-x="1228" 
d="M244 1192q-43 0 -74 30.5t-31 73.5q0 41 31 73t74 32t74.5 -32t31.5 -73q0 -43 -31.5 -73.5t-74.5 -30.5z" />
    <glyph glyph-name="ring" unicode="&#x2da;" horiz-adv-x="1228" 
d="M358 1090q-94 0 -158.5 63.5t-64.5 153.5q0 88 64.5 150.5t158.5 62.5q92 0 157 -62.5t65 -150.5q0 -90 -65 -153.5t-157 -63.5zM358.5 1184q51.5 0 86 35.5t34.5 87.5q0 49 -34.5 83.5t-86 34.5t-87 -34.5t-35.5 -83.5q0 -53 35.5 -88t87 -35z" />
    <glyph glyph-name="ogonek" unicode="&#x2db;" horiz-adv-x="1228" 
d="M416 -438q-129 -16 -208 48t-79 154q0 115 137 242l105 -6q-129 -109 -129 -201q0 -57 49 -98t125 -35v-104z" />
    <glyph glyph-name="tilde" unicode="&#x2dc;" horiz-adv-x="1228" 
d="M748 1450h98q-4 -139 -57.5 -216t-137.5 -77q-49 0 -92 28.5t-69.5 64.5t-62.5 64.5t-71 28.5q-51 0 -83.5 -52t-34.5 -130h-99q4 147 63.5 225t153.5 78q55 0 100.5 -28.5t71 -63.5t57 -63.5t62.5 -28.5q43 0 70 48t31 122z" />
    <glyph glyph-name="hungarumlaut" unicode="&#x2dd;" horiz-adv-x="1228" 
d="M268 1143h-129l264 323h127zM592 1143h-129l262 323h129z" />
    <glyph glyph-name="gravecomb" unicode="&#x300;" 
d="M-291 1143l-264 323h154l262 -323h-152z" />
    <glyph glyph-name="acutecomb" unicode="&#x301;" 
d="M-401 1143h-154l264 323h152z" />
    <glyph glyph-name="uni0302" unicode="&#x302;" 
d="M-139 1143h-152l-211 225l-211 -225h-151l289 323h147z" />
    <glyph glyph-name="tildecomb" unicode="&#x303;" 
d="M-238 1450h99q-4 -139 -57.5 -216t-137.5 -77q-49 0 -92 28.5t-69.5 64.5t-62.5 64.5t-71 28.5q-51 0 -83.5 -52t-35.5 -130h-98q4 147 63.5 225t153.5 78q55 0 100.5 -28.5t71 -63.5t57 -63.5t62.5 -28.5q43 0 69.5 48t30.5 122z" />
    <glyph glyph-name="uni0304" unicode="&#x304;" 
d="M-772 1257v111h633v-111h-633z" />
    <glyph glyph-name="uni0306" unicode="&#x306;" 
d="M-270 1460h125q0 -131 -92.5 -224t-219.5 -93q-129 0 -221 93t-92 224h125q0 -86 55 -146.5t133 -60.5t132.5 60.5t54.5 146.5z" />
    <glyph glyph-name="uni0307" unicode="&#x307;" 
d="M-246 1192q-43 0 -73.5 30.5t-30.5 73.5q0 41 30.5 73t73.5 32t75 -32t32 -73q0 -43 -32 -73.5t-75 -30.5z" />
    <glyph glyph-name="uni0308" unicode="&#x308;" 
d="M-682 1192q-43 0 -73.5 30.5t-30.5 73.5q0 41 30.5 73t73.5 32t75 -32t32 -73q0 -43 -32 -73.5t-75 -30.5zM-256 1192q-43 0 -73.5 30.5t-30.5 73.5q0 41 30.5 73t73.5 32t73.5 -32t30.5 -73q0 -43 -30.5 -73.5t-73.5 -30.5z" />
    <glyph glyph-name="uni030A" unicode="&#x30a;" 
d="M-356 1090q-94 0 -159 63.5t-65 153.5q0 88 64.5 150.5t159.5 62.5q92 0 156.5 -62.5t64.5 -150.5q0 -90 -64.5 -153.5t-156.5 -63.5zM-356 1184q51 0 85.5 35.5t34.5 87.5q0 49 -34.5 83.5t-86 34.5t-87 -34.5t-35.5 -83.5q0 -53 35 -88t88 -35z" />
    <glyph glyph-name="uni030B" unicode="&#x30b;" 
d="M-727 1143h-129l264 323h127zM-403 1143h-129l262 323h129z" />
    <glyph glyph-name="uni030C" unicode="&#x30c;" 
d="M-139 1466l-289 -323h-147l-289 323h151l211 -225l211 225h152z" />
    <glyph glyph-name="uni0312" unicode="&#x312;" 
d="M-334 1118l101 377h104l-61 -377h-144z" />
    <glyph glyph-name="uni0326" unicode="&#x326;" 
d="M-344 -502l61 377h144l-101 -377h-104z" />
    <glyph glyph-name="uni0327" unicode="&#x327;" 
d="M-309 -463q-104 0 -180 68l55 82q55 -45 115 -45q45 0 75.5 24.5t30.5 65.5q0 33 -24.5 58.5t-63.5 25.5q-33 0 -66 -25l-69 70l53 141l107 -2l-39 -100q37 6 43 6q76 0 126 -50.5t50 -125.5q0 -82 -60.5 -137.5t-152.5 -55.5z" />
    <glyph glyph-name="uni0328" unicode="&#x328;" 
d="M-164 -438q-129 -16 -208 48t-79 154q0 115 138 242l104 -6q-129 -109 -129 -201q0 -57 49 -98t125 -35v-104z" />
    <glyph glyph-name="uni0335" unicode="&#x335;" 
d="M-193 621v-117h-712v117h712z" />
    <glyph glyph-name="uni0336" unicode="&#x336;" 
d="M-102 612v-100h-1442v100h1442z" />
    <glyph glyph-name="uni0337" unicode="&#x337;" 
d="M-215 657l-600 -407v112l600 408v-113z" />
    <glyph glyph-name="uni0338" unicode="&#x338;" 
d="M-2 1372l-1116 -1372h-158l1118 1372h156z" />
    <glyph glyph-name="uni0401" unicode="&#x401;" horiz-adv-x="1290" 
d="M459 1577q-43 0 -74 30.5t-31 73.5q0 41 31 73t74 32t74.5 -32t31.5 -73q0 -43 -31.5 -73.5t-74.5 -30.5zM885 1577q-43 0 -74 30.5t-31 73.5q0 41 31 73t74 32t73.5 -32t30.5 -73q0 -43 -30.5 -73.5t-73.5 -30.5zM367 147h786v-147h-960v1372h940v-147h-766v-463h745
v-137h-745v-478z" />
    <glyph glyph-name="uni0410" unicode="&#x410;" horiz-adv-x="1456" 
d="M1266 0l-168 350h-738l-167 -350h-183l678 1376h80l678 -1376h-180zM420 475h618l-309 643z" />
    <glyph glyph-name="uni0411" unicode="&#x411;" horiz-adv-x="1290" 
d="M766 817q182 0 303 -122t121 -283q0 -166 -122 -289t-288 -123h-587v1372h911v-147h-737v-408h399zM758 147q111 0 188.5 78t77.5 187q0 111 -80 187.5t-199 76.5h-378v-529h391z" />
    <glyph glyph-name="uni0412" unicode="&#x412;" horiz-adv-x="1304" 
d="M193 0v1372h591q147 0 252 -102.5t105 -249.5q0 -96 -47 -175t-129 -114q111 -31 180 -123t69 -215q0 -168 -115.5 -280.5t-291.5 -112.5h-614zM360 786h396q92 0 156.5 67t64.5 163q0 92 -67.5 155.5t-166.5 63.5h-383v-449zM360 139h422q113 0 191 75t78 181
q0 109 -81 184.5t-200 75.5h-410v-516z" />
    <glyph glyph-name="uni0413" unicode="&#x413;" horiz-adv-x="1177" 
d="M1104 1372v-147h-737v-1225h-174v1372h911z" />
    <glyph glyph-name="uni0414" unicode="&#x414;" horiz-adv-x="1413" 
d="M1198 147h160v-446h-164v299h-1016v-299h-166v446h70q141 104 178 248t37 410v567h901v-1225zM283 147h751v1078h-573v-400q0 -266 -31.5 -417.5t-146.5 -260.5z" />
    <glyph glyph-name="uni0415" unicode="&#x415;" horiz-adv-x="1290" 
d="M367 147h786v-147h-960v1372h940v-147h-766v-463h745v-137h-745v-478z" />
    <glyph glyph-name="uni0416" unicode="&#x416;" horiz-adv-x="2013" 
d="M61 0l695 702l-695 670h209l648 -629h2v629h174v-629h2l647 629h209l-697 -670l697 -702h-211l-645 657h-2v-657h-174v657h-2l-646 -657h-211z" />
    <glyph glyph-name="uni0417" unicode="&#x417;" horiz-adv-x="1140" 
d="M147 231q143 -121 375 -120q170 0 266.5 78.5t96.5 201.5q0 119 -93.5 192.5t-240.5 73.5h-168v125h168q115 0 199 69t84 175q0 102 -84 170t-232 68q-195 0 -332 -88l-65 116q164 104 399 105q213 0 345 -99.5t132 -250.5q0 -113 -75.5 -202t-196.5 -120
q147 -31 236.5 -123t89.5 -227q0 -174 -138.5 -287t-375.5 -113q-295 0 -474 146z" />
    <glyph glyph-name="uni0418" unicode="&#x418;" horiz-adv-x="1572" 
d="M1206 1372h172v-1372h-172v1124l-839 -1124h-174v1372h174v-1124z" />
    <glyph glyph-name="uni0419" unicode="&#x419;" horiz-adv-x="1572" 
d="M786 1528q-133 0 -227 93t-94 224h133q0 -92 54.5 -153.5t133.5 -61.5q78 0 132.5 61.5t54.5 153.5h133q0 -131 -94.5 -224t-225.5 -93zM1206 1372h172v-1372h-172v1124l-839 -1124h-174v1372h174v-1124z" />
    <glyph glyph-name="uni041A" unicode="&#x41a;" horiz-adv-x="1312" 
d="M193 0v1372h174v-629h2l680 629h215l-719 -670l719 -702h-217l-678 657h-2v-657h-174z" />
    <glyph glyph-name="uni041B" unicode="&#x41b;" horiz-adv-x="1484" 
d="M1292 1372v-1372h-166v1225h-686v-541q0 -119 -6 -202t-28.5 -180t-64.5 -158.5t-118 -107.5t-182 -56v149q49 8 87 29.5t62.5 45t42 68.5t25.5 78t13 96.5t5 99.5v109v31v686h1016z" />
    <glyph glyph-name="uni041C" unicode="&#x41c;" horiz-adv-x="1851" 
d="M193 0v1372h118l615 -829l614 829h119v-1372h-168v1049l-530 -727h-72l-529 727v-1049h-167z" />
    <glyph glyph-name="uni041D" unicode="&#x41d;" horiz-adv-x="1572" 
d="M1206 1372h174v-1372h-174v621h-839v-621h-174v1372h174v-606h839v606z" />
    <glyph glyph-name="uni041E" unicode="&#x41e;" horiz-adv-x="1656" 
d="M829 -25q-301 0 -514 209t-213 502t213 502t514 209q299 0 512 -209t213 -502t-213 -502t-512 -209zM829.5 133q229.5 0 390 162t160.5 391t-160.5 391t-390 162t-391.5 -162t-162 -391t162 -391t391.5 -162z" />
    <glyph glyph-name="uni041F" unicode="&#x41f;" horiz-adv-x="1552" 
d="M1360 1372v-1372h-174v1225h-819v-1225h-174v1372h1167z" />
    <glyph glyph-name="uni0420" unicode="&#x420;" horiz-adv-x="1349" 
d="M805 496h-447v-496h-165v1372h624q182 0 309 -126t127 -312q0 -184 -126.5 -311t-321.5 -127zM358 1235v-600h408q137 0 229 86t92 213t-90 214t-219 87h-420z" />
    <glyph glyph-name="uni0421" unicode="&#x421;" horiz-adv-x="1624" 
d="M1518 469q-70 -217 -260.5 -355.5t-428.5 -138.5q-301 0 -514 209t-213 502t213 502t514 209q238 0 428.5 -138.5t260.5 -355.5h-183q-63 150 -200.5 243t-305.5 93q-229 0 -391 -162t-162 -391t162 -391t391 -162q168 0 306.5 92t201.5 244h181z" />
    <glyph glyph-name="uni0422" unicode="&#x422;" horiz-adv-x="1204" 
d="M1163 1372v-147h-473v-1225h-174v1225h-475v147h1122z" />
    <glyph glyph-name="uni0423" unicode="&#x423;" horiz-adv-x="1435" 
d="M1227 1372h188l-915 -1372h-185l306 459l-601 913h189l510 -766z" />
    <glyph glyph-name="uni0424" unicode="&#x424;" horiz-adv-x="1812" 
d="M1710 686q0 -256 -195.5 -425t-521.5 -189v-101h-174v101q-326 23 -521.5 190.5t-195.5 423.5t196 424t521 190v101h174v-101q326 -20 521.5 -189t195.5 -425zM987 225q264 16 406.5 139t142.5 322t-142.5 321.5t-406.5 139.5v-922zM276 686q0 -199 142.5 -321.5
t406.5 -139.5v922q-264 -16 -406.5 -139t-142.5 -322z" />
    <glyph glyph-name="uni0425" unicode="&#x425;" horiz-adv-x="1456" 
d="M63 0l568 705l-539 667h207l428 -534l430 534h205l-539 -667l568 -705h-203l-461 571l-461 -571h-203z" />
    <glyph glyph-name="uni0426" unicode="&#x426;" horiz-adv-x="1515" 
d="M1462 147v-446h-166v299h-1103v1372h174v-1225h770v1225h174v-1225h151z" />
    <glyph glyph-name="uni0427" unicode="&#x427;" horiz-adv-x="1482" 
d="M1118 0v520q-158 -55 -391 -55q-270 0 -416.5 144.5t-146.5 394.5v368h172v-368q0 -180 99.5 -283t297.5 -103q233 0 385 58v696h172v-1372h-172z" />
    <glyph glyph-name="uni0428" unicode="&#x428;" horiz-adv-x="2109" 
d="M1743 1372h174v-1372h-1724v1372h174v-1225h606v1225h164v-1225h606v1225z" />
    <glyph glyph-name="uni0429" unicode="&#x429;" horiz-adv-x="2121" 
d="M1905 -299v299h-1712v1372h174v-1225h606v1225h164v-1225h606v1225h174v-1225h151v-446h-163z" />
    <glyph glyph-name="uni042A" unicode="&#x42a;" horiz-adv-x="1619" 
d="M1090 813q193 0 314.5 -125t121.5 -291q0 -168 -120 -282.5t-304 -114.5h-629v1225h-432v147h598v-559h451zM1094 141q113 0 189.5 77t76.5 188q0 113 -80 189.5t-199 76.5h-442v-531h455z" />
    <glyph glyph-name="uni042B" unicode="&#x42b;" horiz-adv-x="1828" 
d="M193 0v1372h165v-559h451q193 0 314.5 -125t121.5 -291q0 -168 -119.5 -282.5t-304.5 -114.5h-628zM1462 0v1372h174v-1372h-174zM358 141h455q113 0 189.5 77t76.5 188q0 113 -79.5 189.5t-198.5 76.5h-443v-531z" />
    <glyph glyph-name="uni042C" unicode="&#x42c;" horiz-adv-x="1339" 
d="M193 0v1372h165v-559h451q193 0 314.5 -125t121.5 -291q0 -168 -119.5 -282.5t-304.5 -114.5h-628zM358 141h455q113 0 189.5 77t76.5 188q0 113 -79.5 189.5t-198.5 76.5h-443v-531z" />
    <glyph glyph-name="uni042D" unicode="&#x42d;" horiz-adv-x="1624" 
d="M795 1397q301 0 514 -209t213 -502t-213 -502t-514 -209q-238 0 -428.5 138.5t-260.5 355.5h181q63 -152 201.5 -244t306.5 -92q207 0 362.5 135t183.5 338h-792v148h794q-25 205 -181 345t-367 140q-168 0 -305.5 -93t-200.5 -243h-183q70 217 260.5 355.5t428.5 138.5z
" />
    <glyph glyph-name="uni042E" unicode="&#x42e;" horiz-adv-x="2197" 
d="M1368 1397q299 0 513 -209t214 -502t-214 -502t-513 -209q-281 0 -488.5 186.5t-234.5 459.5h-278v-621h-174v1372h174v-606h280q31 266 236.5 448.5t484.5 182.5zM1368 133q229 0 391 162t162 391t-162 391t-391 162t-391 -162t-162 -391t162 -391t391 -162z" />
    <glyph glyph-name="uni042F" unicode="&#x42f;" horiz-adv-x="1380" 
d="M559 1372h629v-1372h-166v559h-385l-326 -559h-186l344 569q-152 33 -243 149t-91 257q0 168 120 282.5t304 114.5zM1022 700v531h-455q-113 0 -189.5 -77t-76.5 -187q0 -113 80 -190t199 -77h442z" />
    <glyph glyph-name="uni0430" unicode="&#x430;" horiz-adv-x="1343" 
d="M602 -25q-203 0 -356.5 149.5t-153.5 369t153.5 368t356.5 148.5q137 0 252 -75t158 -194h2l6 246h147v-987h-147l-6 246h-2q-45 -121 -160 -196t-250 -75zM628.5 123q153.5 0 262 108.5t108.5 262t-108.5 262t-262 108.5t-262 -108.5t-108.5 -262t108.5 -262t262 -108.5
z" />
    <glyph glyph-name="uni0431" unicode="&#x431;" horiz-adv-x="1253" 
d="M629 -25q-219 0 -364.5 146.5t-145.5 400.5q0 330 33.5 482.5t146.5 255.5q82 76 215 107.5t278.5 53t229.5 70.5v-168q-72 -39 -302.5 -66.5t-303.5 -91.5q-72 -59 -101.5 -151t-29.5 -248q51 96 160.5 149.5t230.5 53.5q199 0 341 -143.5t142 -346.5
q0 -209 -153.5 -356.5t-376.5 -147.5zM639 123q145 0 248.5 104.5t103.5 250t-103.5 248.5t-248.5 103t-249.5 -103t-104.5 -248.5t104.5 -250t249.5 -104.5z" />
    <glyph glyph-name="uni0432" unicode="&#x432;" horiz-adv-x="1161" 
d="M176 0v987h526q129 0 226.5 -71.5t97.5 -172.5q0 -70 -41 -129t-111 -86q94 -23 153.5 -93t59.5 -163q0 -117 -100 -194.5t-250 -77.5h-561zM334 575h375q66 0 113.5 42t47.5 102q0 61 -49 103t-121 42h-366v-289zM334 127h397q82 0 141.5 48t59.5 116q0 70 -61.5 118
t-147.5 48h-389v-330z" />
    <glyph glyph-name="uni0433" unicode="&#x433;" horiz-adv-x="974" 
d="M920 987v-135h-580v-852h-164v987h744z" />
    <glyph glyph-name="uni0434" unicode="&#x434;" horiz-adv-x="1202" 
d="M1030 133h131v-352h-153v219h-846v-219h-154v352h60q113 72 143.5 170t30.5 270v414h788v-854zM260 133h621v721h-488v-260q0 -121 -4 -182.5t-35 -142.5t-94 -136z" />
    <glyph glyph-name="uni0435" unicode="&#x435;" horiz-adv-x="1234" 
d="M639 117q109 0 200 45t126 117h163q-53 -135 -191 -219.5t-306 -84.5q-227 0 -383 149.5t-156 371.5q0 215 149.5 364.5t379.5 149.5q240 0 386 -163t146 -405h-897q18 -145 124.5 -235t258.5 -90zM621 870q-147 0 -244.5 -84t-118.5 -217h725q-23 137 -120 219t-242 82z
" />
    <glyph glyph-name="uni0436" unicode="&#x436;" horiz-adv-x="1665" 
d="M43 0l561 506l-559 481h191l516 -444h2v444h155v-444h4l517 444h190l-567 -481l569 -506h-190l-519 465h-4v-465h-155v465h-2l-519 -465h-190z" />
    <glyph glyph-name="uni0437" unicode="&#x437;" horiz-adv-x="1040" 
d="M135 201q133 -86 352 -86q147 0 231.5 49t84.5 129q0 74 -79 119t-202 45h-174v121h162q104 0 175 43t71 110q0 63 -70 105.5t-197 42.5q-182 0 -327 -68l-60 117q156 80 392 80q193 0 310.5 -74t117.5 -180q0 -80 -63.5 -143.5t-162.5 -86.5q123 -23 199 -90t76 -164
q0 -127 -126 -207.5t-341 -80.5q-287 0 -451 108z" />
    <glyph glyph-name="uni0438" unicode="&#x438;" horiz-adv-x="1325" 
d="M993 987h156v-987h-156v778l-659 -778h-158v987h158v-780z" />
    <glyph glyph-name="uni0439" unicode="&#x439;" horiz-adv-x="1325" 
d="M676 1143q-133 0 -227.5 93t-94.5 224h133q0 -92 54.5 -153.5t134.5 -61.5q78 0 132 61.5t54 153.5h133q0 -131 -94 -224t-225 -93zM993 987h156v-987h-156v778l-659 -778h-158v987h158v-780z" />
    <glyph glyph-name="uni043A" unicode="&#x43a;" horiz-adv-x="1146" 
d="M911 0l-417 420l-154 -144v-276h-164v987h164v-500l551 500h201l-482 -455l506 -532h-205z" />
    <glyph glyph-name="uni043B" unicode="&#x43b;" horiz-adv-x="1259" 
d="M1083 987v-987h-153v850h-547v-371q0 -111 -11.5 -186.5t-44 -149t-104 -113.5t-182.5 -46v141q47 6 81 21.5t53.5 48t31.5 58.5t16 81t5 81.5t1 92.5v479h854z" />
    <glyph glyph-name="uni043C" unicode="&#x43c;" horiz-adv-x="1546" 
d="M176 0v987h88l510 -571l508 571h88v-987h-156v715l-409 -477h-62l-409 477v-715h-158z" />
    <glyph glyph-name="uni043D" unicode="&#x43d;" horiz-adv-x="1347" 
d="M1008 987h163v-987h-163v430h-668v-430h-164v987h164v-418h668v418z" />
    <glyph glyph-name="uni043E" unicode="&#x43e;" horiz-adv-x="1259" 
d="M629 -25q-221 0 -379 153t-158 366t158 364.5t379 151.5q223 0 379.5 -151.5t156.5 -364.5t-156.5 -366t-379.5 -153zM629 123q154 0 262 108.5t108 262t-108.5 262t-261.5 108.5q-152 0 -261.5 -108.5t-109.5 -262t109.5 -262t261.5 -108.5z" />
    <glyph glyph-name="uni043F" unicode="&#x43f;" horiz-adv-x="1329" 
d="M1153 987v-987h-164v850h-649v-850h-164v987h977z" />
    <glyph glyph-name="uni0440" unicode="&#x440;" horiz-adv-x="1341" 
d="M176 -451v1438h148l6 -246h2q43 119 158.5 194t250.5 75q203 0 355.5 -148.5t152.5 -368t-150.5 -369t-350.5 -149.5q-137 0 -250 76t-154 195h-2v-697h-166zM712.5 123q151.5 0 261 108.5t109.5 262t-109.5 262t-261 108.5t-261 -108.5t-109.5 -262t109.5 -262
t261 -108.5z" />
    <glyph glyph-name="uni0441" unicode="&#x441;" horiz-adv-x="1212" 
d="M1118 326q-35 -150 -172 -250.5t-313 -100.5q-223 0 -382 153t-159 366t159 364.5t382 151.5q176 0 312 -98.5t173 -247.5h-170q-33 88 -121 144t-198 56q-154 0 -262.5 -108.5t-108.5 -261.5q0 -152 108.5 -261.5t262.5 -109.5q111 0 197.5 56.5t121.5 146.5h170z" />
    <glyph glyph-name="uni0442" unicode="&#x442;" horiz-adv-x="1005" 
d="M973 987v-137h-387v-850h-164v850h-387v137h938z" />
    <glyph glyph-name="uni0443" unicode="&#x443;" horiz-adv-x="1110" 
d="M166 -451l307 582l-440 856h180l346 -694l348 694h180l-743 -1438h-178z" />
    <glyph glyph-name="uni0444" unicode="&#x444;" horiz-adv-x="1439" 
d="M1348 494q0 -213 -152 -353.5t-397 -160.5v-431h-158v431q-246 20 -397.5 160.5t-151.5 353.5t151.5 352t397.5 160v469h158v-469q246 -20 397.5 -159.5t151.5 -352.5zM264 494q0 -150 103.5 -248.5t275.5 -116.5v729q-172 -18 -275.5 -115t-103.5 -249zM795 129
q172 18 275.5 116.5t103.5 248.5q0 152 -103.5 249t-275.5 115v-729z" />
    <glyph glyph-name="uni0445" unicode="&#x445;" horiz-adv-x="1150" 
d="M1094 0h-191l-325 385l-328 -385h-193l424 502l-407 485h190l314 -369l313 369h190l-409 -485z" />
    <glyph glyph-name="uni0446" unicode="&#x446;" horiz-adv-x="1294" 
d="M1241 137v-350h-158v213h-907v987h164v-850h610v850h164v-850h127z" />
    <glyph glyph-name="uni0447" unicode="&#x447;" horiz-adv-x="1251" 
d="M911 0v356q-121 -37 -311 -37q-223 0 -347 108t-124 292v268h164v-268q0 -119 79 -186.5t236 -67.5q184 0 303 39v483h166v-987h-166z" />
    <glyph glyph-name="uni0448" unicode="&#x448;" horiz-adv-x="1796" 
d="M1456 987h164v-987h-1444v987h164v-850h479v850h158v-850h479v850z" />
    <glyph glyph-name="uni0449" unicode="&#x449;" horiz-adv-x="1785" 
d="M1589 -213v213h-1413v987h164v-850h479v850h158v-850h479v850h164v-850h125v-350h-156z" />
    <glyph glyph-name="uni044A" unicode="&#x44a;" horiz-adv-x="1351" 
d="M909 606q162 0 265.5 -93t103.5 -218q0 -123 -102.5 -209t-257.5 -86h-527v850h-354v137h512v-381h360zM909 133q86 0 148.5 49t62.5 119q0 72 -64.5 122t-156.5 50h-350v-340h360z" />
    <glyph glyph-name="uni044B" unicode="&#x44b;" horiz-adv-x="1576" 
d="M176 0v987h158v-381h358q164 0 266.5 -93t102.5 -218q0 -123 -100.5 -209t-258.5 -86h-526zM1237 0v987h164v-987h-164zM334 133h358q88 0 150.5 49t62.5 119q0 72 -64.5 122t-156.5 50h-350v-340z" />
    <glyph glyph-name="uni044C" unicode="&#x44c;" horiz-adv-x="1136" 
d="M176 0v987h158v-381h358q164 0 266.5 -93t102.5 -218q0 -123 -100.5 -209t-258.5 -86h-526zM334 133h368q86 0 144.5 49t58.5 119q0 72 -61.5 122t-151.5 50h-358v-340z" />
    <glyph glyph-name="uni044D" unicode="&#x44d;" horiz-adv-x="1212" 
d="M580 1010q223 0 381.5 -151.5t158.5 -364.5t-158.5 -366t-381.5 -153q-176 0 -313.5 100.5t-172.5 250.5h170q35 -90 122 -146.5t198 -56.5q135 0 238.5 87t125.5 218h-573v127h575q-23 133 -126 221t-240 88q-111 0 -199 -56t-121 -144h-170q37 150 173.5 248t312.5 98z
" />
    <glyph glyph-name="uni044E" unicode="&#x44e;" horiz-adv-x="1728" 
d="M1098 1010q223 0 380.5 -151.5t157.5 -364.5t-157.5 -366t-380.5 -153q-203 0 -355.5 131.5t-177.5 323.5h-225v-430h-164v987h164v-418h227q29 188 179.5 314.5t351.5 126.5zM1098 123q154 0 263 108.5t109 262t-109.5 262t-262.5 108.5q-152 0 -261.5 -108.5
t-109.5 -262t109.5 -262t261.5 -108.5z" />
    <glyph glyph-name="uni044F" unicode="&#x44f;" horiz-adv-x="1171" 
d="M469 987h526v-987h-155v381h-305l-267 -381h-178l287 393q-121 27 -193.5 113t-72.5 188q0 123 101 208t257 85zM840 514v342h-371q-86 0 -143.5 -50t-57.5 -120q0 -74 59.5 -123t149.5 -49h363z" />
    <glyph glyph-name="uni0451" unicode="&#x451;" horiz-adv-x="1234" 
d="M405.5 1192q-43.5 0 -74 30.5t-30.5 73.5q0 41 30.5 73t74 32t75 -32t31.5 -73q0 -43 -31.5 -73.5t-75 -30.5zM831 1192q-43 0 -73.5 30.5t-30.5 73.5q0 41 30.5 73t73.5 32t74 -32t31 -73q0 -43 -31 -73.5t-74 -30.5zM639 117q109 0 200 45t126 117h163
q-53 -135 -191 -219.5t-306 -84.5q-227 0 -383 149.5t-156 371.5q0 215 149.5 364.5t379.5 149.5q240 0 386 -163t146 -405h-897q18 -145 124.5 -235t258.5 -90zM621 870q-147 0 -244.5 -84t-118.5 -217h725q-23 137 -120 219t-242 82z" />
    <glyph glyph-name="Wgrave" unicode="&#x1e80;" horiz-adv-x="2185" 
d="M1081 1528l-264 323h154l262 -323h-152zM606 0l-532 1372h182l399 -1044l402 1044h73l402 -1044l399 1044h180l-532 -1372h-76l-409 1067l-410 -1067h-78z" />
    <glyph glyph-name="wgrave" unicode="&#x1e81;" horiz-adv-x="1759" 
d="M868 1143l-264 323h154l262 -323h-152zM463 0l-451 987h181l319 -704l326 704h82l323 -704l322 704h182l-451 -987h-77l-340 731l-338 -731h-78z" />
    <glyph glyph-name="Wacute" unicode="&#x1e82;" horiz-adv-x="2185" 
d="M1141 1528h-154l264 323h152zM606 0l-532 1372h182l399 -1044l402 1044h73l402 -1044l399 1044h180l-532 -1372h-76l-409 1067l-410 -1067h-78z" />
    <glyph glyph-name="wacute" unicode="&#x1e83;" horiz-adv-x="1759" 
d="M928 1143h-154l264 323h152zM463 0l-451 987h181l319 -704l326 704h82l323 -704l322 704h182l-451 -987h-77l-340 731l-338 -731h-78z" />
    <glyph glyph-name="Wdieresis" unicode="&#x1e84;" horiz-adv-x="2185" 
d="M881 1577q-43 0 -74 30.5t-31 73.5q0 41 31 73t74 32t74.5 -32t31.5 -73q0 -43 -31.5 -73.5t-74.5 -30.5zM1307 1577q-43 0 -74 30.5t-31 73.5q0 41 31 73t74 32t73.5 -32t30.5 -73q0 -43 -30.5 -73.5t-73.5 -30.5zM606 0l-532 1372h182l399 -1044l402 1044h73l402 -1044
l399 1044h180l-532 -1372h-76l-409 1067l-410 -1067h-78z" />
    <glyph glyph-name="wdieresis" unicode="&#x1e85;" horiz-adv-x="1759" 
d="M668 1192q-43 0 -74 30.5t-31 73.5q0 41 31 73t74 32t74.5 -32t31.5 -73q0 -43 -31.5 -73.5t-74.5 -30.5zM1094 1192q-43 0 -74 30.5t-31 73.5q0 41 31 73t74 32t73.5 -32t30.5 -73q0 -43 -30.5 -73.5t-73.5 -30.5zM463 0l-451 987h181l319 -704l326 704h82l323 -704
l322 704h182l-451 -987h-77l-340 731l-338 -731h-78z" />
    <glyph glyph-name="Ygrave" unicode="&#x1ef2;" horiz-adv-x="1427" 
d="M854 1528h-152l-264 323h154zM1411 1372l-610 -901v-471h-172v471l-613 901h199l500 -733l497 733h199z" />
    <glyph glyph-name="ygrave" unicode="&#x1ef3;" horiz-adv-x="1110" 
d="M547 1143l-264 323h153l262 -323h-151zM166 -451l307 582l-440 856h180l346 -694l348 694h180l-743 -1438h-178z" />
    <glyph glyph-name="endash" unicode="&#x2013;" horiz-adv-x="1206" 
d="M1085 569v-141h-966v141h966z" />
    <glyph glyph-name="emdash" unicode="&#x2014;" horiz-adv-x="1830" 
d="M1712 569v-141h-1595v141h1595z" />
    <glyph glyph-name="quoteleft" unicode="&#x2018;" horiz-adv-x="452" 
d="M285 924h-166l114 551h119z" />
    <glyph glyph-name="quoteright" unicode="&#x2019;" horiz-adv-x="452" 
d="M186 1481h166l-114 -551h-119z" />
    <glyph glyph-name="quotesinglbase" unicode="&#x201a;" horiz-adv-x="452" 
d="M186 217h166l-114 -551h-119z" />
    <glyph glyph-name="quotedblleft" unicode="&#x201c;" horiz-adv-x="786" 
d="M268 924h-166l115 551h119zM616 924h-165l114 551h119z" />
    <glyph glyph-name="quotedblright" unicode="&#x201d;" horiz-adv-x="835" 
d="M195 1475h165l-114 -551h-119zM543 1475h166l-115 -551h-119z" />
    <glyph glyph-name="quotedblbase" unicode="&#x201e;" horiz-adv-x="798" 
d="M186 217h166l-114 -551h-119zM535 217h165l-114 -551h-119z" />
    <glyph glyph-name="dagger" unicode="&#x2020;" horiz-adv-x="1114" 
d="M1032 995v-147h-387v-848h-174v848h-389v147h389v377h174v-377h387z" />
    <glyph glyph-name="daggerdbl" unicode="&#x2021;" horiz-adv-x="1114" 
d="M1032 864h-387v-342h387v-145h-387v-377h-174v377h-389v145h389v342h-389v146h389v362h174v-362h387v-146z" />
    <glyph glyph-name="bullet" unicode="&#x2022;" horiz-adv-x="739" 
d="M369 479q-90 0 -153.5 63.5t-63.5 153.5t63.5 153.5t153.5 63.5t154.5 -63.5t64.5 -153.5t-64.5 -153.5t-154.5 -63.5z" />
    <glyph glyph-name="ellipsis" unicode="&#x2026;" horiz-adv-x="1331" 
d="M258 -25q-53 0 -92 38t-39 91.5t39 91t92 37.5t92 -37.5t39 -91t-39 -91.5t-92 -38zM665.5 -25q-53.5 0 -92 38t-38.5 91.5t38.5 91t92 37.5t92.5 -37.5t39 -91t-39 -91.5t-92.5 -38zM1073 -25q-53 0 -92 38t-39 91.5t39 91t92 37.5t92 -37.5t39 -91t-39 -91.5t-92 -38z
" />
    <glyph glyph-name="perthousand" unicode="&#x2030;" horiz-adv-x="2381" 
d="M411.5 731q-139.5 0 -236.5 97.5t-97 236.5t97 235.5t237 96.5q137 0 234 -96.5t97 -235.5t-96 -236.5t-235.5 -97.5zM238 -2l966 1374h174l-968 -1374h-172zM412 870q80 0 136 56.5t56 138.5q0 80 -56 136t-136 56t-137.5 -56t-57.5 -136q0 -82 56.5 -138.5t138.5 -56.5
zM1222.5 -25q-139.5 0 -236.5 97.5t-97 237t97 236.5t237 97q137 0 234 -97t97 -236.5t-96 -237t-235.5 -97.5zM1972 -25q-139 0 -236.5 97.5t-97.5 237t97.5 236.5t236.5 97q137 0 233.5 -97t96.5 -236.5t-96.5 -237t-233.5 -97.5zM1223 113q82 0 138 57t56 139t-56 137.5
t-138 55.5t-138.5 -55.5t-56.5 -137.5q0 -84 56.5 -140t138.5 -56zM1972 113q82 0 138.5 57t56.5 139t-56.5 137.5t-138.5 55.5t-138 -55.5t-56 -137.5q0 -84 56 -140t138 -56z" />
    <glyph glyph-name="guilsinglleft" unicode="&#x2039;" horiz-adv-x="712" 
d="M612 870l-350 -372l350 -373h-186l-356 373l356 372h186z" />
    <glyph glyph-name="guilsinglright" unicode="&#x203a;" horiz-adv-x="704" 
d="M92 870h187l356 -372l-356 -373h-187l350 373z" />
    <glyph glyph-name="fraction" unicode="&#x2044;" horiz-adv-x="460" 
d="M-324 -2l969 1374h139l-970 -1374h-138z" />
    <glyph glyph-name="uni2070" unicode="&#x2070;" horiz-adv-x="882" 
d="M442 928q-143 0 -244.5 96t-101.5 231v240q0 133 101.5 229.5t245 96.5t243.5 -96.5t100 -229.5v-240q0 -135 -101.5 -231t-242.5 -96zM442 1042q86 0 149.5 59.5t63.5 147.5v250q0 88 -62.5 147.5t-150.5 59.5q-90 0 -152.5 -59.5t-62.5 -147.5v-250q0 -90 62.5 -148.5
t152.5 -58.5z" />
    <glyph glyph-name="uni2074" unicode="&#x2074;" horiz-adv-x="743" 
d="M731 1278v-94h-129v-242h-121v242h-463v73l496 549h88v-528h129zM158 1278h327v364z" />
    <glyph glyph-name="uni2075" unicode="&#x2075;" horiz-adv-x="761" 
d="M391 928q-135 0 -229 76.5t-94 187.5l131 6q2 -68 58 -114t136 -46q78 0 133.5 52.5t55.5 126t-55.5 126t-133.5 52.5q-98 0 -172 -72l-112 49l63 434h465v-106h-365l-34 -262q72 57 178 57q123 0 211 -83t88 -198q0 -119 -95.5 -202.5t-228.5 -83.5z" />
    <glyph glyph-name="uni2076" unicode="&#x2076;" horiz-adv-x="751" 
d="M375 928q-135 0 -231.5 87t-96.5 208q0 88 53 180l242 403h139l-215 -356q59 55 142 55q121 0 207.5 -84t86.5 -198q0 -121 -96 -208t-231 -87zM377 1040q82 0 140 55.5t58 131.5q0 74 -58 128t-140 54t-141.5 -54.5t-59.5 -127.5q0 -78 58.5 -132.5t142.5 -54.5z" />
    <glyph glyph-name="uni2077" unicode="&#x2077;" horiz-adv-x="663" 
d="M188 942l283 750h-426v114h569v-69l-295 -795h-131z" />
    <glyph glyph-name="uni2078" unicode="&#x2078;" horiz-adv-x="733" 
d="M369 928q-129 0 -219.5 76.5t-90.5 189.5q0 80 50.5 144.5t134.5 91.5q-59 23 -96 71.5t-35 108.5q2 88 75.5 149.5t180.5 61.5q104 0 178 -61.5t74 -153.5q0 -125 -132 -176q84 -27 133.5 -90.5t49.5 -145.5q0 -111 -89 -188.5t-214 -77.5zM369 1466q57 0 97 38t40 91
q0 51 -40 88t-97.5 37t-100.5 -36.5t-43 -88.5q0 -55 42.5 -92t101.5 -37zM369 1036q74 0 127 49.5t53 119t-53.5 118.5t-126.5 49q-78 0 -132.5 -49t-54.5 -118.5t54.5 -119t132.5 -49.5z" />
    <glyph glyph-name="uni2079" unicode="&#x2079;" horiz-adv-x="737" 
d="M369 1821q133 0 226 -85t93 -204q0 -86 -51 -174l-236 -416h-139l211 369q-53 -47 -133 -47q-119 0 -206 80.5t-87 189.5q0 117 95.5 202t226.5 85zM369 1708q-80 0 -136.5 -52t-56.5 -126q0 -70 56.5 -120t136.5 -50q78 0 135 50t57 120q0 74 -56 126t-136 52z" />
    <glyph glyph-name="uni2080" unicode="&#x2080;" horiz-adv-x="882" 
d="M442 -465q-143 0 -244.5 96.5t-101.5 231.5v239q0 133 101.5 229.5t245 96.5t243.5 -96t100 -230v-239q0 -135 -101.5 -231.5t-242.5 -96.5zM442 -350q86 0 149.5 59.5t63.5 147.5v249q0 88 -62.5 147.5t-150.5 59.5q-90 0 -152.5 -59t-62.5 -148v-249q0 -90 62.5 -148.5
t152.5 -58.5z" />
    <glyph glyph-name="uni2081" unicode="&#x2081;" horiz-adv-x="514" 
d="M229 -451v721l-194 -84v109l258 119h65v-865h-129z" />
    <glyph glyph-name="uni2082" unicode="&#x2082;" horiz-adv-x="755" 
d="M74 -451v70l350 363q125 117 125 200q0 59 -49 102.5t-123 43.5q-78 0 -130 -47.5t-52 -118.5h-127q0 119 88 192.5t221 73.5q129 0 214 -69.5t85 -172.5q0 -74 -36 -129t-105 -125l-275 -272h447v-111h-633z" />
    <glyph glyph-name="uni2083" unicode="&#x2083;" horiz-adv-x="757" 
d="M381 -465q-143 0 -227 74t-84 192h127q0 -70 50 -118t136 -48q90 0 139 46.5t49 117.5q0 70 -54 113t-140 43h-109v96h109q68 0 117 39t49 100q0 59 -45 98.5t-121 39.5q-74 0 -118 -39t-44 -99h-127q0 104 82 171t209 67t207 -61.5t80 -157.5q0 -70 -46.5 -125
t-119.5 -78q90 -20 144 -77.5t54 -141.5q0 -111 -86 -181.5t-231 -70.5z" />
    <glyph glyph-name="uni2084" unicode="&#x2084;" horiz-adv-x="743" 
d="M731 -115v-94h-129v-242h-121v242h-463v74l496 549h88v-529h129zM158 -115h327v365z" />
    <glyph glyph-name="uni2085" unicode="&#x2085;" horiz-adv-x="761" 
d="M391 -465q-135 0 -229 77t-94 187l131 6q2 -68 58 -113.5t136 -45.5q78 0 133.5 52t55.5 126t-55.5 126t-133.5 52q-98 0 -172 -72l-112 50l63 434h465v-107h-365l-34 -262q72 57 178 57q123 0 211 -82.5t88 -197.5q0 -119 -95.5 -203t-228.5 -84z" />
    <glyph glyph-name="uni2086" unicode="&#x2086;" horiz-adv-x="751" 
d="M375 -465q-135 0 -231.5 87t-96.5 208q0 88 53 180l242 404h139l-215 -357q59 55 142 56q121 0 207.5 -84t86.5 -199q0 -121 -96 -208t-231 -87zM377 -352q82 0 140 55t58 131q0 74 -58 128t-140 54t-141.5 -54t-59.5 -128q0 -78 58.5 -132t142.5 -54z" />
    <glyph glyph-name="uni2087" unicode="&#x2087;" horiz-adv-x="663" 
d="M188 -451l283 750h-426v115h569v-70l-295 -795h-131z" />
    <glyph glyph-name="uni2088" unicode="&#x2088;" horiz-adv-x="733" 
d="M369 -465q-129 0 -219.5 77t-90.5 189q0 80 50.5 144.5t134.5 91.5q-59 23 -96 72t-35 108q2 88 75.5 149.5t180.5 61.5q104 0 178 -61.5t74 -153.5q0 -125 -132 -176q84 -27 133.5 -90.5t49.5 -145.5q0 -111 -89 -188.5t-214 -77.5zM369 74q57 0 97 38t40 91
q0 51 -40 88t-97.5 37t-100.5 -37t-43 -88q0 -55 42.5 -92t101.5 -37zM369 -356q74 0 127 49t53 118.5t-53.5 119t-126.5 49.5q-78 0 -132.5 -49.5t-54.5 -119t54.5 -118.5t132.5 -49z" />
    <glyph glyph-name="uni2089" unicode="&#x2089;" horiz-adv-x="737" 
d="M369 428q133 0 226 -85t93 -204q0 -86 -51 -174l-236 -416h-139l211 369q-53 -47 -133 -47q-119 0 -206 81t-87 189q0 117 95.5 202t226.5 85zM369 315q-80 0 -136.5 -52t-56.5 -126q0 -70 56.5 -120t136.5 -50q78 0 135 50.5t57 119.5q0 74 -56 126t-136 52z" />
    <glyph glyph-name="lira" unicode="&#x20a4;" horiz-adv-x="1286" 
d="M414 147h813v-147h-1184v147h205v248h-156v131h156v160h-156v129h156v143q0 182 132 310.5t329 128.5q193 0 327.5 -126t134.5 -304h-165q0 121 -86 204.5t-211 83.5q-123 0 -209 -87t-86 -210v-143h530v-129h-530v-160h530v-131h-530v-248z" />
    <glyph glyph-name="uni20A8" unicode="&#x20a8;" horiz-adv-x="2121" 
d="M1106 950q0 -141 -76 -250.5t-201 -146.5l318 -553h-189l-294 537h-306v-537h-165v1372h536q158 0 267.5 -121t109.5 -301zM358 1239v-575h322q106 0 183 83.5t77 202.5t-73.5 204t-178.5 85h-330zM1675 561q344 -68 344 -295q0 -143 -107.5 -217t-285.5 -74
q-164 0 -281.5 74t-127.5 223h174q10 -84 81.5 -123.5t147.5 -39.5q94 0 157.5 37.5t63.5 109.5q0 80 -67.5 121t-206.5 65q-68 12 -120 32t-102.5 51.5t-77 86t-26.5 125.5q0 129 103.5 201t269.5 72q156 0 264.5 -70t122.5 -217h-172q-14 88 -75.5 125t-135.5 37
q-86 0 -145.5 -37t-59.5 -107q0 -57 39 -95t86 -52.5t137 -32.5z" />
    <glyph glyph-name="Euro" unicode="&#x20ac;" horiz-adv-x="1511" 
d="M440 481q61 -156 201.5 -252t312.5 -96q279 0 459 170v-176q-201 -152 -459 -152q-244 0 -435 141.5t-259 364.5h-242v125h215q-4 53 -4 80q0 23 4 68h-215v127h240q66 225 259.5 370.5t436.5 145.5q272 0 478 -183l-56 -153q-164 178 -422 178q-176 0 -316 -99.5
t-202 -258.5h879l-43 -127h-866q-4 -45 -5 -68q0 -39 7 -80h813l-43 -125h-738z" />
    <glyph glyph-name="uni20BD" unicode="&#x20bd;" horiz-adv-x="1312" 
d="M768 528h-379v-151h526v-141h-526v-236h-166v236h-141v141h141v151h-141v140h141v704h574q184 0 311 -121t127 -301q0 -176 -133 -299t-334 -123zM389 1233v-565h359q135 -4 228 78.5t93 203.5t-90 204t-219 79h-371z" />
    <glyph glyph-name="uni2113" unicode="&#x2113;" horiz-adv-x="989" 
d="M518 111q135 0 258 198l74 -86q-156 -248 -348 -248q-209 0 -262 322q-45 -29 -140 -82l-45 113q98 55 170 104q-4 111 -4 168q0 403 99.5 600t279.5 197q123 0 197.5 -86t74.5 -219q0 -172 -136 -357.5t-367 -351.5q24 -272 149 -272zM360 575v-47q375 291 375 562
q0 84 -36.5 136t-100.5 52q-115 0 -176.5 -182.5t-61.5 -520.5z" />
    <glyph glyph-name="uni2116" unicode="&#x2116;" horiz-adv-x="2478" 
d="M1241 1372h152v-1376h-86l-961 1087v-1083h-153v1376h86l962 -1087v1083zM2038 592q-158 0 -269.5 106.5t-111.5 257.5q0 150 111.5 256.5t269.5 106.5q156 0 267.5 -106.5t111.5 -256.5q0 -152 -111.5 -258t-267.5 -106zM2037.5 709q100.5 0 173.5 73.5t73 174t-73 172
t-173.5 71.5t-173 -71.5t-72.5 -172t72.5 -174t173 -73.5zM1675 438h748v-123h-748v123z" />
    <glyph glyph-name="trademark" unicode="&#x2122;" horiz-adv-x="1925" 
d="M748 1372v-119h-289v-606h-142v606h-290v119h721zM1735 1372h75v-725h-135v502l-301 -340h-49l-301 340v-502h-133v725h74l385 -405z" />
    <glyph glyph-name="partialdiff" unicode="&#x2202;" horiz-adv-x="1118" 
d="M559 -25q-197 0 -341 135.5t-144 325.5q0 180 131 313.5t313 133.5q203 0 311 -158q-123 416 -561 727h207q276 -203 422.5 -478.5t146.5 -504.5q0 -207 -141 -350.5t-344 -143.5zM559 127q133 0 226.5 93t93.5 226q0 131 -94.5 224.5t-225.5 93.5q-133 0 -226 -93
t-93 -224.5t93 -225.5t226 -94z" />
    <glyph glyph-name="product" unicode="&#x220f;" horiz-adv-x="1585" 
d="M1458 1475v-148h-178v-1778h-172v1778h-627v-1778h-174v1778h-182v148h1333z" />
    <glyph glyph-name="summation" unicode="&#x2211;" horiz-adv-x="1312" 
d="M406 -303h786v-148h-993v86l428 979l-426 775v86h948v-148h-729l385 -700z" />
    <glyph glyph-name="minus" unicode="&#x2212;" horiz-adv-x="1073" 
d="M954 770v-143h-835v143h835z" />
    <glyph glyph-name="radical" unicode="&#x221a;" horiz-adv-x="1101" 
d="M389 -291l-366 987h180l262 -737l448 1516h181l-547 -1766h-158z" />
    <glyph glyph-name="infinity" unicode="&#x221e;" horiz-adv-x="1445" 
d="M995 1044q135 0 230.5 -96t95.5 -231t-95.5 -231.5t-230.5 -96.5q-88 0 -161.5 42t-116.5 114q-43 -72 -118 -114t-161 -42q-137 0 -232 96.5t-95 231.5t95 231t232 96q86 0 161 -41.5t118 -113.5q43 72 116.5 113.5t161.5 41.5zM438 504q90 0 151.5 61.5t61.5 151.5
t-61.5 151.5t-151.5 61.5t-151.5 -61.5t-61.5 -151.5t61.5 -151.5t151.5 -61.5zM995 504q90 0 151.5 61.5t61.5 151.5t-61.5 151.5t-151.5 61.5t-151.5 -61.5t-61.5 -151.5t61.5 -151.5t151.5 -61.5z" />
    <glyph glyph-name="integral" unicode="&#x222b;" horiz-adv-x="1163" 
d="M995 1495q102 0 193 -37l-43 -135q-70 35 -148 35q-119 0 -192.5 -69.5t-83.5 -172.5l-115 -1222q-14 -154 -136 -259.5t-302 -105.5q-104 0 -191 37l43 135q66 -35 146 -35q119 0 192.5 69.5t83.5 172.5l115 1222q14 154 137 259.5t301 105.5z" />
    <glyph glyph-name="approxequal" unicode="&#x2248;" horiz-adv-x="1185" 
d="M139 772q4 147 63.5 226t153.5 79q66 0 147 -47t152.5 -93t116.5 -46q98 0 109 170h98q-6 -139 -58.5 -216t-136.5 -77q-70 0 -216 93t-206 93q-55 0 -88.5 -48t-35.5 -134h-99zM139 346q4 147 63.5 226t153.5 79q66 0 147 -47t152.5 -93t116.5 -46q98 0 109 170h98
q-6 -139 -58.5 -216t-136.5 -77q-70 0 -216 93t-206 93q-55 0 -88.5 -48t-35.5 -134h-99z" />
    <glyph glyph-name="notequal" unicode="&#x2260;" horiz-adv-x="1105" 
d="M1016 831h-266l-185 -266h451v-143h-549l-135 -197h-105l135 197h-182v143h281l184 266h-465v144h563l121 174h105l-121 -174h168v-144z" />
    <glyph glyph-name="lessequal" unicode="&#x2264;" horiz-adv-x="1093" 
d="M946 389l-803 318v129l803 315v-143l-635 -238l635 -235v-146zM958 188h-835v125h835v-125z" />
    <glyph glyph-name="greaterequal" unicode="&#x2265;" horiz-adv-x="1093" 
d="M147 389v146l635 235l-635 238v143l803 -315v-129zM135 188v125h836v-125h-836z" />
    <glyph glyph-name="lozenge" unicode="&#x25ca;" horiz-adv-x="1255" 
d="M629 -20l-508 725l508 694l506 -694zM305 705l324 -488l323 488l-323 464z" />
    <glyph glyph-name="i.locl" horiz-adv-x="518" 
d="M258 1192q-43 0 -73.5 30.5t-30.5 73.5q0 41 30.5 73t73.5 32t75 -32t32 -73q0 -43 -32 -73.5t-75 -30.5zM176 0v987h166v-987h-166z" />
    <glyph glyph-name="a.salt" horiz-adv-x="1230" 
d="M627 1010q188 0 318 -103.5t130 -263.5v-643h-139l-18 135q-188 -160 -429 -160q-162 0 -256 83t-94 210q0 129 98.5 215t280.5 86h389v74q0 96 -77.5 161.5t-202.5 65.5q-129 0 -212 -58t-83 -148h-164q-2 145 137.5 245.5t321.5 100.5zM307 272q0 -70 54.5 -113.5
t146.5 -43.5q98 0 209.5 41t189.5 110v180h-370q-111 0 -170.5 -47t-59.5 -127z" />
    <glyph glyph-name="aacute.aalt" horiz-adv-x="1230" 
d="M932 1466l-262 -323h-154l264 323h152zM627 1010q188 0 318 -103.5t130 -263.5v-643h-139l-18 135q-188 -160 -429 -160q-162 0 -256 83t-94 210q0 129 98.5 215t280.5 86h389v74q0 96 -77.5 161.5t-202.5 65.5q-129 0 -212 -58t-83 -148h-164q-2 145 137.5 245.5
t321.5 100.5zM307 272q0 -70 54.5 -113.5t146.5 -43.5q98 0 209.5 41t189.5 110v180h-370q-111 0 -170.5 -47t-59.5 -127z" />
    <glyph glyph-name="abreve.aalt" horiz-adv-x="1230" 
d="M623 1143q-129 0 -221.5 93t-92.5 224h125q0 -86 55.5 -146.5t133 -60.5t132 60.5t54.5 146.5h125q0 -131 -92 -224t-219 -93zM627 1010q188 0 318 -103.5t130 -263.5v-643h-139l-18 135q-188 -160 -429 -160q-162 0 -256 83t-94 210q0 129 98.5 215t280.5 86h389v74
q0 96 -77.5 161.5t-202.5 65.5q-129 0 -212 -58t-83 -148h-164q-2 145 137.5 245.5t321.5 100.5zM307 272q0 -70 54.5 -113.5t146.5 -43.5q98 0 209.5 41t189.5 110v180h-370q-111 0 -170.5 -47t-59.5 -127z" />
    <glyph glyph-name="acircumflex.aalt" horiz-adv-x="1230" 
d="M623 1368l-211 -225h-152l289 323h147l289 -323h-151zM627 1010q188 0 318 -103.5t130 -263.5v-643h-139l-18 135q-188 -160 -429 -160q-162 0 -256 83t-94 210q0 129 98.5 215t280.5 86h389v74q0 96 -77.5 161.5t-202.5 65.5q-129 0 -212 -58t-83 -148h-164
q-2 145 137.5 245.5t321.5 100.5zM307 272q0 -70 54.5 -113.5t146.5 -43.5q98 0 209.5 41t189.5 110v180h-370q-111 0 -170.5 -47t-59.5 -127z" />
    <glyph glyph-name="adieresis.aalt" horiz-adv-x="1230" 
d="M410 1192q-43 0 -74 30.5t-31 73.5q0 41 31 73t74 32t74.5 -32t31.5 -73q0 -43 -31.5 -73.5t-74.5 -30.5zM836 1192q-43 0 -74 30.5t-31 73.5q0 41 31 73t74 32t73.5 -32t30.5 -73q0 -43 -30.5 -73.5t-73.5 -30.5zM627 1010q188 0 318 -103.5t130 -263.5v-643h-139
l-18 135q-188 -160 -429 -160q-162 0 -256 83t-94 210q0 129 98.5 215t280.5 86h389v74q0 96 -77.5 161.5t-202.5 65.5q-129 0 -212 -58t-83 -148h-164q-2 145 137.5 245.5t321.5 100.5zM307 272q0 -70 54.5 -113.5t146.5 -43.5q98 0 209.5 41t189.5 110v180h-370
q-111 0 -170.5 -47t-59.5 -127z" />
    <glyph glyph-name="agrave.aalt" horiz-adv-x="1230" 
d="M762 1143h-152l-264 323h154zM627 1010q188 0 318 -103.5t130 -263.5v-643h-139l-18 135q-188 -160 -429 -160q-162 0 -256 83t-94 210q0 129 98.5 215t280.5 86h389v74q0 96 -77.5 161.5t-202.5 65.5q-129 0 -212 -58t-83 -148h-164q-2 145 137.5 245.5t321.5 100.5z
M307 272q0 -70 54.5 -113.5t146.5 -43.5q98 0 209.5 41t189.5 110v180h-370q-111 0 -170.5 -47t-59.5 -127z" />
    <glyph glyph-name="amacron.aalt" horiz-adv-x="1230" 
d="M938 1368v-111h-633v111h633zM627 1010q188 0 318 -103.5t130 -263.5v-643h-139l-18 135q-188 -160 -429 -160q-162 0 -256 83t-94 210q0 129 98.5 215t280.5 86h389v74q0 96 -77.5 161.5t-202.5 65.5q-129 0 -212 -58t-83 -148h-164q-2 145 137.5 245.5t321.5 100.5z
M307 272q0 -70 54.5 -113.5t146.5 -43.5q98 0 209.5 41t189.5 110v180h-370q-111 0 -170.5 -47t-59.5 -127z" />
    <glyph glyph-name="aogonek.aalt" horiz-adv-x="1230" 
d="M946 -201q0 -57 49 -98t125 -35v-104q-129 -16 -207.5 48t-78.5 154q0 109 131 236h-29l-18 135q-188 -160 -429 -160q-162 0 -256 83t-94 210q0 129 98.5 215t280.5 86h389v74q0 96 -77.5 161.5t-202.5 65.5q-129 0 -212 -58t-83 -148h-164q-2 145 137 245.5t322 100.5
q188 0 318 -103.5t130 -263.5v-643q-129 -109 -129 -201zM307 272q0 -70 54.5 -113.5t146.5 -43.5q98 0 209.5 41t189.5 110v180h-370q-111 0 -170.5 -47t-59.5 -127z" />
    <glyph glyph-name="aring.aalt" horiz-adv-x="1230" 
d="M623 1090q-94 0 -159 63.5t-65 153.5q0 88 64.5 150.5t159.5 62.5q92 0 156.5 -62.5t64.5 -150.5q0 -90 -64.5 -153.5t-156.5 -63.5zM622.5 1425q-51.5 0 -87 -34.5t-35.5 -83.5q0 -53 34.5 -88t88.5 -35q51 0 85.5 35.5t34.5 87.5q0 49 -34.5 83.5t-86 34.5zM627 1010
q188 0 318 -103.5t130 -263.5v-643h-139l-18 135q-188 -160 -429 -160q-162 0 -256 83t-94 210q0 129 98.5 215t280.5 86h389v74q0 96 -77.5 161.5t-202.5 65.5q-129 0 -212 -58t-83 -148h-164q-2 145 137.5 245.5t321.5 100.5zM307 272q0 -70 54.5 -113.5t146.5 -43.5
q98 0 209.5 41t189.5 110v180h-370q-111 0 -170.5 -47t-59.5 -127z" />
    <glyph glyph-name="atilde.aalt" horiz-adv-x="1230" 
d="M485 1352q-51 0 -83.5 -52.5t-34.5 -130.5h-99q4 147 63.5 225.5t153.5 78.5q55 0 100.5 -29t71 -63.5t57 -63.5t62.5 -29q43 0 69.5 48t31.5 122h98q-4 -139 -57.5 -216t-137.5 -77q-49 0 -92 29t-69.5 64.5t-62.5 64.5t-71 29zM627 1010q188 0 318 -103.5t130 -263.5
v-643h-139l-18 135q-188 -160 -429 -160q-162 0 -256 83t-94 210q0 129 98.5 215t280.5 86h389v74q0 96 -77.5 161.5t-202.5 65.5q-129 0 -212 -58t-83 -148h-164q-2 145 137.5 245.5t321.5 100.5zM307 272q0 -70 54.5 -113.5t146.5 -43.5q98 0 209.5 41t189.5 110v180h-370
q-111 0 -170.5 -47t-59.5 -127z" />
    <glyph glyph-name="ordfeminine.aalt" horiz-adv-x="868" 
d="M438 1315q135 0 229.5 -76t94.5 -184v-451h-119l-8 107q-131 -125 -309 -125q-104 0 -169 59.5t-65 149.5q0 88 70.5 149.5t197.5 61.5h271v49q0 68 -53.5 113.5t-137.5 45.5q-78 0 -134 -36.5t-58 -100.5l-129 10q8 104 105 166t214 62zM369 680q66 0 138.5 29.5
t123.5 83.5v131h-252q-70 0 -113 -35t-43 -88q0 -55 39 -88t107 -33z" />
    <glyph glyph-name="zero.oldstyle" horiz-adv-x="1284" 
d="M643 -25q-205 0 -348 139.5t-143 334.5v92q0 195 143 332t348 137q203 0 346.5 -137.5t143.5 -331.5v-92q0 -195 -143.5 -334.5t-346.5 -139.5zM643 127q131 0 225.5 91t94.5 222v109q0 131 -93.5 220t-226.5 89t-227 -89t-94 -220v-109q0 -133 95 -223t226 -90z" />
    <glyph glyph-name="one.oldstyle" horiz-adv-x="831" 
d="M393 0v780l-299 -147v162l377 192h96v-987h-174z" />
    <glyph glyph-name="two.oldstyle" horiz-adv-x="1155" 
d="M166 0v68l438 338q80 63 116 93.5t70.5 84t34.5 108.5q0 72 -62.5 124t-174.5 52q-117 0 -189.5 -60t-72.5 -153h-172q0 156 122.5 255.5t311.5 99.5q190 0 298.5 -90.5t108.5 -227.5q0 -70 -43 -140.5t-80.5 -105t-99.5 -81.5l-295 -226h561v-139h-872z" />
    <glyph glyph-name="three.oldstyle" horiz-adv-x="1175" 
d="M588 -410q-213 0 -338 117t-125 301h168q0 -121 80 -201.5t217 -80.5q139 0 219 78.5t80 199.5t-86 194.5t-223 73.5h-160v125h160q106 0 183 69t77 173t-70 172t-190 68q-119 0 -188.5 -69t-69.5 -173h-166q0 164 119.5 268.5t308.5 104.5q186 0 303 -98.5t117 -247.5
q0 -115 -71 -203t-185 -121q139 -31 223 -122t84 -228q0 -174 -127 -287t-340 -113z" />
    <glyph glyph-name="four.oldstyle" horiz-adv-x="1146" 
d="M1106 137v-125h-199v-397h-166v397h-692v99l739 876h119v-850h199zM246 137h495v598z" />
    <glyph glyph-name="five.oldstyle" horiz-adv-x="1198" 
d="M612 -410q-199 0 -339 121t-140 297l170 10q4 -121 94 -200.5t219 -79.5q123 0 212.5 91t89.5 216q0 129 -89.5 220t-212.5 91q-154 0 -274 -120l-149 61l92 690h688v-141h-555l-56 -455q119 106 281 107q182 0 314.5 -133.5t132.5 -319.5q0 -188 -140.5 -321.5
t-337.5 -133.5z" />
    <glyph glyph-name="six.oldstyle" horiz-adv-x="1198" 
d="M614.5 -25q-200.5 0 -343 138.5t-142.5 330.5q0 135 78 279l371 649h182l-301 -528q88 47 192 47q184 0 317.5 -133t133.5 -316q0 -193 -143.5 -330t-344 -137zM616 127q131 0 225.5 94t94.5 225.5t-93 224.5t-227 93q-131 0 -225 -93t-94 -225q0 -133 93 -226t226 -93z
" />
    <glyph glyph-name="seven.oldstyle" horiz-adv-x="1044" 
d="M319 -385l433 1223h-658v149h846v-94l-448 -1278h-173z" />
    <glyph glyph-name="eight.oldstyle" horiz-adv-x="1185" 
d="M596 -25q-188 0 -321.5 122t-133.5 300q2 131 77 234.5t202 142.5q-92 33 -146.5 112t-52.5 179q4 137 111.5 234.5t263.5 97.5t262.5 -97.5t106.5 -240.5q0 -94 -52.5 -171t-142.5 -114q125 -39 199.5 -142.5t74.5 -234.5q0 -176 -130 -299t-318 -123zM594 825
q92 0 154.5 63.5t62.5 153.5q0 92 -62.5 155t-154.5 63t-155.5 -62.5t-63.5 -155.5q0 -90 63.5 -153.5t155.5 -63.5zM594 127q119 0 201 82t82 200.5t-82 200.5t-201 82t-202 -82t-85 -200q0 -119 83 -201t204 -82z" />
    <glyph glyph-name="nine.oldstyle" horiz-adv-x="1173" 
d="M575 1010q197 0 334.5 -133.5t137.5 -319.5q0 -135 -74 -268l-361 -674h-182l309 567q-82 -49 -200 -49q-180 0 -309.5 126t-129.5 298q0 186 140 319.5t335 133.5zM573 860q-127 0 -216 -89t-89 -218q0 -121 89 -207t216 -86q129 0 218.5 86t89.5 207q0 129 -89.5 218
t-218.5 89z" />
    <glyph glyph-name="zero.tnum" horiz-adv-x="1128" 
d="M565 -25q-195 0 -333 141.5t-138 340.5v461q0 199 138.5 339t332.5 140q193 0 330 -140.5t137 -338.5v-461q0 -199 -137 -340.5t-330 -141.5zM565 127q121 0 210 93t89 229v477q0 135 -88 227t-211 92q-125 0 -213 -92t-88 -227v-477q0 -137 88 -229.5t213 -92.5z" />
    <glyph glyph-name="one.tnum" horiz-adv-x="1128" 
d="M698 141h369v-141h-938v141h399v1043l-374 -148v146l450 190h94v-1231z" />
    <glyph glyph-name="two.tnum" horiz-adv-x="1128" 
d="M123 0v94l520 574q66 70 99.5 112.5t62.5 105t29 124.5q0 100 -78 176t-193 76q-121 0 -201.5 -81t-80.5 -204h-166q0 186 128 303t322 117q186 0 310 -110.5t124 -270.5q0 -117 -51 -205t-164 -209l-413 -455h678v-147h-926z" />
    <glyph glyph-name="three.tnum" horiz-adv-x="1128" 
d="M563 -25q-211 0 -332.5 117t-121.5 301h165q0 -121 78 -201.5t211 -80.5q137 0 215 78.5t78 199.5t-84 194.5t-219 73.5h-156v125h156q104 0 180 70t76 174q0 102 -68.5 170t-187.5 68q-115 0 -182.5 -69t-67.5 -173h-166q0 164 119 269.5t303 105.5t299 -98.5
t115 -249.5q0 -115 -69.5 -203t-182.5 -121q135 -29 218 -121t83 -229q0 -174 -125 -287t-334 -113z" />
    <glyph glyph-name="four.tnum" horiz-adv-x="1128" 
d="M1094 522v-125h-197v-397h-166v397h-690v99l737 876h119v-850h197zM240 522h491v598z" />
    <glyph glyph-name="five.tnum" horiz-adv-x="1128" 
d="M578 -25q-195 0 -332 121t-137 297l170 10q4 -119 91 -199.5t210 -80.5q119 0 204.5 91t85.5 218q0 129 -85 219t-205 90q-150 0 -263 -120l-151 61l92 690h672v-139h-541l-53 -457q119 109 272 109q178 0 306 -134.5t128 -320.5q0 -188 -135.5 -321.5t-328.5 -133.5z
" />
    <glyph glyph-name="six.tnum" horiz-adv-x="1128" 
d="M578 -25q-197 0 -335.5 138.5t-138.5 328.5q0 141 76 279l359 651h180l-311 -569q84 88 208 88q178 0 308.5 -133t130.5 -316q0 -193 -141 -330t-336 -137zM578 127q127 0 219 94t92 225.5t-92 224.5t-219 93t-217.5 -93t-90.5 -225q0 -133 90.5 -226t217.5 -93z" />
    <glyph glyph-name="seven.tnum" horiz-adv-x="1128" 
d="M360 0l441 1223h-674v149h862v-94l-457 -1278h-172z" />
    <glyph glyph-name="eight.tnum" horiz-adv-x="1128" 
d="M565.5 -25q-184.5 0 -314.5 123t-130 299q2 131 75.5 234.5t196.5 142.5q-90 35 -143 113t-51 178q4 139 108.5 235.5t257.5 96.5q152 0 258.5 -97.5t106.5 -240.5q0 -94 -50.5 -171t-140.5 -114q121 -39 195 -142.5t74 -234.5q0 -176 -129 -299t-313.5 -123zM565 825
q88 0 149.5 63.5t61.5 153.5q0 92 -60.5 155t-150.5 63q-88 0 -150.5 -62.5t-62.5 -155.5q0 -90 62.5 -153.5t150.5 -63.5zM565 127q115 0 196 82t81 200.5t-81 200.5t-195.5 82t-195.5 -82t-83 -200q0 -119 80.5 -201t197.5 -82z" />
    <glyph glyph-name="nine.tnum" horiz-adv-x="1128" 
d="M551 1397q193 0 329 -134.5t136 -320.5q0 -139 -72 -268l-354 -674h-178l315 608q-82 -90 -213 -90q-174 0 -302 126t-128 298q0 186 138.5 320.5t328.5 134.5zM549 1245q-123 0 -211 -89t-88 -216q0 -123 88 -209t211 -86q125 0 213 86t88 209q0 127 -88 216t-213 89z
" />
    <glyph glyph-name="zero.tnum.oldstyle" horiz-adv-x="1128" 
d="M565 -25q-195 0 -333 139.5t-138 334.5v92q0 195 138.5 332t332.5 137q193 0 330 -137.5t137 -331.5v-92q0 -195 -137 -334.5t-330 -139.5zM565 127q121 0 210 91t89 222v109q0 131 -87 220t-212 89t-213 -89t-88 -220v-109q0 -133 88 -223t213 -90z" />
    <glyph glyph-name="one.tnum.oldstyle" horiz-adv-x="1128" 
d="M678 141h369v-141h-920v141h381v658l-373 -148v146l451 190h92v-846z" />
    <glyph glyph-name="two.tnum.oldstyle" horiz-adv-x="1128" 
d="M141 0v68l434 338q78 61 115 92.5t71 85t34 108.5q0 72 -62.5 124t-175.5 52q-115 0 -187.5 -60t-72.5 -153h-172q0 156 122 255.5t312.5 99.5t298 -90.5t107.5 -227.5q0 -70 -43 -140.5t-81 -105t-100 -81.5l-286 -226h565v-139h-879z" />
    <glyph glyph-name="three.tnum.oldstyle" horiz-adv-x="1128" 
d="M563 -410q-211 0 -332.5 117t-121.5 301h165q0 -121 78 -201.5t211 -80.5q137 0 215 78.5t78 199.5t-84 194.5t-219 73.5h-156v125h156q104 0 180 69t76 173q0 102 -68.5 171t-187.5 69q-115 0 -182.5 -69t-67.5 -173h-166q0 164 118 268.5t304 104.5q184 0 299 -98.5
t115 -247.5q0 -115 -69.5 -203t-182.5 -121q135 -29 218 -121t83 -229q0 -174 -125 -287t-334 -113z" />
    <glyph glyph-name="four.tnum.oldstyle" horiz-adv-x="1128" 
d="M1094 137v-125h-197v-397h-166v397h-690v99l737 876h119v-850h197zM240 137h491v598z" />
    <glyph glyph-name="five.tnum.oldstyle" horiz-adv-x="1128" 
d="M578 -410q-195 0 -332 121t-137 297l170 10q4 -121 91 -200.5t210 -79.5q119 0 204.5 91t85.5 216q0 129 -85 220t-205 91q-150 0 -263 -120l-151 61l92 690h672v-141h-541l-53 -455q117 106 272 107q178 0 306 -133.5t128 -319.5q0 -188 -135.5 -321.5t-328.5 -133.5z
" />
    <glyph glyph-name="six.tnum.oldstyle" horiz-adv-x="1128" 
d="M578 -25q-197 0 -335.5 138.5t-138.5 328.5q0 141 76 279l359 651h180l-311 -569q84 88 208 88q178 0 308.5 -133t130.5 -316q0 -193 -141 -330t-336 -137zM578 127q127 0 219 94t92 225.5t-92 224.5t-219 93t-217.5 -93t-90.5 -225q0 -133 90.5 -226t217.5 -93z" />
    <glyph glyph-name="seven.tnum.oldstyle" horiz-adv-x="1128" 
d="M360 -385l482 1223h-731v149h919v-94l-498 -1278h-172z" />
    <glyph glyph-name="eight.tnum.oldstyle" horiz-adv-x="1128" 
d="M565.5 -25q-184.5 0 -314.5 123t-130 299q2 131 75.5 234.5t196.5 142.5q-90 35 -143 113t-51 178q4 139 108.5 235.5t257.5 96.5q152 0 258.5 -97.5t106.5 -240.5q0 -94 -50.5 -171t-140.5 -114q121 -39 195 -142.5t74 -234.5q0 -176 -129 -299t-313.5 -123zM565 825
q88 0 149.5 63.5t61.5 153.5q0 92 -60.5 155t-150.5 63q-88 0 -150.5 -62.5t-62.5 -155.5q0 -90 62.5 -153.5t150.5 -63.5zM565 127q115 0 196 82t81 200.5t-81 200.5t-195.5 82t-195.5 -82t-83 -200q0 -119 80.5 -201t197.5 -82z" />
    <glyph glyph-name="nine.tnum.oldstyle" horiz-adv-x="1128" 
d="M551 1010q193 0 329 -133.5t136 -319.5q0 -139 -72 -268l-354 -674h-178l315 606q-82 -88 -213 -88q-174 0 -302 126t-128 298q0 186 138.5 319.5t328.5 133.5zM549 860q-123 0 -211 -90t-88 -217q0 -121 88 -207t211 -86q125 0 213 86t88 207q0 129 -87 218t-214 89z
" />
    <glyph glyph-name="zero.dnom" horiz-adv-x="882" 
d="M442 -14q-143 0 -244.5 96t-101.5 231v240q0 133 101.5 229.5t245 96.5t243.5 -96.5t100 -229.5v-240q0 -135 -101.5 -231t-242.5 -96zM442 100q86 0 149.5 59.5t63.5 147.5v250q0 88 -62.5 147.5t-150.5 59.5q-90 0 -152.5 -59.5t-62.5 -147.5v-250q0 -90 62.5 -148.5
t152.5 -58.5z" />
    <glyph glyph-name="one.dnom" horiz-adv-x="514" 
d="M229 0v721l-194 -84v108l258 119h65v-864h-129z" />
    <glyph glyph-name="two.dnom" horiz-adv-x="755" 
d="M74 0v70l350 362q125 117 125 201q0 59 -49 102t-123 43q-78 0 -130 -47t-52 -119h-127q0 119 88 193t221 74q129 0 214 -70t85 -172q0 -74 -36 -129t-105 -125l-275 -272h447v-111h-633z" />
    <glyph glyph-name="three.dnom" horiz-adv-x="757" 
d="M381 -14q-143 0 -227 73.5t-84 192.5h127q0 -70 50 -118t136 -48q90 0 139 46t49 118q0 70 -54 113t-140 43h-109v96h109q68 0 117 39t49 100q0 59 -45 98t-121 39q-74 0 -118 -39t-44 -98h-127q0 104 82 171t209 67t207 -61.5t80 -158.5q0 -70 -46.5 -125t-119.5 -77
q90 -20 144 -77.5t54 -141.5q0 -111 -86 -181.5t-231 -70.5z" />
    <glyph glyph-name="four.dnom" horiz-adv-x="743" 
d="M731 336v-94h-129v-242h-121v242h-463v73l496 549h88v-528h129zM158 336h327v364z" />
    <glyph glyph-name="five.dnom" horiz-adv-x="761" 
d="M391 -14q-135 0 -229 76.5t-94 187.5l131 6q2 -68 58 -114t136 -46q78 0 133.5 52.5t55.5 126t-55.5 126t-133.5 52.5q-98 0 -172 -72l-112 49l63 434h465v-106h-365l-34 -262q72 57 178 57q123 0 211 -83t88 -198q0 -119 -95.5 -202.5t-228.5 -83.5z" />
    <glyph glyph-name="six.dnom" horiz-adv-x="751" 
d="M375 -14q-135 0 -231.5 87t-96.5 208q0 88 53 180l242 403h139l-215 -356q59 55 142 55q121 0 207.5 -84t86.5 -198q0 -121 -96 -208t-231 -87zM377 98q82 0 140 55.5t58 131.5q0 74 -58 128t-140 54t-141.5 -54.5t-59.5 -127.5q0 -78 58.5 -132.5t142.5 -54.5z" />
    <glyph glyph-name="seven.dnom" horiz-adv-x="663" 
d="M188 0l283 750h-426v114h569v-69l-295 -795h-131z" />
    <glyph glyph-name="eight.dnom" horiz-adv-x="733" 
d="M369 -14q-129 0 -219.5 76.5t-90.5 189.5q0 80 50.5 144.5t134.5 90.5q-59 23 -96 72t-35 109q2 88 75.5 149.5t180.5 61.5q104 0 178 -61.5t74 -153.5q0 -125 -132 -177q84 -27 133.5 -90t49.5 -145q0 -111 -89 -188.5t-214 -77.5zM369 524q57 0 97 38t40 91
q0 51 -40 88t-97.5 37t-100.5 -36.5t-43 -88.5q0 -55 42.5 -92t101.5 -37zM369 94q74 0 127 49.5t53 119t-53.5 118.5t-126.5 49q-78 0 -132.5 -49t-54.5 -118.5t54.5 -119t132.5 -49.5z" />
    <glyph glyph-name="nine.dnom" horiz-adv-x="737" 
d="M369 879q133 0 226 -85t93 -204q0 -86 -51 -174l-236 -416h-139l211 369q-53 -47 -133 -47q-119 0 -206 80.5t-87 189.5q0 117 95.5 202t226.5 85zM369 766q-80 0 -136.5 -52t-56.5 -126q0 -70 56.5 -120t136.5 -50q78 0 135 50t57 120q0 74 -56 126t-136 52z" />
    <glyph glyph-name="zero.numr" horiz-adv-x="882" 
d="M442 498q-143 0 -244.5 96t-101.5 231v240q0 133 101.5 229.5t245 96.5t243.5 -96.5t100 -229.5v-240q0 -135 -101.5 -231t-242.5 -96zM442 612q86 0 149.5 59.5t63.5 147.5v250q0 88 -62.5 147.5t-150.5 59.5q-90 0 -152.5 -59.5t-62.5 -147.5v-250q0 -90 62.5 -148.5
t152.5 -58.5z" />
    <glyph glyph-name="one.numr" horiz-adv-x="514" 
d="M229 512v721l-194 -84v108l258 119h65v-864h-129z" />
    <glyph glyph-name="two.numr" horiz-adv-x="755" 
d="M74 512v70l350 362q125 117 125 201q0 59 -49 102t-123 43q-78 0 -130 -47t-52 -119h-127q0 119 88 193t221 74q129 0 214 -70t85 -172q0 -74 -36 -129t-105 -125l-275 -272h447v-111h-633z" />
    <glyph glyph-name="three.numr" horiz-adv-x="757" 
d="M381 498q-143 0 -227 73.5t-84 192.5h127q0 -70 50 -118t136 -48q90 0 139 46t49 118q0 70 -54 113t-140 43h-109v96h109q68 0 117 39t49 100q0 59 -45 98t-121 39q-74 0 -118 -39t-44 -98h-127q0 104 82 171t209 67t207 -61.5t80 -158.5q0 -70 -46.5 -125t-119.5 -77
q90 -20 144 -77.5t54 -141.5q0 -111 -86 -181.5t-231 -70.5z" />
    <glyph glyph-name="four.numr" horiz-adv-x="743" 
d="M731 848v-94h-129v-242h-121v242h-463v73l496 549h88v-528h129zM158 848h327v364z" />
    <glyph glyph-name="five.numr" horiz-adv-x="761" 
d="M391 498q-135 0 -229 76.5t-94 187.5l131 6q2 -68 58 -114t136 -46q78 0 133.5 52.5t55.5 126t-55.5 126t-133.5 52.5q-98 0 -172 -72l-112 49l63 434h465v-106h-365l-34 -262q72 57 178 57q123 0 211 -83t88 -198q0 -119 -95.5 -202.5t-228.5 -83.5z" />
    <glyph glyph-name="six.numr" horiz-adv-x="751" 
d="M375 498q-135 0 -231.5 87t-96.5 208q0 88 53 180l242 403h139l-215 -356q59 55 142 55q121 0 207.5 -84t86.5 -198q0 -121 -96 -208t-231 -87zM377 610q82 0 140 55.5t58 131.5q0 74 -58 128t-140 54t-141.5 -54.5t-59.5 -127.5q0 -78 58.5 -132.5t142.5 -54.5z" />
    <glyph glyph-name="seven.numr" horiz-adv-x="663" 
d="M188 512l283 750h-426v114h569v-69l-295 -795h-131z" />
    <glyph glyph-name="eight.numr" horiz-adv-x="733" 
d="M369 498q-129 0 -219.5 76.5t-90.5 189.5q0 80 50.5 144.5t134.5 90.5q-59 23 -96 72t-35 109q2 88 75.5 149.5t180.5 61.5q104 0 178 -61.5t74 -153.5q0 -125 -132 -177q84 -27 133.5 -90t49.5 -145q0 -111 -89 -188.5t-214 -77.5zM369 1036q57 0 97 38t40 91
q0 51 -40 88t-97.5 37t-100.5 -36.5t-43 -88.5q0 -55 42.5 -92t101.5 -37zM369 606q74 0 127 49.5t53 119t-53.5 118.5t-126.5 49q-78 0 -132.5 -49t-54.5 -118.5t54.5 -119t132.5 -49.5z" />
    <glyph glyph-name="nine.numr" horiz-adv-x="737" 
d="M369 1391q133 0 226 -85t93 -204q0 -86 -51 -174l-236 -416h-139l211 369q-53 -47 -133 -47q-119 0 -206 80.5t-87 189.5q0 117 95.5 202t226.5 85zM369 1278q-80 0 -136.5 -52t-56.5 -126q0 -70 56.5 -120t136.5 -50q78 0 135 50t57 120q0 74 -56 126t-136 52z" />
    <glyph glyph-name="exclamdown.aalt" horiz-adv-x="550" 
d="M276.5 1397q53.5 0 91.5 -38t38 -91q0 -51 -39 -90t-91 -39q-53 0 -92 37.5t-39 91t39 91.5t92.5 38zM193 930h165v-930h-165v930z" />
    <glyph glyph-name="questiondown.aalt" horiz-adv-x="1038" 
d="M528 1393q51 0 87 -36t36 -85t-35.5 -85t-87.5 -36q-49 0 -85.5 36t-36.5 85t36.5 85t85.5 36zM610 1004v-80q0 -82 -37.5 -142.5t-91 -98.5t-106.5 -75t-91 -95t-38 -138q0 -109 80 -185.5t194 -76.5q117 0 198 81.5t81 211.5h166q0 -182 -130 -306.5t-312.5 -124.5
t-312.5 118t-130 284q0 92 38 161.5t91 111.5t107.5 80t92 88t37.5 114v72h164z" />
    <glyph glyph-name="braceleft.aalt" horiz-adv-x="813" 
d="M618 -289q-133 0 -228 93.5t-95 222.5v458q0 57 -38 95t-91 38h-80v142h80q53 0 91 38t38 93v446q0 131 95 224.5t228 93.5h162v-150h-137q-72 0 -124 -52t-52 -124v-448q0 -66 -36 -120t-101 -73q66 -20 101.5 -72.5t35.5 -117.5v-461q0 -72 52 -124t124 -52h137v-150
h-162z" />
    <glyph glyph-name="braceright.aalt" horiz-adv-x="813" 
d="M195 -289h-162v150h137q72 0 124 52t52 124v461q0 66 36 118t101 72q-66 18 -101.5 72.5t-35.5 120.5v448q0 72 -52 124t-124 52h-137v150h162q133 0 228 -93.5t95 -224.5v-446q0 -55 38 -93t91 -38h80v-142h-80q-53 0 -91 -37.5t-38 -95.5v-458q0 -129 -95 -222.5
t-228 -93.5z" />
    <glyph glyph-name="bracketleft.aalt" horiz-adv-x="796" 
d="M772 1505h-414v-1642h414v-142h-579v1926h579v-142z" />
    <glyph glyph-name="bracketright.aalt" horiz-adv-x="796" 
d="M604 1647v-1926h-579v142h413v1642h-413v142h579z" />
    <glyph glyph-name="parenleft.aalt" horiz-adv-x="811" 
d="M795 1499q-225 -98 -363.5 -315t-138.5 -490q0 -266 139 -488t363 -317v-168q-295 106 -481.5 377t-186.5 596q0 330 185.5 596t482.5 377v-168z" />
    <glyph glyph-name="parenright.aalt" horiz-adv-x="811" 
d="M16 1499v168q297 -111 482.5 -377t185.5 -596q0 -326 -186.5 -596t-481.5 -377v168q223 94 362.5 316.5t139.5 488.5q0 272 -138.5 489.5t-363.5 315.5z" />
    <glyph glyph-name="emdash.aalt" horiz-adv-x="1830" 
d="M1712 774v-141h-1595v141h1595z" />
    <glyph glyph-name="endash.aalt" horiz-adv-x="1206" 
d="M1085 774v-141h-966v141h966z" />
    <glyph glyph-name="hyphen.aalt" horiz-adv-x="806" 
d="M688 774v-141h-569v141h569z" />
    <glyph glyph-name="guillemotleft.aalt" horiz-adv-x="1157" 
d="M612 1075l-350 -373l350 -372h-186l-356 372l356 373h186zM1065 1075l-350 -373l350 -372h-186l-357 372l357 373h186z" />
    <glyph glyph-name="guillemotright.aalt" horiz-adv-x="1157" 
d="M92 1075h187l356 -373l-356 -372h-187l350 372zM545 1075h186l356 -373l-356 -372h-186l350 372z" />
    <glyph glyph-name="guilsinglleft.aalt" horiz-adv-x="712" 
d="M612 905l-350 -373l350 -372h-186l-356 372l356 373h186z" />
    <glyph glyph-name="guilsinglright.aalt" horiz-adv-x="704" 
d="M92 1075h187l356 -373l-356 -372h-187l350 372z" />
    <glyph glyph-name="at.aalt" horiz-adv-x="1933" 
d="M958 -213q-352 0 -608 250t-256 604q0 352 257 601t634 249q375 0 614.5 -246t239.5 -598q0 -197 -80 -318.5t-215 -121.5q-96 0 -167.5 61.5t-90.5 169.5q-37 -102 -136 -164.5t-218 -62.5q-166 0 -292 122t-126 302t126 302t290 122q109 0 202 -53.5t125 -133.5h3
l6 168h129v-485q0 -104 40 -162.5t103 -58.5q80 0 117 86t37 213q0 322 -199 521.5t-506 199.5q-319 0 -532 -208t-213 -505q0 -301 214 -510t509 -209q205 0 370 117l74 -113q-197 -139 -451 -139zM956.5 342q120.5 0 206.5 86t86 207q0 119 -86 205t-206.5 86t-206.5 -86
t-86 -205t86 -206t206.5 -87z" />
    <glyph glyph-name="glyph537" 
d="M-264 1460h133q0 -131 -94 -224t-226 -93q-133 0 -227 93t-94 224h133q0 -92 54.5 -153.5t133.5 -61.5q78 0 132.5 61.5t54.5 153.5z" />
    </font>
</defs>
</svg>
